<?xml version="1.0" encoding="UTF-8"?>
<!DOCTYPE svg PUBLIC "-//W3C//DTD SVG 1.1//EN" "http://www.w3.org/Graphics/SVG/1.1/DTD/svg11.dtd">
<svg xmlns="http://www.w3.org/2000/svg" version="1.1" width="302px" height="194px" style="shape-rendering:geometricPrecision; text-rendering:geometricPrecision; image-rendering:optimizeQuality; fill-rule:evenodd; clip-rule:evenodd" xmlns:xlink="http://www.w3.org/1999/xlink">
<g><path style="opacity:1" fill="#fefdfd" d="M -0.5,-0.5 C 100.167,-0.5 200.833,-0.5 301.5,-0.5C 301.5,43.5 301.5,87.5 301.5,131.5C 299.494,130.583 297.16,130.583 294.5,131.5C 292.046,130.773 289.713,129.773 287.5,128.5C 286.101,127.11 284.434,126.11 282.5,125.5C 278.91,124.372 275.577,122.705 272.5,120.5C 271.195,117.947 270.195,115.28 269.5,112.5C 268.975,111.808 268.308,111.308 267.5,111C 268.022,110.439 268.355,109.772 268.5,109C 267.411,106.416 266.411,103.916 265.5,101.5C 263.671,100.226 263.338,98.7257 264.5,97C 263.773,93.3292 261.773,90.8292 258.5,89.5C 258.795,87.2646 258.461,85.2646 257.5,83.5C 254.921,82.7724 252.254,82.2724 249.5,82C 251.833,81.6667 254.167,81.3333 256.5,81C 251.738,72.7486 246.071,65.2486 239.5,58.5C 239.953,54.5743 238.62,51.4077 235.5,49C 236.167,48.6667 236.833,48.3333 237.5,48C 235.048,47.7105 232.715,47.0438 230.5,46C 231.833,45.3333 231.833,44.6667 230.5,44C 228.336,43.0857 226.336,41.919 224.5,40.5C 223.914,40.7093 223.414,41.0426 223,41.5C 222.261,37.332 219.428,35.332 214.5,35.5C 212.343,34.5933 210.01,33.9267 207.5,33.5C 207.586,32.5041 207.252,31.6708 206.5,31C 204.5,30.6667 202.5,30.3333 200.5,30C 201.634,28.984 201.301,28.3173 199.5,28C 196.568,27.0467 193.568,26.5467 190.5,26.5C 188.972,25.6908 187.306,25.0241 185.5,24.5C 180.933,23.2111 176.266,22.2111 171.5,21.5C 171.709,20.914 172.043,20.414 172.5,20C 171.897,18.1746 171.23,16.3413 170.5,14.5C 169.158,12.9951 167.492,12.3285 165.5,12.5C 165.5,10.8333 165.5,9.16667 165.5,7.5C 163.767,4.31484 161.267,3.64817 158,5.5C 155.474,4.93587 152.974,4.2692 150.5,3.5C 148.555,4.12759 146.888,5.12759 145.5,6.5C 141.116,6.17443 136.783,6.50776 132.5,7.5C 130.771,9.85111 130.104,12.5178 130.5,15.5C 134.849,14.4596 139.182,14.4596 143.5,15.5C 139.63,17.5115 135.63,18.0115 131.5,17C 131.011,18.7643 131.011,20.2643 131.5,21.5C 130.778,22.5511 129.778,23.2178 128.5,23.5C 128.083,22.8761 127.416,22.5427 126.5,22.5C 124.5,23 122.5,23.5 120.5,24C 119.027,24.7096 118.36,25.8762 118.5,27.5C 113.6,27.0328 108.933,27.6994 104.5,29.5C 103.29,29.9321 102.29,30.5987 101.5,31.5C 100.5,31.5 99.5,31.5 98.5,31.5C 97.325,31.281 96.325,31.6143 95.5,32.5C 96.7111,33.7202 96.7111,34.8869 95.5,36C 93.6183,36.1981 91.9516,36.6981 90.5,37.5C 86.0819,41.554 81.0819,44.8873 75.5,47.5C 68.9871,48.157 65.9871,51.8236 66.5,58.5C 64.7988,58.9662 63.2988,58.9662 62,58.5C 61.1475,60.1247 60.1475,60.4581 59,59.5C 58.3076,60.0253 57.8076,60.6919 57.5,61.5C 58.2458,62.7362 58.5792,64.0695 58.5,65.5C 55.8978,70.5289 52.8978,75.3623 49.5,80C 50.8333,80.6667 52.1667,81.3333 53.5,82C 47.2619,81.9024 45.2619,84.7357 47.5,90.5C 46.209,90.2627 45.209,90.596 44.5,91.5C 43.5416,91.9528 42.7083,92.6195 42,93.5C 40.2099,98.0786 38.7099,102.745 37.5,107.5C 37.6082,108.442 37.9415,109.275 38.5,110C 35.4466,111.581 34.78,113.914 36.5,117C 33.1667,119 30.5,121.667 28.5,125C 24.5102,126.607 20.5102,128.107 16.5,129.5C 13.9333,130.475 11.2666,131.142 8.5,131.5C 7.54885,132.919 7.21552,134.585 7.5,136.5C 20.8333,136.5 34.1667,136.5 47.5,136.5C 47.5386,137.756 47.0386,138.756 46,139.5C 44.6667,139.5 43.3333,139.5 42,139.5C 40.3948,141.825 38.7281,144.158 37,146.5C 31.2159,145.857 25.2159,145.191 19,144.5C 16.5054,145.054 14.1721,145.054 12,144.5C 10.5405,144.808 9.37386,145.475 8.5,146.5C 8.17056,161.676 8.50389,176.676 9.5,191.5C 12.5,191.5 15.5,191.5 18.5,191.5C 18.5,186.167 18.5,180.833 18.5,175.5C 27.2425,176.675 33.9092,173.675 38.5,166.5C 39.1174,166.611 39.6174,166.944 40,167.5C 40.9094,162.731 41.7427,162.565 42.5,167C 42.7365,172.086 42.4032,177.586 41.5,183.5C 41.5217,186.59 42.1883,189.257 43.5,191.5C 43.8333,191.5 44.1667,191.5 44.5,191.5C 47.5,191.5 50.5,191.5 53.5,191.5C 54.3213,188.359 54.8213,185.025 55,181.5C 55.4577,184.181 56.291,186.681 57.5,189C 57.2272,190.533 56.8938,192.033 56.5,193.5C 37.5,193.5 18.5,193.5 -0.5,193.5C -0.5,128.833 -0.5,64.1667 -0.5,-0.5 Z"/></g>
<g><path style="opacity:1" fill="#e0d4cb" d="M 165.5,7.5 C 162.011,7.13733 158.511,6.804 155,6.5C 151.728,8.00105 147.561,8.66771 142.5,8.5C 139.833,8.33333 137.167,8.16667 134.5,8C 138.356,7.8227 142.023,7.3227 145.5,6.5C 146.888,5.12759 148.555,4.12759 150.5,3.5C 152.974,4.2692 155.474,4.93587 158,5.5C 161.267,3.64817 163.767,4.31484 165.5,7.5 Z"/></g>
<g><path style="opacity:1" fill="#dccbc0" d="M 185.5,24.5 C 187.306,25.0241 188.972,25.6908 190.5,26.5C 185.125,26.1718 179.792,26.5052 174.5,27.5C 175.729,28.2811 177.062,28.7811 178.5,29C 176.256,29.0496 174.589,29.8829 173.5,31.5C 172.027,30.9285 170.36,30.9285 168.5,31.5C 170.319,30.0638 170.652,28.3971 169.5,26.5C 166.557,25.7565 163.557,25.2565 160.5,25C 161.167,24.6667 161.833,24.3333 162.5,24C 168.043,23.7055 173.543,24.2055 179,25.5C 181.361,25.4961 183.527,25.1627 185.5,24.5 Z"/></g>
<g><path style="opacity:1" fill="#3a1b0d" d="M 145.5,6.5 C 142.023,7.3227 138.356,7.8227 134.5,8C 137.167,8.16667 139.833,8.33333 142.5,8.5C 147.561,8.66771 151.728,8.00105 155,6.5C 158.511,6.804 162.011,7.13733 165.5,7.5C 165.5,9.16667 165.5,10.8333 165.5,12.5C 167.492,12.3285 169.158,12.9951 170.5,14.5C 171.23,16.3413 171.897,18.1746 172.5,20C 172.043,20.414 171.709,20.914 171.5,21.5C 176.266,22.2111 180.933,23.2111 185.5,24.5C 183.527,25.1627 181.361,25.4961 179,25.5C 173.543,24.2055 168.043,23.7055 162.5,24C 161.833,24.3333 161.167,24.6667 160.5,25C 163.557,25.2565 166.557,25.7565 169.5,26.5C 170.652,28.3971 170.319,30.0638 168.5,31.5C 164.131,31.5328 159.798,31.1995 155.5,30.5C 155.5,32.5 155.5,34.5 155.5,36.5C 153.801,36.3398 152.134,36.5065 150.5,37C 151.025,37.6924 151.692,38.1924 152.5,38.5C 156.317,36.6987 160.317,35.3653 164.5,34.5C 169.008,37.3752 169.674,41.0418 166.5,45.5C 167.32,47.9426 166.653,50.1092 164.5,52C 160.759,53.0141 157.093,53.8474 153.5,54.5C 148.489,54.6659 143.489,54.4993 138.5,54C 137.956,53.2828 137.289,52.7828 136.5,52.5C 136.326,50.139 135.993,47.8056 135.5,45.5C 138.518,45.6646 141.518,45.498 144.5,45C 142.552,44.0168 140.718,42.8502 139,41.5C 138.517,42.448 138.351,43.448 138.5,44.5C 136.876,44.6399 135.71,43.9733 135,42.5C 134.5,40.5 134,38.5 133.5,36.5C 135.184,34.9235 135.518,33.2568 134.5,31.5C 132.024,28.7118 131.024,25.3785 131.5,21.5C 131.011,20.2643 131.011,18.7643 131.5,17C 135.63,18.0115 139.63,17.5115 143.5,15.5C 139.182,14.4596 134.849,14.4596 130.5,15.5C 130.104,12.5178 130.771,9.85111 132.5,7.5C 136.783,6.50776 141.116,6.17443 145.5,6.5 Z"/></g>
<g><path style="opacity:1" fill="#c9b2a2" d="M 149.5,24.5 C 145.534,23.8379 141.534,23.5045 137.5,23.5C 137.791,22.3509 138.624,21.6842 140,21.5C 144.144,22.1645 148.311,22.6645 152.5,23C 152.833,23.3333 153.167,23.6667 153.5,24C 152.207,24.49 150.873,24.6567 149.5,24.5 Z"/></g>
<g><path style="opacity:1" fill="#dfd1c8" d="M 147.5,13.5 C 151.182,13.3347 154.848,13.5014 158.5,14C 161.244,17.7116 160.744,18.2116 157,15.5C 154.644,18.9479 151.811,19.2813 148.5,16.5C 143.504,17.4849 143.171,16.4849 147.5,13.5 Z"/></g>
<g><path style="opacity:1" fill="#3c1503" d="M 137.5,23.5 C 141.534,23.5045 145.534,23.8379 149.5,24.5C 149.611,25.1174 149.944,25.6174 150.5,26C 155.167,26.3333 159.833,26.6667 164.5,27C 165.821,28.5445 165.488,29.7112 163.5,30.5C 162.522,30.0233 161.689,29.3567 161,28.5C 157.924,29.2883 154.758,29.7883 151.5,30C 151.384,31.2682 151.051,32.6015 150.5,34C 148.236,34.2362 146.069,34.7362 144,35.5C 140.752,34.2539 137.585,32.9205 134.5,31.5C 135.345,29.0883 135.345,26.9216 134.5,25C 135.244,23.9614 136.244,23.4614 137.5,23.5 Z"/></g>
<g><path style="opacity:1" fill="#af9a8d" d="M 104.5,29.5 C 105.609,30.29 106.942,30.79 108.5,31C 106.19,31.4966 103.857,31.6633 101.5,31.5C 102.29,30.5987 103.29,29.9321 104.5,29.5 Z"/></g>
<g><path style="opacity:1" fill="#e4d5cb" d="M 131.5,21.5 C 131.024,25.3785 132.024,28.7118 134.5,31.5C 135.518,33.2568 135.184,34.9235 133.5,36.5C 134,38.5 134.5,40.5 135,42.5C 135.71,43.9733 136.876,44.6399 138.5,44.5C 138.351,43.448 138.517,42.448 139,41.5C 140.718,42.8502 142.552,44.0168 144.5,45C 141.518,45.498 138.518,45.6646 135.5,45.5C 135.993,47.8056 136.326,50.139 136.5,52.5C 135.596,51.791 135.263,50.791 135.5,49.5C 134.5,49.5 133.5,49.5 132.5,49.5C 132.219,45.8121 131.719,42.1454 131,38.5C 130.167,37.6667 129.333,36.8333 128.5,36C 125.833,35.6667 123.167,35.3333 120.5,35C 123.854,34.5448 127.187,34.0448 130.5,33.5C 131.228,29.7812 130.228,26.7812 127.5,24.5C 127.624,23.8933 127.957,23.56 128.5,23.5C 129.778,23.2178 130.778,22.5511 131.5,21.5 Z"/></g>
<g><path style="opacity:1" fill="#3b1b0e" d="M 128.5,23.5 C 127.957,23.56 127.624,23.8933 127.5,24.5C 130.228,26.7812 131.228,29.7812 130.5,33.5C 127.187,34.0448 123.854,34.5448 120.5,35C 123.167,35.3333 125.833,35.6667 128.5,36C 129.333,36.8333 130.167,37.6667 131,38.5C 131.719,42.1454 132.219,45.8121 132.5,49.5C 131.251,51.1361 129.584,52.3028 127.5,53C 123.355,54.2136 119.355,55.7136 115.5,57.5C 113.076,57.8076 110.743,57.4742 108.5,56.5C 105.912,52.326 103.579,47.9926 101.5,43.5C 107.284,44.7804 113.284,44.7804 119.5,43.5C 121.103,43.6882 122.437,43.1882 123.5,42C 120.746,41.7276 118.079,41.2276 115.5,40.5C 116.263,39.7321 117.263,39.2321 118.5,39C 117.167,38 115.833,37 114.5,36C 115.956,35.5774 116.456,34.7441 116,33.5C 113.794,34.3521 111.627,35.3521 109.5,36.5C 106.296,35.253 103.63,36.0864 101.5,39C 99.3594,39.8837 97.6927,39.3837 96.5,37.5C 97.1717,35.4705 97.8384,33.4705 98.5,31.5C 99.5,31.5 100.5,31.5 101.5,31.5C 103.857,31.6633 106.19,31.4966 108.5,31C 106.942,30.79 105.609,30.29 104.5,29.5C 108.933,27.6994 113.6,27.0328 118.5,27.5C 118.36,25.8762 119.027,24.7096 120.5,24C 122.5,23.5 124.5,23 126.5,22.5C 127.416,22.5427 128.083,22.8761 128.5,23.5 Z"/></g>
<g><path style="opacity:1" fill="#3c1e12" d="M 190.5,26.5 C 193.568,26.5467 196.568,27.0467 199.5,28C 201.301,28.3173 201.634,28.984 200.5,30C 202.5,30.3333 204.5,30.6667 206.5,31C 207.252,31.6708 207.586,32.5041 207.5,33.5C 207.509,35.3084 207.009,36.9751 206,38.5C 204.391,41.4068 202.558,44.0734 200.5,46.5C 198.888,44.0369 199.388,42.0369 202,40.5C 203.149,37.6074 203.649,34.6074 203.5,31.5C 198.533,32.1736 194.2,30.8403 190.5,27.5C 190.167,27.6667 189.833,27.8333 189.5,28C 190.894,28.956 191.561,30.2894 191.5,32C 190.563,37.0522 187.563,39.2189 182.5,38.5C 180.5,38.5 178.5,38.5 176.5,38.5C 175.5,38.5 174.5,38.5 173.5,38.5C 173.561,35.9505 174.894,34.4505 177.5,34C 176.142,33.0656 174.808,32.2323 173.5,31.5C 174.589,29.8829 176.256,29.0496 178.5,29C 177.062,28.7811 175.729,28.2811 174.5,27.5C 179.792,26.5052 185.125,26.1718 190.5,26.5 Z"/></g>
<g><path style="opacity:1" fill="#e7d9cb" d="M 185.5,31.5 C 189.123,32.4114 189.29,33.7447 186,35.5C 184.795,34.9288 183.628,34.2621 182.5,33.5C 183.602,32.8243 184.602,32.1577 185.5,31.5 Z"/></g>
<g><path style="opacity:1" fill="#d9c3b5" d="M 138.5,35.5 C 141.169,37.0873 144.169,37.9206 147.5,38C 144.5,38.3333 141.5,38.6667 138.5,39C 138,39.5 137.5,40 137,40.5C 136.387,38.5048 136.887,36.8381 138.5,35.5 Z"/></g>
<g><path style="opacity:1" fill="#3c1705" d="M 200.5,46.5 C 199.147,50.0321 197.147,53.1988 194.5,56C 192.833,56.6667 191.167,56.6667 189.5,56C 186.397,54.1737 183.063,52.8404 179.5,52C 180.5,51.6667 181.5,51.3333 182.5,51C 180.623,50.4242 178.789,50.5909 177,51.5C 175.775,51.1377 174.609,50.6377 173.5,50C 173.656,46.8914 173.323,43.7247 172.5,40.5C 176.329,41.069 179.663,40.4023 182.5,38.5C 187.563,39.2189 190.563,37.0522 191.5,32C 191.561,30.2894 190.894,28.956 189.5,28C 189.833,27.8333 190.167,27.6667 190.5,27.5C 194.2,30.8403 198.533,32.1736 203.5,31.5C 203.649,34.6074 203.149,37.6074 202,40.5C 199.388,42.0369 198.888,44.0369 200.5,46.5 Z"/></g>
<g><path style="opacity:1" fill="#efe7df" d="M 98.5,31.5 C 97.8384,33.4705 97.1717,35.4705 96.5,37.5C 97.6927,39.3837 99.3594,39.8837 101.5,39C 103.63,36.0864 106.296,35.253 109.5,36.5C 111.627,35.3521 113.794,34.3521 116,33.5C 116.456,34.7441 115.956,35.5774 114.5,36C 115.833,37 117.167,38 118.5,39C 117.263,39.2321 116.263,39.7321 115.5,40.5C 115.082,41.2216 114.416,41.7216 113.5,42C 115.708,42.1909 117.708,42.6909 119.5,43.5C 113.284,44.7804 107.284,44.7804 101.5,43.5C 103.579,47.9926 105.912,52.326 108.5,56.5C 110.743,57.4742 113.076,57.8076 115.5,57.5C 113.369,58.3138 111.036,58.8138 108.5,59C 107.239,61.0596 105.572,62.5596 103.5,63.5C 105.333,61.5043 105.833,59.171 105,56.5C 102.488,52.8101 100.488,48.8101 99,44.5C 97.3333,43.8333 95.6667,43.1667 94,42.5C 93.2888,40.6332 93.7888,39.1332 95.5,38C 93.8659,37.5065 92.1992,37.3398 90.5,37.5C 91.9516,36.6981 93.6183,36.1981 95.5,36C 96.7111,34.8869 96.7111,33.7202 95.5,32.5C 96.325,31.6143 97.325,31.281 98.5,31.5 Z"/></g>
<g><path style="opacity:1" fill="#7c6154" d="M 115.5,40.5 C 118.079,41.2276 120.746,41.7276 123.5,42C 122.437,43.1882 121.103,43.6882 119.5,43.5C 117.708,42.6909 115.708,42.1909 113.5,42C 114.416,41.7216 115.082,41.2216 115.5,40.5 Z"/></g>
<g><path style="opacity:1" fill="#9c7f6f" d="M 119.5,44.5 C 122.247,44.1866 124.914,44.52 127.5,45.5C 126.167,45.8333 124.833,46.1667 123.5,46.5C 121.667,46.4146 120.334,45.7479 119.5,44.5 Z"/></g>
<g><path style="opacity:1" fill="#967766" d="M 149.5,44.5 C 151.503,43.4684 153.503,43.8018 155.5,45.5C 153.243,46.7698 151.243,46.4364 149.5,44.5 Z"/></g>
<g><path style="opacity:1" fill="#3c1808" d="M 90.5,37.5 C 92.1992,37.3398 93.8659,37.5065 95.5,38C 93.7888,39.1332 93.2888,40.6332 94,42.5C 95.6667,43.1667 97.3333,43.8333 99,44.5C 100.488,48.8101 102.488,52.8101 105,56.5C 105.833,59.171 105.333,61.5043 103.5,63.5C 100.764,65.1957 97.7643,66.3623 94.5,67C 95.1667,67.3333 95.8333,67.6667 96.5,68C 94.6508,69.093 92.9842,70.4263 91.5,72C 89.6354,73.3014 87.6354,73.6347 85.5,73C 86.5,72.6667 87.5,72.3333 88.5,72C 85.7111,71.7586 83.0444,71.092 80.5,70C 76.3333,66.5 72.1667,63 68,59.5C 67.3333,57.8333 67.3333,56.1667 68,54.5C 70.4786,52.0343 72.9786,49.701 75.5,47.5C 81.0819,44.8873 86.0819,41.554 90.5,37.5 Z"/></g>
<g><path style="opacity:1" fill="#faf6f1" d="M 168.5,31.5 C 170.36,30.9285 172.027,30.9285 173.5,31.5C 174.808,32.2323 176.142,33.0656 177.5,34C 174.894,34.4505 173.561,35.9505 173.5,38.5C 174.5,38.5 175.5,38.5 176.5,38.5C 175.167,39.1667 173.833,39.8333 172.5,40.5C 173.323,43.7247 173.656,46.8914 173.5,50C 174.609,50.6377 175.775,51.1377 177,51.5C 178.789,50.5909 180.623,50.4242 182.5,51C 181.5,51.3333 180.5,51.6667 179.5,52C 183.063,52.8404 186.397,54.1737 189.5,56C 191.167,56.6667 192.833,56.6667 194.5,56C 197.147,53.1988 199.147,50.0321 200.5,46.5C 202.558,44.0734 204.391,41.4068 206,38.5C 207.009,36.9751 207.509,35.3084 207.5,33.5C 210.01,33.9267 212.343,34.5933 214.5,35.5C 219.428,35.332 222.261,37.332 223,41.5C 223.414,41.0426 223.914,40.7093 224.5,40.5C 226.336,41.919 228.336,43.0857 230.5,44C 231.833,44.6667 231.833,45.3333 230.5,46C 232.715,47.0438 235.048,47.7105 237.5,48C 236.833,48.3333 236.167,48.6667 235.5,49C 238.62,51.4077 239.953,54.5743 239.5,58.5C 234.919,59.9118 231.752,62.9118 230,67.5C 229.282,66.5494 228.449,66.3828 227.5,67C 216.876,76.2438 218.543,80.9104 232.5,81C 230.167,81.3333 227.833,81.6667 225.5,82C 227.394,83.0793 227.727,84.4126 226.5,86C 228.405,87.8153 230.072,89.8153 231.5,92C 234.167,92.6667 236.833,92.6667 239.5,92C 245.449,90.5102 251.449,89.3435 257.5,88.5C 257.5,86.8333 257.5,85.1667 257.5,83.5C 258.461,85.2646 258.795,87.2646 258.5,89.5C 252.127,91.3471 245.794,93.5137 239.5,96C 237.35,98.0413 236.35,100.541 236.5,103.5C 235.542,103.047 234.708,102.381 234,101.5C 233.749,99.567 233.249,97.7337 232.5,96C 230.19,95.5034 227.857,95.3367 225.5,95.5C 225.94,99.6897 226.94,103.69 228.5,107.5C 228.351,109.32 227.684,110.82 226.5,112C 226.833,112.333 227.167,112.667 227.5,113C 224.346,114.748 223.679,117.248 225.5,120.5C 226.5,120.5 227.5,120.5 228.5,120.5C 228.205,118.265 228.539,116.265 229.5,114.5C 230.792,120.16 228.792,123.827 223.5,125.5C 224.818,118.508 222.484,113.174 216.5,109.5C 215.737,107.632 214.737,105.965 213.5,104.5C 213.5,101.5 213.5,98.5 213.5,95.5C 210.708,95.6225 208.708,96.9558 207.5,99.5C 205.254,101.649 203.754,104.316 203,107.5C 202.539,112.184 202.705,116.851 203.5,121.5C 203.565,121.938 203.399,122.272 203,122.5C 195.245,116.747 188.911,109.747 184,101.5C 183.187,99.5643 182.687,97.5643 182.5,95.5C 181.754,91.69 180.754,91.69 179.5,95.5C 177.864,96.7489 176.697,98.4156 176,100.5C 175.86,103.043 175.194,105.377 174,107.5C 168.042,98.96 164.209,89.6266 162.5,79.5C 161.368,72.2658 163.701,66.4325 169.5,62C 167.087,61.5162 164.754,61.8495 162.5,63C 158.724,64.9474 155.39,67.4474 152.5,70.5C 152.4,65.6845 154.733,63.3512 159.5,63.5C 159.5,62.5 159.5,61.5 159.5,60.5C 163.382,59.3629 167.216,59.3629 171,60.5C 172.299,59.91 173.132,58.91 173.5,57.5C 172.57,55.8953 172.57,54.3953 173.5,53C 172.646,51.9783 171.646,51.1449 170.5,50.5C 168.063,51.8034 165.896,53.4701 164,55.5C 160.606,54.5442 157.106,54.2108 153.5,54.5C 157.093,53.8474 160.759,53.0141 164.5,52C 166.653,50.1092 167.32,47.9426 166.5,45.5C 169.674,41.0418 169.008,37.3752 164.5,34.5C 160.317,35.3653 156.317,36.6987 152.5,38.5C 151.692,38.1924 151.025,37.6924 150.5,37C 152.134,36.5065 153.801,36.3398 155.5,36.5C 155.5,34.5 155.5,32.5 155.5,30.5C 159.798,31.1995 164.131,31.5328 168.5,31.5 Z"/></g>
<g><path style="opacity:1" fill="#946f5b" d="M 187.5,50.5 C 188.995,50.4148 189.995,51.0815 190.5,52.5C 187.623,53.9109 186.623,53.2442 187.5,50.5 Z"/></g>
<g><path style="opacity:1" fill="#3b1806" d="M 207.5,41.5 C 211.833,41.5 216.167,41.5 220.5,41.5C 225.242,44.3824 229.908,47.549 234.5,51C 236.396,52.8083 236.896,54.975 236,57.5C 230.633,63.7296 224.133,68.0629 216.5,70.5C 214.366,70.4847 212.366,69.9847 210.5,69C 206.948,65.7809 203.115,62.9476 199,60.5C 198.333,58.8333 198.333,57.1667 199,55.5C 201.197,50.3554 204.03,45.6887 207.5,41.5 Z"/></g>
<g><path style="opacity:1" fill="#8e7262" d="M 207.5,39.5 C 211.167,39.5 214.833,39.5 218.5,39.5C 219.5,39.8333 220.167,40.5 220.5,41.5C 216.167,41.5 211.833,41.5 207.5,41.5C 207.5,40.8333 207.5,40.1667 207.5,39.5 Z"/></g>
<g><path style="opacity:1" fill="#886855" d="M 176.5,38.5 C 178.5,38.5 180.5,38.5 182.5,38.5C 179.663,40.4023 176.329,41.069 172.5,40.5C 173.833,39.8333 175.167,39.1667 176.5,38.5 Z"/></g>
<g><path style="opacity:1" fill="#351c11" d="M 214.5,35.5 C 216.139,36.4725 217.473,37.8058 218.5,39.5C 214.833,39.5 211.167,39.5 207.5,39.5C 208.855,36.4823 211.188,35.149 214.5,35.5 Z"/></g>
<g><path style="opacity:1" fill="#3c1808" d="M 239.5,58.5 C 246.071,65.2486 251.738,72.7486 256.5,81C 254.167,81.3333 251.833,81.6667 249.5,82C 252.254,82.2724 254.921,82.7724 257.5,83.5C 257.5,85.1667 257.5,86.8333 257.5,88.5C 251.449,89.3435 245.449,90.5102 239.5,92C 236.833,92.6667 234.167,92.6667 231.5,92C 230.072,89.8153 228.405,87.8153 226.5,86C 227.727,84.4126 227.394,83.0793 225.5,82C 227.833,81.6667 230.167,81.3333 232.5,81C 218.543,80.9104 216.876,76.2438 227.5,67C 228.449,66.3828 229.282,66.5494 230,67.5C 231.752,62.9118 234.919,59.9118 239.5,58.5 Z"/></g>
<g><path style="opacity:1" fill="#c0785a" d="M 196.5,75.5 C 195.833,75.1667 195.167,74.8333 194.5,74.5C 194.189,73.5222 193.522,72.8555 192.5,72.5C 191.516,75.4281 191.183,78.4281 191.5,81.5C 191.167,81.5 190.833,81.5 190.5,81.5C 190.665,78.4816 190.498,75.4816 190,72.5C 189.355,71.354 188.522,70.354 187.5,69.5C 191.819,69.179 194.819,71.179 196.5,75.5 Z"/></g>
<g><path style="opacity:1" fill="#cf6536" d="M 162.5,79.5 C 161.517,75.7016 161.183,71.7016 161.5,67.5C 160.127,67.3433 158.793,67.51 157.5,68C 154.97,72.0125 152.304,75.8459 149.5,79.5C 150.304,76.4214 151.304,73.4214 152.5,70.5C 155.39,67.4474 158.724,64.9474 162.5,63C 164.754,61.8495 167.087,61.5162 169.5,62C 163.701,66.4325 161.368,72.2658 162.5,79.5 Z"/></g>
<g><path style="opacity:1" fill="#e85111" d="M 162.5,79.5 C 164.209,89.6266 168.042,98.96 174,107.5C 175.194,105.377 175.86,103.043 176,100.5C 176.697,98.4156 177.864,96.7489 179.5,95.5C 180.5,95.5 181.5,95.5 182.5,95.5C 182.687,97.5643 183.187,99.5643 184,101.5C 188.911,109.747 195.245,116.747 203,122.5C 203.399,122.272 203.565,121.938 203.5,121.5C 204.326,116.684 204.826,111.684 205,106.5C 205.684,104.641 206.684,102.974 208,101.5C 208.333,101.833 208.667,102.167 209,102.5C 209.483,101.552 209.649,100.552 209.5,99.5C 210.122,98.3734 210.955,97.3734 212,96.5C 212.183,99.3647 212.683,102.031 213.5,104.5C 214.737,105.965 215.737,107.632 216.5,109.5C 217.744,112.26 219.244,114.927 221,117.5C 221.498,120.817 221.665,124.15 221.5,127.5C 223.199,127.66 224.866,127.494 226.5,127C 228.694,124.305 230.694,121.472 232.5,118.5C 233.764,120.291 234.431,122.291 234.5,124.5C 233.88,128.02 232.88,131.353 231.5,134.5C 220.527,135.574 209.527,135.74 198.5,135C 196.934,131.597 195.601,128.097 194.5,124.5C 193.5,124.5 192.5,124.5 191.5,124.5C 191.844,119.745 189.844,118.412 185.5,120.5C 184.345,123.446 184.179,126.446 185,129.5C 186.559,131.217 187.392,133.217 187.5,135.5C 178.833,135.5 170.167,135.5 161.5,135.5C 161.5,134.167 161.5,132.833 161.5,131.5C 165.216,126.346 164.05,123.012 158,121.5C 156.779,122.272 155.779,123.272 155,124.5C 154.586,124.043 154.086,123.709 153.5,123.5C 152.748,127.506 151.082,130.839 148.5,133.5C 144.151,133.585 139.818,133.918 135.5,134.5C 132.56,134.617 129.893,133.95 127.5,132.5C 127.5,132.167 127.5,131.833 127.5,131.5C 127.5,130.5 127.5,129.5 127.5,128.5C 128.873,128.657 130.207,128.49 131.5,128C 130.691,122.583 130.191,117.083 130,111.5C 129.411,109.137 127.911,108.137 125.5,108.5C 125.001,113.277 122.501,114.944 118,113.5C 117.361,110.888 116.194,108.554 114.5,106.5C 116.813,103.879 118.147,100.879 118.5,97.5C 118.328,96.5084 118.662,95.8417 119.5,95.5C 121.074,93.8984 121.741,91.8984 121.5,89.5C 123.124,87.8632 124.124,88.1966 124.5,90.5C 123.604,92.8006 123.438,95.1339 124,97.5C 124.739,95.7795 125.573,94.1128 126.5,92.5C 126.833,92.8333 127.167,93.1667 127.5,93.5C 128.407,96.4212 128.74,99.4212 128.5,102.5C 132.059,101.575 135.393,100.242 138.5,98.5C 138.54,91.0545 138.207,83.7211 137.5,76.5C 137.5,75.5 137.5,74.5 137.5,73.5C 139.833,74.1667 142.167,74.8333 144.5,75.5C 146.451,76.7158 147.951,78.3825 149,80.5C 149.399,80.2716 149.565,79.9382 149.5,79.5C 152.304,75.8459 154.97,72.0125 157.5,68C 158.793,67.51 160.127,67.3433 161.5,67.5C 161.183,71.7016 161.517,75.7016 162.5,79.5 Z"/></g>
<g><path style="opacity:1" fill="#3c1b0d" d="M 47.5,90.5 C 45.2619,84.7357 47.2619,81.9024 53.5,82C 52.1667,81.3333 50.8333,80.6667 49.5,80C 52.8978,75.3623 55.8978,70.5289 58.5,65.5C 60.2791,61.5535 63.2791,60.0535 67.5,61C 73,65.8333 78.5,70.6667 84,75.5C 83.2551,79.9653 81.0885,83.7987 77.5,87C 74.5,87.3333 71.5,87.6667 68.5,88C 78.2338,88.1601 78.9004,90.4934 70.5,95C 62.6473,94.6219 54.9806,93.1219 47.5,90.5 Z"/></g>
<g><path style="opacity:1" fill="#ead4bd" d="M 71.5,71.5 C 72.675,71.281 73.675,71.6143 74.5,72.5C 72.9483,73.7979 71.9483,73.4646 71.5,71.5 Z"/></g>
<g><path style="opacity:1" fill="#dfc8b8" d="M 65.5,68.5 C 68.1003,70.2441 67.9336,71.5775 65,72.5C 64.4209,71.0715 64.5876,69.7382 65.5,68.5 Z"/></g>
<g><path style="opacity:1" fill="#8e6d5f" d="M 63.5,80.5 C 64.9778,80.238 66.3112,80.5713 67.5,81.5C 65.9255,82.6309 64.2588,82.7975 62.5,82C 63.056,81.6174 63.3893,81.1174 63.5,80.5 Z"/></g>
<g><path style="opacity:1" fill="#e65210" d="M 194.5,74.5 C 194.461,75.7562 194.961,76.7562 196,77.5C 196.667,85.8333 196.667,94.1667 196,102.5C 194.644,101.62 193.144,101.286 191.5,101.5C 191.5,101.167 191.5,100.833 191.5,100.5C 190.266,94.1876 190.266,87.8543 191.5,81.5C 191.183,78.4281 191.516,75.4281 192.5,72.5C 193.522,72.8555 194.189,73.5222 194.5,74.5 Z"/></g>
<g><path style="opacity:1" fill="#fbf9f7" d="M 75.5,47.5 C 72.9786,49.701 70.4786,52.0343 68,54.5C 67.3333,56.1667 67.3333,57.8333 68,59.5C 72.1667,63 76.3333,66.5 80.5,70C 83.0444,71.092 85.7111,71.7586 88.5,72C 87.5,72.3333 86.5,72.6667 85.5,73C 87.6354,73.6347 89.6354,73.3014 91.5,72C 92.9842,70.4263 94.6508,69.093 96.5,68C 95.8333,67.6667 95.1667,67.3333 94.5,67C 97.7643,66.3623 100.764,65.1957 103.5,63.5C 105.572,62.5596 107.239,61.0596 108.5,59C 111.036,58.8138 113.369,58.3138 115.5,57.5C 119.355,55.7136 123.355,54.2136 127.5,53C 129.584,52.3028 131.251,51.1361 132.5,49.5C 133.5,49.5 134.5,49.5 135.5,49.5C 135.263,50.791 135.596,51.791 136.5,52.5C 137.289,52.7828 137.956,53.2828 138.5,54C 143.489,54.4993 148.489,54.6659 153.5,54.5C 157.106,54.2108 160.606,54.5442 164,55.5C 165.896,53.4701 168.063,51.8034 170.5,50.5C 171.646,51.1449 172.646,51.9783 173.5,53C 172.57,54.3953 172.57,55.8953 173.5,57.5C 173.132,58.91 172.299,59.91 171,60.5C 167.216,59.3629 163.382,59.3629 159.5,60.5C 159.5,61.5 159.5,62.5 159.5,63.5C 154.733,63.3512 152.4,65.6845 152.5,70.5C 151.304,73.4214 150.304,76.4214 149.5,79.5C 149.565,79.9382 149.399,80.2716 149,80.5C 147.951,78.3825 146.451,76.7158 144.5,75.5C 141.767,72.633 138.434,71.133 134.5,71C 135.229,73.0581 136.229,74.8914 137.5,76.5C 139.272,85.9279 136.772,93.9279 130,100.5C 130.208,93.5868 127.708,87.9201 122.5,83.5C 122.44,82.9569 122.107,82.6236 121.5,82.5C 120.541,86.796 119.875,91.1294 119.5,95.5C 118.662,95.8417 118.328,96.5084 118.5,97.5C 116.833,99.5 115.167,101.5 113.5,103.5C 111.83,103.751 110.33,104.418 109,105.5C 108.685,102.628 108.185,99.7952 107.5,97C 107.735,96.1268 108.069,95.2935 108.5,94.5C 107.16,93.3122 106.493,91.8122 106.5,90C 107.897,86.3331 107.731,82.8331 106,79.5C 105.517,80.448 105.351,81.448 105.5,82.5C 103.11,83.8908 101.443,85.8908 100.5,88.5C 99.6712,95.6552 99.1712,102.989 99,110.5C 98.6667,110.167 98.3333,109.833 98,109.5C 97.7811,110.938 97.2811,112.271 96.5,113.5C 95.8324,110.694 95.1657,108.028 94.5,105.5C 93.9744,103.77 92.9744,102.436 91.5,101.5C 91.2882,99.6159 90.2882,98.2826 88.5,97.5C 87.7889,102.266 86.7889,106.933 85.5,111.5C 85.1667,111.5 84.8333,111.5 84.5,111.5C 81.1931,115.426 78.3597,119.76 76,124.5C 75.5012,128.486 75.3345,132.486 75.5,136.5C 84.659,137.428 93.9923,138.095 103.5,138.5C 106.7,138.601 109.7,139.268 112.5,140.5C 115.109,139.77 117.776,139.27 120.5,139C 121.687,137.981 122.687,136.814 123.5,135.5C 121.882,132.361 120.882,129.028 120.5,125.5C 120.64,123.97 121.307,122.97 122.5,122.5C 123.807,125.78 125.473,128.78 127.5,131.5C 127.5,131.833 127.5,132.167 127.5,132.5C 127.5,132.833 127.5,133.167 127.5,133.5C 127.48,135.143 128.147,136.476 129.5,137.5C 136.542,138.84 143.542,138.674 150.5,137C 154.187,129.631 156.52,129.965 157.5,138C 167.833,138.667 178.167,138.667 188.5,138C 189.056,137.617 189.389,137.117 189.5,136.5C 189.5,135.833 189.5,135.167 189.5,134.5C 190.451,133.081 190.784,131.415 190.5,129.5C 191.5,129.5 192.5,129.5 193.5,129.5C 193.223,132.448 193.556,135.281 194.5,138C 206.674,138.826 218.674,138.66 230.5,137.5C 232.5,137.5 233.5,136.5 233.5,134.5C 237.089,126.585 235.922,119.585 230,113.5C 229.601,113.728 229.435,114.062 229.5,114.5C 228.539,116.265 228.205,118.265 228.5,120.5C 227.5,120.5 226.5,120.5 225.5,120.5C 223.679,117.248 224.346,114.748 227.5,113C 227.167,112.667 226.833,112.333 226.5,112C 227.684,110.82 228.351,109.32 228.5,107.5C 226.94,103.69 225.94,99.6897 225.5,95.5C 227.857,95.3367 230.19,95.5034 232.5,96C 233.249,97.7337 233.749,99.567 234,101.5C 234.708,102.381 235.542,103.047 236.5,103.5C 238.343,105.853 239.677,108.52 240.5,111.5C 241.773,113.713 242.773,116.046 243.5,118.5C 244.512,121.257 245.512,123.924 246.5,126.5C 246.427,128.027 247.094,129.027 248.5,129.5C 250.993,129.131 251.66,129.797 250.5,131.5C 248.744,132.552 248.077,134.219 248.5,136.5C 265.167,136.5 281.833,136.5 298.5,136.5C 298.719,135.325 298.386,134.325 297.5,133.5C 296.261,133.058 295.261,132.391 294.5,131.5C 297.16,130.583 299.494,130.583 301.5,131.5C 301.5,142.5 301.5,153.5 301.5,164.5C 296.844,156.07 289.844,153.57 280.5,157C 274.78,160.974 272.447,166.474 273.5,173.5C 273.154,190.32 280.821,195.82 296.5,190C 299.108,187.602 300.775,184.769 301.5,181.5C 301.5,185.5 301.5,189.5 301.5,193.5C 219.833,193.5 138.167,193.5 56.5,193.5C 56.8938,192.033 57.2272,190.533 57.5,189C 56.291,186.681 55.4577,184.181 55,181.5C 54.8213,185.025 54.3213,188.359 53.5,191.5C 53.5,179.5 53.5,167.5 53.5,155.5C 50.3752,154.521 47.0419,154.187 43.5,154.5C 43.5,166.833 43.5,179.167 43.5,191.5C 42.1883,189.257 41.5217,186.59 41.5,183.5C 42.4032,177.586 42.7365,172.086 42.5,167C 41.7427,162.565 40.9094,162.731 40,167.5C 39.6174,166.944 39.1174,166.611 38.5,166.5C 39.5269,162.554 39.6936,158.554 39,154.5C 38.6232,153.058 37.7899,152.058 36.5,151.5C 34.7906,149.187 32.4572,147.687 29.5,147C 22.5079,146.5 15.5079,146.334 8.5,146.5C 9.37386,145.475 10.5405,144.808 12,144.5C 14.1721,145.054 16.5054,145.054 19,144.5C 25.2159,145.191 31.2159,145.857 37,146.5C 38.7281,144.158 40.3948,141.825 42,139.5C 43.3333,139.5 44.6667,139.5 46,139.5C 47.0386,138.756 47.5386,137.756 47.5,136.5C 51.7016,136.817 55.7016,136.483 59.5,135.5C 59.5,132.167 59.5,128.833 59.5,125.5C 56.8333,125.5 54.1667,125.5 51.5,125.5C 48.5,125.5 45.5,125.5 42.5,125.5C 45.5,124.833 48.5,124.167 51.5,123.5C 53.5273,123.662 55.5273,123.495 57.5,123C 58.8333,122.333 58.8333,121.667 57.5,121C 58.7659,120.691 59.9326,120.191 61,119.5C 62.4055,113.601 64.5721,108.101 67.5,103C 66.9777,102.05 66.311,101.216 65.5,100.5C 65.7093,99.914 66.0426,99.414 66.5,99C 62.6928,97.1192 58.6928,95.9526 54.5,95.5C 52.6644,93.412 50.3311,92.0787 47.5,91.5C 46.5,91.5 45.5,91.5 44.5,91.5C 45.209,90.596 46.209,90.2627 47.5,90.5C 54.9806,93.1219 62.6473,94.6219 70.5,95C 78.9004,90.4934 78.2338,88.1601 68.5,88C 71.5,87.6667 74.5,87.3333 77.5,87C 81.0885,83.7987 83.2551,79.9653 84,75.5C 78.5,70.6667 73,65.8333 67.5,61C 63.2791,60.0535 60.2791,61.5535 58.5,65.5C 58.5792,64.0695 58.2458,62.7362 57.5,61.5C 57.8076,60.6919 58.3076,60.0253 59,59.5C 60.1475,60.4581 61.1475,60.1247 62,58.5C 63.2988,58.9662 64.7988,58.9662 66.5,58.5C 65.9871,51.8236 68.9871,48.157 75.5,47.5 Z"/></g>
<g><path style="opacity:1" fill="#c66b3f" d="M 105.5,82.5 C 105.762,85.2516 105.762,88.2516 105.5,91.5C 104.839,90.2825 104.172,88.9492 103.5,87.5C 102.808,88.0253 102.308,88.6919 102,89.5C 101.5,95.8246 101.334,102.158 101.5,108.5C 102.5,108.5 103.5,108.5 104.5,108.5C 103.685,109.837 102.518,110.837 101,111.5C 100.5,103.841 100.334,96.1739 100.5,88.5C 101.443,85.8908 103.11,83.8908 105.5,82.5 Z"/></g>
<g><path style="opacity:1" fill="#c46537" d="M 144.5,75.5 C 142.167,74.8333 139.833,74.1667 137.5,73.5C 137.5,74.5 137.5,75.5 137.5,76.5C 136.229,74.8914 135.229,73.0581 134.5,71C 138.434,71.133 141.767,72.633 144.5,75.5 Z"/></g>
<g><path style="opacity:1" fill="#f3dccc" d="M 108.5,51.5 C 109.946,50.3871 111.613,50.2204 113.5,51C 111.861,52.5193 110.194,52.686 108.5,51.5 Z"/></g>
<g><path style="opacity:1" fill="#d27b55" d="M 122.5,83.5 C 121.539,85.2646 121.205,87.2646 121.5,89.5C 121.741,91.8984 121.074,93.8984 119.5,95.5C 119.875,91.1294 120.541,86.796 121.5,82.5C 122.107,82.6236 122.44,82.9569 122.5,83.5 Z"/></g>
<g><path style="opacity:1" fill="#b7816f" d="M 182.5,95.5 C 181.5,95.5 180.5,95.5 179.5,95.5C 180.754,91.69 181.754,91.69 182.5,95.5 Z"/></g>
<g><path style="opacity:1" fill="#cb6939" d="M 190.5,81.5 C 190.833,81.5 191.167,81.5 191.5,81.5C 190.266,87.8543 190.266,94.1876 191.5,100.5C 189.078,99.3077 188.078,97.3077 188.5,94.5C 189.061,90.1374 189.727,85.804 190.5,81.5 Z"/></g>
<g><path style="opacity:1" fill="#3d1602" d="M 47.5,91.5 C 50.3311,92.0787 52.6644,93.412 54.5,95.5C 56.1431,99.4905 59.1431,101.157 63.5,100.5C 63.6633,102.857 63.4966,105.19 63,107.5C 55.4814,107.119 47.9814,106.785 40.5,106.5C 42.2855,104.431 43.9522,102.264 45.5,100C 43.713,96.4069 44.3796,93.5736 47.5,91.5 Z"/></g>
<g><path style="opacity:1" fill="#c66334" d="M 194.5,74.5 C 195.167,74.8333 195.833,75.1667 196.5,75.5C 197.268,76.2625 197.768,77.2625 198,78.5C 198.527,84.3444 198.361,90.1777 197.5,96C 197.452,99.5093 198.119,102.843 199.5,106C 196.27,105.625 193.603,104.125 191.5,101.5C 193.144,101.286 194.644,101.62 196,102.5C 196.667,94.1667 196.667,85.8333 196,77.5C 194.961,76.7562 194.461,75.7562 194.5,74.5 Z"/></g>
<g><path style="opacity:1" fill="#d65d25" d="M 137.5,76.5 C 138.207,83.7211 138.54,91.0545 138.5,98.5C 135.393,100.242 132.059,101.575 128.5,102.5C 128.74,99.4212 128.407,96.4212 127.5,93.5C 127.167,93.1667 126.833,92.8333 126.5,92.5C 125.573,94.1128 124.739,95.7795 124,97.5C 123.438,95.1339 123.604,92.8006 124.5,90.5C 124.124,88.1966 123.124,87.8632 121.5,89.5C 121.205,87.2646 121.539,85.2646 122.5,83.5C 127.708,87.9201 130.208,93.5868 130,100.5C 136.772,93.9279 139.272,85.9279 137.5,76.5 Z"/></g>
<g><path style="opacity:1" fill="#d18156" d="M 213.5,104.5 C 212.683,102.031 212.183,99.3647 212,96.5C 210.955,97.3734 210.122,98.3734 209.5,99.5C 208.833,99.5 208.167,99.5 207.5,99.5C 208.708,96.9558 210.708,95.6225 213.5,95.5C 213.5,98.5 213.5,101.5 213.5,104.5 Z"/></g>
<g><path style="opacity:1" fill="#3b1705" d="M 258.5,89.5 C 261.773,90.8292 263.773,93.3292 264.5,97C 263.338,98.7257 263.671,100.226 265.5,101.5C 265.286,104.406 265.286,107.239 265.5,110C 266.696,111.364 267.696,112.864 268.5,114.5C 267.802,115.863 267.802,117.029 268.5,118C 260.876,118.397 253.209,118.23 245.5,117.5C 244.833,115.833 244.167,114.167 243.5,112.5C 242.675,111.614 241.675,111.281 240.5,111.5C 239.677,108.52 238.343,105.853 236.5,103.5C 236.35,100.541 237.35,98.0413 239.5,96C 245.794,93.5137 252.127,91.3471 258.5,89.5 Z"/></g>
<g><path style="opacity:1" fill="#c9ac99" d="M 251.5,95.5 C 252.649,95.7911 253.316,96.6244 253.5,98C 253.167,98.8333 252.833,99.6667 252.5,100.5C 251.548,98.9547 251.215,97.288 251.5,95.5 Z"/></g>
<g><path style="opacity:1" fill="#da5922" d="M 105.5,91.5 C 105.923,94.647 106.256,97.8136 106.5,101C 106.697,103.824 106.031,106.324 104.5,108.5C 103.5,108.5 102.5,108.5 101.5,108.5C 101.334,102.158 101.5,95.8246 102,89.5C 102.308,88.6919 102.808,88.0253 103.5,87.5C 104.172,88.9492 104.839,90.2825 105.5,91.5 Z"/></g>
<g><path style="opacity:1" fill="#d06033" d="M 219.5,95.5 C 222.083,98.2656 224.583,101.266 227,104.5C 227.969,107.328 227.303,109.662 225,111.5C 224.108,108.048 222.442,105.048 220,102.5C 219.503,100.19 219.337,97.8568 219.5,95.5 Z"/></g>
<g><path style="opacity:1" fill="#e0561a" d="M 91.5,101.5 C 93.2669,107.95 93.9336,114.617 93.5,121.5C 96.5769,121.821 98.9103,120.821 100.5,118.5C 105.477,114.149 109.81,109.149 113.5,103.5C 115.167,101.5 116.833,99.5 118.5,97.5C 118.147,100.879 116.813,103.879 114.5,106.5C 116.194,108.554 117.361,110.888 118,113.5C 122.501,114.944 125.001,113.277 125.5,108.5C 127.911,108.137 129.411,109.137 130,111.5C 130.191,117.083 130.691,122.583 131.5,128C 130.207,128.49 128.873,128.657 127.5,128.5C 127.5,129.5 127.5,130.5 127.5,131.5C 125.473,128.78 123.807,125.78 122.5,122.5C 122.383,116.503 121.05,116.503 118.5,122.5C 118.736,119.774 117.903,117.441 116,115.5C 115.667,118.5 115.333,121.5 115,124.5C 114.751,125.624 114.251,126.624 113.5,127.5C 113.167,127 112.833,126.5 112.5,126C 113.707,123.017 113.707,120.017 112.5,117C 112.493,115.188 113.16,113.688 114.5,112.5C 112.727,108.688 111.06,108.854 109.5,113C 111.372,114.974 111.705,117.141 110.5,119.5C 109.575,118.359 108.741,118.359 108,119.5C 107.751,118.376 107.251,117.376 106.5,116.5C 103.62,117.306 101.453,118.973 100,121.5C 97.2764,122.687 94.4431,123.353 91.5,123.5C 91.5,120.167 91.5,116.833 91.5,113.5C 90.325,113.719 89.325,113.386 88.5,112.5C 90.1605,109.23 90.4939,105.897 89.5,102.5C 88.5815,104.758 87.9148,107.091 87.5,109.5C 87.2528,110.713 86.5862,111.38 85.5,111.5C 86.7889,106.933 87.7889,102.266 88.5,97.5C 90.2882,98.2826 91.2882,99.6159 91.5,101.5 Z"/></g>
<g><path style="opacity:1" fill="#d06535" d="M 207.5,99.5 C 208.167,99.5 208.833,99.5 209.5,99.5C 209.649,100.552 209.483,101.552 209,102.5C 208.667,102.167 208.333,101.833 208,101.5C 206.684,102.974 205.684,104.641 205,106.5C 204.826,111.684 204.326,116.684 203.5,121.5C 202.705,116.851 202.539,112.184 203,107.5C 203.754,104.316 205.254,101.649 207.5,99.5 Z"/></g>
<g><path style="opacity:1" fill="#cb7d4e" d="M 91.5,101.5 C 92.9744,102.436 93.9744,103.77 94.5,105.5C 94.1725,110.544 94.5059,115.544 95.5,120.5C 97.0754,119.544 98.742,118.877 100.5,118.5C 98.9103,120.821 96.5769,121.821 93.5,121.5C 93.9336,114.617 93.2669,107.95 91.5,101.5 Z"/></g>
<g><path style="opacity:1" fill="#fbebdd" d="M 113.5,103.5 C 109.81,109.149 105.477,114.149 100.5,118.5C 98.742,118.877 97.0754,119.544 95.5,120.5C 94.5059,115.544 94.1725,110.544 94.5,105.5C 95.1657,108.028 95.8324,110.694 96.5,113.5C 97.2811,112.271 97.7811,110.938 98,109.5C 98.3333,109.833 98.6667,110.167 99,110.5C 99.1712,102.989 99.6712,95.6552 100.5,88.5C 100.334,96.1739 100.5,103.841 101,111.5C 102.518,110.837 103.685,109.837 104.5,108.5C 106.031,106.324 106.697,103.824 106.5,101C 106.256,97.8136 105.923,94.647 105.5,91.5C 105.762,88.2516 105.762,85.2516 105.5,82.5C 105.351,81.448 105.517,80.448 106,79.5C 107.731,82.8331 107.897,86.3331 106.5,90C 106.493,91.8122 107.16,93.3122 108.5,94.5C 108.069,95.2935 107.735,96.1268 107.5,97C 108.185,99.7952 108.685,102.628 109,105.5C 110.33,104.418 111.83,103.751 113.5,103.5 Z"/></g>
<g><path style="opacity:1" fill="#40271b" d="M 265.5,101.5 C 266.411,103.916 267.411,106.416 268.5,109C 268.355,109.772 268.022,110.439 267.5,111C 268.308,111.308 268.975,111.808 269.5,112.5C 270.195,115.28 271.195,117.947 272.5,120.5C 275.577,122.705 278.91,124.372 282.5,125.5C 283.344,127.759 285.011,128.759 287.5,128.5C 289.713,129.773 292.046,130.773 294.5,131.5C 295.261,132.391 296.261,133.058 297.5,133.5C 298.386,134.325 298.719,135.325 298.5,136.5C 281.833,136.5 265.167,136.5 248.5,136.5C 248.077,134.219 248.744,132.552 250.5,131.5C 249.462,133.108 250.129,134.108 252.5,134.5C 264.384,134.597 276.384,134.431 288.5,134C 290.301,133.683 290.634,133.016 289.5,132C 286.639,131.46 283.972,130.46 281.5,129C 281.833,128.667 282.167,128.333 282.5,128C 280.099,127.205 277.932,126.038 276,124.5C 274.791,124.653 273.625,124.986 272.5,125.5C 273.043,125.56 273.376,125.893 273.5,126.5C 269.416,128.11 265.749,127.61 262.5,125C 257.833,124.333 253.167,124.333 248.5,125C 247.587,126.414 247.587,127.914 248.5,129.5C 247.094,129.027 246.427,128.027 246.5,126.5C 246.5,125.5 246.5,124.5 246.5,123.5C 253.706,123.876 260.706,122.876 267.5,120.5C 260.22,120.347 252.886,120.181 245.5,120C 244.956,119.283 244.289,118.783 243.5,118.5C 242.773,116.046 241.773,113.713 240.5,111.5C 241.675,111.281 242.675,111.614 243.5,112.5C 244.167,114.167 244.833,115.833 245.5,117.5C 253.209,118.23 260.876,118.397 268.5,118C 267.802,117.029 267.802,115.863 268.5,114.5C 267.696,112.864 266.696,111.364 265.5,110C 265.286,107.239 265.286,104.406 265.5,101.5 Z"/></g>
<g><path style="opacity:1" fill="#ded1c5" d="M 243.5,118.5 C 244.289,118.783 244.956,119.283 245.5,120C 252.886,120.181 260.22,120.347 267.5,120.5C 260.706,122.876 253.706,123.876 246.5,123.5C 246.5,124.5 246.5,125.5 246.5,126.5C 245.512,123.924 244.512,121.257 243.5,118.5 Z"/></g>
<g><path style="opacity:1" fill="#a78a7c" d="M 51.5,123.5 C 48.5,124.167 45.5,124.833 42.5,125.5C 41.5,125.5 40.5,125.5 39.5,125.5C 38.2617,125.19 38.2617,124.69 39.5,124C 43.4862,123.501 47.4862,123.334 51.5,123.5 Z"/></g>
<g><path style="opacity:1" fill="#d2bfb0" d="M 272.5,125.5 C 270.034,126.634 267.367,126.801 264.5,126C 266.1,124.185 268.1,123.018 270.5,122.5C 271.506,122.938 271.506,123.604 270.5,124.5C 270.957,125.298 271.624,125.631 272.5,125.5 Z"/></g>
<g><path style="opacity:1" fill="#3b1706" d="M 44.5,91.5 C 45.5,91.5 46.5,91.5 47.5,91.5C 44.3796,93.5736 43.713,96.4069 45.5,100C 43.9522,102.264 42.2855,104.431 40.5,106.5C 47.9814,106.785 55.4814,107.119 63,107.5C 63.4966,105.19 63.6633,102.857 63.5,100.5C 59.1431,101.157 56.1431,99.4905 54.5,95.5C 58.6928,95.9526 62.6928,97.1192 66.5,99C 66.0426,99.414 65.7093,99.914 65.5,100.5C 66.311,101.216 66.9777,102.05 67.5,103C 64.5721,108.101 62.4055,113.601 61,119.5C 59.9326,120.191 58.7659,120.691 57.5,121C 58.8333,121.667 58.8333,122.333 57.5,123C 55.5273,123.495 53.5273,123.662 51.5,123.5C 47.4862,123.334 43.4862,123.501 39.5,124C 38.2617,124.69 38.2617,125.19 39.5,125.5C 44.7351,127.45 50.4018,128.117 56.5,127.5C 56.9167,130.079 56.25,132.246 54.5,134C 40.5,134.667 26.5,134.667 12.5,134C 12.1667,133.667 11.8333,133.333 11.5,133C 13.596,132.263 15.2627,131.097 16.5,129.5C 20.5102,128.107 24.5102,126.607 28.5,125C 30.5,121.667 33.1667,119 36.5,117C 34.78,113.914 35.4466,111.581 38.5,110C 37.9415,109.275 37.6082,108.442 37.5,107.5C 38.7099,102.745 40.2099,98.0786 42,93.5C 42.7083,92.6195 43.5416,91.9528 44.5,91.5 Z"/></g>
<g><path style="opacity:1" fill="#c9afa0" d="M 57.5,109.5 C 61.9704,109.03 62.4704,110.03 59,112.5C 57.9614,111.756 57.4614,110.756 57.5,109.5 Z"/></g>
<g><path style="opacity:1" fill="#c8b3a5" d="M 41.5,109.5 C 45.1817,109.335 48.8484,109.501 52.5,110C 50.2562,110.906 47.9228,111.406 45.5,111.5C 43.6672,111.415 42.3339,110.748 41.5,109.5 Z"/></g>
<g><path style="opacity:1" fill="#3c1603" d="M 272.5,125.5 C 273.625,124.986 274.791,124.653 276,124.5C 277.932,126.038 280.099,127.205 282.5,128C 282.167,128.333 281.833,128.667 281.5,129C 283.972,130.46 286.639,131.46 289.5,132C 290.634,133.016 290.301,133.683 288.5,134C 276.384,134.431 264.384,134.597 252.5,134.5C 250.129,134.108 249.462,133.108 250.5,131.5C 251.66,129.797 250.993,129.131 248.5,129.5C 247.587,127.914 247.587,126.414 248.5,125C 253.167,124.333 257.833,124.333 262.5,125C 265.749,127.61 269.416,128.11 273.5,126.5C 273.376,125.893 273.043,125.56 272.5,125.5 Z"/></g>
<g><path style="opacity:1" fill="#a38d86" d="M 282.5,125.5 C 284.434,126.11 286.101,127.11 287.5,128.5C 285.011,128.759 283.344,127.759 282.5,125.5 Z"/></g>
<g><path style="opacity:1" fill="#645249" d="M 51.5,125.5 C 54.1667,125.5 56.8333,125.5 59.5,125.5C 59.5,128.833 59.5,132.167 59.5,135.5C 59.1667,135.5 58.8333,135.5 58.5,135.5C 58.5,132.5 58.5,129.5 58.5,126.5C 55.9407,126.802 53.6074,126.468 51.5,125.5 Z"/></g>
<g><path style="opacity:1" fill="#fef0de" d="M 196.5,136.5 C 207.654,137.495 218.988,137.828 230.5,137.5C 218.674,138.66 206.674,138.826 194.5,138C 193.556,135.281 193.223,132.448 193.5,129.5C 192.5,129.5 191.5,129.5 190.5,129.5C 190.784,131.415 190.451,133.081 189.5,134.5C 186.254,130.121 185.754,125.454 188,120.5C 189.23,123.732 191.23,126.399 194,128.5C 195.707,130.909 196.54,133.575 196.5,136.5 Z"/></g>
<g><path style="opacity:1" fill="#32190c" d="M 39.5,125.5 C 40.5,125.5 41.5,125.5 42.5,125.5C 45.5,125.5 48.5,125.5 51.5,125.5C 53.6074,126.468 55.9407,126.802 58.5,126.5C 58.5,129.5 58.5,132.5 58.5,135.5C 41.8333,135.5 25.1667,135.5 8.5,135.5C 8.5,134.167 8.5,132.833 8.5,131.5C 11.2666,131.142 13.9333,130.475 16.5,129.5C 15.2627,131.097 13.596,132.263 11.5,133C 11.8333,133.333 12.1667,133.667 12.5,134C 26.5,134.667 40.5,134.667 54.5,134C 56.25,132.246 56.9167,130.079 56.5,127.5C 50.4018,128.117 44.7351,127.45 39.5,125.5 Z"/></g>
<g><path style="opacity:1" fill="#e75110" d="M 118.5,122.5 C 118.5,123.5 118.5,124.5 118.5,125.5C 117.556,128.668 117.556,132.001 118.5,135.5C 104.363,136.057 90.3626,135.39 76.5,133.5C 76.5079,130.455 76.8413,127.455 77.5,124.5C 78.5,124.5 79.5,124.5 80.5,124.5C 81.8154,120.216 83.1488,115.883 84.5,111.5C 84.8333,111.5 85.1667,111.5 85.5,111.5C 86.5862,111.38 87.2528,110.713 87.5,109.5C 87.9148,107.091 88.5815,104.758 89.5,102.5C 90.4939,105.897 90.1605,109.23 88.5,112.5C 89.325,113.386 90.325,113.719 91.5,113.5C 91.5,116.833 91.5,120.167 91.5,123.5C 94.4431,123.353 97.2764,122.687 100,121.5C 101.453,118.973 103.62,117.306 106.5,116.5C 107.251,117.376 107.751,118.376 108,119.5C 108.741,118.359 109.575,118.359 110.5,119.5C 111.705,117.141 111.372,114.974 109.5,113C 111.06,108.854 112.727,108.688 114.5,112.5C 113.16,113.688 112.493,115.188 112.5,117C 113.707,120.017 113.707,123.017 112.5,126C 112.833,126.5 113.167,127 113.5,127.5C 114.251,126.624 114.751,125.624 115,124.5C 115.333,121.5 115.667,118.5 116,115.5C 117.903,117.441 118.736,119.774 118.5,122.5 Z"/></g>
<g><path style="opacity:1" fill="#fdead5" d="M 159.5,123.5 C 160.32,127.782 160.32,132.115 159.5,136.5C 169.5,136.5 179.5,136.5 189.5,136.5C 189.389,137.117 189.056,137.617 188.5,138C 178.167,138.667 167.833,138.667 157.5,138C 156.52,129.965 154.187,129.631 150.5,137C 143.542,138.674 136.542,138.84 129.5,137.5C 128.147,136.476 127.48,135.143 127.5,133.5C 128.627,134.122 129.627,134.955 130.5,136C 136.825,136.5 143.158,136.666 149.5,136.5C 150.608,132.869 152.774,129.869 156,127.5C 156.862,125.913 157.529,124.246 158,122.5C 158.383,123.056 158.883,123.389 159.5,123.5 Z"/></g>
<g><path style="opacity:1" fill="#d65a25" d="M 161.5,131.5 C 162.036,128.302 161.369,125.635 159.5,123.5C 158.883,123.389 158.383,123.056 158,122.5C 157.529,124.246 156.862,125.913 156,127.5C 152.774,129.869 150.608,132.869 149.5,136.5C 143.158,136.666 136.825,136.5 130.5,136C 129.627,134.955 128.627,134.122 127.5,133.5C 127.5,133.167 127.5,132.833 127.5,132.5C 129.893,133.95 132.56,134.617 135.5,134.5C 139.818,133.918 144.151,133.585 148.5,133.5C 151.082,130.839 152.748,127.506 153.5,123.5C 154.086,123.709 154.586,124.043 155,124.5C 155.779,123.272 156.779,122.272 158,121.5C 164.05,123.012 165.216,126.346 161.5,131.5 Z"/></g>
<g><path style="opacity:1" fill="#c0b2a8" d="M 8.5,131.5 C 8.5,132.833 8.5,134.167 8.5,135.5C 25.1667,135.5 41.8333,135.5 58.5,135.5C 58.8333,135.5 59.1667,135.5 59.5,135.5C 55.7016,136.483 51.7016,136.817 47.5,136.5C 34.1667,136.5 20.8333,136.5 7.5,136.5C 7.21552,134.585 7.54885,132.919 8.5,131.5 Z"/></g>
<g><path style="opacity:1" fill="#c46436" d="M 84.5,111.5 C 83.1488,115.883 81.8154,120.216 80.5,124.5C 79.5,124.5 78.5,124.5 77.5,124.5C 76.8413,127.455 76.5079,130.455 76.5,133.5C 90.3626,135.39 104.363,136.057 118.5,135.5C 117.556,132.001 117.556,128.668 118.5,125.5C 118.332,129.169 119.332,132.502 121.5,135.5C 106.181,136.499 90.8478,136.833 75.5,136.5C 75.3345,132.486 75.5012,128.486 76,124.5C 78.3597,119.76 81.1931,115.426 84.5,111.5 Z"/></g>
<g><path style="opacity:1" fill="#ca6131" d="M 216.5,109.5 C 222.484,113.174 224.818,118.508 223.5,125.5C 228.792,123.827 230.792,120.16 229.5,114.5C 229.435,114.062 229.601,113.728 230,113.5C 235.922,119.585 237.089,126.585 233.5,134.5C 232.711,134.783 232.044,135.283 231.5,136C 219.838,136.5 208.171,136.667 196.5,136.5C 196.54,133.575 195.707,130.909 194,128.5C 191.23,126.399 189.23,123.732 188,120.5C 185.754,125.454 186.254,130.121 189.5,134.5C 189.5,135.167 189.5,135.833 189.5,136.5C 179.5,136.5 169.5,136.5 159.5,136.5C 160.32,132.115 160.32,127.782 159.5,123.5C 161.369,125.635 162.036,128.302 161.5,131.5C 161.5,132.833 161.5,134.167 161.5,135.5C 170.167,135.5 178.833,135.5 187.5,135.5C 187.392,133.217 186.559,131.217 185,129.5C 184.179,126.446 184.345,123.446 185.5,120.5C 189.844,118.412 191.844,119.745 191.5,124.5C 192.5,124.5 193.5,124.5 194.5,124.5C 195.601,128.097 196.934,131.597 198.5,135C 209.527,135.74 220.527,135.574 231.5,134.5C 232.88,131.353 233.88,128.02 234.5,124.5C 234.431,122.291 233.764,120.291 232.5,118.5C 230.694,121.472 228.694,124.305 226.5,127C 224.866,127.494 223.199,127.66 221.5,127.5C 221.665,124.15 221.498,120.817 221,117.5C 219.244,114.927 217.744,112.26 216.5,109.5 Z"/></g>
<g><path style="opacity:1" fill="#fecbab" d="M 233.5,134.5 C 233.5,136.5 232.5,137.5 230.5,137.5C 218.988,137.828 207.654,137.495 196.5,136.5C 208.171,136.667 219.838,136.5 231.5,136C 232.044,135.283 232.711,134.783 233.5,134.5 Z"/></g>
<g><path style="opacity:1" fill="#fdeddb" d="M 122.5,122.5 C 121.307,122.97 120.64,123.97 120.5,125.5C 120.882,129.028 121.882,132.361 123.5,135.5C 122.687,136.814 121.687,137.981 120.5,139C 117.776,139.27 115.109,139.77 112.5,140.5C 109.7,139.268 106.7,138.601 103.5,138.5C 93.9923,138.095 84.659,137.428 75.5,136.5C 90.8478,136.833 106.181,136.499 121.5,135.5C 119.332,132.502 118.332,129.169 118.5,125.5C 118.5,124.5 118.5,123.5 118.5,122.5C 121.05,116.503 122.383,116.503 122.5,122.5 Z"/></g>
<g><path style="opacity:1" fill="#3d2116" d="M 45.5,140.5 C 51.8302,139.666 54.6635,142.333 54,148.5C 49.0481,152.909 45.2147,152.076 42.5,146C 43.1242,143.915 44.1242,142.082 45.5,140.5 Z"/></g>
<g><path style="opacity:1" fill="#392216" d="M 184.5,145.5 C 189.123,144.408 190.956,146.075 190,150.5C 185.079,152.077 183.246,150.41 184.5,145.5 Z"/></g>
<g><path style="opacity:1" fill="#3c1808" d="M 36.5,151.5 C 37.7899,152.058 38.6232,153.058 39,154.5C 39.6936,158.554 39.5269,162.554 38.5,166.5C 33.9092,173.675 27.2425,176.675 18.5,175.5C 18.5,180.833 18.5,186.167 18.5,191.5C 15.5,191.5 12.5,191.5 9.5,191.5C 9.34648,178.009 9.84648,164.676 11,151.5C 14.7668,149.757 18.7668,148.757 23,148.5C 27.5832,149.272 32.0832,150.272 36.5,151.5 Z"/></g>
<g><path style="opacity:1" fill="#9a8981" d="M 84.5,155.5 C 76.1667,155.5 67.8333,155.5 59.5,155.5C 59.5,157.833 59.5,160.167 59.5,162.5C 58.5269,160.052 58.1936,157.385 58.5,154.5C 67.3494,154.174 76.0161,154.507 84.5,155.5 Z"/></g>
<g><path style="opacity:1" fill="#f5f3ee" d="M 18.5,154.5 C 24.34,153.579 28.0066,155.913 29.5,161.5C 27.7653,166.864 24.0986,168.864 18.5,167.5C 18.5,163.167 18.5,158.833 18.5,154.5 Z"/></g>
<g><path style="opacity:1" fill="#371c10" d="M 154.5,145.5 C 160.842,145.334 167.175,145.5 173.5,146C 181.095,149.473 183.595,155.306 181,163.5C 179.86,168.64 176.694,171.807 171.5,173C 167.179,173.499 162.846,173.666 158.5,173.5C 158.5,179.5 158.5,185.5 158.5,191.5C 157.167,191.5 155.833,191.5 154.5,191.5C 154.5,176.167 154.5,160.833 154.5,145.5 Z"/></g>
<g><path style="opacity:1" fill="#fcfbf9" d="M 159.5,149.5 C 163.514,149.334 167.514,149.501 171.5,150C 177.172,152.768 179.006,157.268 177,163.5C 175.945,166.056 174.112,167.723 171.5,168.5C 167.5,168.5 163.5,168.5 159.5,168.5C 159.5,162.167 159.5,155.833 159.5,149.5 Z"/></g>
<g><path style="opacity:1" fill="#361c0f" d="M 244.5,191.5 C 244.5,179.833 244.5,168.167 244.5,156.5C 246.592,156.561 248.092,157.561 249,159.5C 256.02,153.875 262.686,154.208 269,160.5C 270.451,170.729 270.951,181.062 270.5,191.5C 269.167,191.5 267.833,191.5 266.5,191.5C 266.666,182.494 266.5,173.494 266,164.5C 262.726,159.262 258.226,158.096 252.5,161C 250.951,162.214 249.785,163.714 249,165.5C 248.5,174.494 248.334,183.494 248.5,192.5C 246.901,192.768 245.568,192.434 244.5,191.5 Z"/></g>
<g><path style="opacity:1" fill="#3b2015" d="M 301.5,164.5 C 301.5,170.167 301.5,175.833 301.5,181.5C 300.775,184.769 299.108,187.602 296.5,190C 280.821,195.82 273.154,190.32 273.5,173.5C 272.447,166.474 274.78,160.974 280.5,157C 289.844,153.57 296.844,156.07 301.5,164.5 Z"/></g>
<g><path style="opacity:1" fill="#faf9f6" d="M 282.5,159.5 C 289.489,157.77 294.323,160.103 297,166.5C 297.667,171.833 297.667,177.167 297,182.5C 293.252,188.542 288.085,190.042 281.5,187C 279.683,185.2 278.516,183.034 278,180.5C 276.209,172.641 277.709,165.641 282.5,159.5 Z"/></g>
<g><path style="opacity:1" fill="#604d41" d="M 53.5,155.5 C 50.5,155.5 47.5,155.5 44.5,155.5C 44.5,167.5 44.5,179.5 44.5,191.5C 44.1667,191.5 43.8333,191.5 43.5,191.5C 43.5,179.167 43.5,166.833 43.5,154.5C 47.0419,154.187 50.3752,154.521 53.5,155.5 Z"/></g>
<g><path style="opacity:1" fill="#8e786c" d="M 59.5,162.5 C 64.2137,162.173 68.8804,162.507 73.5,163.5C 73.3764,164.107 73.0431,164.44 72.5,164.5C 68.1667,163.833 63.8333,163.167 59.5,162.5 Z"/></g>
<g><path style="opacity:1" fill="#8e7c70" d="M 89.5,162.5 C 94.2137,162.173 98.8804,162.507 103.5,163.5C 103.376,164.107 103.043,164.44 102.5,164.5C 98.1667,163.833 93.8333,163.167 89.5,162.5 Z"/></g>
<g><path style="opacity:1" fill="#3b2014" d="M 144.5,159.5 C 140.629,159.521 136.629,158.855 132.5,157.5C 129.794,157.952 127.294,157.952 125,157.5C 121.511,159.738 121.677,161.405 125.5,162.5C 129.298,160.703 133.131,160.036 137,160.5C 137.273,162.329 138.107,163.829 139.5,165C 138.934,165.995 138.267,166.828 137.5,167.5C 134.153,161.172 130.153,160.839 125.5,166.5C 123.167,164.667 120.833,162.833 118.5,161C 124.682,154.494 132.016,152.827 140.5,156C 142.324,156.66 143.657,157.827 144.5,159.5 Z"/></g>
<g><path style="opacity:1" fill="#dbc5b7" d="M 159.5,149.5 C 159.5,155.833 159.5,162.167 159.5,168.5C 163.5,168.5 167.5,168.5 171.5,168.5C 167.366,169.485 163.032,169.818 158.5,169.5C 158.176,162.646 158.509,155.979 159.5,149.5 Z"/></g>
<g><path style="opacity:1" fill="#371c10" d="M 198.5,146.5 C 199.5,146.5 200.5,146.5 201.5,146.5C 201.5,149.833 201.5,153.167 201.5,156.5C 204.833,156.5 208.167,156.5 211.5,156.5C 211.5,157.5 211.5,158.5 211.5,159.5C 208.167,159.5 204.833,159.5 201.5,159.5C 201.334,168.173 201.5,176.84 202,185.5C 204.569,188.57 207.736,189.237 211.5,187.5C 214.064,189.019 214.064,190.519 211.5,192C 205.754,193.723 201.254,192.223 198,187.5C 197.5,178.173 197.334,168.839 197.5,159.5C 195.712,159.785 194.045,159.452 192.5,158.5C 193.668,156.783 195.335,156.116 197.5,156.5C 198.051,153.193 198.384,149.86 198.5,146.5 Z"/></g>
<g><path style="opacity:1" fill="#d5cac0" d="M 244.5,156.5 C 244.5,168.167 244.5,179.833 244.5,191.5C 242.716,192.72 241.05,192.72 239.5,191.5C 240.5,191.5 241.5,191.5 242.5,191.5C 242.5,190.5 242.5,189.5 242.5,188.5C 243.167,177.833 243.833,167.167 244.5,156.5 Z"/></g>
<g><path style="opacity:1" fill="#3b1807" d="M 144.5,159.5 C 145.268,160.263 145.768,161.263 146,162.5C 146.5,169.492 146.666,176.492 146.5,183.5C 147.5,183.5 148.5,183.5 149.5,183.5C 149.5,186.167 149.5,188.833 149.5,191.5C 146.813,191.664 144.146,191.497 141.5,191C 140.354,190.355 139.354,189.522 138.5,188.5C 132.038,192.769 125.871,192.435 120,187.5C 117.237,181.415 118.404,176.248 123.5,172C 128.066,170.691 132.733,170.191 137.5,170.5C 137.5,169.5 137.5,168.5 137.5,167.5C 138.267,166.828 138.934,165.995 139.5,165C 138.107,163.829 137.273,162.329 137,160.5C 133.131,160.036 129.298,160.703 125.5,162.5C 121.677,161.405 121.511,159.738 125,157.5C 127.294,157.952 129.794,157.952 132.5,157.5C 136.629,158.855 140.629,159.521 144.5,159.5 Z"/></g>
<g><path style="opacity:1" fill="#381707" d="M 188.5,156.5 C 188.5,168.167 188.5,179.833 188.5,191.5C 187.5,191.5 186.5,191.5 185.5,191.5C 185.5,179.833 185.5,168.167 185.5,156.5C 186.5,156.5 187.5,156.5 188.5,156.5 Z"/></g>
<g><path style="opacity:1" fill="#341c0d" d="M 8.5,146.5 C 15.5079,146.334 22.5079,146.5 29.5,147C 32.4572,147.687 34.7906,149.187 36.5,151.5C 32.0832,150.272 27.5832,149.272 23,148.5C 18.7668,148.757 14.7668,149.757 11,151.5C 9.84648,164.676 9.34648,178.009 9.5,191.5C 8.50389,176.676 8.17056,161.676 8.5,146.5 Z"/></g>
<g><path style="opacity:1" fill="#381804" d="M 53.5,155.5 C 53.5,167.5 53.5,179.5 53.5,191.5C 50.5,191.5 47.5,191.5 44.5,191.5C 44.5,179.5 44.5,167.5 44.5,155.5C 47.5,155.5 50.5,155.5 53.5,155.5 Z"/></g>
<g><path style="opacity:1" fill="#988a84" d="M 189.5,156.5 C 189.167,156.5 188.833,156.5 188.5,156.5C 187.5,156.5 186.5,156.5 185.5,156.5C 185.5,168.167 185.5,179.833 185.5,191.5C 184.505,179.678 184.172,167.678 184.5,155.5C 186.415,155.216 188.081,155.549 189.5,156.5 Z"/></g>
<g><path style="opacity:1" fill="#6c5548" d="M 188.5,156.5 C 188.833,156.5 189.167,156.5 189.5,156.5C 189.5,168.5 189.5,180.5 189.5,192.5C 187.901,192.768 186.568,192.434 185.5,191.5C 186.5,191.5 187.5,191.5 188.5,191.5C 188.5,179.833 188.5,168.167 188.5,156.5 Z"/></g>
<g><path style="opacity:1" fill="#391809" d="M 84.5,155.5 C 84.6646,158.518 84.498,161.518 84,164.5C 79.1332,170.401 74.6332,176.567 70.5,183C 75.8229,183.499 81.1563,183.666 86.5,183.5C 86.5,186.167 86.5,188.833 86.5,191.5C 77.5,191.5 68.5,191.5 59.5,191.5C 58.8654,188.507 58.6987,185.507 59,182.5C 63.7167,176.623 68.2167,170.623 72.5,164.5C 73.0431,164.44 73.3764,164.107 73.5,163.5C 68.8804,162.507 64.2137,162.173 59.5,162.5C 59.5,160.167 59.5,157.833 59.5,155.5C 67.8333,155.5 76.1667,155.5 84.5,155.5 Z"/></g>
<g><path style="opacity:1" fill="#ede6e0" d="M 132.5,176.5 C 137.241,176.161 138.574,178.161 136.5,182.5C 134.368,184.117 132.035,184.617 129.5,184C 127.789,182.867 127.289,181.367 128,179.5C 129.409,178.219 130.909,177.219 132.5,176.5 Z"/></g>
<g><path style="opacity:1" fill="#3b1808" d="M 102.5,164.5 C 103.043,164.44 103.376,164.107 103.5,163.5C 98.8804,162.507 94.2137,162.173 89.5,162.5C 89.5,160.167 89.5,157.833 89.5,155.5C 97.8333,155.5 106.167,155.5 114.5,155.5C 114.665,158.518 114.498,161.518 114,164.5C 109.622,170.755 105.122,176.922 100.5,183C 105.823,183.499 111.156,183.666 116.5,183.5C 116.5,186.167 116.5,188.833 116.5,191.5C 107.5,191.5 98.5,191.5 89.5,191.5C 89.1231,188.475 88.9565,185.475 89,182.5C 93.7167,176.623 98.2167,170.623 102.5,164.5 Z"/></g>
<g><path style="opacity:1" fill="#3b1f14" d="M 242.5,188.5 C 242.5,189.5 242.5,190.5 242.5,191.5C 241.5,191.5 240.5,191.5 239.5,191.5C 237.606,190.952 235.94,189.952 234.5,188.5C 230.114,192.012 225.114,193.179 219.5,192C 212.801,187.813 211.801,182.479 216.5,176C 221.982,172.692 227.982,171.192 234.5,171.5C 235.511,162.343 231.511,158.51 222.5,160C 220.695,160.972 219.028,162.139 217.5,163.5C 215.717,162.652 215.217,161.319 216,159.5C 221.347,155.387 227.181,154.554 233.5,157C 235.81,158.637 237.31,160.804 238,163.5C 238.333,171.167 238.667,178.833 239,186.5C 239.71,187.973 240.876,188.64 242.5,188.5 Z"/></g>
<g><path style="opacity:1" fill="#f6f3ef" d="M 224.5,175.5 C 227.833,175.5 231.167,175.5 234.5,175.5C 235.794,185.373 231.461,189.873 221.5,189C 215.654,183.067 216.654,178.567 224.5,175.5 Z"/></g>
</svg>
