<svg width="82" height="19" viewBox="0 0 82 19" fill="none" xmlns="http://www.w3.org/2000/svg">
<path d="M8.30144 0.867628C8.47678 0.9 8.49227 0.919147 8.55891 1.07219L13.2569 13.9508C13.3162 14.1496 13.1815 14.3604 12.9611 14.3736H9.91378C9.71765 14.3615 9.68754 14.3331 9.61612 14.1616L8.6918 11.4895H5.13306L4.22612 14.16C4.15118 14.3425 4.11414 14.362 3.92797 14.3736H0.880645C0.67356 14.3611 0.521648 14.1625 0.584756 13.9508L5.28271 1.07219C5.36005 0.894584 5.3957 0.876445 5.5786 0.865234H8.26314C8.27587 0.86599 8.28871 0.866746 8.30144 0.867628ZM1.33072 13.7438H3.70224L4.60918 11.0734C4.68413 10.8908 4.72129 10.8713 4.90746 10.8597H8.91614C9.11214 10.8718 9.14225 10.9003 9.21367 11.0717L10.138 13.7438H12.511L8.04283 1.49505H5.79891C4.30951 5.57793 2.82011 9.66092 1.33072 13.7438ZM6.96118 4.25984C7.14005 4.29435 7.1563 4.31488 7.21978 4.47322L8.72531 9.02606C8.77695 9.22282 8.63915 9.42638 8.42639 9.43986H5.37907C5.17577 9.42701 5.02322 9.23743 5.08079 9.02392L6.62259 4.47108C6.70232 4.27634 6.73974 4.2451 6.96118 4.25984ZM5.81818 8.81004H7.99056L6.91722 5.56432C6.55092 6.64623 6.18449 7.72813 5.81818 8.81004Z" fill="white"/>
<path d="M17.2006 0.867502C17.4194 0.907558 17.4673 1.00921 17.4776 1.18014V14.0587C17.4673 14.2283 17.336 14.3632 17.1627 14.3736H14.188C14.0183 14.3634 13.8835 14.232 13.873 14.0587V1.18014C13.8832 1.0106 14.0146 0.875689 14.188 0.865234H17.1627C17.1753 0.86599 17.188 0.866746 17.2006 0.867502ZM14.5029 1.49505V13.7438H16.8478V1.49505C16.0661 1.49505 15.2845 1.49505 14.5029 1.49505Z" fill="white"/>
<path d="M33.2982 0.484689C33.4521 0.512905 33.5623 0.585586 33.5752 0.797332C33.5752 4.13072 33.5587 7.4641 33.5753 10.7975C33.5761 10.8533 33.5783 10.909 33.5841 10.9645C33.5875 10.9969 33.5922 11.0291 33.5986 11.0609C33.6024 11.0794 33.6068 11.0977 33.6122 11.1157C33.6576 11.2662 33.9498 11.2836 33.9498 11.2836C34.0866 11.325 34.1797 11.3908 34.1919 11.5899V14.0387C34.1668 14.4454 33.5458 14.4478 33.0677 14.4826C32.1212 14.5512 30.9707 14.4569 30.6149 13.2886C30.6149 13.2886 30.1633 13.7486 29.7005 14.0042C28.0509 14.9154 25.8106 14.622 24.4083 13.2942C21.926 10.944 22.2344 5.91387 25.5806 4.38277C27.0317 3.71894 28.8857 3.97465 30.0333 5.11727L30.0431 0.797332C30.0431 0.797332 30.105 0.497664 30.3581 0.482422H33.2603C33.2729 0.483178 33.2856 0.483933 33.2982 0.484689ZM30.673 1.11224V6.07573C30.673 6.07573 30.665 6.18897 30.6129 6.26077C30.459 6.47264 30.1643 6.35663 30.0046 6.09349C28.9253 4.34826 26.0369 4.15478 24.5053 5.98138C22.3542 8.54689 23.3275 13.6788 27.3456 13.8982C28.5847 13.9659 29.8755 13.4529 30.5387 12.3033C30.5387 12.3033 30.6653 12.1328 30.837 12.1467C31.2567 12.1807 31.0613 12.9655 31.3417 13.3687C31.7478 13.9526 32.5783 13.897 33.1582 13.843C33.2938 13.8305 33.4284 13.8085 33.5621 13.7831V11.8468C33.5502 11.843 33.5384 11.8391 33.5267 11.8351C33.1131 11.6867 32.9475 11.2088 32.9454 10.7744V1.11224C32.1878 1.11224 31.4304 1.11224 30.673 1.11224ZM28.2596 6.4865C29.3171 6.50413 30.2693 7.32025 30.6518 8.29144C30.6674 8.33112 30.6842 8.33918 30.6911 8.45191V10.4472C30.6801 10.6434 30.6296 10.6492 30.5863 10.7291C29.8408 12.1032 27.6672 12.6636 26.4442 11.2235C25.2821 9.85503 25.6955 7.28171 27.4773 6.61863C27.7265 6.52592 27.9926 6.48499 28.2596 6.4865ZM28.2232 7.11619C26.9166 7.12992 25.9874 8.90224 26.6125 10.313C27.0481 11.2958 28.3999 11.7922 29.3928 11.1329C29.6751 10.9455 29.9027 10.6817 30.0584 10.3799L30.0613 8.51074C30.0522 8.48819 30.0428 8.46577 30.0332 8.44335C29.7188 7.72573 29.046 7.13811 28.2696 7.11657C28.2541 7.11632 28.2387 7.11619 28.2232 7.11619Z" fill="white"/>
<path d="M40.105 4.02346C42.1697 4.03946 44.2222 5.1686 45.0334 7.09875C45.4428 8.0727 45.5798 9.18987 45.3856 10.2147C45.356 10.3714 45.2328 10.4853 45.0718 10.4939H38.3962C38.6538 11.6697 40.3326 12.2075 41.4381 11.427C41.6313 11.2906 41.7902 11.1031 41.8758 10.8817C41.8758 10.8817 42.0089 10.6381 42.2542 10.6919L44.7211 11.3811C45.2104 11.5474 44.6557 12.4183 44.0593 13.0128C41.4772 15.5859 36.2022 14.8258 34.926 11.1314C34.0041 8.46231 35.3616 5.10335 38.3355 4.2507C38.9084 4.08645 39.5065 4.02195 40.105 4.02346ZM40.0292 4.65328C38.4675 4.66538 36.8889 5.35818 36.0435 6.64502C34.8232 8.50211 35.0341 11.2212 36.704 12.7218C38.8079 14.6121 42.6329 14.2695 44.1591 11.8899L42.3381 11.3693C42.3296 11.3838 42.3207 11.3981 42.3119 11.4124C41.4836 12.7101 39.1909 12.8737 38.1717 11.5105C37.8988 11.1455 37.7615 10.692 37.7226 10.2356C37.7063 10.0447 37.8384 9.87474 38.0339 9.86403H44.8001C45.0041 7.87242 43.9963 5.74728 41.9627 4.97159C41.3499 4.73793 40.6901 4.65152 40.0292 4.65328ZM40.0583 6.10943C40.915 6.12215 41.7398 6.60157 42.1205 7.36453C42.3084 7.74129 42.5412 8.24275 42.3447 8.55199C42.2882 8.64092 42.1871 8.69206 42.0789 8.69811H37.9795C37.792 8.68766 37.6467 8.52541 37.6694 8.32085C37.7978 7.165 38.6969 6.14155 39.9699 6.10993C39.9994 6.10943 40.0288 6.1093 40.0583 6.10943ZM40.0056 6.73925C39.2429 6.75058 38.5519 7.27421 38.3531 8.06149L41.708 8.06829C41.7033 8.04877 41.6984 8.02924 41.6932 8.00984C41.4919 7.27421 40.8334 6.73521 40.0056 6.73925Z" fill="white"/>
<path d="M49.9585 4.02347C51.3641 4.03241 52.7563 4.43978 53.8546 5.36977C54.0031 5.49548 54.0994 5.67259 53.9974 5.85133L52.8728 7.59266C52.6237 7.93679 52.1135 7.45334 51.683 7.21111C50.941 6.79379 50.0234 6.44563 49.3385 6.78498C49.0623 6.92177 49.0222 7.34161 49.3859 7.51431C49.8099 7.71572 50.2807 7.80516 50.7394 7.93112C52.1103 8.31141 53.6537 8.70316 54.2367 9.97514C54.9295 11.4863 54.0667 13.4494 52.4305 14.1457C50.7972 14.8409 48.8537 14.613 47.2704 13.9514C46.689 13.7085 46.1398 13.3744 45.6757 12.9577C45.5544 12.8488 45.5135 12.6879 45.5884 12.5419L46.6223 10.7643C46.7406 10.5844 46.9655 10.5925 47.2048 10.7523C48.1839 11.4022 49.2962 11.9845 50.4511 11.8441C50.8193 11.7992 51.269 11.4637 50.9313 11.148C50.5318 10.7746 49.8681 10.7134 49.2733 10.5405C48.0318 10.1764 46.6013 9.83066 46.0377 8.70026C45.0522 6.72338 46.9482 4.08318 49.8164 4.02435C49.8638 4.02359 49.9111 4.02334 49.9585 4.02347ZM49.8997 4.65316C48.5014 4.66274 47.0359 5.31939 46.5755 6.65284C46.492 6.89457 46.4466 7.14838 46.4335 7.40359C46.4009 8.04298 46.6251 8.66852 47.204 9.04956C47.9021 9.5092 48.7414 9.73165 49.5652 9.96935C49.5652 9.96935 50.6895 10.2219 51.1995 10.5606C51.6869 10.8843 51.8249 11.6568 51.4013 12.0911C50.6737 12.837 49.2641 12.492 48.231 12.0389C47.8111 11.8548 47.4092 11.6319 47.0228 11.3857L46.9986 11.3701L46.2644 12.6325C47.5245 13.6631 49.2632 14.0465 50.9167 13.8762C52.1003 13.7543 53.3516 13.1431 53.7136 11.988C53.925 11.3139 53.9232 10.5366 53.505 9.96809C52.8499 9.07777 51.5969 8.81829 50.5106 8.52152C50.4217 8.49721 49.4215 8.30549 48.9262 7.97886C48.3523 7.60022 48.326 6.59238 49.0455 6.22721C50.0783 5.7032 51.4202 6.27016 52.5175 6.98198L53.3175 5.74325C52.3625 4.98382 51.1504 4.65039 49.8997 4.65316Z" fill="white"/>
<path d="M58.4718 4.20315C58.6906 4.2432 58.7385 4.34486 58.7488 4.51579V14.0387C58.7385 14.2082 58.6072 14.3431 58.4339 14.3536H55.5317C55.362 14.3434 55.2273 14.212 55.2168 14.0387V4.51579C55.227 4.34624 55.3584 4.21133 55.5317 4.20088H58.4339C58.4465 4.20163 58.4592 4.20239 58.4718 4.20315ZM55.8466 4.8307V13.7238H58.119V4.8307C57.3615 4.8307 56.604 4.8307 55.8466 4.8307ZM58.4718 0.484689C58.6258 0.512905 58.736 0.585586 58.7488 0.797332V3.42746C58.7385 3.59701 58.6072 3.73191 58.4339 3.74237H55.5317C55.362 3.73217 55.2273 3.60079 55.2168 3.42746V0.797332C55.227 0.627784 55.3584 0.492877 55.5317 0.482422H58.4339C58.4465 0.483178 58.4592 0.483933 58.4718 0.484689ZM55.8466 1.11224V3.11255H58.119V1.11224C57.3615 1.11224 56.604 1.11224 55.8466 1.11224Z" fill="white"/>
<path d="M70.063 4.22195C70.2596 4.28871 70.2836 4.33028 70.2964 4.52615C70.2964 7.49474 70.3052 10.4633 70.2963 13.4318C70.2828 14.9498 69.5877 16.4324 68.3139 17.3264C67.0473 18.2153 65.4169 18.4876 63.8852 18.391C62.3442 18.2939 60.8411 17.6485 59.7775 16.4879C59.6371 16.3346 59.5645 16.1334 59.7086 15.968L61.2686 14.3899C61.5347 14.1526 61.8433 14.5613 62.1575 14.8106C63.298 15.7153 65.1447 16.0304 66.1987 14.9949C66.6036 14.5971 66.76 13.9951 66.7643 13.4154C66.7643 13.4154 66.1177 13.9408 65.4897 14.1621C63.2243 14.961 60.5217 13.5697 59.7591 10.96C58.9876 8.31956 60.1265 5.04134 62.9363 4.21464C64.3765 3.7909 66.0293 4.05731 67.1342 5.15584L67.1453 4.52615C67.1453 4.52615 67.211 4.22762 67.4602 4.21124H69.9815C69.9815 4.21124 70.0193 4.21326 70.063 4.22195ZM64.2391 4.6598C62.4223 4.6763 60.7883 6.0284 60.316 7.92201C59.7613 10.1473 60.6699 12.8886 62.9431 13.6049C64.3355 14.0437 66.0654 13.6578 66.8034 12.3189C66.8034 12.3189 66.892 12.1799 67.0341 12.1593C67.2121 12.1335 67.3817 12.2819 67.3942 12.471C67.3942 13.2815 67.453 14.1041 67.0899 14.8216C66.195 16.5904 63.1733 16.6521 61.4997 15.0727L60.3686 16.1963C61.9745 17.8305 64.6086 18.1824 66.7804 17.4072C68.424 16.8205 69.6609 15.2604 69.6666 13.3955V4.84106H67.7751V6.08609C67.7534 6.41826 67.3393 6.46927 67.1031 6.11027C66.4791 5.17764 65.3773 4.65627 64.2391 4.6598ZM64.945 6.49686C65.9922 6.51311 66.9522 7.29257 67.3533 8.29827C67.3696 8.33908 67.3871 8.34777 67.3942 8.46227V10.4575C67.385 10.6135 67.4125 10.5157 67.2869 10.7373C66.6576 11.8479 65.2017 12.4774 63.9257 11.8338C62.1639 10.9454 61.8625 7.7138 63.9977 6.69853C64.291 6.55908 64.6172 6.49509 64.945 6.49686ZM64.9082 7.12655C63.141 7.14507 62.2031 10.5732 64.4163 11.3606C65.2696 11.6642 66.2827 11.2535 66.7562 10.3958L66.7644 8.52185C66.7572 8.50397 66.7498 8.48633 66.7423 8.4687C66.4281 7.73987 65.75 7.15565 64.9737 7.12743C64.9519 7.1268 64.9301 7.12655 64.9082 7.12655Z" fill="white"/>
<path d="M74.67 4.21101C74.8116 4.24892 74.9117 4.37073 74.9195 4.51899V5.22691C75.0143 5.13584 75.2234 4.95457 75.4367 4.81173C76.2262 4.28331 77.187 4.047 78.1422 4.02458C79.2667 3.99826 80.4604 4.42326 81.0358 5.57255C81.1592 5.81894 81.2538 6.07943 81.3189 6.34723C81.4392 6.84202 81.4787 7.3562 81.4853 7.869L81.4858 7.94685V14.0419C81.4769 14.2128 81.345 14.3476 81.1709 14.3568H78.2687C78.0977 14.3478 77.9628 14.2161 77.9538 14.0419C77.9538 12.249 77.9592 10.4563 77.9536 8.66346C77.949 8.14008 77.8822 7.55598 77.4146 7.30834C76.6968 6.92818 75.7585 7.62451 75.3653 8.30698C75.2909 8.43635 75.2098 8.63739 75.2098 8.63739V14.0419C75.2098 14.0419 75.1441 14.3437 74.8949 14.3568H71.9926C71.8217 14.3478 71.6868 14.2161 71.6777 14.0419V4.51899C71.6867 4.34806 71.8184 4.21315 71.9926 4.20408H74.6046C74.6046 4.20408 74.6349 4.20534 74.67 4.21101ZM77.0241 6.58077C77.7009 6.60042 78.3003 7.11158 78.4787 7.77378C78.559 8.07193 78.5826 8.38256 78.5836 8.69042V13.727H80.856C80.856 11.7884 80.8605 9.84991 80.8558 7.91145C80.8469 6.77513 80.6575 5.50945 79.5865 4.91817C78.8812 4.52869 77.9715 4.586 77.1258 4.77545C76.2219 4.97788 75.3735 5.4767 74.8718 6.28173C74.8718 6.28173 74.5047 6.56225 74.3342 6.27669C74.3053 6.22832 74.2927 6.17277 74.2897 6.11521V4.8339H72.3076V13.727H74.5799V8.58209C74.5872 8.41002 74.6269 8.39528 74.6549 8.32764C75.0566 7.35557 75.9872 6.56276 77.0241 6.58077Z" fill="white"/>
</svg>
