<svg width="32" height="32" viewBox="0 0 32 32" fill="none" xmlns="http://www.w3.org/2000/svg">
<path fill-rule="evenodd" clip-rule="evenodd" d="M17.3932 19.2192H20.6604C21.0448 18.3543 21.3331 17.3934 21.5253 16.4324L17.201 16.8168C17.0088 17.5856 16.7205 18.4504 16.4322 19.2192C16.7205 19.2192 17.0088 19.2192 17.3932 19.2192ZM25.5613 24.7928C26.7145 24.7928 27.6754 25.7537 27.6754 26.9069C27.6754 28.06 26.7145 29.021 25.5613 29.021C24.4082 29.021 23.4472 28.06 23.4472 26.9069C23.4472 25.7537 24.4082 24.7928 25.5613 24.7928ZM12.3962 24.7928C13.5493 24.7928 14.5103 25.7537 14.5103 26.9069C14.5103 28.06 13.5493 29.021 12.3962 29.021C11.243 29.021 10.282 28.06 10.282 26.9069C10.282 25.7537 11.243 24.7928 12.3962 24.7928ZM21.7175 14.991C21.8136 14.7988 21.8136 14.7027 21.8136 14.6066C21.9097 13.9339 21.9097 13.1652 21.9097 12.4925L17.4893 12.973C17.4893 13.4534 17.4893 13.9339 17.4893 14.4144C17.4893 14.7027 17.3932 15.0871 17.3932 15.3754L21.7175 14.991ZM12.0118 15.8558L15.9517 15.4715C15.9517 15.0871 16.0478 14.7027 16.0478 14.4144C16.0478 13.9339 16.0478 13.5495 16.0478 13.0691L11.5313 13.6456C11.7235 14.5105 11.9157 15.1832 12.0118 15.8558ZM23.255 14.7988L27.9637 14.4144C27.9637 14.2222 27.9637 14.1261 27.9637 13.9339C28.0598 13.2613 28.1559 12.4925 28.1559 11.7237L23.3511 12.3003C23.3511 13.0691 23.3511 13.9339 23.255 14.7027V14.7988ZM27.5793 15.8558L22.9667 16.2402C22.8706 17.2973 22.5823 18.2582 22.198 19.2192H26.4262C26.9067 18.1622 27.2911 17.009 27.5793 15.8558ZM15.6634 16.9129L12.4923 17.2973C12.9727 18.6426 13.6454 19.027 14.8947 19.2192C15.1829 18.4504 15.4712 17.6817 15.6634 16.9129ZM21.9097 11.051C21.8136 10.0901 21.7175 9.12912 21.6214 8.26426L17.1049 8.93693C17.201 9.8018 17.3932 10.6667 17.3932 11.5315L21.9097 11.051ZM11.1469 12.2042L16.0478 11.6276C15.9517 10.8589 15.8556 9.99399 15.6634 9.12912L10.0899 9.89789L11.1469 12.2042ZM23.3511 10.8589L28.252 10.2823C28.252 9.32132 28.1559 8.36035 28.0598 7.39939L23.0628 8.07207C23.1589 8.93693 23.255 9.89789 23.3511 10.8589ZM27.5793 20.0841C27.5793 20.5646 27.2911 20.9489 26.7145 20.9489H12.5884C11.9157 20.9489 12.0118 22.2943 12.5884 22.2943H26.7145C27.7715 22.2943 27.7715 23.8318 26.7145 23.8318H11.7235C10.0899 23.8318 9.89766 23.5435 9.89766 21.8138C9.89766 12.6847 9.99376 13.1652 6.24601 4.70871H2.40217C1.34511 4.70871 1.34511 3.07507 2.40217 3.07507H6.34211C6.6304 3.07507 6.91868 3.17117 7.01478 3.36336L9.41718 8.55255L29.5974 5.76576C30.5583 5.66967 30.7505 7.01501 29.7896 7.2072H29.5013C29.7896 9.6096 29.6935 11.9159 29.4052 14.1261C29.1169 16.3363 28.4442 18.3543 27.5793 20.0841Z" fill="#F15A29"/>
</svg>
