<svg width="140" height="30" viewBox="0 0 140 30" fill="none" xmlns="http://www.w3.org/2000/svg">
<rect width="140" height="30" rx="1" fill="#F15A29"/>
<path d="M58.5117 15.4297H57.252V20H55.4062V9.33594H57.252V13.8184H58.27L61.4048 9.33594H63.6753L60.0132 14.4409L63.9976 20H61.771L58.5117 15.4297ZM64.3125 15.9644C64.3125 15.188 64.4663 14.4897 64.7739 13.8696C65.0815 13.2446 65.5137 12.7661 66.0703 12.4341C66.627 12.0972 67.2666 11.9287 67.9893 11.9287C69.0586 11.9287 69.9253 12.2729 70.5894 12.9614C71.2583 13.6499 71.6196 14.563 71.6733 15.7007L71.6807 16.1182C71.6807 16.8994 71.5293 17.5977 71.2266 18.2129C70.9287 18.8281 70.499 19.3042 69.9375 19.6411C69.3809 19.978 68.7363 20.1465 68.0039 20.1465C66.8857 20.1465 65.9897 19.7754 65.3159 19.0332C64.647 18.2861 64.3125 17.2925 64.3125 16.0522V15.9644ZM66.0923 16.1182C66.0923 16.9336 66.2607 17.5732 66.5977 18.0371C66.9346 18.4961 67.4033 18.7256 68.0039 18.7256C68.6045 18.7256 69.0708 18.4912 69.4028 18.0225C69.7397 17.5537 69.9082 16.8677 69.9082 15.9644C69.9082 15.1636 69.7349 14.5288 69.3882 14.0601C69.0464 13.5913 68.5801 13.3569 67.9893 13.3569C67.4082 13.3569 66.9468 13.5889 66.605 14.0527C66.2632 14.5117 66.0923 15.2002 66.0923 16.1182ZM80.1255 16.1182C80.1255 17.3438 79.8472 18.3228 79.2905 19.0552C78.7339 19.7827 77.9868 20.1465 77.0493 20.1465C76.1802 20.1465 75.4844 19.8608 74.9619 19.2896V23.0469H73.1821V12.0752H74.8228L74.896 12.8809C75.4185 12.2461 76.1289 11.9287 77.0273 11.9287C77.9941 11.9287 78.751 12.29 79.2979 13.0127C79.8496 13.7305 80.1255 14.729 80.1255 16.0083V16.1182ZM78.353 15.9644C78.353 15.1733 78.1943 14.5459 77.877 14.082C77.5645 13.6182 77.1152 13.3862 76.5293 13.3862C75.8018 13.3862 75.2793 13.6865 74.9619 14.2871V17.8027C75.2842 18.418 75.8115 18.7256 76.5439 18.7256C77.1104 18.7256 77.5522 18.4985 77.8696 18.0444C78.1919 17.5854 78.353 16.8921 78.353 15.9644ZM87.6401 14.2432C87.6401 14.5947 87.5327 14.9194 87.3179 15.2173C87.1079 15.5103 86.8101 15.7446 86.4243 15.9204C87.3325 16.2378 87.7866 16.8506 87.7866 17.7588C87.7866 18.4863 87.4912 19.0674 86.9004 19.502C86.3096 19.9316 85.5186 20.1465 84.5273 20.1465C83.9219 20.1465 83.3701 20.0464 82.8721 19.8462C82.374 19.6411 81.9858 19.353 81.7075 18.9819C81.4292 18.606 81.29 18.1616 81.29 17.6489H83.0625C83.0625 17.9712 83.2065 18.2422 83.4946 18.4619C83.7827 18.6768 84.1465 18.7842 84.5859 18.7842C85.0205 18.7842 85.3647 18.6841 85.6187 18.4839C85.8774 18.2788 86.0068 18.0127 86.0068 17.6855C86.0068 17.2998 85.8945 17.0215 85.6699 16.8506C85.4453 16.6797 85.0986 16.5942 84.6299 16.5942H83.3555V15.3125H84.6738C85.4697 15.3027 85.8677 14.9756 85.8677 14.3311C85.8677 14.0088 85.7529 13.7573 85.5234 13.5767C85.2939 13.396 84.979 13.3057 84.5786 13.3057C84.188 13.3057 83.8584 13.4033 83.5898 13.5986C83.3213 13.7891 83.187 14.0308 83.187 14.3237H81.4146C81.4146 13.6255 81.7075 13.0542 82.2935 12.6099C82.8794 12.1606 83.624 11.936 84.5273 11.936C85.5088 11.936 86.2729 12.1362 86.8198 12.5366C87.3667 12.937 87.6401 13.5059 87.6401 14.2432ZM94.2466 12.0752H96.019V20H94.2466V14.7119L91.1411 20H89.3687V12.0752H91.1411V17.3633L94.2466 12.0752ZM104.625 20H102.845V16.7993H99.7617V20H97.9819V12.0752H99.7617V15.3784H102.845V12.0752H104.625V20ZM111.261 20C111.183 19.8486 111.114 19.6021 111.056 19.2603C110.489 19.8511 109.796 20.1465 108.976 20.1465C108.18 20.1465 107.53 19.9194 107.027 19.4653C106.524 19.0112 106.273 18.4497 106.273 17.7808C106.273 16.936 106.585 16.2891 107.21 15.8398C107.84 15.3857 108.739 15.1587 109.906 15.1587H110.997V14.6387C110.997 14.2285 110.882 13.9014 110.653 13.6572C110.423 13.4082 110.074 13.2837 109.605 13.2837C109.2 13.2837 108.868 13.3862 108.609 13.5913C108.351 13.7915 108.221 14.0479 108.221 14.3604H106.441C106.441 13.9258 106.585 13.5205 106.874 13.1445C107.162 12.7637 107.552 12.4658 108.045 12.251C108.543 12.0361 109.098 11.9287 109.708 11.9287C110.636 11.9287 111.375 12.1631 111.927 12.6318C112.479 13.0957 112.762 13.75 112.777 14.5947V18.1689C112.777 18.8818 112.877 19.4507 113.077 19.8755V20H111.261ZM109.305 18.7183C109.657 18.7183 109.986 18.6328 110.294 18.4619C110.606 18.291 110.841 18.0615 110.997 17.7734V16.2793H110.038C109.378 16.2793 108.883 16.394 108.551 16.6235C108.219 16.853 108.053 17.1777 108.053 17.5977C108.053 17.9395 108.165 18.2129 108.39 18.418C108.619 18.6182 108.924 18.7183 109.305 18.7183Z" fill="white"/>
<path fill-rule="evenodd" clip-rule="evenodd" d="M23.7838 18.1441H27.0511C27.4354 17.2793 27.7237 16.3183 27.9159 15.3573L23.5916 15.7417C23.3994 16.5105 23.1111 17.3754 22.8228 18.1441C23.1111 18.1441 23.3994 18.1441 23.7838 18.1441ZM31.952 23.7177C33.1051 23.7177 34.0661 24.6787 34.0661 25.8318C34.0661 26.985 33.1051 27.9459 31.952 27.9459C30.7988 27.9459 29.8378 26.985 29.8378 25.8318C29.8378 24.6787 30.7988 23.7177 31.952 23.7177ZM18.7868 23.7177C19.9399 23.7177 20.9009 24.6787 20.9009 25.8318C20.9009 26.985 19.9399 27.9459 18.7868 27.9459C17.6336 27.9459 16.6727 26.985 16.6727 25.8318C16.6727 24.6787 17.6336 23.7177 18.7868 23.7177ZM28.1081 13.9159C28.2042 13.7237 28.2042 13.6276 28.2042 13.5315C28.3003 12.8589 28.3003 12.0901 28.3003 11.4174L23.8799 11.8979C23.8799 12.3784 23.8799 12.8589 23.8799 13.3393C23.8799 13.6276 23.7838 14.012 23.7838 14.3003L28.1081 13.9159ZM18.4024 14.7808L22.3423 14.3964C22.3423 14.012 22.4384 13.6276 22.4384 13.3393C22.4384 12.8589 22.4384 12.4745 22.4384 11.994L17.9219 12.5706C18.1141 13.4354 18.3063 14.1081 18.4024 14.7808ZM29.6456 13.7237L34.3544 13.3393C34.3544 13.1471 34.3544 13.051 34.3544 12.8589C34.4505 12.1862 34.5465 11.4174 34.5465 10.6486L29.7417 11.2252C29.7417 11.994 29.7417 12.8589 29.6456 13.6276V13.7237ZM33.97 14.7808L29.3574 15.1652C29.2613 16.2222 28.973 17.1832 28.5886 18.1441H32.8168C33.2973 17.0871 33.6817 15.9339 33.97 14.7808ZM22.0541 15.8378L18.8829 16.2222C19.3634 17.5676 20.036 17.9519 21.2853 18.1441C21.5736 17.3754 21.8619 16.6066 22.0541 15.8378ZM28.3003 9.97597C28.2042 9.01501 28.1081 8.05405 28.012 7.18919L23.4955 7.86186C23.5916 8.72672 23.7838 9.59159 23.7838 10.4565L28.3003 9.97597ZM17.5375 11.1291L22.4384 10.5525C22.3423 9.78378 22.2462 8.91891 22.0541 8.05405L16.4805 8.82282L17.5375 11.1291ZM29.7417 9.78378L34.6426 9.2072C34.6426 8.24624 34.5465 7.28528 34.4505 6.32432L29.4535 6.99699C29.5496 7.86186 29.6456 8.82282 29.7417 9.78378ZM33.97 19.009C33.97 19.4895 33.6817 19.8739 33.1051 19.8739H18.979C18.3063 19.8739 18.4024 21.2192 18.979 21.2192H33.1051C34.1622 21.2192 34.1622 22.7567 33.1051 22.7567H18.1141C16.4805 22.7567 16.2883 22.4685 16.2883 20.7387C16.2883 11.6096 16.3844 12.0901 12.6366 3.63363H8.79279C7.73574 3.63363 7.73574 2 8.79279 2H12.7327C13.021 2 13.3093 2.0961 13.4054 2.28829L15.8078 7.47747L35.988 4.69069C36.9489 4.59459 37.1411 5.93994 36.1802 6.13213H35.8919C36.1802 8.53453 36.0841 10.8408 35.7958 13.051C35.5075 15.2613 34.8348 17.2793 33.97 19.009Z" fill="white"/>
</svg>
