<svg width="202" height="43" viewBox="0 0 202 43" fill="none" xmlns="http://www.w3.org/2000/svg">
<path d="M197.173 1.91613C182.855 -2.54692 50.0416 3.15334 35.8873 5.03507C25.876 5.75118 15.9037 7.02671 6.03942 9.6367C2.46885 10.5809 1.26573 16.8046 2.14259 21.4006C-1.31587 25.6183 0.395364 37.844 5.41963 36.7062C6.28474 36.5104 7.15197 36.3361 8.01783 36.1559C8.49372 39.7959 10.1887 43.0195 12.9727 42.9246C26.1805 42.4717 157.97 36.3919 171.177 35.9391C172.507 35.8928 173.516 35.0942 174.22 33.8735C178.804 33.3873 183.382 32.8486 187.957 32.2322C191.313 31.7803 192.944 25.5135 192.063 20.8217C194.042 19.9831 196.006 19.0492 197.949 17.9964C202.259 15.6607 202.064 3.43979 197.173 1.91613Z" fill="#F15A29"/>
</svg>
