<svg width="46" height="46" viewBox="0 0 46 46" fill="none" xmlns="http://www.w3.org/2000/svg">
<g filter="url(#filter0_d)">
<circle cx="23" cy="23" r="20" fill="white"/>
</g>
<rect width="28" height="28" transform="translate(9 9)" fill="white"/>
<path d="M33.8247 31.3151C33.6716 31.3151 33.5184 31.3151 33.3653 31.3151C32.9442 31.3151 32.5204 31.3151 32.0993 31.3151C31.4594 31.3151 30.8223 31.3151 30.1825 31.3151C29.3895 31.3151 28.5993 31.3151 27.8063 31.3151C26.9149 31.3151 26.0235 31.3151 25.1321 31.3151C24.1969 31.3151 23.2645 31.3151 22.3294 31.3151C21.4051 31.3151 20.4782 31.3151 19.554 31.3151C18.7036 31.3151 17.8532 31.3151 17.0028 31.3151C16.2782 31.3151 15.5536 31.3151 14.8317 31.3151C14.2903 31.3151 13.7489 31.3151 13.2102 31.3151C12.9094 31.3151 12.6087 31.3151 12.3051 31.3151C12.2614 31.3151 12.2176 31.3151 12.1739 31.3151C12.1219 31.3151 12.0727 31.3124 12.0208 31.3069C11.9169 31.2987 12.1192 31.3288 12.018 31.3042C11.977 31.2932 11.9333 31.285 11.8923 31.2741C11.8512 31.2632 11.8102 31.2468 11.7719 31.2331C11.6762 31.2003 11.8567 31.2796 11.7692 31.2304C11.7008 31.1921 11.6325 31.1565 11.5669 31.1128C11.5614 31.11 11.5231 31.0854 11.5231 31.0827C11.5231 31.0772 11.6079 31.1565 11.5641 31.1128C11.5341 31.0827 11.5012 31.0581 11.4712 31.028C11.4466 31.0034 11.4219 30.9761 11.3973 30.9515C11.3864 30.9378 11.3755 30.9241 11.3618 30.9104C11.3126 30.864 11.4165 30.9952 11.3809 30.935C11.3426 30.8722 11.3016 30.8175 11.2661 30.7518C11.2579 30.7354 11.2497 30.719 11.2415 30.7026C11.2005 30.6315 11.2469 30.73 11.2524 30.7327C11.236 30.7245 11.2169 30.6315 11.2087 30.6124C11.1977 30.5768 11.1895 30.5413 11.1786 30.5057C11.1731 30.4839 11.1567 30.3663 11.1649 30.4511C11.1731 30.5386 11.1622 30.4128 11.1622 30.3936C11.1594 30.3608 11.1594 30.3307 11.1594 30.2979C11.1594 30.2925 11.1594 30.2897 11.1594 30.2843C11.1594 30.2542 11.1594 30.2241 11.1594 30.1913C11.1594 30.0518 11.1594 29.9097 11.1594 29.7702C11.1594 29.2261 11.1594 28.6819 11.1594 28.1378C11.1594 27.3448 11.1594 26.5518 11.1594 25.7589C11.1594 24.8374 11.1594 23.9159 11.1594 22.9944C11.1594 22.0784 11.1594 21.1597 11.1594 20.2436C11.1594 19.4507 11.1594 18.6577 11.1594 17.8647C11.1594 17.3179 11.1594 16.7737 11.1594 16.2268C11.1594 16.0847 11.1594 15.9452 11.1594 15.803C11.1594 15.7729 11.1594 15.7401 11.1594 15.71C11.1594 15.7046 11.1594 15.7018 11.1594 15.6964C11.1594 15.639 11.1649 15.5815 11.1676 15.5241C11.1731 15.4612 11.1622 15.5761 11.1622 15.5761C11.1704 15.5651 11.1704 15.535 11.1731 15.5214C11.1841 15.4722 11.195 15.4257 11.2087 15.3792C11.2196 15.3436 11.2333 15.3108 11.2442 15.2753C11.2633 15.2151 11.2278 15.3245 11.2251 15.3218C11.2223 15.319 11.2469 15.278 11.2497 15.2725C11.288 15.2042 11.3262 15.1386 11.37 15.0729C11.4247 14.9909 11.3044 15.144 11.3727 15.0702C11.4001 15.0401 11.4274 15.0073 11.4575 14.9772C11.4821 14.9526 11.5094 14.928 11.5368 14.9034C11.5395 14.9007 11.5751 14.8679 11.5778 14.8679C11.5751 14.8679 11.4794 14.9362 11.5532 14.8897C11.6133 14.8515 11.6735 14.8104 11.7364 14.7776C11.7337 14.7804 11.7993 14.7448 11.802 14.7448C11.8048 14.7475 11.6954 14.7831 11.7555 14.764C11.7966 14.7503 11.8348 14.7339 11.8758 14.7229C11.9114 14.712 11.9469 14.7038 11.9825 14.6956C12.0016 14.6929 12.018 14.6901 12.0372 14.6847C12.0946 14.671 11.9852 14.6901 11.9852 14.6901C12.0481 14.6929 12.1137 14.6792 12.1766 14.6792C12.2204 14.6792 12.2614 14.6792 12.3051 14.6792C12.6059 14.6792 12.9067 14.6792 13.2048 14.6792C13.7434 14.6792 14.2848 14.6792 14.8235 14.6792C15.5454 14.6792 16.27 14.6792 16.9919 14.6792C17.845 14.6792 18.7008 14.6792 19.554 14.6792C20.4755 14.6792 21.3942 14.6792 22.3157 14.6792C23.2508 14.6792 24.1833 14.6792 25.1184 14.6792C26.0098 14.6792 26.9012 14.6792 27.7926 14.6792C28.5883 14.6792 29.3841 14.6792 30.1798 14.6792C30.8169 14.6792 31.4512 14.6792 32.0883 14.6792C32.5122 14.6792 32.936 14.6792 33.3598 14.6792C33.5157 14.6792 33.6688 14.6765 33.8247 14.6792C33.8575 14.6792 33.8876 14.6792 33.9204 14.6819C33.9395 14.6819 33.9587 14.6847 33.9778 14.6874C34.079 14.6956 33.9532 14.6901 33.945 14.6819C33.9997 14.7175 34.1118 14.7175 34.1774 14.7393C34.1938 14.7448 34.213 14.7503 34.2294 14.7585C34.2594 14.7694 34.2758 14.794 34.2321 14.7585C34.1747 14.712 34.2567 14.7722 34.2813 14.7858C34.3196 14.805 34.3551 14.8268 34.3907 14.8487C34.4126 14.8624 34.5083 14.9417 34.4536 14.8897C34.3934 14.8323 34.4782 14.9143 34.4946 14.928C34.5219 14.9526 34.5466 14.9772 34.5712 15.0018C34.5958 15.0265 34.6176 15.0565 34.6423 15.0811C34.686 15.1249 34.6067 15.0401 34.6122 15.0401C34.6231 15.0401 34.6587 15.1057 34.6641 15.114C34.7051 15.1741 34.7325 15.2397 34.7708 15.3026C34.8036 15.3573 34.7462 15.2534 34.7516 15.2561C34.7571 15.2589 34.768 15.2999 34.7708 15.3081C34.7844 15.3491 34.7981 15.3901 34.8091 15.4311C34.82 15.4722 34.8282 15.5159 34.8364 15.5569C34.8501 15.6171 34.8309 15.505 34.8309 15.505C34.8309 15.5241 34.8364 15.5432 34.8364 15.5624C34.8391 15.6061 34.8419 15.6526 34.8419 15.6964C34.8419 15.7018 34.8419 15.7073 34.8419 15.7128C34.8419 15.7456 34.8419 15.7757 34.8419 15.8085C34.8419 16.1913 34.8419 16.5714 34.8419 16.9542C34.8419 17.6432 34.8419 18.3323 34.8419 19.0214C34.8419 19.8936 34.8419 20.7659 34.8419 21.6382C34.8419 22.5706 34.8419 23.503 34.8419 24.4354C34.8419 25.3077 34.8419 26.18 34.8419 27.055C34.8419 27.7358 34.8419 28.4167 34.8419 29.0948C34.8419 29.464 34.8419 29.8331 34.8419 30.1995C34.8419 30.2268 34.8419 30.2569 34.8419 30.2843C34.8419 30.287 34.8419 30.2925 34.8419 30.2952C34.8419 30.3581 34.8282 30.4237 34.8309 30.4866C34.8309 30.4839 34.8501 30.3745 34.8364 30.4347C34.8309 30.4538 34.8282 30.4702 34.8255 30.4893C34.8173 30.5249 34.8091 30.5604 34.7981 30.596C34.7872 30.6315 34.7762 30.6643 34.7626 30.6999C34.7298 30.7956 34.809 30.6151 34.7598 30.7026C34.7215 30.771 34.686 30.8393 34.6423 30.905C34.6395 30.9104 34.6149 30.9487 34.6122 30.9487C34.6067 30.9487 34.686 30.864 34.6423 30.9077C34.6176 30.9323 34.5958 30.9624 34.5712 30.987C34.5466 31.0116 34.5219 31.039 34.4946 31.0608C34.4809 31.0718 34.4673 31.0854 34.4536 31.0964C34.3934 31.1538 34.4809 31.08 34.4809 31.0772C34.4809 31.1046 34.3251 31.1784 34.3005 31.1921C34.2923 31.1975 34.2102 31.2468 34.2048 31.2413C34.202 31.2386 34.3114 31.203 34.2512 31.2222C34.2348 31.2276 34.2184 31.2358 34.1993 31.2413C34.1227 31.2686 34.0462 31.2823 33.9669 31.3015C33.9094 31.3151 34.0188 31.296 34.0188 31.296C33.9997 31.296 33.9805 31.3015 33.9614 31.3015C33.9149 31.3124 33.8712 31.3151 33.8247 31.3151C33.5376 31.3179 33.2641 31.564 33.2778 31.862C33.2915 32.1546 33.5184 32.4116 33.8247 32.4089C34.5985 32.4007 35.3559 31.9659 35.7005 31.2604C35.8591 30.9378 35.9301 30.596 35.9301 30.2378C35.9301 29.8905 35.9301 29.5405 35.9301 29.1932C35.9301 28.5151 35.9301 27.8397 35.9301 27.1616C35.9301 26.2893 35.9301 25.4171 35.9301 24.5475C35.9301 23.6015 35.9301 22.6554 35.9301 21.7093C35.9301 20.8261 35.9301 19.9429 35.9301 19.0597C35.9301 18.3597 35.9301 17.6597 35.9301 16.9597C35.9301 16.5768 35.9301 16.1913 35.9301 15.8085C35.9301 15.5925 35.9165 15.3765 35.8618 15.1632C35.6704 14.4222 35.0415 13.8015 34.2868 13.6456C33.9997 13.5854 33.718 13.5936 33.4282 13.5936C33.0208 13.5936 32.6106 13.5936 32.2032 13.5936C31.5716 13.5936 30.9372 13.5936 30.3055 13.5936C29.5126 13.5936 28.7196 13.5936 27.9266 13.5936C27.0243 13.5936 26.1247 13.5936 25.2223 13.5936C24.2762 13.5936 23.3274 13.5936 22.3813 13.5936C21.4516 13.5936 20.5192 13.5936 19.5895 13.5936C18.7255 13.5936 17.8614 13.5936 17.0001 13.5936C16.27 13.5936 15.5399 13.5936 14.8098 13.5936C14.2657 13.5936 13.7188 13.5936 13.1747 13.5936C12.8794 13.5936 12.5813 13.5936 12.286 13.5936C12.2231 13.5936 12.1575 13.5936 12.0946 13.5964C11.3235 13.6347 10.5798 14.0913 10.2653 14.8104C10.0684 15.2616 10.0657 15.6936 10.0657 16.164C10.0657 16.6972 10.0657 17.2304 10.0657 17.7608C10.0657 18.5565 10.0657 19.3522 10.0657 20.1479C10.0657 21.0722 10.0657 21.9964 10.0657 22.9206C10.0657 23.853 10.0657 24.7827 10.0657 25.7151C10.0657 26.519 10.0657 27.3202 10.0657 28.1241C10.0657 28.6765 10.0657 29.2288 10.0657 29.7839C10.0657 30.1585 10.0411 30.5495 10.1559 30.9132C10.3829 31.6432 11.0173 32.2503 11.7829 32.3733C11.9442 32.3979 12.1001 32.4116 12.2641 32.4116C12.5458 32.4116 12.8301 32.4116 13.1118 32.4116C13.6423 32.4116 14.1727 32.4116 14.7032 32.4116C15.4278 32.4116 16.1524 32.4116 16.877 32.4116C17.7301 32.4116 18.586 32.4116 19.4391 32.4116C20.3716 32.4116 21.304 32.4116 22.2364 32.4116C23.1798 32.4116 24.1231 32.4116 25.0665 32.4116C25.9715 32.4116 26.8766 32.4116 27.7817 32.4116C28.5856 32.4116 29.3895 32.4116 30.1934 32.4116C30.8333 32.4116 31.4731 32.4116 32.113 32.4116C32.5368 32.4116 32.9606 32.4116 33.3872 32.4116C33.5321 32.4116 33.6798 32.4116 33.8247 32.4116C34.1118 32.4116 34.3852 32.16 34.3716 31.8647C34.3579 31.5667 34.1309 31.3151 33.8247 31.3151Z" fill="#F15A29"/>
<path d="M34.4425 14.3073C34.0624 14.6491 33.6796 14.9909 33.2996 15.3327C32.4027 16.1393 31.5031 16.9432 30.6062 17.7499C29.5398 18.7069 28.4734 19.6639 27.407 20.6182C26.5292 21.4057 25.6542 22.1905 24.7765 22.978C24.5195 23.2077 24.2652 23.4374 24.0081 23.667C23.9453 23.7245 23.8796 23.7819 23.8167 23.8393C23.8031 23.8502 23.7921 23.8639 23.7785 23.8749C23.7757 23.8776 23.7757 23.8776 23.773 23.8803C23.762 23.8913 23.7292 23.9268 23.7101 23.9323C23.7265 23.9213 23.7402 23.9077 23.7566 23.8967C23.7347 23.9131 23.7128 23.9295 23.691 23.9432C23.6363 23.9815 23.5788 24.0143 23.5214 24.0444C23.4886 24.0608 23.4503 24.0854 23.4148 24.0963C23.4285 24.0936 23.5296 24.0553 23.4367 24.0854C23.3738 24.1045 23.3136 24.1264 23.2507 24.1401C23.2261 24.1456 23.2015 24.151 23.1742 24.1565C23.0456 24.1893 23.2972 24.151 23.1687 24.1592C23.1058 24.1647 23.0402 24.1674 22.9773 24.1674C22.9281 24.1674 22.8324 24.1756 22.7859 24.1538C22.8706 24.192 22.8652 24.1674 22.816 24.1565C22.7777 24.1483 22.7394 24.1401 22.7038 24.1319C22.6464 24.1182 22.5945 24.0963 22.5371 24.0799C22.4605 24.0581 22.6574 24.1401 22.5425 24.0827C22.507 24.0663 22.4714 24.0471 22.4386 24.0307C22.3812 23.9979 22.3265 23.9624 22.2691 23.9241C22.1843 23.8666 22.2718 23.9323 22.2828 23.935C22.28 23.9323 22.2226 23.8831 22.2199 23.8831C22.2171 23.8803 22.2171 23.8803 22.2144 23.8776C22.2007 23.8639 22.187 23.853 22.1734 23.8393C21.9984 23.6807 21.8206 23.5221 21.6456 23.3663C20.8691 22.669 20.0925 21.9745 19.316 21.2772C18.2632 20.3311 17.2105 19.3877 16.1578 18.4416C15.1843 17.5694 14.2136 16.6971 13.2402 15.8221C12.7042 15.3409 12.1656 14.8596 11.6296 14.3784C11.605 14.3565 11.5777 14.3319 11.5531 14.31C11.3398 14.1186 10.987 14.0831 10.7792 14.31C10.5878 14.5178 10.5523 14.8788 10.7792 15.0838C11.1648 15.4311 11.5503 15.7756 11.9359 16.1229C12.8464 16.9405 13.757 17.7553 14.6648 18.5729C15.7367 19.5354 16.8085 20.4979 17.8804 21.4604C18.7527 22.2424 19.6249 23.0272 20.4972 23.8092C20.746 24.0334 20.9949 24.2549 21.2437 24.4791C21.4953 24.7034 21.7441 24.9249 22.0585 25.0616C22.6792 25.3295 23.3464 25.3241 23.9644 25.0452C24.1913 24.944 24.391 24.7936 24.5742 24.6295C24.7382 24.4819 24.905 24.3342 25.0691 24.1838C25.8374 23.4948 26.6058 22.8057 27.3742 22.1166C28.4351 21.1651 29.496 20.2135 30.5542 19.262C31.5331 18.3842 32.5121 17.5038 33.491 16.626C34.0378 16.1366 34.5847 15.6444 35.1316 15.1549C35.1562 15.1331 35.1835 15.1084 35.2081 15.0866C35.4214 14.8952 35.4187 14.5069 35.2081 14.3127C34.9867 14.0967 34.6695 14.1022 34.4425 14.3073Z" fill="#F15A29"/>
<path d="M35.2161 30.9188C34.9072 30.6426 34.6009 30.3664 34.2919 30.0903C33.5536 29.4286 32.8126 28.7641 32.0744 28.1024C31.1829 27.3039 30.2943 26.5055 29.4029 25.7071C28.6318 25.018 27.8634 24.3262 27.0923 23.6371C26.7177 23.3008 26.3458 22.9563 25.963 22.6254C25.9576 22.62 25.9521 22.6172 25.9466 22.6118C25.7333 22.4204 25.3806 22.3848 25.1728 22.6118C24.9814 22.8196 24.9458 23.1805 25.1728 23.3856C25.4818 23.6618 25.788 23.9379 26.097 24.2141C26.8353 24.8758 27.5763 25.5403 28.3146 26.202C29.206 27.0004 30.0947 27.7989 30.9861 28.5973C31.7572 29.2864 32.5255 29.9782 33.2966 30.6672C33.6712 31.0036 34.0431 31.3481 34.4259 31.6789C34.4314 31.6844 34.4369 31.6871 34.4423 31.6926C34.6556 31.884 35.0083 31.9196 35.2161 31.6926C35.4076 31.4848 35.4431 31.1239 35.2161 30.9188Z" fill="#F15A29"/>
<path d="M20.0486 22.6144C19.7396 22.8905 19.4334 23.1667 19.1244 23.4429C18.3861 24.1046 17.6451 24.7691 16.9068 25.4308C16.0154 26.2292 15.1267 27.0276 14.2353 27.8261C13.4642 28.5152 12.6959 29.2069 11.9248 29.896C11.5501 30.2323 11.1591 30.5577 10.7955 30.9077C10.79 30.9132 10.7845 30.9159 10.7791 30.9214C10.5658 31.1128 10.5685 31.5011 10.7791 31.6952C11.006 31.9058 11.3259 31.9003 11.5529 31.6952C11.8619 31.4191 12.1681 31.1429 12.4771 30.8667C13.2154 30.205 13.9564 29.5405 14.6947 28.8788C15.5861 28.0804 16.4748 27.2819 17.3662 26.4835C18.1373 25.7944 18.9056 25.1026 19.6767 24.4136C20.0513 24.0773 20.4423 23.7519 20.806 23.4019C20.8115 23.3964 20.8169 23.3937 20.8224 23.3882C21.0357 23.1968 21.033 22.8085 20.8224 22.6144C20.5927 22.4038 20.2755 22.4093 20.0486 22.6144Z" fill="#F15A29"/>
<defs>
<filter id="filter0_d" x="0" y="0" width="46" height="46" filterUnits="userSpaceOnUse" color-interpolation-filters="sRGB">
<feFlood flood-opacity="0" result="BackgroundImageFix"/>
<feColorMatrix in="SourceAlpha" type="matrix" values="0 0 0 0 0 0 0 0 0 0 0 0 0 0 0 0 0 0 127 0"/>
<feOffset/>
<feGaussianBlur stdDeviation="1.5"/>
<feColorMatrix type="matrix" values="0 0 0 0 0 0 0 0 0 0 0 0 0 0 0 0 0 0 0.25 0"/>
<feBlend mode="normal" in2="BackgroundImageFix" result="effect1_dropShadow"/>
<feBlend mode="normal" in="SourceGraphic" in2="effect1_dropShadow" result="shape"/>
</filter>
</defs>
</svg>
