<svg width="497" height="67" viewBox="0 0 497 67" fill="none" xmlns="http://www.w3.org/2000/svg">
<path d="M488.453 8.96456C453.683 -0.137298 125.566 -1.20286 90.4459 0.938875C65.6786 1.36553 40.9409 2.78557 16.3109 6.5766C7.39565 7.94782 3.68903 18.8624 5.30411 27.0706C-3.7242 34.2451 -0.959713 56.0276 11.5626 54.4356C13.7187 54.1618 15.8775 53.9262 18.0337 53.68C18.7739 60.1625 22.5693 66.0104 29.4442 66.0762C62.0608 66.3839 387.699 66.6917 420.316 66.9995C423.6 67.0292 426.181 65.7005 428.063 63.5991C439.422 63.1236 450.773 62.5547 462.125 61.8479C470.453 61.33 475.22 50.375 473.605 41.997C478.585 40.6788 483.538 39.1909 488.453 37.4906C499.358 33.7187 500.33 12.0721 488.453 8.96456Z" fill="#F15A29"/>
</svg>
