<svg width="243" height="52" viewBox="0 0 243 52" fill="none" xmlns="http://www.w3.org/2000/svg">
<path d="M238.345 6.92678C221.379 -0.0917111 61.2709 -0.913374 44.1338 0.738132C32.0484 1.06712 19.9775 2.16213 7.95904 5.08541C3.60877 6.14277 1.80009 14.5591 2.58819 20.8885C-1.81725 26.4208 -0.4683 43.2174 5.64205 41.9898C6.69415 41.7786 7.74757 41.597 8.79967 41.4071C9.16088 46.4058 11.0129 50.9151 14.3676 50.9659C30.2831 51.2032 189.181 51.4405 205.097 51.6778C206.699 51.7008 207.959 50.6761 208.877 49.0557C214.42 48.6891 219.959 48.2504 225.498 47.7054C229.562 47.306 231.888 38.8586 231.1 32.3983C233.53 31.3818 235.946 30.2345 238.345 28.9234C243.666 26.0148 244.14 9.32302 238.345 6.92678Z" fill="#F15A29"/>
</svg>
