<svg width="16" height="16" viewBox="0 0 16 16" fill="none" xmlns="http://www.w3.org/2000/svg">
<g clip-path="url(#clip0)">
<path d="M7.99749 0.00683594C5.82549 0.00683594 5.55314 0.0160423 4.70013 0.0549629C3.84889 0.0938201 3.26752 0.228995 2.75879 0.426709C2.23289 0.63109 1.78689 0.90455 1.34229 1.34915C0.897683 1.79376 0.624222 2.23976 0.419841 2.76566C0.222127 3.27436 0.0869524 3.85572 0.0480952 4.70696C0.0091746 5.55998 0 5.83233 0 8.00433C0 10.1763 0.0091746 10.4486 0.0480952 11.3017C0.0869524 12.1529 0.222127 12.7343 0.419841 13.243C0.624222 13.7689 0.897683 14.2149 1.34229 14.6595C1.78689 15.1041 2.23289 15.3776 2.75879 15.5819C3.26752 15.7796 3.84889 15.9148 4.70013 15.9537C5.55314 15.9926 5.82549 16.0018 7.99749 16.0018C10.1695 16.0018 10.4418 15.9926 11.2948 15.9537C12.1461 15.9148 12.7274 15.7796 13.2361 15.5819C13.762 15.3776 14.208 15.1041 14.6527 14.6595C15.0973 14.2149 15.3707 13.7689 15.5751 13.243C15.7728 12.7343 15.908 12.1529 15.9468 11.3017C15.9857 10.4486 15.995 10.1763 15.995 8.00433C15.995 5.83233 15.9857 5.55998 15.9468 4.70696C15.908 3.85572 15.7728 3.27436 15.5751 2.76566C15.3707 2.23976 15.0973 1.79376 14.6527 1.34915C14.208 0.90455 13.762 0.63109 13.2361 0.426709C12.7274 0.228995 12.1461 0.0938201 11.2948 0.0549629C10.4418 0.0160423 10.1695 0.00683594 7.99749 0.00683594ZM7.99749 1.44785C10.1329 1.44785 10.3858 1.45598 11.2291 1.49445C12.0089 1.53004 12.4324 1.66033 12.7142 1.76982C13.0875 1.9149 13.3539 2.08823 13.6337 2.36807C13.9136 2.64792 14.0869 2.91436 14.232 3.28763C14.3415 3.56944 14.4718 3.9929 14.5073 4.77264C14.5458 5.61595 14.554 5.8689 14.554 8.00433C14.554 10.1397 14.5458 10.3927 14.5073 11.236C14.4718 12.0157 14.3415 12.4392 14.232 12.721C14.0869 13.0943 13.9136 13.3607 13.6337 13.6405C13.3539 13.9204 13.0875 14.0937 12.7142 14.2388C12.4324 14.3483 12.0089 14.4786 11.2291 14.5142C10.386 14.5526 10.133 14.5608 7.99749 14.5608C5.86191 14.5608 5.60902 14.5526 4.76581 14.5142C3.98606 14.4786 3.5626 14.3483 3.28079 14.2388C2.90749 14.0937 2.64108 13.9204 2.36121 13.6405C2.08137 13.3607 1.90803 13.0943 1.76298 12.721C1.65346 12.4392 1.52317 12.0157 1.48759 11.236C1.44911 10.3927 1.44098 10.1397 1.44098 8.00433C1.44098 5.8689 1.44911 5.61595 1.48759 4.77264C1.52317 3.9929 1.65346 3.56944 1.76298 3.28763C1.90803 2.91436 2.08137 2.64792 2.36121 2.36807C2.64108 2.08823 2.90749 1.9149 3.28079 1.76982C3.5626 1.66033 3.98606 1.53004 4.76581 1.49445C5.60911 1.45598 5.86206 1.44785 7.99749 1.44785Z" fill="white"/>
<path d="M7.99745 10.6706C6.52513 10.6706 5.33161 9.47706 5.33161 8.00478C5.33161 6.53246 6.52513 5.33893 7.99745 5.33893C9.46974 5.33893 10.6633 6.53246 10.6633 8.00478C10.6633 9.47706 9.46974 10.6706 7.99745 10.6706ZM7.99745 3.89795C5.72929 3.89795 3.89062 5.73662 3.89062 8.00478C3.89062 10.2729 5.72929 12.1116 7.99745 12.1116C10.2656 12.1116 12.1042 10.2729 12.1042 8.00478C12.1042 5.73662 10.2656 3.89795 7.99745 3.89795Z" fill="white"/>
<path d="M13.2319 3.73312C13.2319 4.26315 12.8022 4.6928 12.2722 4.6928C11.7422 4.6928 11.3125 4.26315 11.3125 3.73312C11.3125 3.20309 11.7422 2.77344 12.2722 2.77344C12.8022 2.77344 13.2319 3.20309 13.2319 3.73312Z" fill="white"/>
</g>
<defs>
<clipPath id="clip0">
<rect width="16" height="16" fill="white"/>
</clipPath>
</defs>
</svg>
