<svg width="125" height="81" viewBox="0 0 125 81" fill="none" xmlns="http://www.w3.org/2000/svg">
<g filter="url(#filter0_d)">
<rect x="4" y="4" width="117" height="73" rx="2" fill="white"/>
</g>
<path d="M63 61.1949C63 65.8458 53.5797 69.4035 47.9276 70.2865C42.2754 71.1695 39.0729 71.1695 32.1014 71.1695C23.9507 71.1695 23.8116 73.0381 18.1594 71.1695C9.98634 68.4676 11.377 64.6915 11.377 60.507C11.377 55.9859 8.7417 51.9306 17.406 49.5005C22.9394 47.9485 21.7874 47.7807 29.0871 47.7807C36.0586 47.7807 44.7997 44.9781 50.1884 46.4049C53.4596 47.271 57.5429 46.7634 59.5006 48.6174C62.9819 51.9147 63 58.218 63 61.1949Z" fill="#F15A29"/>
<path d="M19.6748 57.4678H20.8789C21.3359 57.4678 21.6699 57.3096 21.8809 56.9932C22.0977 56.6709 22.2061 56.2432 22.2061 55.71C22.2061 55.2002 22.0947 54.8047 21.8721 54.5234C21.6553 54.2363 21.3623 54.0928 20.9932 54.0928C20.6475 54.0928 20.3633 54.2275 20.1406 54.4971C19.9238 54.7666 19.8154 55.1064 19.8154 55.5166H17.3281C17.3281 54.8486 17.4805 54.251 17.7852 53.7236C18.0957 53.1904 18.5264 52.7744 19.0771 52.4756C19.6338 52.1768 20.249 52.0273 20.9229 52.0273C22.1006 52.0273 23.0234 52.3525 23.6914 53.0029C24.3594 53.6533 24.6934 54.5439 24.6934 55.6748C24.6934 56.2549 24.541 56.7939 24.2363 57.292C23.9375 57.7842 23.542 58.1621 23.0498 58.4258C23.6533 58.6836 24.1016 59.0703 24.3945 59.5859C24.6934 60.1016 24.8428 60.7109 24.8428 61.4141C24.8428 62.5508 24.4795 63.4619 23.7529 64.1475C23.0322 64.833 22.083 65.1758 20.9053 65.1758C19.8096 65.1758 18.9189 64.8389 18.2334 64.165C17.5537 63.4854 17.2139 62.5947 17.2139 61.4932H19.7012C19.7012 61.9502 19.8213 62.334 20.0615 62.6445C20.3018 62.9551 20.6064 63.1104 20.9756 63.1104C21.4033 63.1104 21.7402 62.9521 21.9863 62.6357C22.2383 62.3193 22.3643 61.8975 22.3643 61.3701C22.3643 60.1104 21.875 59.4775 20.8965 59.4717H19.6748V57.4678ZM26.8203 58.707L27.4531 52.2031H33.6494V54.3301H29.4922L29.2637 57.0723C29.7441 56.75 30.2393 56.5889 30.749 56.5889C31.8037 56.5889 32.6152 56.9639 33.1836 57.7139C33.7578 58.4639 34.0449 59.5244 34.0449 60.8955C34.0449 62.1787 33.7051 63.2129 33.0254 63.998C32.3457 64.7832 31.4375 65.1758 30.3008 65.1758C29.627 65.1758 29.0029 65.0176 28.4287 64.7012C27.8545 64.3789 27.4004 63.9336 27.0664 63.3652C26.7383 62.7969 26.5713 62.1523 26.5654 61.4316H29.0264C29.0674 61.9648 29.1992 62.3779 29.4219 62.6709C29.6445 62.9639 29.9316 63.1104 30.2832 63.1104C30.6934 63.1104 31.0098 62.9141 31.2324 62.5215C31.4551 62.123 31.5664 61.5312 31.5664 60.7461C31.5664 60.0078 31.4316 59.4512 31.1621 59.0762C30.8984 58.7012 30.5264 58.5137 30.0459 58.5137C29.5771 58.5137 29.2139 58.6748 28.9561 58.9971L28.7979 59.2168L26.8203 58.707ZM43.1064 59.709C43.1064 61.4785 42.7842 62.832 42.1396 63.7695C41.501 64.707 40.5869 65.1758 39.3975 65.1758C38.2197 65.1758 37.3086 64.7217 36.6641 63.8135C36.0254 62.8994 35.6943 61.5928 35.6709 59.8936V57.4766C35.6709 55.7129 35.9902 54.3652 36.6289 53.4336C37.2676 52.4961 38.1846 52.0273 39.3799 52.0273C40.5752 52.0273 41.4922 52.4902 42.1309 53.416C42.7695 54.3418 43.0947 55.6631 43.1064 57.3799V59.709ZM40.6104 57.1162C40.6104 56.1084 40.5107 55.3525 40.3115 54.8486C40.1123 54.3447 39.8018 54.0928 39.3799 54.0928C38.5889 54.0928 38.1787 55.0156 38.1494 56.8613V60.0518C38.1494 61.083 38.249 61.8506 38.4482 62.3545C38.6533 62.8584 38.9697 63.1104 39.3975 63.1104C39.8018 63.1104 40.1006 62.876 40.2939 62.4072C40.4932 61.9326 40.5986 61.209 40.6104 60.2363V57.1162ZM54.9717 63.3037H52.748V65H50.1641V63.3037H48.6699V61.1592H50.1641V60.5H48.6699V58.3467H50.1641V52.2031H54.5059C55.7715 52.2031 56.7822 52.5928 57.5381 53.3721C58.2998 54.1514 58.6807 55.1621 58.6807 56.4043C58.6807 57.6582 58.3086 58.6543 57.5645 59.3926C56.8203 60.1309 55.7832 60.5 54.4531 60.5H52.748V61.1592H54.9717V63.3037ZM52.748 58.3467H54.4443C55.5225 58.3467 56.0615 57.7051 56.0615 56.4219C56.0615 55.8184 55.9238 55.3262 55.6484 54.9453C55.373 54.5586 54.9951 54.3652 54.5146 54.3652H52.748V58.3467Z" fill="white"/>
<rect width="30" height="30" transform="translate(84 42)" fill="white"/>
<path d="M98.6664 70.1028C97.2925 70.1028 96.2439 69.8496 96.1716 69.8135C95.9909 69.7774 95.8464 69.669 95.7377 69.5244C93.8216 67.0658 94.2554 64.1374 94.2916 63.9928C94.3277 63.7035 94.5448 63.4867 94.7977 63.3781L99.2448 61.6428C99.4616 61.5703 99.7148 61.5703 99.9316 61.679C100.149 61.7874 100.293 61.9681 100.329 62.2212C100.691 63.6674 103.005 66.3067 103.872 67.1742C104.017 67.319 104.125 67.5358 104.089 67.7528C104.089 67.9696 103.981 68.1867 103.836 68.3312C102.282 69.7774 100.257 70.1028 98.6664 70.1028ZM96.8586 68.2951C97.6902 68.4396 100.185 68.7651 102.065 67.6444C101.197 66.7042 99.7509 64.969 99.0277 63.4503L95.8463 64.6796C95.8463 65.439 95.9186 66.9574 96.8586 68.2951Z" fill="black"/>
<path d="M103.758 68.6883C103.433 68.6883 103.143 68.5074 102.999 68.1822C102.818 67.7483 103.035 67.2783 103.433 67.1336C105.313 66.3745 106.217 65.109 106.614 64.3136C104.192 63.4822 101.697 62.2529 100.757 61.819C100.504 61.9636 100.287 62.1806 100.287 62.3252C100.323 62.759 100.034 63.1929 99.5644 63.229C99.1305 63.2652 98.6966 62.9758 98.6605 62.5058C98.5157 61.2406 99.7089 60.409 100.432 60.1558C100.649 60.0836 100.902 60.0836 101.083 60.192C101.119 60.2283 104.807 62.1083 107.843 63.0483C108.241 63.1929 108.494 63.5906 108.386 63.9883C108.35 64.1329 107.627 67.1697 103.975 68.6161C103.939 68.6883 103.83 68.6883 103.758 68.6883Z" fill="black"/>
<path d="M108.543 64.9304C108.47 64.9304 108.362 64.9304 108.289 64.8942L107.458 64.6049C107.024 64.4604 106.807 63.9904 106.952 63.5565C107.096 63.1226 107.566 62.9056 108 63.0504L108.073 63.0865C108.543 61.5679 108.796 60.0133 108.904 58.9288C107.133 59.6517 103.879 60.7726 101.059 60.411H100.48C99.7572 60.3749 99.3956 60.0133 99.251 59.7604C98.7449 59.001 99.1426 57.9165 99.251 57.6272C99.3233 57.4101 99.504 57.2656 99.721 57.1572C104.457 55.3856 106.843 50.1433 106.879 50.1072C107.06 49.7095 107.53 49.5285 107.964 49.7095C108.362 49.8901 108.543 50.3601 108.362 50.794C108.253 51.0472 105.795 56.4701 100.661 58.5672C100.625 58.6395 100.625 58.7479 100.625 58.8204L101.203 58.8565C104.783 59.3265 109.41 57.0126 109.446 56.9765C109.699 56.8317 110.025 56.8679 110.242 57.0126C110.495 57.1572 110.639 57.4465 110.603 57.7356C110.603 57.8801 110.495 61.4595 109.302 64.4965C109.157 64.7133 108.868 64.9304 108.543 64.9304Z" fill="black"/>
<path d="M109.756 58.4264C109.467 58.4264 109.178 58.2455 109.033 57.9564C108.852 57.5586 108.997 57.0525 109.431 56.8716C109.503 56.8355 109.611 56.7271 109.756 56.6186C110.045 53.4732 107.081 51.34 107.081 51.3039C106.719 51.0509 106.611 50.5448 106.9 50.1832C107.153 49.8216 107.659 49.7132 108.021 50.0025C108.165 50.1109 111.961 52.8586 111.347 57.1248C111.311 57.3055 111.238 57.4502 111.13 57.5586C111.021 57.7032 110.551 58.1371 110.154 58.3177C110.009 58.3902 109.865 58.4264 109.756 58.4264Z" fill="black"/>
<path d="M99.1411 58.822C97.9841 58.822 96.6825 58.2795 95.5618 57.3033C94.1879 56.0742 93.4648 54.5195 93.7179 53.2542C93.9711 51.8804 94.7302 50.7595 95.4534 49.6388C95.9957 48.8072 96.5018 48.0479 96.7911 47.2165C97.225 46.0233 98.165 43.2756 101.31 44.0349C103.299 44.5049 104.853 45.9872 106.336 47.3972C106.987 48.0117 107.601 48.5901 108.252 49.0601C108.613 49.3495 108.686 49.8556 108.397 50.2172C108.143 50.5788 107.601 50.6511 107.24 50.3617C106.553 49.8195 105.866 49.2049 105.179 48.554C103.841 47.2888 102.467 45.9872 100.913 45.5895C99.6111 45.264 99.0325 45.7701 98.3095 47.7226C97.9479 48.7349 97.3695 49.6388 96.7911 50.5065C96.1041 51.5188 95.4895 52.4949 95.2725 53.5433C95.1279 54.2304 95.7064 55.2426 96.6102 56.0742C97.6225 56.9781 98.8157 57.3756 99.6834 57.1226C100.117 56.9781 100.551 57.2311 100.696 57.6649C100.84 58.0988 100.587 58.5326 100.153 58.6772C99.8641 58.7856 99.5389 58.822 99.1411 58.822Z" fill="black"/>
<path d="M94.6468 68.1871C90.0552 68.1871 86.4036 65.2946 86.2229 65.1501C86.0422 65.0055 85.9336 64.7524 85.9336 64.4994C85.9336 64.2462 86.0422 64.0294 86.259 63.8485C88.609 62.0046 92.9475 63.1978 95.2613 63.8846C95.6952 63.9933 95.9484 64.4633 95.8038 64.8971C95.6952 65.331 95.2252 65.584 94.7913 65.4394C93.2368 65.0055 90.3084 64.1739 88.3561 64.6078C89.8022 65.4755 92.4413 66.741 95.3338 66.4878C95.7675 66.4517 96.1652 66.7771 96.2013 67.2471C96.2375 67.681 95.9122 68.0785 95.4422 68.1149C95.2252 68.1871 94.9361 68.1871 94.6468 68.1871Z" fill="black"/>
<path d="M92.8502 70.68C89.6686 70.68 87.2825 68.9084 87.138 68.8362C86.957 68.6916 86.8125 68.4384 86.8125 68.2216C86.8125 67.9684 86.9209 67.7516 87.1018 67.5707C87.2825 67.4262 88.9818 66.0162 89.958 65.6907C90.3918 65.5462 90.8257 65.7993 90.9702 66.233C91.1148 66.6669 90.8618 67.1007 90.428 67.2455C90.1748 67.3178 89.5964 67.6793 89.018 68.1132C90.3918 68.8362 93.0673 69.7762 95.9595 68.33C96.3573 68.1132 96.8634 68.2939 97.0441 68.6916C97.225 69.0893 97.0802 69.5955 96.6825 69.7762C95.3811 70.4271 94.0434 70.68 92.8502 70.68Z" fill="black"/>
<path d="M15.5029 15.626C14.7054 15.626 14.0879 15.9268 13.6504 16.5283C13.2129 17.1253 12.9941 17.9593 12.9941 19.0303C12.9941 21.2588 13.8304 22.373 15.5029 22.373C16.2048 22.373 17.0547 22.1976 18.0527 21.8467V23.624C17.2324 23.9658 16.3164 24.1367 15.3047 24.1367C13.8509 24.1367 12.7389 23.6969 11.9688 22.8174C11.1986 21.9333 10.8135 20.6663 10.8135 19.0166C10.8135 17.9775 11.0026 17.0684 11.3809 16.2891C11.7591 15.5052 12.3014 14.9059 13.0078 14.4912C13.7188 14.0719 14.5505 13.8623 15.5029 13.8623C16.4736 13.8623 17.4489 14.097 18.4287 14.5664L17.7451 16.2891C17.3714 16.1113 16.9954 15.9564 16.6172 15.8242C16.2389 15.6921 15.8675 15.626 15.5029 15.626ZM28.6689 16.3574H30.9658L27.9375 20.0215L31.2324 24H28.8672L25.7432 20.124V24H23.6582V16.3574H25.7432V20.0693L28.6689 16.3574ZM36.5234 24.1367C35.6257 24.1367 34.9215 23.8109 34.4111 23.1592H34.3018C34.3747 23.7972 34.4111 24.1663 34.4111 24.2666V27.3633H32.3262V16.3574H34.0215L34.3154 17.3486H34.4111C34.8988 16.5921 35.6211 16.2139 36.5781 16.2139C37.4805 16.2139 38.1868 16.5625 38.6973 17.2598C39.2077 17.957 39.4629 18.9255 39.4629 20.165C39.4629 20.9808 39.3421 21.6895 39.1006 22.291C38.8636 22.8926 38.5241 23.3506 38.082 23.665C37.64 23.9795 37.1204 24.1367 36.5234 24.1367ZM35.9082 17.8818C35.3932 17.8818 35.0173 18.0413 34.7803 18.3604C34.5433 18.6748 34.4202 19.1966 34.4111 19.9258V20.1514C34.4111 20.9717 34.5319 21.5596 34.7734 21.915C35.0195 22.2705 35.4069 22.4482 35.9355 22.4482C36.8698 22.4482 37.3369 21.6781 37.3369 20.1377C37.3369 19.3857 37.2207 18.8229 36.9883 18.4492C36.7604 18.071 36.4004 17.8818 35.9082 17.8818ZM44.3506 17.6973C43.9085 17.6973 43.5622 17.8385 43.3115 18.1211C43.0609 18.3991 42.9173 18.7956 42.8809 19.3105H45.8066C45.7975 18.7956 45.6631 18.3991 45.4033 18.1211C45.1436 17.8385 44.7926 17.6973 44.3506 17.6973ZM44.6445 24.1367C43.4141 24.1367 42.4525 23.7972 41.7598 23.1182C41.0671 22.4391 40.7207 21.4775 40.7207 20.2334C40.7207 18.9528 41.0397 17.9639 41.6777 17.2666C42.3203 16.5648 43.2067 16.2139 44.3369 16.2139C45.417 16.2139 46.2578 16.5215 46.8594 17.1367C47.4609 17.752 47.7617 18.6019 47.7617 19.6865V20.6982H42.833C42.8558 21.2907 43.0312 21.7533 43.3594 22.0859C43.6875 22.4186 44.1478 22.585 44.7402 22.585C45.2005 22.585 45.6357 22.5371 46.0459 22.4414C46.4561 22.3457 46.8844 22.193 47.3311 21.9834V23.5967C46.9665 23.779 46.5768 23.9134 46.1621 24C45.7474 24.0911 45.2415 24.1367 44.6445 24.1367ZM56.5117 18.3604C56.5117 18.7705 56.3818 19.1214 56.1221 19.4131C55.8669 19.7002 55.4886 19.8848 54.9873 19.9668V20.0215C55.5296 20.0853 55.958 20.2721 56.2725 20.582C56.5915 20.8874 56.751 21.2656 56.751 21.7168C56.751 22.4596 56.4593 23.027 55.876 23.4189C55.2926 23.8063 54.4587 24 53.374 24H49.457V16.3574H53.374C54.4222 16.3574 55.2061 16.5283 55.7256 16.8701C56.2497 17.2074 56.5117 17.7041 56.5117 18.3604ZM54.5908 21.6074C54.5908 21.3066 54.4746 21.0902 54.2422 20.958C54.0098 20.8213 53.6611 20.7529 53.1963 20.7529H51.542V22.5576H53.2373C53.6794 22.5576 54.0143 22.4756 54.2422 22.3115C54.4746 22.1429 54.5908 21.9082 54.5908 21.6074ZM54.3994 18.5244C54.3994 18.0596 54.0303 17.8271 53.292 17.8271H51.542V19.3379H53.0527C53.4948 19.3379 53.8298 19.2741 54.0576 19.1465C54.2855 19.0189 54.3994 18.8115 54.3994 18.5244ZM61.5771 17.6973C61.1351 17.6973 60.7887 17.8385 60.5381 18.1211C60.2874 18.3991 60.1439 18.7956 60.1074 19.3105H63.0332C63.0241 18.7956 62.8896 18.3991 62.6299 18.1211C62.3701 17.8385 62.0192 17.6973 61.5771 17.6973ZM61.8711 24.1367C60.6406 24.1367 59.679 23.7972 58.9863 23.1182C58.2936 22.4391 57.9473 21.4775 57.9473 20.2334C57.9473 18.9528 58.2663 17.9639 58.9043 17.2666C59.5469 16.5648 60.4333 16.2139 61.5635 16.2139C62.6436 16.2139 63.4844 16.5215 64.0859 17.1367C64.6875 17.752 64.9883 18.6019 64.9883 19.6865V20.6982H60.0596C60.0824 21.2907 60.2578 21.7533 60.5859 22.0859C60.9141 22.4186 61.3743 22.585 61.9668 22.585C62.4271 22.585 62.8623 22.5371 63.2725 22.4414C63.6826 22.3457 64.111 22.193 64.5576 21.9834V23.5967C64.193 23.779 63.8034 23.9134 63.3887 24C62.974 24.0911 62.4681 24.1367 61.8711 24.1367ZM73.0068 16.3574V17.9229H70.5049V24H68.4199V17.9229H65.9111V16.3574H73.0068ZM79.4463 16.3574H81.7432L78.7148 20.0215L82.0098 24H79.6445L76.5205 20.124V24H74.4355V16.3574H76.5205V20.0693L79.4463 16.3574ZM87.957 24L87.5537 22.9609H87.499C87.1481 23.403 86.7858 23.7106 86.4121 23.8838C86.043 24.0524 85.5599 24.1367 84.9629 24.1367C84.2292 24.1367 83.6504 23.9271 83.2266 23.5078C82.8073 23.0885 82.5977 22.4915 82.5977 21.7168C82.5977 20.9056 82.8802 20.3086 83.4453 19.9258C84.015 19.5384 84.8717 19.3242 86.0156 19.2832L87.3418 19.2422V18.9072C87.3418 18.1325 86.9453 17.7451 86.1523 17.7451C85.5417 17.7451 84.8239 17.9297 83.999 18.2988L83.3086 16.8906C84.1882 16.4303 85.1634 16.2002 86.2344 16.2002C87.2598 16.2002 88.0459 16.4235 88.5928 16.8701C89.1396 17.3167 89.4131 17.9958 89.4131 18.9072V24H87.957ZM87.3418 20.459L86.5352 20.4863C85.929 20.5046 85.4779 20.6139 85.1816 20.8145C84.8854 21.015 84.7373 21.3203 84.7373 21.7305C84.7373 22.3184 85.0745 22.6123 85.749 22.6123C86.2321 22.6123 86.6172 22.4733 86.9043 22.1953C87.196 21.9173 87.3418 21.5482 87.3418 21.0879V20.459ZM101.198 24H99.25V17.9775L99.1406 18.4014C98.8945 19.363 98.6735 20.0898 98.4775 20.582L97.124 24H95.6406L94.2666 20.5547C94.0706 20.0534 93.861 19.3493 93.6377 18.4424L93.5078 17.9775V24H91.5664V16.3574H94.4375L95.75 19.6182C95.8867 19.9691 96.012 20.3724 96.126 20.8281C96.2445 21.2839 96.3242 21.6735 96.3652 21.9971C96.5156 21.3135 96.6318 20.8236 96.7139 20.5273C96.8005 20.2266 96.8939 19.9508 96.9941 19.7002C97.0944 19.4495 97.5479 18.3353 98.3545 16.3574H101.198V24ZM105.409 16.3574V19.3789C105.409 19.6979 105.357 20.4772 105.252 21.7168L108.779 16.3574H111.288V24H109.271V20.9512C109.271 20.4089 109.317 19.6432 109.408 18.6543L105.895 24H103.393V16.3574H105.409Z" fill="black"/>
<defs>
<filter id="filter0_d" x="0" y="0" width="125" height="81" filterUnits="userSpaceOnUse" color-interpolation-filters="sRGB">
<feFlood flood-opacity="0" result="BackgroundImageFix"/>
<feColorMatrix in="SourceAlpha" type="matrix" values="0 0 0 0 0 0 0 0 0 0 0 0 0 0 0 0 0 0 127 0"/>
<feOffset/>
<feGaussianBlur stdDeviation="2"/>
<feColorMatrix type="matrix" values="0 0 0 0 0 0 0 0 0 0 0 0 0 0 0 0 0 0 0.25 0"/>
<feBlend mode="normal" in2="BackgroundImageFix" result="effect1_dropShadow"/>
<feBlend mode="normal" in="SourceGraphic" in2="effect1_dropShadow" result="shape"/>
</filter>
</defs>
</svg>
