<svg width="125" height="81" viewBox="0 0 125 81" fill="none" xmlns="http://www.w3.org/2000/svg">
<g filter="url(#filter0_d)">
<rect x="4" y="4" width="117" height="73" rx="2" fill="white"/>
</g>
<path d="M66 59.1949C66 63.8458 56.5797 67.4035 50.9276 68.2865C45.2754 69.1695 42.0729 69.1695 35.1014 69.1695C26.9507 69.1695 26.8116 71.0381 21.1594 69.1695C12.9863 66.4676 14.377 62.6915 14.377 58.507C14.377 53.9859 11.7417 49.9306 20.406 47.5005C25.9394 45.9485 24.7874 45.7807 32.0871 45.7807C39.0586 45.7807 47.7997 42.9781 53.1884 44.4049C56.4596 45.271 60.5429 44.7634 62.5006 46.6174C65.9819 49.9147 66 56.218 66 59.1949Z" fill="#F15A29"/>
<path d="M27.001 63H19.46V61.2422L22.9229 56.8389C23.3623 56.2295 23.6846 55.6963 23.8896 55.2393C24.1006 54.7764 24.2061 54.334 24.2061 53.9121C24.2061 53.3438 24.1064 52.8984 23.9072 52.5762C23.7139 52.2539 23.4326 52.0928 23.0635 52.0928C22.6592 52.0928 22.3369 52.2803 22.0967 52.6553C21.8623 53.0303 21.7451 53.5576 21.7451 54.2373H19.249C19.249 53.4521 19.4102 52.7344 19.7324 52.084C20.0605 51.4336 20.5176 50.9297 21.1035 50.5723C21.6953 50.209 22.3633 50.0273 23.1074 50.0273C24.25 50.0273 25.1348 50.3438 25.7617 50.9766C26.3945 51.6035 26.7109 52.4971 26.7109 53.6572C26.7109 54.3779 26.5352 55.1104 26.1836 55.8545C25.8379 56.5928 25.208 57.5039 24.2939 58.5879L22.6504 60.9346H27.001V63ZM33.3906 58.0518C32.8633 58.5908 32.2861 58.8604 31.6592 58.8604C30.6865 58.8604 29.9189 58.4707 29.3564 57.6914C28.7998 56.9062 28.5215 55.8604 28.5215 54.5537C28.5215 53.71 28.6797 52.9395 28.9961 52.2422C29.3125 51.5391 29.752 50.9941 30.3145 50.6074C30.8828 50.2207 31.5156 50.0273 32.2129 50.0273C32.9336 50.0273 33.5752 50.2412 34.1377 50.6689C34.7002 51.0967 35.1367 51.7119 35.4473 52.5146C35.7578 53.3115 35.9131 54.2197 35.9131 55.2393V56.1445C35.9131 58.3242 35.4326 60.0293 34.4717 61.2598C33.5166 62.4844 32.1602 63.1084 30.4023 63.1318H30.1475V60.9873H30.3145C31.2871 60.9814 32.0166 60.7295 32.5029 60.2314C32.9951 59.7334 33.291 59.0068 33.3906 58.0518ZM32.292 56.9092C32.7725 56.9092 33.1504 56.5811 33.4258 55.9248V54.7822C33.4258 53.9443 33.3115 53.2881 33.083 52.8135C32.8545 52.333 32.5586 52.0928 32.1953 52.0928C31.8379 52.0928 31.5479 52.3301 31.3252 52.8047C31.1084 53.2734 31 53.8477 31 54.5273C31 55.2656 31.1143 55.8486 31.3428 56.2764C31.5713 56.6982 31.8877 56.9092 32.292 56.9092ZM45.1064 57.709C45.1064 59.4785 44.7842 60.832 44.1396 61.7695C43.501 62.707 42.5869 63.1758 41.3975 63.1758C40.2197 63.1758 39.3086 62.7217 38.6641 61.8135C38.0254 60.8994 37.6943 59.5928 37.6709 57.8936V55.4766C37.6709 53.7129 37.9902 52.3652 38.6289 51.4336C39.2676 50.4961 40.1846 50.0273 41.3799 50.0273C42.5752 50.0273 43.4922 50.4902 44.1309 51.416C44.7695 52.3418 45.0947 53.6631 45.1064 55.3799V57.709ZM42.6104 55.1162C42.6104 54.1084 42.5107 53.3525 42.3115 52.8486C42.1123 52.3447 41.8018 52.0928 41.3799 52.0928C40.5889 52.0928 40.1787 53.0156 40.1494 54.8613V58.0518C40.1494 59.083 40.249 59.8506 40.4482 60.3545C40.6533 60.8584 40.9697 61.1104 41.3975 61.1104C41.8018 61.1104 42.1006 60.876 42.2939 60.4072C42.4932 59.9326 42.5986 59.209 42.6104 58.2363V55.1162ZM56.9717 61.3037H54.748V63H52.1641V61.3037H50.6699V59.1592H52.1641V58.5H50.6699V56.3467H52.1641V50.2031H56.5059C57.7715 50.2031 58.7822 50.5928 59.5381 51.3721C60.2998 52.1514 60.6807 53.1621 60.6807 54.4043C60.6807 55.6582 60.3086 56.6543 59.5645 57.3926C58.8203 58.1309 57.7832 58.5 56.4531 58.5H54.748V59.1592H56.9717V61.3037ZM54.748 56.3467H56.4443C57.5225 56.3467 58.0615 55.7051 58.0615 54.4219C58.0615 53.8184 57.9238 53.3262 57.6484 52.9453C57.373 52.5586 56.9951 52.3652 56.5146 52.3652H54.748V56.3467Z" fill="white"/>
<rect width="30" height="30" transform="translate(75 42)" fill="white"/>
<path fill-rule="evenodd" clip-rule="evenodd" d="M81.5141 59.9824C81.8732 60.0017 82.2282 60.0813 82.5527 60.234L85.747 57.0451C85.7543 56.7408 85.772 56.6683 85.807 56.4872C86.2768 54.0513 88.3543 52.2083 89.3032 49.4235C89.8202 47.9058 90.5873 46.4601 91.9029 45.446C94.2638 43.6267 97.7613 43.1847 100.23 44.3565C103.977 46.1347 103.373 53.3574 99.5223 55.9988C99.1188 56.2753 98.6857 56.5081 98.2334 56.6944C96.3523 57.4699 94.3982 57.9281 92.3854 58.9731C91.3107 59.5394 90.2652 60.2558 89.1093 60.4124L89.1025 60.4133C88.0754 61.4349 87.0484 62.4565 86.025 63.4817C86.025 63.4817 85.8586 63.3553 86.1168 63.7915C87.1154 65.5731 85.7109 68.1556 83.735 68.6213C82.5036 68.9115 81.0186 68.3513 80.5448 67.0794C80.4009 66.6933 80.3793 66.0947 80.3793 66.0947C80.3263 66.0956 80.2736 66.0942 80.2209 66.0924C79.2529 66.0419 78.3377 65.4608 77.982 64.529C77.2291 62.5567 79.0954 60.0047 81.3859 59.9801C81.4502 59.9808 81.45 59.9808 81.5141 59.9824ZM82.2948 63.8931C82.6786 64.0347 82.6209 64.3135 82.5586 64.4758C82.1161 65.4181 81.4773 66.5831 82.5066 67.0333C83.3341 67.3951 84.4148 66.7206 84.7763 65.6156C84.9688 65.0269 84.6554 64.3828 84.2268 63.9417L84.0232 63.7315C83.7225 63.2569 84.2166 63.044 84.2166 63.044C85.1486 62.1242 86.0777 61.2013 87.007 60.2785C86.517 60.0719 86.1186 59.6583 85.9 59.1551L82.9475 62.066C82.9475 62.066 82.632 62.3078 82.3529 62.0663C82.2182 61.9317 82.0943 61.7813 81.9425 61.6876C80.7816 60.971 78.6386 62.9735 79.5648 64.179C79.8895 64.6017 80.5288 64.5917 81.0552 64.3588L82.0559 63.8944C82.2332 63.8544 82.2407 63.8815 82.2948 63.8931ZM81.2811 65.1765C81.1752 65.2176 81.0627 65.1303 81.2173 65.424C81.2288 65.3869 81.2407 65.3501 81.2532 65.3133C81.2809 65.2351 81.3529 65.1474 81.2811 65.1765ZM84.9593 63.4933C84.9593 63.4933 85.0252 63.4283 84.9593 63.4933V63.4933ZM88.5729 59.7326C88.3866 59.7549 88.11 59.7076 88.1873 59.8319C88.2411 59.9188 88.25 60.0749 88.25 60.0749C88.25 60.0749 88.6798 59.719 88.5729 59.7326ZM97.0734 45.3115C94.5316 45.3592 92.0091 46.7272 91.0743 49.0969C90.7002 50.0453 90.4043 51.0272 89.9541 51.946C89.2027 53.4799 88.045 54.8794 87.4879 56.3297C87.34 56.7156 87.3302 57.3147 87.3302 57.3147C87.3302 58.0997 86.9061 59.0169 88.3129 58.9133C88.707 58.8842 90.6427 58.1026 91.9582 57.4242C93.6361 56.5644 95.427 55.9642 97.2193 55.3942C100.105 54.439 101.71 50.9772 100.956 47.7899C100.806 47.154 100.579 46.5092 100.091 46.1065C99.3398 45.4876 98.2652 45.3308 97.2541 45.3115C97.1636 45.3108 97.1638 45.3108 97.0734 45.3115ZM86.2332 57.8915C86.3275 57.9253 86.4159 58.1013 86.4229 57.8928C86.4307 57.739 86.4593 57.5224 86.4593 57.5224L86.1079 57.8767C86.1079 57.8767 86.1659 57.8785 86.2332 57.8915Z" fill="#231F20"/>
<path fill-rule="evenodd" clip-rule="evenodd" d="M98.2638 46.9293C98.4093 46.9436 98.4541 46.9757 98.5218 47.0364C98.7445 47.2364 98.7213 47.6243 98.3629 47.7518C98.0711 47.8557 97.8886 47.9545 97.6654 48.0589C95.5131 49.0632 93.2791 50.3286 92.1356 52.127C91.8497 52.577 91.6786 53.09 91.6472 53.6345C91.6472 53.6345 91.5588 54.0366 91.2025 54.0302L90.4729 53.9868C89.895 53.9284 90.0713 52.9204 90.3325 52.2218C91.1734 49.9723 93.4793 48.7077 95.5243 47.8077C96.3309 47.4525 97.1493 47.0036 98.0125 46.9366C98.0125 46.9366 98.1593 46.9282 98.2638 46.9293Z" fill="#231F20"/>
<path d="M33.5029 15.626C32.7054 15.626 32.0879 15.9268 31.6504 16.5283C31.2129 17.1253 30.9941 17.9593 30.9941 19.0303C30.9941 21.2588 31.8304 22.373 33.5029 22.373C34.2048 22.373 35.0547 22.1976 36.0527 21.8467V23.624C35.2324 23.9658 34.3164 24.1367 33.3047 24.1367C31.8509 24.1367 30.7389 23.6969 29.9688 22.8174C29.1986 21.9333 28.8135 20.6663 28.8135 19.0166C28.8135 17.9775 29.0026 17.0684 29.3809 16.2891C29.7591 15.5052 30.3014 14.9059 31.0078 14.4912C31.7188 14.0719 32.5505 13.8623 33.5029 13.8623C34.4736 13.8623 35.4489 14.097 36.4287 14.5664L35.7451 16.2891C35.3714 16.1113 34.9954 15.9564 34.6172 15.8242C34.2389 15.6921 33.8675 15.626 33.5029 15.626ZM46.6689 16.3574H48.9658L45.9375 20.0215L49.2324 24H46.8672L43.7432 20.124V24H41.6582V16.3574H43.7432V20.0693L46.6689 16.3574ZM49.2324 16.3574H51.5156L52.958 20.6572C53.0811 21.0309 53.1654 21.473 53.2109 21.9834H53.252C53.3021 21.514 53.4001 21.0719 53.5459 20.6572L54.9609 16.3574H57.1963L53.9629 24.9775C53.6667 25.7751 53.2428 26.3721 52.6914 26.7686C52.1445 27.165 51.5042 27.3633 50.7705 27.3633C50.4105 27.3633 50.0573 27.3245 49.7109 27.2471V25.5928C49.9616 25.652 50.235 25.6816 50.5312 25.6816C50.9004 25.6816 51.2217 25.5677 51.4951 25.3398C51.7731 25.1165 51.9896 24.777 52.1445 24.3213L52.2676 23.9453L49.2324 16.3574ZM62.4941 24.1367C61.5964 24.1367 60.8923 23.8109 60.3818 23.1592H60.2725C60.3454 23.7972 60.3818 24.1663 60.3818 24.2666V27.3633H58.2969V16.3574H59.9922L60.2861 17.3486H60.3818C60.8695 16.5921 61.5918 16.2139 62.5488 16.2139C63.4512 16.2139 64.1576 16.5625 64.668 17.2598C65.1784 17.957 65.4336 18.9255 65.4336 20.165C65.4336 20.9808 65.3128 21.6895 65.0713 22.291C64.8343 22.8926 64.4948 23.3506 64.0527 23.665C63.6107 23.9795 63.0911 24.1367 62.4941 24.1367ZM61.8789 17.8818C61.3639 17.8818 60.988 18.0413 60.751 18.3604C60.514 18.6748 60.391 19.1966 60.3818 19.9258V20.1514C60.3818 20.9717 60.5026 21.5596 60.7441 21.915C60.9902 22.2705 61.3776 22.4482 61.9062 22.4482C62.8405 22.4482 63.3076 21.6781 63.3076 20.1377C63.3076 19.3857 63.1914 18.8229 62.959 18.4492C62.7311 18.071 62.3711 17.8818 61.8789 17.8818ZM69.1729 16.3574V19.3789C69.1729 19.6979 69.1204 20.4772 69.0156 21.7168L72.543 16.3574H75.0518V24H73.0352V20.9512C73.0352 20.4089 73.0807 19.6432 73.1719 18.6543L69.6582 24H67.1562V16.3574H69.1729ZM84.4717 22.4756H85.5859V26.7412H83.7129V24H77.2461V16.3574H79.3311V22.4346H82.3799V16.3574H84.4717V22.4756ZM90.0498 17.6973C89.6077 17.6973 89.2614 17.8385 89.0107 18.1211C88.7601 18.3991 88.6165 18.7956 88.5801 19.3105H91.5059C91.4967 18.7956 91.3623 18.3991 91.1025 18.1211C90.8428 17.8385 90.4919 17.6973 90.0498 17.6973ZM90.3438 24.1367C89.1133 24.1367 88.1517 23.7972 87.459 23.1182C86.7663 22.4391 86.4199 21.4775 86.4199 20.2334C86.4199 18.9528 86.7389 17.9639 87.377 17.2666C88.0195 16.5648 88.9059 16.2139 90.0361 16.2139C91.1162 16.2139 91.957 16.5215 92.5586 17.1367C93.1602 17.752 93.4609 18.6019 93.4609 19.6865V20.6982H88.5322C88.555 21.2907 88.7305 21.7533 89.0586 22.0859C89.3867 22.4186 89.847 22.585 90.4395 22.585C90.8997 22.585 91.335 22.5371 91.7451 22.4414C92.1553 22.3457 92.5837 22.193 93.0303 21.9834V23.5967C92.6657 23.779 92.276 23.9134 91.8613 24C91.4466 24.0911 90.9408 24.1367 90.3438 24.1367ZM97.1729 16.3574V19.3789C97.1729 19.6979 97.1204 20.4772 97.0156 21.7168L100.543 16.3574H103.052V24H101.035V20.9512C101.035 20.4089 101.081 19.6432 101.172 18.6543L97.6582 24H95.1562V16.3574H97.1729ZM102.437 13.0693C102.35 13.9215 102.029 14.5436 101.473 14.9355C100.917 15.3229 100.115 15.5166 99.0664 15.5166C97.9863 15.5166 97.1865 15.3298 96.667 14.9561C96.152 14.5824 95.8626 13.9535 95.7988 13.0693H97.665C97.6969 13.5387 97.8132 13.8691 98.0137 14.0605C98.2188 14.2474 98.5833 14.3408 99.1074 14.3408C99.5677 14.3408 99.9095 14.2383 100.133 14.0332C100.361 13.8236 100.5 13.5023 100.55 13.0693H102.437Z" fill="black"/>
<defs>
<filter id="filter0_d" x="0" y="0" width="125" height="81" filterUnits="userSpaceOnUse" color-interpolation-filters="sRGB">
<feFlood flood-opacity="0" result="BackgroundImageFix"/>
<feColorMatrix in="SourceAlpha" type="matrix" values="0 0 0 0 0 0 0 0 0 0 0 0 0 0 0 0 0 0 127 0"/>
<feOffset/>
<feGaussianBlur stdDeviation="2"/>
<feColorMatrix type="matrix" values="0 0 0 0 0 0 0 0 0 0 0 0 0 0 0 0 0 0 0.25 0"/>
<feBlend mode="normal" in2="BackgroundImageFix" result="effect1_dropShadow"/>
<feBlend mode="normal" in="SourceGraphic" in2="effect1_dropShadow" result="shape"/>
</filter>
</defs>
</svg>
