<?xml version="1.0" encoding="UTF-8"?>
<!DOCTYPE svg PUBLIC "-//W3C//DTD SVG 1.1//EN" "http://www.w3.org/Graphics/SVG/1.1/DTD/svg11.dtd">
<svg xmlns="http://www.w3.org/2000/svg" version="1.1" width="409px" height="269px" style="shape-rendering:geometricPrecision; text-rendering:geometricPrecision; image-rendering:optimizeQuality; fill-rule:evenodd; clip-rule:evenodd" xmlns:xlink="http://www.w3.org/1999/xlink">
<g><path style="opacity:1" fill="#fefefd" d="M -0.5,-0.5 C 135.833,-0.5 272.167,-0.5 408.5,-0.5C 408.5,89.1667 408.5,178.833 408.5,268.5C 272.167,268.5 135.833,268.5 -0.5,268.5C -0.5,178.833 -0.5,89.1667 -0.5,-0.5 Z"/></g>
<g><path style="opacity:1" fill="#3c190a" d="M 239.5,40.5 C 237.527,41.1627 235.361,41.4961 233,41.5C 227.543,40.2055 222.043,39.7055 216.5,40C 215.833,40.3333 215.167,40.6667 214.5,41C 217.167,41.3333 219.833,41.6667 222.5,42C 223.756,42.4169 224.423,43.2502 224.5,44.5C 224.047,45.4584 223.381,46.2917 222.5,47C 218.141,47.5343 213.808,47.3676 209.5,46.5C 209.5,48.5 209.5,50.5 209.5,52.5C 207.801,52.3398 206.134,52.5065 204.5,53C 205.025,53.6924 205.692,54.1924 206.5,54.5C 210.317,52.6987 214.317,51.3653 218.5,50.5C 223.12,53.3303 223.786,56.9969 220.5,61.5C 221.32,63.9426 220.653,66.1092 218.5,68C 209.98,70.1683 201.314,70.835 192.5,70C 191.177,69.1841 190.511,68.0174 190.5,66.5C 189.962,64.8828 189.629,63.2161 189.5,61.5C 192.518,61.6646 195.518,61.498 198.5,61C 196.552,60.0168 194.718,58.8502 193,57.5C 192.517,58.448 192.351,59.448 192.5,60.5C 191.178,60.67 190.011,60.3366 189,59.5C 188.661,56.964 188.161,54.464 187.5,52C 188.022,51.0497 188.689,50.2164 189.5,49.5C 186.453,46.0728 185.12,42.0728 185.5,37.5C 185.011,36.2643 185.011,34.7643 185.5,33C 189.63,34.0115 193.63,33.5115 197.5,31.5C 193.182,30.4596 188.849,30.4596 184.5,31.5C 184.104,28.5178 184.771,25.8511 186.5,23.5C 190.931,24.6851 201.931,24.6851 219.5,23.5C 219.5,25.1667 219.5,26.8333 219.5,28.5C 224.677,29.4665 226.677,32.4665 225.5,37.5C 230.266,38.2111 234.933,39.2111 239.5,40.5 Z"/></g>
<g><path style="opacity:1" fill="#ded2c9" d="M 201.5,29.5 C 205.182,29.3347 208.848,29.5014 212.5,30C 213.167,31.3333 214.167,32.3333 215.5,33C 213.633,33.7112 212.133,33.2112 211,31.5C 208.644,34.9479 205.811,35.2813 202.5,32.5C 197.504,33.4849 197.171,32.4849 201.5,29.5 Z"/></g>
<g><path style="opacity:1" fill="#c6b2a3" d="M 191.5,37.5 C 197.008,37.7462 202.341,38.5796 207.5,40C 203.486,40.4994 199.486,40.3328 195.5,39.5C 193.667,39.4146 192.334,38.7479 191.5,37.5 Z"/></g>
<g><path style="opacity:1" fill="#dacdc1" d="M 239.5,40.5 C 241.306,41.0241 242.972,41.6908 244.5,42.5C 239.125,42.1718 233.792,42.5052 228.5,43.5C 229.729,44.2811 231.062,44.7811 232.5,45C 230.256,45.0496 228.589,45.8829 227.5,47.5C 226.9,46.0998 225.9,45.0998 224.5,44.5C 224.423,43.2502 223.756,42.4169 222.5,42C 219.833,41.6667 217.167,41.3333 214.5,41C 215.167,40.6667 215.833,40.3333 216.5,40C 222.043,39.7055 227.543,40.2055 233,41.5C 235.361,41.4961 237.527,41.1627 239.5,40.5 Z"/></g>
<g><path style="opacity:1" fill="#a79d96" d="M 158.5,45.5 C 159.609,46.29 160.942,46.79 162.5,47C 160.19,47.4966 157.857,47.6633 155.5,47.5C 156.29,46.5987 157.29,45.9321 158.5,45.5 Z"/></g>
<g><path style="opacity:1" fill="#3d1a0a" d="M 244.5,42.5 C 250.741,43.3332 256.074,44.8332 260.5,47C 261.406,48.6995 261.739,50.5328 261.5,52.5C 258.025,58.1027 254.525,63.7694 251,69.5C 249.818,71.3569 248.151,72.3569 246,72.5C 242.054,70.5048 237.887,69.0048 233.5,68C 234.5,67.6667 235.5,67.3333 236.5,67C 234.623,66.4242 232.789,66.5909 231,67.5C 229.775,67.1377 228.609,66.6377 227.5,66C 227.656,62.8914 227.323,59.7247 226.5,56.5C 229.898,56.8204 233.232,56.487 236.5,55.5C 234.604,54.5344 232.604,54.2011 230.5,54.5C 229.5,54.5 228.5,54.5 227.5,54.5C 227.561,51.9505 228.894,50.4505 231.5,50C 230.142,49.0656 228.808,48.2323 227.5,47.5C 228.589,45.8829 230.256,45.0496 232.5,45C 231.062,44.7811 229.729,44.2811 228.5,43.5C 233.792,42.5052 239.125,42.1718 244.5,42.5 Z"/></g>
<g><path style="opacity:1" fill="#3c1a0c" d="M 182.5,39.5 C 182.062,39.4346 181.728,39.6012 181.5,40C 184.186,42.5463 185.186,45.713 184.5,49.5C 181.187,50.0448 177.854,50.5448 174.5,51C 177.167,51.3333 179.833,51.6667 182.5,52C 185.274,56.0087 186.607,60.5087 186.5,65.5C 182.872,68.0551 178.872,70.0551 174.5,71.5C 170.645,73.4815 166.645,73.8148 162.5,72.5C 159.912,68.326 157.579,63.9926 155.5,59.5C 161.629,60.7758 167.962,60.7758 174.5,59.5C 175.756,59.5386 176.756,59.0386 177.5,58C 174.629,57.8823 171.962,57.2156 169.5,56C 170.5,55.6667 171.5,55.3333 172.5,55C 171.167,54 169.833,53 168.5,52C 169.956,51.5774 170.456,50.7441 170,49.5C 167.974,49.9147 166.474,50.9147 165.5,52.5C 163.738,52.6427 162.071,52.3094 160.5,51.5C 158.401,53.2712 156.067,54.6046 153.5,55.5C 151.962,55.5466 150.962,54.8799 150.5,53.5C 151.148,51.9142 151.648,50.2475 152,48.5C 153.011,47.6634 154.178,47.33 155.5,47.5C 157.857,47.6633 160.19,47.4966 162.5,47C 160.942,46.79 159.609,46.29 158.5,45.5C 162.933,43.6994 167.6,43.0328 172.5,43.5C 172.36,41.8762 173.027,40.7096 174.5,40C 176.5,39.5 178.5,39 180.5,38.5C 181.416,38.5427 182.083,38.8761 182.5,39.5 Z"/></g>
<g><path style="opacity:1" fill="#e5d8c9" d="M 239.5,47.5 C 243.123,48.4114 243.29,49.7447 240,51.5C 238.795,50.9288 237.628,50.2621 236.5,49.5C 237.602,48.8243 238.602,48.1577 239.5,47.5 Z"/></g>
<g><path style="opacity:1" fill="#9f8a7e" d="M 174.5,59.5 C 171.972,58.8343 169.306,58.1676 166.5,57.5C 168.877,55.7479 169.044,53.7479 167,51.5C 166.617,52.056 166.117,52.3893 165.5,52.5C 166.474,50.9147 167.974,49.9147 170,49.5C 170.456,50.7441 169.956,51.5774 168.5,52C 169.833,53 171.167,54 172.5,55C 171.5,55.3333 170.5,55.6667 169.5,56C 171.962,57.2156 174.629,57.8823 177.5,58C 176.756,59.0386 175.756,59.5386 174.5,59.5 Z"/></g>
<g><path style="opacity:1" fill="#dac8bd" d="M 192.5,51.5 C 195.169,53.0873 198.169,53.9206 201.5,54C 198.5,54.3333 195.5,54.6667 192.5,55C 192,55.5 191.5,56 191,56.5C 190.387,54.5048 190.887,52.8381 192.5,51.5 Z"/></g>
<g><path style="opacity:1" fill="#381b10" d="M 272.5,55.5 C 268.833,55.5 265.167,55.5 261.5,55.5C 262.167,54.5 262.833,53.5 263.5,52.5C 267.329,50.9106 270.329,51.9106 272.5,55.5 Z"/></g>
<g><path style="opacity:1" fill="#e1d4cb" d="M 185.5,37.5 C 185.12,42.0728 186.453,46.0728 189.5,49.5C 188.689,50.2164 188.022,51.0497 187.5,52C 188.161,54.464 188.661,56.964 189,59.5C 190.011,60.3366 191.178,60.67 192.5,60.5C 192.351,59.448 192.517,58.448 193,57.5C 194.718,58.8502 196.552,60.0168 198.5,61C 195.518,61.498 192.518,61.6646 189.5,61.5C 189.629,63.2161 189.962,64.8828 190.5,66.5C 189.167,66.1667 187.833,65.8333 186.5,65.5C 186.607,60.5087 185.274,56.0087 182.5,52C 179.833,51.6667 177.167,51.3333 174.5,51C 177.854,50.5448 181.187,50.0448 184.5,49.5C 185.186,45.713 184.186,42.5463 181.5,40C 181.728,39.6012 182.062,39.4346 182.5,39.5C 183.778,39.2178 184.778,38.5511 185.5,37.5 Z"/></g>
<g><path style="opacity:1" fill="#897163" d="M 261.5,55.5 C 265.167,55.5 268.833,55.5 272.5,55.5C 273.5,55.8333 274.167,56.5 274.5,57.5C 270.167,57.5 265.833,57.5 261.5,57.5C 261.5,56.8333 261.5,56.1667 261.5,55.5 Z"/></g>
<g><path style="opacity:1" fill="#3d1604" d="M 150.5,82.5 C 147.833,82.8333 147.833,83.1667 150.5,83.5C 148.54,85.1563 146.54,86.823 144.5,88.5C 142.932,89.4731 141.265,89.6397 139.5,89C 140.5,88.6667 141.5,88.3333 142.5,88C 136.155,87.4785 131.155,84.6451 127.5,79.5C 127.649,78.448 127.483,77.448 127,76.5C 125.984,77.6341 125.317,77.3008 125,75.5C 123.262,69.2379 125.428,67.0713 131.5,69C 132.079,67.5747 132.079,65.908 131.5,64C 133.78,63.7674 135.78,62.934 137.5,61.5C 140.257,61.0713 142.924,61.738 145.5,63.5C 146.167,63.1667 146.833,62.8333 147.5,62.5C 146.311,61.5713 144.978,61.238 143.5,61.5C 143.337,59.1432 143.503,56.8098 144,54.5C 144.417,58.9717 146.917,60.9717 151.5,60.5C 152.639,63.1623 152.806,65.829 152,68.5C 153.543,70.3783 155.376,71.8783 157.5,73C 154.72,75.8447 152.387,79.0114 150.5,82.5 Z"/></g>
<g><path style="opacity:1" fill="#9b806f" d="M 173.5,60.5 C 176.247,60.1866 178.914,60.52 181.5,61.5C 180.167,61.8333 178.833,62.1667 177.5,62.5C 175.667,62.4146 174.334,61.7479 173.5,60.5 Z"/></g>
<g><path style="opacity:1" fill="#8b6f5e" d="M 203.5,60.5 C 205.503,59.4684 207.503,59.8018 209.5,61.5C 207.243,62.7698 205.243,62.4364 203.5,60.5 Z"/></g>
<g><path style="opacity:1" fill="#3b1705" d="M 261.5,57.5 C 265.833,57.5 270.167,57.5 274.5,57.5C 279.242,60.3824 283.908,63.549 288.5,67C 290.229,68.7889 290.896,70.9556 290.5,73.5C 285.741,78.3823 280.407,82.549 274.5,86C 270.019,87.112 266.019,86.2787 262.5,83.5C 259.921,80.8652 256.921,78.6985 253.5,77C 252.919,76.1074 252.585,75.1074 252.5,74C 254.358,67.7773 257.358,62.2773 261.5,57.5 Z"/></g>
<g><path style="opacity:1" fill="#f1eae3" d="M 165.5,52.5 C 166.117,52.3893 166.617,52.056 167,51.5C 169.044,53.7479 168.877,55.7479 166.5,57.5C 169.306,58.1676 171.972,58.8343 174.5,59.5C 167.962,60.7758 161.629,60.7758 155.5,59.5C 157.579,63.9926 159.912,68.326 162.5,72.5C 166.645,73.8148 170.645,73.4815 174.5,71.5C 173.942,72.7899 172.942,73.6232 171.5,74C 168.833,74.3333 166.167,74.6667 163.5,75C 160.596,79.072 156.929,82.2386 152.5,84.5C 151.817,84.1373 151.15,83.8039 150.5,83.5C 147.833,83.1667 147.833,82.8333 150.5,82.5C 153.09,81.8717 155.423,80.705 157.5,79C 158.894,78.044 159.561,76.7106 159.5,75C 157.158,70.3331 154.992,65.4998 153,60.5C 147.485,60.0876 146.318,57.7543 149.5,53.5C 149.833,53.5 150.167,53.5 150.5,53.5C 150.962,54.8799 151.962,55.5466 153.5,55.5C 156.067,54.6046 158.401,53.2712 160.5,51.5C 162.071,52.3094 163.738,52.6427 165.5,52.5 Z"/></g>
<g><path style="opacity:1" fill="#fbf9f6" d="M 224.5,44.5 C 225.9,45.0998 226.9,46.0998 227.5,47.5C 228.808,48.2323 230.142,49.0656 231.5,50C 228.894,50.4505 227.561,51.9505 227.5,54.5C 228.5,54.5 229.5,54.5 230.5,54.5C 229.167,55.1667 227.833,55.8333 226.5,56.5C 227.323,59.7247 227.656,62.8914 227.5,66C 228.609,66.6377 229.775,67.1377 231,67.5C 232.789,66.5909 234.623,66.4242 236.5,67C 235.5,67.3333 234.5,67.6667 233.5,68C 237.887,69.0048 242.054,70.5048 246,72.5C 248.151,72.3569 249.818,71.3569 251,69.5C 254.525,63.7694 258.025,58.1027 261.5,52.5C 262.167,52.5 262.833,52.5 263.5,52.5C 262.833,53.5 262.167,54.5 261.5,55.5C 261.5,56.1667 261.5,56.8333 261.5,57.5C 257.358,62.2773 254.358,67.7773 252.5,74C 252.585,75.1074 252.919,76.1074 253.5,77C 256.921,78.6985 259.921,80.8652 262.5,83.5C 262.511,85.0174 263.177,86.1841 264.5,87C 267.799,88.0642 271.132,88.8975 274.5,89.5C 274.104,92.0444 274.771,94.2111 276.5,96C 279.833,96.3333 283.167,96.6667 286.5,97C 284.167,97.3333 281.833,97.6667 279.5,98C 281.394,99.0793 281.727,100.413 280.5,102C 282.405,103.815 284.072,105.815 285.5,108C 293.189,107.723 300.856,106.89 308.5,105.5C 303.843,108.154 298.843,110.321 293.5,112C 291.181,114.043 290.347,116.543 291,119.5C 292.799,123.07 294.299,126.737 295.5,130.5C 294.175,129.047 293.342,129.381 293,131.5C 292.486,126.136 290.153,121.802 286,118.5C 284.09,121.431 284.09,124.431 286,127.5C 286.333,125.5 286.667,123.5 287,121.5C 288.167,123 289.333,124.5 290.5,126C 289.257,127.154 288.257,128.488 287.5,130C 290.48,136.229 291.147,142.729 289.5,149.5C 288.817,149.137 288.15,148.804 287.5,148.5C 290.819,141.407 289.652,135.074 284,129.5C 284.986,135.475 282.819,139.475 277.5,141.5C 277.665,138.482 277.498,135.482 277,132.5C 273.262,129.09 270.262,125.09 268,120.5C 266.724,117.634 266.557,114.8 267.5,112C 261.651,113.365 258.317,117.198 257.5,123.5C 256.833,127.833 256.167,132.167 255.5,136.5C 248.827,131.827 243.161,126.161 238.5,119.5C 237.241,115.952 236.407,112.285 236,108.5C 231.503,112.493 228.836,117.493 228,123.5C 227.623,122.058 226.79,121.058 225.5,120.5C 223.037,115.097 220.704,109.764 218.5,104.5C 217.928,99.83 217.261,95.1633 216.5,90.5C 216.632,86.5961 217.965,83.2628 220.5,80.5C 221.627,79.8783 222.627,79.045 223.5,78C 220.861,77.4119 218.527,77.9119 216.5,79.5C 212.637,80.6936 209.637,83.027 207.5,86.5C 205.347,89.4275 203.847,92.7608 203,96.5C 199.467,91.1622 194.634,87.9955 188.5,87C 193.484,97.7248 192.151,107.558 184.5,116.5C 184.252,109.673 181.586,104.006 176.5,99.5C 175.17,106.844 172.336,113.511 168,119.5C 164.5,123.667 161,127.833 157.5,132C 154.273,134.112 150.94,135.945 147.5,137.5C 148.459,131.862 148.626,126.195 148,120.5C 142.824,110.51 140.657,111.177 141.5,122.5C 137.454,128.233 133.621,134.233 130,140.5C 129.501,144.152 129.335,147.818 129.5,151.5C 144.672,152.826 160.005,152.826 175.5,151.5C 174.481,149.396 173.481,147.396 172.5,145.5C 171.971,140.676 173.138,136.343 176,132.5C 176.053,139.596 178.553,145.596 183.5,150.5C 183.833,151.167 184.167,151.833 184.5,152.5C 190.979,153.491 197.646,153.824 204.5,153.5C 204.5,152.167 204.5,150.833 204.5,149.5C 205.5,148.167 206.5,146.833 207.5,145.5C 209.984,143.88 211.484,141.547 212,138.5C 213.883,139.653 214.716,141.319 214.5,143.5C 213.841,146.455 213.508,149.455 213.5,152.5C 223.5,152.5 233.5,152.5 243.5,152.5C 243.737,151.209 243.404,150.209 242.5,149.5C 240.415,145.719 240.082,141.719 241.5,137.5C 245.688,141.02 248.688,145.353 250.5,150.5C 250.5,151.167 250.5,151.833 250.5,152.5C 261.321,153.495 272.321,153.828 283.5,153.5C 271.345,154.495 259.011,154.829 246.5,154.5C 246.449,152.43 247.115,150.597 248.5,149C 248.054,147.274 247.221,145.774 246,144.5C 244.513,149.066 243.846,153.733 244,158.5C 246.585,159.885 248.585,159.218 250,156.5C 251.441,157.87 253.108,158.87 255,159.5C 255.483,160.448 255.649,161.448 255.5,162.5C 254.178,162.33 253.011,162.663 252,163.5C 251.502,166.482 251.335,169.482 251.5,172.5C 249.833,172.5 248.167,172.5 246.5,172.5C 245.566,173.568 245.232,174.901 245.5,176.5C 247.167,176.5 248.833,176.5 250.5,176.5C 250.174,184.684 250.508,192.684 251.5,200.5C 251.571,203.652 252.905,205.986 255.5,207.5C 252.273,210.447 251.94,213.781 254.5,217.5C 253.233,219.371 253.233,221.204 254.5,223C 253.263,223.232 252.263,223.732 251.5,224.5C 250.292,223.766 248.959,223.433 247.5,223.5C 245.58,220.544 243.913,217.544 242.5,214.5C 241.833,214.167 241.167,213.833 240.5,213.5C 233.329,212.313 229.663,215.647 229.5,223.5C 229.583,227.335 228.917,231.002 227.5,234.5C 224.635,234.055 222.135,234.722 220,236.5C 219.316,237.784 219.483,238.951 220.5,240C 222.387,240.78 224.054,240.613 225.5,239.5C 229.155,238.925 232.155,239.925 234.5,242.5C 232.334,242.579 230.334,243.246 228.5,244.5C 226.531,242.498 224.364,242.164 222,243.5C 219.182,242.567 218.016,240.567 218.5,237.5C 214.684,238.62 211.017,238.62 207.5,237.5C 204.53,238.165 201.53,238.831 198.5,239.5C 197.749,238.624 197.249,237.624 197,236.5C 194.606,237.136 192.106,237.136 189.5,236.5C 190.479,234.855 191.812,233.521 193.5,232.5C 191.933,230.104 191.1,227.437 191,224.5C 190.586,224.043 190.086,223.709 189.5,223.5C 187.885,224.154 186.218,224.654 184.5,225C 183.244,225.417 182.577,226.25 182.5,227.5C 181.662,227.842 181.328,228.508 181.5,229.5C 180.71,230.609 180.21,231.942 180,233.5C 179.502,230.518 179.335,227.518 179.5,224.5C 177.901,224.232 176.568,224.566 175.5,225.5C 174.417,225.539 173.417,225.873 172.5,226.5C 171.614,225.675 171.281,224.675 171.5,223.5C 170.167,223.5 168.833,223.5 167.5,223.5C 167.125,227.442 166.125,231.109 164.5,234.5C 164.5,232.5 164.5,230.5 164.5,228.5C 165.434,227.432 165.768,226.099 165.5,224.5C 162.592,224.738 160.258,223.738 158.5,221.5C 156.31,222.748 155.977,224.414 157.5,226.5C 157.192,227.308 156.692,227.975 156,228.5C 154.632,226.973 154.132,225.473 154.5,224C 152.011,223.059 150.011,223.559 148.5,225.5C 146.078,226.692 145.078,228.692 145.5,231.5C 145.363,233.841 146.03,235.841 147.5,237.5C 145.983,237.489 144.816,236.823 144,235.5C 143.751,236.624 143.251,237.624 142.5,238.5C 140.827,236.914 138.827,236.247 136.5,236.5C 136.81,239.713 136.477,242.713 135.5,245.5C 135.5,242.167 135.5,238.833 135.5,235.5C 140.175,236.661 142.841,234.994 143.5,230.5C 141.194,230.993 138.861,231.326 136.5,231.5C 137.185,226.779 137.185,222.112 136.5,217.5C 145.162,216.412 153.829,216.412 162.5,217.5C 162.5,215.833 162.5,214.167 162.5,212.5C 160.512,212.173 158.512,211.84 156.5,211.5C 145.872,213.498 135.205,214.165 124.5,213.5C 125.981,212.056 125.648,211.389 123.5,211.5C 124.91,210.172 126.076,210.505 127,212.5C 127.483,211.552 127.649,210.552 127.5,209.5C 125.821,209.715 124.821,209.048 124.5,207.5C 129.833,207.5 135.167,207.5 140.5,207.5C 140.5,204.833 140.5,202.167 140.5,199.5C 135.156,199.666 129.823,199.499 124.5,199C 128.633,192.567 133.133,186.401 138,180.5C 138.497,177.854 138.664,175.187 138.5,172.5C 130.231,170.53 121.565,169.864 112.5,170.5C 111.196,168.793 110.03,167.126 109,165.5C 107.562,166.9 106.729,168.567 106.5,170.5C 103.5,170.5 100.5,170.5 97.5,170.5C 97.5,182.833 97.5,195.167 97.5,207.5C 96.6696,197.008 96.1696,186.341 96,175.5C 95.6667,179.833 95.3333,184.167 95,188.5C 94.221,189.728 93.221,190.728 92,191.5C 90.902,190.616 90.402,189.616 90.5,188.5C 88.8273,190.086 86.8273,190.753 84.5,190.5C 91.7685,185.951 94.7685,179.284 93.5,170.5C 95.2331,168.645 96.2331,166.312 96.5,163.5C 98.3919,167.168 101.392,168.335 105.5,167C 109.5,163.667 109.5,160.333 105.5,157C 101.9,155.927 98.9003,156.76 96.5,159.5C 95.475,159.103 95.3083,158.437 96,157.5C 97.1711,156.107 98.6711,155.273 100.5,155C 100.167,154.667 99.8333,154.333 99.5,154C 87.1667,153.333 74.8333,153.333 62.5,154C 63.6956,154.654 63.6956,155.154 62.5,155.5C 61.5,155 60.5,154.5 59.5,154C 60.4158,153.722 61.0825,153.222 61.5,152.5C 79.008,152.83 96.3414,152.497 113.5,151.5C 113.5,148.167 113.5,144.833 113.5,141.5C 110.833,141.5 108.167,141.5 105.5,141.5C 101.154,141.666 96.8206,141.499 92.5,141C 92.8333,140.667 93.1667,140.333 93.5,140C 99.4908,139.501 105.491,139.334 111.5,139.5C 111.5,138.5 111.5,137.5 111.5,136.5C 112.822,136.67 113.989,136.337 115,135.5C 116.246,131.205 117.913,127.205 120,123.5C 120.5,122 121,120.5 121.5,119C 119.711,117.56 119.045,116.06 119.5,114.5C 118.884,113.202 118.884,112.202 119.5,111.5C 124.213,111.81 127.88,109.977 130.5,106C 127.956,104.908 125.289,104.241 122.5,104C 131.472,104.531 136.806,100.364 138.5,91.5C 141.015,91.2309 143.015,90.2309 144.5,88.5C 146.54,86.823 148.54,85.1563 150.5,83.5C 151.15,83.8039 151.817,84.1373 152.5,84.5C 156.929,82.2386 160.596,79.072 163.5,75C 166.167,74.6667 168.833,74.3333 171.5,74C 172.942,73.6232 173.942,72.7899 174.5,71.5C 178.872,70.0551 182.872,68.0551 186.5,65.5C 187.833,65.8333 189.167,66.1667 190.5,66.5C 190.511,68.0174 191.177,69.1841 192.5,70C 201.314,70.835 209.98,70.1683 218.5,68C 220.653,66.1092 221.32,63.9426 220.5,61.5C 223.786,56.9969 223.12,53.3303 218.5,50.5C 214.317,51.3653 210.317,52.6987 206.5,54.5C 205.692,54.1924 205.025,53.6924 204.5,53C 206.134,52.5065 207.801,52.3398 209.5,52.5C 209.5,50.5 209.5,48.5 209.5,46.5C 213.808,47.3676 218.141,47.5343 222.5,47C 223.381,46.2917 224.047,45.4584 224.5,44.5 Z"/></g>
<g><path style="opacity:1" fill="#856955" d="M 230.5,54.5 C 232.604,54.2011 234.604,54.5344 236.5,55.5C 233.232,56.487 229.898,56.8204 226.5,56.5C 227.833,55.8333 229.167,55.1667 230.5,54.5 Z"/></g>
<g><path style="opacity:1" fill="#f3dfd5" d="M 162.5,67.5 C 163.946,66.3871 165.613,66.2204 167.5,67C 165.861,68.5193 164.194,68.686 162.5,67.5 Z"/></g>
<g><path style="opacity:1" fill="#3b1e10" d="M 149.5,53.5 C 146.318,57.7543 147.485,60.0876 153,60.5C 154.992,65.4998 157.158,70.3331 159.5,75C 159.561,76.7106 158.894,78.044 157.5,79C 155.423,80.705 153.09,81.8717 150.5,82.5C 152.387,79.0114 154.72,75.8447 157.5,73C 155.376,71.8783 153.543,70.3783 152,68.5C 152.806,65.829 152.639,63.1623 151.5,60.5C 146.917,60.9717 144.417,58.9717 144,54.5C 143.503,56.8098 143.337,59.1432 143.5,61.5C 144.978,61.238 146.311,61.5713 147.5,62.5C 146.833,62.8333 146.167,63.1667 145.5,63.5C 142.924,61.738 140.257,61.0713 137.5,61.5C 135.78,62.934 133.78,63.7674 131.5,64C 132.079,65.908 132.079,67.5747 131.5,69C 125.428,67.0713 123.262,69.2379 125,75.5C 125.317,77.3008 125.984,77.6341 127,76.5C 127.483,77.448 127.649,78.448 127.5,79.5C 125.228,78.5589 123.228,77.2255 121.5,75.5C 121.34,73.8008 121.506,72.1341 122,70.5C 128.781,64.8692 135.615,59.3692 142.5,54C 144.81,53.5034 147.143,53.3367 149.5,53.5 Z"/></g>
<g><path style="opacity:1" fill="#91715c" d="M 241.5,66.5 C 242.995,66.4148 243.995,67.0815 244.5,68.5C 241.623,69.9109 240.623,69.2442 241.5,66.5 Z"/></g>
<g><path style="opacity:1" fill="#cc8765" d="M 220.5,80.5 C 219.432,79.5655 218.099,79.2322 216.5,79.5C 218.527,77.9119 220.861,77.4119 223.5,78C 222.627,79.045 221.627,79.8783 220.5,80.5 Z"/></g>
<g><path style="opacity:1" fill="#3c1807" d="M 290.5,74.5 C 294.147,74.6216 296.981,76.2882 299,79.5C 302.833,85.3333 306.667,91.1667 310.5,97C 301.167,97.6667 301.167,98.3333 310.5,99C 311.406,100.699 311.739,102.533 311.5,104.5C 310.209,104.263 309.209,104.596 308.5,105.5C 300.856,106.89 293.189,107.723 285.5,108C 284.072,105.815 282.405,103.815 280.5,102C 281.727,100.413 281.394,99.0793 279.5,98C 281.833,97.6667 284.167,97.3333 286.5,97C 283.167,96.6667 279.833,96.3333 276.5,96C 274.771,94.2111 274.104,92.0444 274.5,89.5C 276.963,87.5389 279.297,85.3722 281.5,83C 282.449,82.3828 283.282,82.5494 284,83.5C 285.581,80.084 287.748,77.084 290.5,74.5 Z"/></g>
<g><path style="opacity:1" fill="#e8ded1" d="M 121.5,75.5 C 123.228,77.2255 125.228,78.5589 127.5,79.5C 131.155,84.6451 136.155,87.4785 142.5,88C 141.5,88.3333 140.5,88.6667 139.5,89C 141.265,89.6397 142.932,89.4731 144.5,88.5C 143.015,90.2309 141.015,91.2309 138.5,91.5C 132.511,86.8431 126.844,81.8431 121.5,76.5C 121.5,76.1667 121.5,75.8333 121.5,75.5 Z"/></g>
<g><path style="opacity:1" fill="#da612b" d="M 216.5,79.5 C 218.099,79.2322 219.432,79.5655 220.5,80.5C 217.965,83.2628 216.632,86.5961 216.5,90.5C 217.261,95.1633 217.928,99.83 218.5,104.5C 215.38,97.5183 214.714,90.185 216.5,82.5C 215.022,82.238 213.689,82.5713 212.5,83.5C 213.59,84.6086 213.59,85.6086 212.5,86.5C 210.872,85.4647 209.205,85.4647 207.5,86.5C 209.637,83.027 212.637,80.6936 216.5,79.5 Z"/></g>
<g><path style="opacity:1" fill="#d26f41" d="M 250.5,91.5 C 249.185,90.5244 247.852,89.5244 246.5,88.5C 245.833,92.3125 245.166,95.9792 244.5,99.5C 244.665,95.8183 244.499,92.1516 244,88.5C 240.642,86.1161 240.809,84.9495 244.5,85C 247.294,86.5355 249.294,88.7022 250.5,91.5 Z"/></g>
<g><path style="opacity:1" fill="#e5d9d0" d="M 290.5,73.5 C 290.5,73.8333 290.5,74.1667 290.5,74.5C 287.748,77.084 285.581,80.084 284,83.5C 283.282,82.5494 282.449,82.3828 281.5,83C 279.297,85.3722 276.963,87.5389 274.5,89.5C 271.132,88.8975 267.799,88.0642 264.5,87C 263.177,86.1841 262.511,85.0174 262.5,83.5C 266.019,86.2787 270.019,87.112 274.5,86C 280.407,82.549 285.741,78.3823 290.5,73.5 Z"/></g>
<g><path style="opacity:1" fill="#ea510f" d="M 250.5,91.5 C 250.64,93.1238 249.973,94.2904 248.5,95C 250.43,100.874 251.097,107.04 250.5,113.5C 248.857,113.48 247.524,114.147 246.5,115.5C 245.914,115.291 245.414,114.957 245,114.5C 244.501,109.511 244.334,104.511 244.5,99.5C 245.166,95.9792 245.833,92.3125 246.5,88.5C 247.852,89.5244 249.185,90.5244 250.5,91.5 Z"/></g>
<g><path style="opacity:1" fill="#3e1c0e" d="M 121.5,76.5 C 126.844,81.8431 132.511,86.8431 138.5,91.5C 136.806,100.364 131.472,104.531 122.5,104C 125.289,104.241 127.956,104.908 130.5,106C 127.88,109.977 124.213,111.81 119.5,111.5C 113.531,110.001 107.531,108.168 101.5,106C 100.046,103.216 100.379,100.716 102.5,98.5C 108.442,98.7884 108.775,97.9551 103.5,96C 107.125,90.5846 110.625,85.0846 114,79.5C 115.767,76.1555 118.267,75.1555 121.5,76.5 Z"/></g>
<g><path style="opacity:1" fill="#8f6d5c" d="M 117.5,96.5 C 118.978,96.238 120.311,96.5713 121.5,97.5C 119.926,98.6309 118.259,98.7975 116.5,98C 117.056,97.6174 117.389,97.1174 117.5,96.5 Z"/></g>
<g><path style="opacity:1" fill="#ddc7b0" d="M 125.5,87.5 C 127.103,87.3118 128.437,87.8118 129.5,89C 127.537,89.8442 126.204,89.3442 125.5,87.5 Z"/></g>
<g><path style="opacity:1" fill="#e6d1be" d="M 119.5,84.5 C 122.1,86.2441 121.934,87.5775 119,88.5C 118.805,87.1807 118.972,85.8474 119.5,84.5 Z"/></g>
<g><path style="opacity:1" fill="#e75212" d="M 218.5,104.5 C 220.704,109.764 223.037,115.097 225.5,120.5C 226.038,122.117 226.371,123.784 226.5,125.5C 227.833,125.5 229.167,125.5 230.5,125.5C 230.46,122.119 230.793,118.786 231.5,115.5C 233.124,115.64 234.29,114.973 235,113.5C 235.424,116.025 236.59,118.025 238.5,119.5C 243.161,126.161 248.827,131.827 255.5,136.5C 255.783,137.289 256.283,137.956 257,138.5C 257.499,133.511 257.666,128.511 257.5,123.5C 258.317,117.198 261.651,113.365 267.5,112C 266.557,114.8 266.724,117.634 268,120.5C 270.262,125.09 273.262,129.09 277,132.5C 277.498,135.482 277.665,138.482 277.5,141.5C 282.819,139.475 284.986,135.475 284,129.5C 289.652,135.074 290.819,141.407 287.5,148.5C 287.5,149.167 287.5,149.833 287.5,150.5C 286.833,150.833 286.167,151.167 285.5,151.5C 273.753,151.811 262.086,151.478 250.5,150.5C 248.688,145.353 245.688,141.02 241.5,137.5C 240.082,141.719 240.415,145.719 242.5,149.5C 233.56,151.472 224.227,152.139 214.5,151.5C 215.258,148.648 215.258,145.981 214.5,143.5C 214.716,141.319 213.883,139.653 212,138.5C 211.484,141.547 209.984,143.88 207.5,145.5C 204.043,145.96 202.377,147.96 202.5,151.5C 196.108,151.751 189.775,151.418 183.5,150.5C 178.553,145.596 176.053,139.596 176,132.5C 173.138,136.343 171.971,140.676 172.5,145.5C 172.357,147.262 172.691,148.929 173.5,150.5C 158.848,151.499 144.182,151.833 129.5,151.5C 129.335,147.818 129.501,144.152 130,140.5C 133.621,134.233 137.454,128.233 141.5,122.5C 142.232,121.192 143.066,119.858 144,118.5C 144.667,119.167 145.333,119.833 146,120.5C 146.173,126.348 146.673,132.015 147.5,137.5C 150.94,135.945 154.273,134.112 157.5,132C 161,127.833 164.5,123.667 168,119.5C 172.336,113.511 175.17,106.844 176.5,99.5C 181.586,104.006 184.252,109.673 184.5,116.5C 192.151,107.558 193.484,97.7248 188.5,87C 194.634,87.9955 199.467,91.1622 203,96.5C 203.847,92.7608 205.347,89.4275 207.5,86.5C 209.205,85.4647 210.872,85.4647 212.5,86.5C 213.59,85.6086 213.59,84.6086 212.5,83.5C 213.689,82.5713 215.022,82.238 216.5,82.5C 214.714,90.185 215.38,97.5183 218.5,104.5 Z"/></g>
<g><path style="opacity:1" fill="#e5dad1" d="M 102.5,98.5 C 100.379,100.716 100.046,103.216 101.5,106C 107.531,108.168 113.531,110.001 119.5,111.5C 118.884,112.202 118.884,113.202 119.5,114.5C 113.88,113.011 108.546,110.845 103.5,108C 101.527,107.505 99.5273,107.338 97.5,107.5C 96.3424,106.05 96.8424,105.05 99,104.5C 99.4955,102.527 99.6621,100.527 99.5,98.5C 100.5,98.5 101.5,98.5 102.5,98.5 Z"/></g>
<g><path style="opacity:1" fill="#e3591c" d="M 159.5,100.5 C 159.348,106.029 159.682,111.529 160.5,117C 160.408,120.801 159.074,123.968 156.5,126.5C 155.344,119.011 155.178,111.345 156,103.5C 157.039,102.29 158.206,101.29 159.5,100.5 Z"/></g>
<g><path style="opacity:1" fill="#3b1706" d="M 97.5,107.5 C 99.5273,107.338 101.527,107.505 103.5,108C 108.546,110.845 113.88,113.011 119.5,114.5C 119.045,116.06 119.711,117.56 121.5,119C 121,120.5 120.5,122 120,123.5C 117.913,127.205 116.246,131.205 115,135.5C 113.989,136.337 112.822,136.67 111.5,136.5C 111.5,137.5 111.5,138.5 111.5,139.5C 105.491,139.334 99.4908,139.501 93.5,140C 93.1667,140.333 92.8333,140.667 92.5,141C 96.8206,141.499 101.154,141.666 105.5,141.5C 107.607,142.468 109.941,142.802 112.5,142.5C 112.5,145.5 112.5,148.5 112.5,151.5C 95.8333,151.5 79.1667,151.5 62.5,151.5C 62.5,150.167 62.5,148.833 62.5,147.5C 69.2763,145.853 75.9429,143.686 82.5,141C 84.5,137.667 87.1667,135 90.5,133C 88.78,129.914 89.4466,127.581 92.5,126C 92.1979,119.398 93.8645,113.231 97.5,107.5 Z"/></g>
<g><path style="opacity:1" fill="#3e1b0b" d="M 308.5,105.5 C 315.503,105.053 318.503,108.22 317.5,115C 319.904,117.9 321.571,121.233 322.5,125C 322.355,125.772 322.022,126.439 321.5,127C 322.308,127.308 322.975,127.808 323.5,128.5C 324.195,131.28 325.195,133.947 326.5,136.5C 334.91,141.14 343.243,145.474 351.5,149.5C 352.386,150.325 352.719,151.325 352.5,152.5C 335.833,152.5 319.167,152.5 302.5,152.5C 302.027,149.167 303.36,147 306.5,146C 304.833,145.667 303.167,145.333 301.5,145C 300.748,144.329 300.414,143.496 300.5,142.5C 300.5,141.5 300.5,140.5 300.5,139.5C 307.706,139.876 314.706,138.876 321.5,136.5C 314.22,136.347 306.886,136.181 299.5,136C 298.956,135.283 298.289,134.783 297.5,134.5C 297.34,132.847 296.674,131.514 295.5,130.5C 294.299,126.737 292.799,123.07 291,119.5C 290.347,116.543 291.181,114.043 293.5,112C 298.843,110.321 303.843,108.154 308.5,105.5 Z"/></g>
<g><path style="opacity:1" fill="#dc602e" d="M 238.5,119.5 C 236.59,118.025 235.424,116.025 235,113.5C 234.29,114.973 233.124,115.64 231.5,115.5C 230.793,118.786 230.46,122.119 230.5,125.5C 229.167,125.5 227.833,125.5 226.5,125.5C 226.371,123.784 226.038,122.117 225.5,120.5C 226.79,121.058 227.623,122.058 228,123.5C 228.836,117.493 231.503,112.493 236,108.5C 236.407,112.285 237.241,115.952 238.5,119.5 Z"/></g>
<g><path style="opacity:1" fill="#d57348" d="M 159.5,100.5 C 158.206,101.29 157.039,102.29 156,103.5C 155.178,111.345 155.344,119.011 156.5,126.5C 155.828,127.267 154.995,127.934 154,128.5C 153.833,128.167 153.667,127.833 153.5,127.5C 154.228,120.203 154.394,112.87 154,105.5C 154.346,103.152 155.513,101.319 157.5,100C 158.437,99.3083 159.103,99.475 159.5,100.5 Z"/></g>
<g><path style="opacity:1" fill="#c6ad9b" d="M 305.5,111.5 C 306.649,111.791 307.316,112.624 307.5,114C 307.167,114.833 306.833,115.667 306.5,116.5C 305.548,114.955 305.215,113.288 305.5,111.5 Z"/></g>
<g><path style="opacity:1" fill="#da5f26" d="M 250.5,91.5 C 251.117,91.6107 251.617,91.944 252,92.5C 252.547,99.1774 252.381,105.844 251.5,112.5C 251.347,115.706 252.014,118.706 253.5,121.5C 248.554,121.227 245.054,118.561 243,113.5C 242.365,108.593 242.865,103.926 244.5,99.5C 244.334,104.511 244.501,109.511 245,114.5C 245.414,114.957 245.914,115.291 246.5,115.5C 247.524,114.147 248.857,113.48 250.5,113.5C 251.097,107.04 250.43,100.874 248.5,95C 249.973,94.2904 250.64,93.1238 250.5,91.5 Z"/></g>
<g><path style="opacity:1" fill="#d9642e" d="M 147.5,137.5 C 146.673,132.015 146.173,126.348 146,120.5C 145.333,119.833 144.667,119.167 144,118.5C 143.066,119.858 142.232,121.192 141.5,122.5C 140.657,111.177 142.824,110.51 148,120.5C 148.626,126.195 148.459,131.862 147.5,137.5 Z"/></g>
<g><path style="opacity:1" fill="#df602b" d="M 273.5,111.5 C 276.083,114.266 278.583,117.266 281,120.5C 281.969,123.328 281.303,125.662 279,127.5C 278.667,126.167 278.333,124.833 278,123.5C 273.888,120.309 272.388,116.309 273.5,111.5 Z"/></g>
<g><path style="opacity:1" fill="#c6b4a8" d="M 95.5,125.5 C 99.1817,125.335 102.848,125.501 106.5,126C 104.256,126.906 101.923,127.406 99.5,127.5C 97.6672,127.415 96.3339,126.748 95.5,125.5 Z"/></g>
<g><path style="opacity:1" fill="#c1ac9e" d="M 111.5,125.5 C 115.97,125.03 116.47,126.03 113,128.5C 111.961,127.756 111.461,126.756 111.5,125.5 Z"/></g>
<g><path style="opacity:1" fill="#e9b08e" d="M 257.5,123.5 C 257.666,128.511 257.499,133.511 257,138.5C 256.283,137.956 255.783,137.289 255.5,136.5C 256.167,132.167 256.833,127.833 257.5,123.5 Z"/></g>
<g><path style="opacity:1" fill="#ebe0d8" d="M 297.5,134.5 C 298.289,134.783 298.956,135.283 299.5,136C 306.886,136.181 314.22,136.347 321.5,136.5C 314.706,138.876 307.706,139.876 300.5,139.5C 300.5,140.5 300.5,141.5 300.5,142.5C 299.129,140.064 298.129,137.397 297.5,134.5 Z"/></g>
<g><path style="opacity:1" fill="#dfcfc3" d="M 321.5,139.5 C 323.196,139.685 324.529,140.519 325.5,142C 323.167,142.667 320.833,142.667 318.5,142C 319.571,141.148 320.571,140.315 321.5,139.5 Z"/></g>
<g><path style="opacity:1" fill="#665247" d="M 105.5,141.5 C 108.167,141.5 110.833,141.5 113.5,141.5C 113.5,144.833 113.5,148.167 113.5,151.5C 113.167,151.5 112.833,151.5 112.5,151.5C 112.5,148.5 112.5,145.5 112.5,142.5C 109.941,142.802 107.607,142.468 105.5,141.5 Z"/></g>
<g><path style="opacity:1" fill="#c2b6ac" d="M 62.5,147.5 C 62.5,148.833 62.5,150.167 62.5,151.5C 79.1667,151.5 95.8333,151.5 112.5,151.5C 112.833,151.5 113.167,151.5 113.5,151.5C 96.3414,152.497 79.008,152.83 61.5,152.5C 60.7109,152.217 60.0442,151.717 59.5,151C 60.8141,150.015 61.8141,148.848 62.5,147.5 Z"/></g>
<g><path style="opacity:1" fill="#c46537" d="M 172.5,145.5 C 173.481,147.396 174.481,149.396 175.5,151.5C 160.005,152.826 144.672,152.826 129.5,151.5C 144.182,151.833 158.848,151.499 173.5,150.5C 172.691,148.929 172.357,147.262 172.5,145.5 Z"/></g>
<g><path style="opacity:1" fill="#cf5e2e" d="M 207.5,145.5 C 206.5,146.833 205.5,148.167 204.5,149.5C 203.596,150.209 203.263,151.209 203.5,152.5C 197.167,152.5 190.833,152.5 184.5,152.5C 184.167,151.833 183.833,151.167 183.5,150.5C 189.775,151.418 196.108,151.751 202.5,151.5C 202.377,147.96 204.043,145.96 207.5,145.5 Z"/></g>
<g><path style="opacity:1" fill="#ca5f2f" d="M 214.5,143.5 C 215.258,145.981 215.258,148.648 214.5,151.5C 224.227,152.139 233.56,151.472 242.5,149.5C 243.404,150.209 243.737,151.209 243.5,152.5C 233.5,152.5 223.5,152.5 213.5,152.5C 213.508,149.455 213.841,146.455 214.5,143.5 Z"/></g>
<g><path style="opacity:1" fill="#c75d29" d="M 250.5,150.5 C 262.086,151.478 273.753,151.811 285.5,151.5C 274.012,152.495 262.345,152.828 250.5,152.5C 250.5,151.833 250.5,151.167 250.5,150.5 Z"/></g>
<g><path style="opacity:1" fill="#fcc6ab" d="M 204.5,149.5 C 204.5,150.833 204.5,152.167 204.5,153.5C 197.646,153.824 190.979,153.491 184.5,152.5C 190.833,152.5 197.167,152.5 203.5,152.5C 203.263,151.209 203.596,150.209 204.5,149.5 Z"/></g>
<g><path style="opacity:1" fill="#fed0af" d="M 287.5,150.5 C 287.5,151.5 287.5,152.5 287.5,153.5C 286.167,153.5 284.833,153.5 283.5,153.5C 272.321,153.828 261.321,153.495 250.5,152.5C 262.345,152.828 274.012,152.495 285.5,151.5C 286.167,151.167 286.833,150.833 287.5,150.5 Z"/></g>
<g><path style="opacity:1" fill="#3f1f15" d="M 238.5,161.5 C 243.123,160.408 244.956,162.075 244,166.5C 239.079,168.077 237.246,166.41 238.5,161.5 Z"/></g>
<g><path style="opacity:1" fill="#3b2115" d="M 93.5,170.5 C 94.7685,179.284 91.7685,185.951 84.5,190.5C 83.1667,190.5 81.8333,190.5 80.5,190.5C 84.0286,187.801 87.3619,184.801 90.5,181.5C 92.5195,175.42 91.1862,170.253 86.5,166C 78.8806,164.795 71.214,164.295 63.5,164.5C 63.815,168.371 63.4816,172.038 62.5,175.5C 62.5,171.167 62.5,166.833 62.5,162.5C 69.5079,162.334 76.5079,162.5 83.5,163C 87.8695,164.213 91.2028,166.713 93.5,170.5 Z"/></g>
<g><path style="opacity:1" fill="#3c1706" d="M 80.5,190.5 C 78.0521,191.473 75.3854,191.806 72.5,191.5C 72.5,196.833 72.5,202.167 72.5,207.5C 69.1667,207.5 65.8333,207.5 62.5,207.5C 62.5,196.833 62.5,186.167 62.5,175.5C 63.4816,172.038 63.815,168.371 63.5,164.5C 71.214,164.295 78.8806,164.795 86.5,166C 91.1862,170.253 92.5195,175.42 90.5,181.5C 87.3619,184.801 84.0286,187.801 80.5,190.5 Z"/></g>
<g><path style="opacity:1" fill="#421f12" d="M 96.5,163.5 C 96.5,162.167 96.5,160.833 96.5,159.5C 98.9003,156.76 101.9,155.927 105.5,157C 109.5,160.333 109.5,163.667 105.5,167C 101.392,168.335 98.3919,167.168 96.5,163.5 Z"/></g>
<g><path style="opacity:1" fill="#391a0b" d="M 208.5,161.5 C 214.842,161.334 221.175,161.5 227.5,162C 235.095,165.473 237.595,171.306 235,179.5C 233.86,184.64 230.694,187.807 225.5,189C 221.179,189.499 216.846,189.666 212.5,189.5C 212.5,195.5 212.5,201.5 212.5,207.5C 211.167,207.5 209.833,207.5 208.5,207.5C 208.5,192.167 208.5,176.833 208.5,161.5 Z"/></g>
<g><path style="opacity:1" fill="#fbfbf9" d="M 213.5,165.5 C 217.514,165.334 221.514,165.501 225.5,166C 231.169,168.815 233.002,173.315 231,179.5C 229.841,182.493 227.675,184.16 224.5,184.5C 220.833,184.5 217.167,184.5 213.5,184.5C 213.5,178.167 213.5,171.833 213.5,165.5 Z"/></g>
<g><path style="opacity:1" fill="#98857d" d="M 112.5,170.5 C 121.565,169.864 130.231,170.53 138.5,172.5C 130.252,171.531 121.918,171.198 113.5,171.5C 113.5,173.833 113.5,176.167 113.5,178.5C 118.214,178.173 122.88,178.507 127.5,179.5C 127.376,180.107 127.043,180.44 126.5,180.5C 122.03,179.514 117.363,179.181 112.5,179.5C 112.5,176.5 112.5,173.5 112.5,170.5 Z"/></g>
<g><path style="opacity:1" fill="#f9f8f4" d="M 78.5,171.5 C 84.0232,174.091 84.6898,177.591 80.5,182C 77.9373,183.079 75.2706,183.579 72.5,183.5C 72.5,179.5 72.5,175.5 72.5,171.5C 74.5,171.5 76.5,171.5 78.5,171.5 Z"/></g>
<g><path style="opacity:1" fill="#6f5b50" d="M 78.5,171.5 C 76.5,171.5 74.5,171.5 72.5,171.5C 72.5,175.5 72.5,179.5 72.5,183.5C 71.5151,179.366 71.1818,175.032 71.5,170.5C 74.0593,170.198 76.3926,170.532 78.5,171.5 Z"/></g>
<g><path style="opacity:1" fill="#3b1603" d="M 107.5,171.5 C 107.5,183.5 107.5,195.5 107.5,207.5C 104.5,207.5 101.5,207.5 98.5,207.5C 98.5,195.5 98.5,183.5 98.5,171.5C 101.5,171.5 104.5,171.5 107.5,171.5 Z"/></g>
<g><path style="opacity:1" fill="#3c1909" d="M 180.5,170.5 C 185.248,170.275 189.915,170.775 194.5,172C 196.286,172.785 197.786,173.951 199,175.5C 200.231,183.089 200.897,190.756 201,198.5C 203.212,201.002 204.045,204.002 203.5,207.5C 199.161,208.154 195.327,207.154 192,204.5C 191.097,205.701 189.931,206.535 188.5,207C 177.005,209.497 171.838,204.997 173,193.5C 174.563,190.272 177.063,188.105 180.5,187C 184.152,186.501 187.818,186.335 191.5,186.5C 191.843,180.674 189.176,178.174 183.5,179C 181.697,179.637 180.364,180.803 179.5,182.5C 177.807,180.973 175.973,179.64 174,178.5C 173.685,177.092 174.018,175.759 175,174.5C 177.167,173.512 179,172.179 180.5,170.5 Z"/></g>
<g><path style="opacity:1" fill="#3f2114" d="M 336.5,171.5 C 346.648,169.815 353.148,173.815 356,183.5C 357.951,192.066 356.117,199.566 350.5,206C 339.603,211.563 332.103,208.729 328,197.5C 327.333,192.167 327.333,186.833 328,181.5C 329.606,177.066 332.439,173.732 336.5,171.5 Z"/></g>
<g><path style="opacity:1" fill="#684b3f" d="M 106.5,170.5 C 107.167,170.5 107.5,170.833 107.5,171.5C 104.5,171.5 101.5,171.5 98.5,171.5C 98.5,183.5 98.5,195.5 98.5,207.5C 98.1667,207.5 97.8333,207.5 97.5,207.5C 97.5,195.167 97.5,182.833 97.5,170.5C 100.5,170.5 103.5,170.5 106.5,170.5 Z"/></g>
<g><path style="opacity:1" fill="#3b1602" d="M 242.5,172.5 C 242.5,184.167 242.5,195.833 242.5,207.5C 241.5,207.5 240.5,207.5 239.5,207.5C 239.5,195.833 239.5,184.167 239.5,172.5C 240.5,172.5 241.5,172.5 242.5,172.5 Z"/></g>
<g><path style="opacity:1" fill="#f9f9f7" d="M 336.5,175.5 C 342.995,173.927 347.828,175.927 351,181.5C 351.87,187.917 351.536,194.251 350,200.5C 345.8,204.714 340.966,205.548 335.5,203C 333.898,201.065 332.731,198.899 332,196.5C 331.333,191.833 331.333,187.167 332,182.5C 332.904,179.767 334.404,177.433 336.5,175.5 Z"/></g>
<g><path style="opacity:1" fill="#dacac0" d="M 213.5,165.5 C 213.5,171.833 213.5,178.167 213.5,184.5C 217.167,184.5 220.833,184.5 224.5,184.5C 220.702,185.483 216.702,185.817 212.5,185.5C 212.176,178.646 212.509,171.979 213.5,165.5 Z"/></g>
<g><path style="opacity:1" fill="#391c0e" d="M 298.5,207.5 C 298.5,195.833 298.5,184.167 298.5,172.5C 300.592,172.561 302.092,173.561 303,175.5C 310.02,169.875 316.686,170.208 323,176.5C 324.453,187.063 324.953,197.73 324.5,208.5C 323.167,208.5 321.833,208.5 320.5,208.5C 320.666,199.161 320.5,189.827 320,180.5C 316.726,175.262 312.226,174.096 306.5,177C 304.951,178.214 303.785,179.714 303,181.5C 302.5,190.494 302.334,199.494 302.5,208.5C 300.901,208.768 299.568,208.434 298.5,207.5 Z"/></g>
<g><path style="opacity:1" fill="#8e796e" d="M 143.5,178.5 C 148.214,178.173 152.88,178.507 157.5,179.5C 157.376,180.107 157.043,180.44 156.5,180.5C 152.167,179.833 147.833,179.167 143.5,178.5 Z"/></g>
<g><path style="opacity:1" fill="#3d1e12" d="M 296.5,204.5 C 296.5,205.5 296.5,206.5 296.5,207.5C 295.5,207.5 294.5,207.5 293.5,207.5C 291.606,206.952 289.94,205.952 288.5,204.5C 284.114,208.012 279.114,209.179 273.5,208C 265.577,202.131 265.577,196.131 273.5,190C 278.363,188.327 283.363,187.494 288.5,187.5C 289.511,178.343 285.511,174.51 276.5,176C 274.695,176.972 273.028,178.139 271.5,179.5C 268.738,176.598 269.405,174.431 273.5,173C 281.408,169.541 287.574,171.374 292,178.5C 292.333,186.5 292.667,194.5 293,202.5C 293.71,203.973 294.876,204.64 296.5,204.5 Z"/></g>
<g><path style="opacity:1" fill="#3c1b0d" d="M 255.5,162.5 C 255.5,165.833 255.5,169.167 255.5,172.5C 258.833,172.5 262.167,172.5 265.5,172.5C 265.5,173.5 265.5,174.5 265.5,175.5C 262.167,175.5 258.833,175.5 255.5,175.5C 255.334,184.173 255.5,192.84 256,201.5C 258.918,204.612 262.418,205.279 266.5,203.5C 267.83,205.347 267.497,206.847 265.5,208C 262.076,208.747 258.743,208.58 255.5,207.5C 252.905,205.986 251.571,203.652 251.5,200.5C 251.5,192.167 251.5,183.833 251.5,175.5C 249.833,175.5 248.167,175.5 246.5,175.5C 246.5,174.5 246.5,173.5 246.5,172.5C 248.167,172.5 249.833,172.5 251.5,172.5C 251.335,169.482 251.502,166.482 252,163.5C 253.011,162.663 254.178,162.33 255.5,162.5 Z"/></g>
<g><path style="opacity:1" fill="#6c5446" d="M 242.5,172.5 C 242.833,172.5 243.167,172.5 243.5,172.5C 243.5,184.5 243.5,196.5 243.5,208.5C 241.901,208.768 240.568,208.434 239.5,207.5C 240.5,207.5 241.5,207.5 242.5,207.5C 242.5,195.833 242.5,184.167 242.5,172.5 Z"/></g>
<g><path style="opacity:1" fill="#d4cac0" d="M 298.5,172.5 C 298.5,184.167 298.5,195.833 298.5,207.5C 296.716,208.72 295.05,208.72 293.5,207.5C 294.5,207.5 295.5,207.5 296.5,207.5C 296.5,206.5 296.5,205.5 296.5,204.5C 297.167,193.833 297.833,183.167 298.5,172.5 Z"/></g>
<g><path style="opacity:1" fill="#d5cac3" d="M 246.5,172.5 C 246.5,173.5 246.5,174.5 246.5,175.5C 248.167,175.5 249.833,175.5 251.5,175.5C 251.5,183.833 251.5,192.167 251.5,200.5C 250.508,192.684 250.174,184.684 250.5,176.5C 248.833,176.5 247.167,176.5 245.5,176.5C 245.232,174.901 245.566,173.568 246.5,172.5 Z"/></g>
<g><path style="opacity:1" fill="#948c8a" d="M 243.5,172.5 C 243.167,172.5 242.833,172.5 242.5,172.5C 241.5,172.5 240.5,172.5 239.5,172.5C 239.5,184.167 239.5,195.833 239.5,207.5C 238.505,195.678 238.172,183.678 238.5,171.5C 240.415,171.216 242.081,171.549 243.5,172.5 Z"/></g>
<g><path style="opacity:1" fill="#f5f3f0" d="M 278.5,191.5 C 281.833,191.5 285.167,191.5 288.5,191.5C 289.584,202.254 284.917,206.421 274.5,204C 271.793,202.136 270.959,199.636 272,196.5C 273.805,194.174 275.972,192.508 278.5,191.5 Z"/></g>
<g><path style="opacity:1" fill="#ede9e5" d="M 185.5,192.5 C 190.895,191.555 192.561,193.555 190.5,198.5C 186.711,201.629 183.711,201.129 181.5,197C 182.344,194.993 183.677,193.493 185.5,192.5 Z"/></g>
<g><path style="opacity:1" fill="#3b1808" d="M 138.5,172.5 C 138.664,175.187 138.497,177.854 138,180.5C 133.133,186.401 128.633,192.567 124.5,199C 129.823,199.499 135.156,199.666 140.5,199.5C 140.5,202.167 140.5,204.833 140.5,207.5C 135.167,207.5 129.833,207.5 124.5,207.5C 120.833,207.5 117.167,207.5 113.5,207.5C 112.865,204.507 112.699,201.507 113,198.5C 117.717,192.623 122.217,186.623 126.5,180.5C 127.043,180.44 127.376,180.107 127.5,179.5C 122.88,178.507 118.214,178.173 113.5,178.5C 113.5,176.167 113.5,173.833 113.5,171.5C 121.918,171.198 130.252,171.531 138.5,172.5 Z"/></g>
<g><path style="opacity:1" fill="#3c1807" d="M 156.5,180.5 C 157.043,180.44 157.376,180.107 157.5,179.5C 152.88,178.507 148.214,178.173 143.5,178.5C 143.5,176.167 143.5,173.833 143.5,171.5C 151.833,171.5 160.167,171.5 168.5,171.5C 169.008,174.176 169.175,176.843 169,179.5C 163.781,185.718 158.948,192.218 154.5,199C 159.823,199.499 165.156,199.666 170.5,199.5C 170.5,202.167 170.5,204.833 170.5,207.5C 161.5,207.5 152.5,207.5 143.5,207.5C 142.865,204.507 142.699,201.507 143,198.5C 147.717,192.623 152.217,186.623 156.5,180.5 Z"/></g>
<g><path style="opacity:1" fill="#d57b50" d="M 240.5,213.5 C 239.833,213.5 239.5,213.833 239.5,214.5C 238.325,214.281 237.325,214.614 236.5,215.5C 236.006,217.026 235.339,218.359 234.5,219.5C 234.657,218.127 234.49,216.793 234,215.5C 232.022,217.972 230.522,220.639 229.5,223.5C 229.663,215.647 233.329,212.313 240.5,213.5 Z"/></g>
<g><path style="opacity:1" fill="#de5f29" d="M 240.5,213.5 C 241.167,213.833 241.833,214.167 242.5,214.5C 244.33,217.742 243.663,220.075 240.5,221.5C 239.833,221.167 239.167,220.833 238.5,220.5C 239.348,218.591 239.682,216.591 239.5,214.5C 239.5,213.833 239.833,213.5 240.5,213.5 Z"/></g>
<g><path style="opacity:1" fill="#dc7a4e" d="M 189.5,236.5 C 187.389,237.742 185.389,237.742 183.5,236.5C 184.873,236.657 186.207,236.49 187.5,236C 186.944,235.617 186.611,235.117 186.5,234.5C 187.376,234.631 188.043,234.298 188.5,233.5C 186.488,225.787 185.488,225.787 185.5,233.5C 184.686,231.369 184.186,229.036 184,226.5C 183.617,227.056 183.117,227.389 182.5,227.5C 182.577,226.25 183.244,225.417 184.5,225C 186.218,224.654 187.885,224.154 189.5,223.5C 190.086,223.709 190.586,224.043 191,224.5C 191.1,227.437 191.933,230.104 193.5,232.5C 191.812,233.521 190.479,234.855 189.5,236.5 Z"/></g>
<g><path style="opacity:1" fill="#da612c" d="M 123.5,211.5 C 125.648,211.389 125.981,212.056 124.5,213.5C 135.205,214.165 145.872,213.498 156.5,211.5C 158.512,211.84 160.512,212.173 162.5,212.5C 162.5,214.167 162.5,215.833 162.5,217.5C 153.829,216.412 145.162,216.412 136.5,217.5C 137.185,222.112 137.185,226.779 136.5,231.5C 138.861,231.326 141.194,230.993 143.5,230.5C 142.841,234.994 140.175,236.661 135.5,235.5C 135.5,238.833 135.5,242.167 135.5,245.5C 134.116,246.801 132.616,246.801 131,245.5C 131.29,241.124 131.124,236.79 130.5,232.5C 130.957,231.702 131.624,231.369 132.5,231.5C 133.628,226.938 134.295,222.272 134.5,217.5C 130.363,217.854 126.363,217.354 122.5,216C 121.084,214.085 121.418,212.585 123.5,211.5 Z"/></g>
<g><path style="opacity:1" fill="#d06738" d="M 277.5,231.5 C 277.785,229.712 277.452,228.045 276.5,226.5C 275.83,228.291 275.163,229.958 274.5,231.5C 274.879,228.433 273.879,227.433 271.5,228.5C 271.5,227.833 271.5,227.167 271.5,226.5C 273.479,224.832 275.812,224.166 278.5,224.5C 278.802,227.059 278.468,229.393 277.5,231.5 Z"/></g>
<g><path style="opacity:1" fill="#e05820" d="M 167.5,223.5 C 168.833,223.5 170.167,223.5 171.5,223.5C 171.281,224.675 171.614,225.675 172.5,226.5C 173.417,225.873 174.417,225.539 175.5,225.5C 176.5,225.5 177.5,225.5 178.5,225.5C 178.244,229.269 178.577,232.936 179.5,236.5C 178.292,237.782 176.958,237.782 175.5,236.5C 174.807,233.445 174.473,230.445 174.5,227.5C 171.424,230.046 170.091,233.38 170.5,237.5C 169.209,237.737 168.209,237.404 167.5,236.5C 167.5,232.167 167.5,227.833 167.5,223.5 Z"/></g>
<g><path style="opacity:1" fill="#d76f3c" d="M 282.5,236.5 C 284.179,236.715 285.179,236.048 285.5,234.5C 287.416,232.331 288.75,229.665 289.5,226.5C 289,226.167 288.5,225.833 288,225.5C 286.989,226.056 286.156,226.722 285.5,227.5C 285.672,226.508 285.338,225.842 284.5,225.5C 287.293,222.914 290.126,222.914 293,225.5C 293.54,227.135 293.04,228.468 291.5,229.5C 292.309,231.071 292.643,232.738 292.5,234.5C 294.124,234.64 295.29,233.973 296,232.5C 296.635,235.548 295.301,237.215 292,237.5C 290.715,237.05 289.548,236.383 288.5,235.5C 286.605,237.486 284.605,237.819 282.5,236.5 Z"/></g>
<g><path style="opacity:1" fill="#dc6b37" d="M 207.5,237.5 C 207.196,235.204 206.196,234.871 204.5,236.5C 203.178,236.67 202.011,236.337 201,235.5C 200.366,232.445 200.532,229.445 201.5,226.5C 205.151,222.389 208.484,222.555 211.5,227C 210.678,229.434 210.344,231.934 210.5,234.5C 212.143,234.52 213.476,233.853 214.5,232.5C 215.282,234.329 214.616,235.829 212.5,237C 210.866,237.494 209.199,237.66 207.5,237.5 Z"/></g>
<g><path style="opacity:1" fill="#d46c3b" d="M 265.5,225.5 C 265.52,227.143 264.853,228.476 263.5,229.5C 264.767,231.371 264.767,233.204 263.5,235C 264.577,235.47 265.577,235.303 266.5,234.5C 266.5,235.167 266.5,235.833 266.5,236.5C 264.973,236.427 263.973,237.094 263.5,238.5C 263.5,239.167 263.167,239.5 262.5,239.5C 262.665,236.15 262.498,232.817 262,229.5C 261.722,230.416 261.222,231.082 260.5,231.5C 260.357,229.738 260.691,228.071 261.5,226.5C 261,226.167 260.5,225.833 260,225.5C 258.989,226.056 258.156,226.722 257.5,227.5C 257.672,226.508 257.338,225.842 256.5,225.5C 259.456,222.848 262.456,222.848 265.5,225.5 Z"/></g>
<g><path style="opacity:1" fill="#d5794d" d="M 164.5,228.5 C 164.5,227.5 164.5,226.5 164.5,225.5C 163.5,225.5 162.5,225.5 161.5,225.5C 161.5,229.167 161.5,232.833 161.5,236.5C 160.681,233.695 160.181,230.695 160,227.5C 156.777,228.723 155.111,231.056 155,234.5C 154.292,235.381 153.458,236.047 152.5,236.5C 151.833,235.833 151.167,235.167 150.5,234.5C 152.252,234.582 153.252,233.749 153.5,232C 152.833,230.667 152.167,229.333 151.5,228C 152.774,225.458 152.107,224.958 149.5,226.5C 149.5,225.833 149.167,225.5 148.5,225.5C 150.011,223.559 152.011,223.059 154.5,224C 154.132,225.473 154.632,226.973 156,228.5C 156.692,227.975 157.192,227.308 157.5,226.5C 155.977,224.414 156.31,222.748 158.5,221.5C 160.258,223.738 162.592,224.738 165.5,224.5C 165.768,226.099 165.434,227.432 164.5,228.5 Z"/></g>
<g><path style="opacity:1" fill="#fde6dd" d="M 260.5,231.5 C 259.596,232.209 259.263,233.209 259.5,234.5C 258.5,234.5 257.5,234.5 256.5,234.5C 256.298,232.05 256.631,229.717 257.5,227.5C 258.156,226.722 258.989,226.056 260,225.5C 260.5,225.833 261,226.167 261.5,226.5C 260.691,228.071 260.357,229.738 260.5,231.5 Z"/></g>
<g><path style="opacity:1" fill="#faf0e1" d="M 150.5,234.5 C 149.527,232.052 149.194,229.385 149.5,226.5C 152.107,224.958 152.774,225.458 151.5,228C 152.167,229.333 152.833,230.667 153.5,232C 153.252,233.749 152.252,234.582 150.5,234.5 Z"/></g>
<g><path style="opacity:1" fill="#fce8dd" d="M 204.5,225.5 C 205.675,225.281 206.675,225.614 207.5,226.5C 206.518,229.096 205.851,231.762 205.5,234.5C 204.5,234.5 203.5,234.5 202.5,234.5C 202.21,231.215 202.877,228.215 204.5,225.5 Z"/></g>
<g><path style="opacity:1" fill="#e35418" d="M 271.5,226.5 C 271.5,227.167 271.5,227.833 271.5,228.5C 270.833,231.167 270.167,233.833 269.5,236.5C 268.5,236.5 267.5,236.5 266.5,236.5C 266.5,235.833 266.5,235.167 266.5,234.5C 266.5,231.167 266.5,227.833 266.5,224.5C 267.601,223.402 268.934,223.235 270.5,224C 271.252,224.671 271.586,225.504 271.5,226.5 Z"/></g>
<g><path style="opacity:1" fill="#fbe9db" d="M 285.5,234.5 C 284.244,232.274 284.244,229.941 285.5,227.5C 286.156,226.722 286.989,226.056 288,225.5C 288.5,225.833 289,226.167 289.5,226.5C 288.75,229.665 287.416,232.331 285.5,234.5 Z"/></g>
<g><path style="opacity:1" fill="#fae8d4" d="M 186.5,234.5 C 185.833,234.5 185.5,234.167 185.5,233.5C 185.488,225.787 186.488,225.787 188.5,233.5C 188.043,234.298 187.376,234.631 186.5,234.5 Z"/></g>
<g><path style="opacity:1" fill="#f9f1e8" d="M 239.5,214.5 C 239.682,216.591 239.348,218.591 238.5,220.5C 239.167,220.833 239.833,221.167 240.5,221.5C 243.663,220.075 244.33,217.742 242.5,214.5C 243.913,217.544 245.58,220.544 247.5,223.5C 245.321,223.84 243.488,224.84 242,226.5C 241.333,229.5 241.333,232.5 242,235.5C 243.574,236.848 245.407,237.514 247.5,237.5C 251.214,236.708 254.88,236.375 258.5,236.5C 258.833,236.667 259.167,236.833 259.5,237C 258.619,237.708 257.953,238.542 257.5,239.5C 254.013,240.445 252.68,242.778 253.5,246.5C 252.833,245.5 252.167,244.5 251.5,243.5C 251.649,242.448 251.483,241.448 251,240.5C 250.578,242.426 249.411,243.426 247.5,243.5C 246.127,243.657 244.793,243.49 243.5,243C 239.551,240.683 235.717,238.183 232,235.5C 233.35,230.394 234.183,225.061 234.5,219.5C 235.339,218.359 236.006,217.026 236.5,215.5C 237.325,214.614 238.325,214.281 239.5,214.5 Z"/></g>
<g><path style="opacity:1" fill="#f6b994" d="M 266.5,224.5 C 266.5,227.833 266.5,231.167 266.5,234.5C 265.577,235.303 264.577,235.47 263.5,235C 264.767,233.204 264.767,231.371 263.5,229.5C 264.853,228.476 265.52,227.143 265.5,225.5C 265.5,224.833 265.833,224.5 266.5,224.5 Z"/></g>
<g><path style="opacity:1" fill="#fbdbc5" d="M 274.5,231.5 C 274.5,233.167 274.5,234.833 274.5,236.5C 273.069,236.119 272.236,235.119 272,233.5C 270.282,236.868 267.449,238.534 263.5,238.5C 263.973,237.094 264.973,236.427 266.5,236.5C 267.5,236.5 268.5,236.5 269.5,236.5C 270.167,233.833 270.833,231.167 271.5,228.5C 273.879,227.433 274.879,228.433 274.5,231.5 Z"/></g>
<g><path style="opacity:1" fill="#eaa57f" d="M 175.5,225.5 C 176.568,224.566 177.901,224.232 179.5,224.5C 179.335,227.518 179.502,230.518 180,233.5C 180.21,231.942 180.71,230.609 181.5,229.5C 181.298,231.95 181.631,234.283 182.5,236.5C 181.5,236.5 180.5,236.5 179.5,236.5C 178.577,232.936 178.244,229.269 178.5,225.5C 177.5,225.5 176.5,225.5 175.5,225.5 Z"/></g>
<g><path style="opacity:1" fill="#cb7553" d="M 167.5,223.5 C 167.5,227.833 167.5,232.167 167.5,236.5C 166.391,236.557 165.391,236.89 164.5,237.5C 164.5,236.5 164.5,235.5 164.5,234.5C 166.125,231.109 167.125,227.442 167.5,223.5 Z"/></g>
<g><path style="opacity:1" fill="#df5519" d="M 185.5,233.5 C 185.5,234.167 185.833,234.5 186.5,234.5C 186.611,235.117 186.944,235.617 187.5,236C 186.207,236.49 184.873,236.657 183.5,236.5C 183.167,236.5 182.833,236.5 182.5,236.5C 181.631,234.283 181.298,231.95 181.5,229.5C 181.328,228.508 181.662,227.842 182.5,227.5C 183.117,227.389 183.617,227.056 184,226.5C 184.186,229.036 184.686,231.369 185.5,233.5 Z"/></g>
<g><path style="opacity:1" fill="#db7147" d="M 201.5,226.5 C 200.532,229.445 200.366,232.445 201,235.5C 202.011,236.337 203.178,236.67 204.5,236.5C 199.161,237.632 197.327,235.299 199,229.5C 199.377,228.058 200.21,227.058 201.5,226.5 Z"/></g>
<g><path style="opacity:1" fill="#db612c" d="M 148.5,225.5 C 149.167,225.5 149.5,225.833 149.5,226.5C 149.194,229.385 149.527,232.052 150.5,234.5C 151.167,235.167 151.833,235.833 152.5,236.5C 150.958,237.301 149.292,237.634 147.5,237.5C 146.03,235.841 145.363,233.841 145.5,231.5C 145.078,228.692 146.078,226.692 148.5,225.5 Z"/></g>
<g><path style="opacity:1" fill="#de561b" d="M 164.5,228.5 C 164.5,230.5 164.5,232.5 164.5,234.5C 164.5,235.5 164.5,236.5 164.5,237.5C 163.209,237.737 162.209,237.404 161.5,236.5C 161.5,232.833 161.5,229.167 161.5,225.5C 162.5,225.5 163.5,225.5 164.5,225.5C 164.5,226.5 164.5,227.5 164.5,228.5 Z"/></g>
<g><path style="opacity:1" fill="#cc7b53" d="M 227.5,234.5 C 226.391,235.29 225.058,235.79 223.5,236C 224.085,237.302 224.751,238.469 225.5,239.5C 224.054,240.613 222.387,240.78 220.5,240C 219.483,238.951 219.316,237.784 220,236.5C 222.135,234.722 224.635,234.055 227.5,234.5 Z"/></g>
<g><path style="opacity:1" fill="#de6430" d="M 247.5,223.5 C 248.959,223.433 250.292,223.766 251.5,224.5C 252.084,229.092 250.084,231.925 245.5,233C 247.272,234.487 249.272,234.82 251.5,234C 252.159,230.523 253.825,227.689 256.5,225.5C 257.338,225.842 257.672,226.508 257.5,227.5C 256.631,229.717 256.298,232.05 256.5,234.5C 257.5,234.5 258.5,234.5 259.5,234.5C 259.263,233.209 259.596,232.209 260.5,231.5C 261.222,231.082 261.722,230.416 262,229.5C 262.498,232.817 262.665,236.15 262.5,239.5C 262.371,241.216 262.038,242.883 261.5,244.5C 259.952,244.179 259.285,243.179 259.5,241.5C 259.5,240.167 258.833,239.5 257.5,239.5C 257.953,238.542 258.619,237.708 259.5,237C 259.167,236.833 258.833,236.667 258.5,236.5C 254.88,236.375 251.214,236.708 247.5,237.5C 245.407,237.514 243.574,236.848 242,235.5C 241.333,232.5 241.333,229.5 242,226.5C 243.488,224.84 245.321,223.84 247.5,223.5 Z"/></g>
<g><path style="opacity:1" fill="#fadbbf" d="M 246.5,225.5 C 248.984,227.028 248.818,228.694 246,230.5C 245.36,228.735 245.527,227.068 246.5,225.5 Z"/></g>
<g><path style="opacity:1" fill="#dc5d28" d="M 284.5,225.5 C 285.338,225.842 285.672,226.508 285.5,227.5C 284.244,229.941 284.244,232.274 285.5,234.5C 285.179,236.048 284.179,236.715 282.5,236.5C 279.771,237.53 277.104,237.53 274.5,236.5C 274.5,234.833 274.5,233.167 274.5,231.5C 275.163,229.958 275.83,228.291 276.5,226.5C 277.452,228.045 277.785,229.712 277.5,231.5C 277.5,232.5 277.5,233.5 277.5,234.5C 278.5,234.5 279.5,234.5 280.5,234.5C 279.961,230.584 281.294,227.584 284.5,225.5 Z"/></g>
<g><path style="opacity:1" fill="#e05e27" d="M 234.5,219.5 C 234.183,225.061 233.35,230.394 232,235.5C 235.717,238.183 239.551,240.683 243.5,243C 244.793,243.49 246.127,243.657 247.5,243.5C 246.448,245.256 244.781,245.923 242.5,245.5C 239.594,245.043 236.928,244.043 234.5,242.5C 232.155,239.925 229.155,238.925 225.5,239.5C 224.751,238.469 224.085,237.302 223.5,236C 225.058,235.79 226.391,235.29 227.5,234.5C 228.917,231.002 229.583,227.335 229.5,223.5C 230.522,220.639 232.022,217.972 234,215.5C 234.49,216.793 234.657,218.127 234.5,219.5 Z"/></g>
<g><path style="opacity:1" fill="#f04e0a" d="M 132.5,231.5 C 134.117,230.411 134.95,228.744 135,226.5C 135.036,232.487 134.869,238.487 134.5,244.5C 133.5,244.5 132.5,244.5 131.5,244.5C 132.295,240.215 132.628,235.881 132.5,231.5 Z"/></g>
<g><path style="opacity:1" fill="#f8eae0" d="M 257.5,239.5 C 258.833,239.5 259.5,240.167 259.5,241.5C 258.859,243.042 257.859,244.376 256.5,245.5C 255.23,243.243 255.564,241.243 257.5,239.5 Z"/></g>
<g><path style="opacity:1" fill="#d48565" d="M 251.5,243.5 C 248.944,246.424 245.944,247.09 242.5,245.5C 244.781,245.923 246.448,245.256 247.5,243.5C 249.411,243.426 250.578,242.426 251,240.5C 251.483,241.448 251.649,242.448 251.5,243.5 Z"/></g>
<g><path style="opacity:1" fill="#d27342" d="M 257.5,239.5 C 255.564,241.243 255.23,243.243 256.5,245.5C 257.859,244.376 258.859,243.042 259.5,241.5C 259.285,243.179 259.952,244.179 261.5,244.5C 259.459,248.679 256.792,249.346 253.5,246.5C 252.68,242.778 254.013,240.445 257.5,239.5 Z"/></g>
</svg>
