<svg width="68" height="49" viewBox="0 0 68 49" fill="none" xmlns="http://www.w3.org/2000/svg">
<g clip-path="url(#clip0)">
<rect width="68" height="49" fill="white"/>
<path d="M52.5868 27.1754C52.3413 26.1395 51.5492 25.7275 51.5492 25.7275C51.5492 25.7275 51.6702 26.1602 51.5639 26.7693C51.3161 28.2331 50.3079 28.5181 50.0329 28.6138C50.0588 28.5129 50.0879 28.3948 50.1185 28.256C50.5151 26.5816 49.3005 25.5245 48.7273 24.9112C48.1566 24.2944 47.8697 23.8163 47.7298 22.7232C47.5846 21.6294 48.0102 21.4908 48.0102 21.4908L47.6885 21.5935C44.5625 23.3253 45.6191 27.2526 45.805 27.8665C45.7206 27.8086 45.628 27.7515 45.5088 27.6777C44.1145 26.7894 41.9025 24.4313 41.3263 23.304C40.7579 22.1743 40.8666 20.9796 40.8666 20.9796L40.5065 21.2889C38.9701 22.7574 39.1801 24.808 39.1801 24.808L38.9353 24.3646C38.6821 23.9191 38.2914 23.3382 37.6492 22.0728C37.0046 20.8085 36.6458 19.6811 36.3937 17.4259C36.1464 15.1687 37.9709 13.9771 37.9709 13.9771L37.5382 14.078C37.1114 14.1825 36.0402 14.3872 34.8615 15.4456C33.681 16.5068 33.3941 18.5881 33.3941 18.5881C33.3941 18.5881 33.8593 19.7832 33.1439 18.1099C32.478 16.5559 30.4323 16.063 30.1402 16.0004C30.2128 16.1751 30.3067 16.3739 30.3921 16.6096C31.9322 20.9041 28.8859 23.1028 28.8859 23.1028L28.9621 22.6873C29.322 20.5541 27.3655 18.9428 27.0432 18.6942C27.0614 18.8218 27.078 18.9745 27.1034 19.1687C27.3171 20.9437 25.8514 23.1676 25.1721 23.9191C24.4893 24.671 23.8004 25.747 22.9098 26.4128C22.048 27.0615 20.8912 27.5195 20.7702 27.5353C20.8056 27.3707 20.8427 27.1936 20.8847 26.9923C21.7057 22.9946 19.5967 22.0061 19.5967 22.0061V22.3136C19.7762 24.8416 18.3124 25.8668 17.2748 27.6777C17.0246 28.1079 16.8457 28.6421 16.8008 29.0157C18.4339 29.5971 18.892 30.8473 18.892 30.8473H20.887V30.8442C20.7672 30.5698 20.7064 30.2758 20.7064 29.9624C20.7064 29.6916 20.7607 29.4389 20.8528 29.2017C20.8658 29.1673 20.8681 29.1302 20.887 29.093C21.0034 28.8275 21.1685 28.5932 21.3768 28.3925C21.5823 28.1912 21.822 28.03 22.0911 27.912C22.3567 27.7916 22.6459 27.732 22.9564 27.732C23.271 27.732 23.5643 27.7916 23.8376 27.912C23.9964 27.9799 24.1392 28.0649 24.272 28.1593C24.3694 28.2306 24.4644 28.3051 24.5565 28.3925C24.7566 28.5932 24.9118 28.8275 25.0328 29.093C25.1515 29.3609 25.2123 29.6514 25.2123 29.9624C25.2123 30.2758 25.1515 30.5698 25.0328 30.8442C25.0328 30.8467 25.0299 30.8473 25.0299 30.8473H27.2905C25.8208 28.9231 26.6241 27.1003 27.6659 25.8349C26.597 28.0559 28.9543 30.3886 29.3971 30.8473H33.6037C33.2242 29.8561 34.7801 29.07 34.9872 28.799C35.4322 28.2077 35.251 27.2981 35.251 27.2981L35.7179 27.9827C36.1789 28.6669 36.2527 29.0068 35.8596 29.724C35.5721 30.2498 35.7875 30.6619 35.7775 30.8473H42.4915C42.4737 30.0545 41.9472 29.8309 41.7283 29.1551C41.5359 28.5441 41.8965 27.3707 42.1827 26.931C42.2654 27.0089 42.0351 27.4084 42.5723 27.9698C44.307 29.7942 44.0232 30.2735 44.0427 30.8473H51.8762C51.911 30.8053 51.9418 30.7664 51.9842 30.7156C52.9853 29.4502 52.8123 28.079 52.5868 27.1754Z" fill="#F15A29"/>
<path d="M24.0468 28.4268C23.9341 28.3471 23.8161 28.275 23.6833 28.219C23.453 28.1198 23.2034 28.0656 22.9402 28.0656C22.6816 28.0656 22.4379 28.1198 22.2113 28.219C21.9846 28.3182 21.7845 28.4522 21.6121 28.621C21.4357 28.791 21.2975 28.9893 21.1989 29.2125C21.1878 29.2413 21.183 29.2755 21.1683 29.3027C21.0921 29.5028 21.0508 29.7159 21.0508 29.9443C21.0508 30.2057 21.1022 30.4531 21.1989 30.6874H21.2025C21.3005 30.9169 21.4357 31.1195 21.6121 31.2948C21.7845 31.4683 21.9846 31.6082 22.2113 31.7085C22.4379 31.8083 22.6816 31.8572 22.9402 31.8572C23.2034 31.8572 23.453 31.8083 23.6833 31.7085C23.9153 31.6082 24.116 31.4683 24.283 31.2948C24.4488 31.1195 24.5869 30.9169 24.6855 30.6874C24.787 30.4531 24.8365 30.2057 24.8365 29.9443C24.8365 29.6817 24.787 29.439 24.6855 29.2125C24.5869 28.9893 24.4541 28.791 24.283 28.621C24.2121 28.5483 24.1295 28.4881 24.0468 28.4268Z" fill="#42210B"/>
<path d="M34.3602 5.67174C33.1119 5.53127 31.8653 5.39021 30.4475 5.22794C30.7303 5.09107 30.9263 4.90209 31.1086 4.91811C32.004 4.99131 32.887 5.11634 33.7753 5.22794C33.9837 5.25277 34.192 5.28987 34.401 5.31947C34.3892 5.43685 34.3726 5.55263 34.3602 5.67174ZM35.1594 10.2981C34.2056 10.6287 33.5504 10.3995 33.5941 9.83707C34.0735 9.97639 34.5467 10.1169 35.1594 10.2981ZM30.6057 9.2935C30.5815 9.042 30.4735 8.74286 30.5492 8.62534C30.7256 8.35565 30.9876 8.17793 31.2131 7.96367C31.238 8.09592 31.2603 8.22874 31.2846 8.36027C31.9243 8.63415 32.645 8.37803 33.3013 8.61061C32.4602 9.01789 31.4373 8.18976 30.6057 9.2935ZM32.0306 3.30026C32.1274 3.29376 32.236 3.51985 32.3429 3.65787C32.3558 3.65787 32.37 3.65556 32.3805 3.65787V3.66091C33.3268 2.85285 34.4068 3.26301 35.4316 3.16094C35.4723 3.15791 35.5325 3.1644 35.5537 3.19747C35.6877 3.37995 35.7779 3.65441 35.9444 3.74233C36.1399 3.84744 36.3895 3.79604 36.6014 3.89984C36.1399 3.86274 35.5732 4.39216 35.2232 3.45835C34.9765 3.75706 34.7533 4.02444 34.4334 4.41396C34.1761 4.23393 33.7782 3.9241 33.3551 3.68863C33.2306 3.61716 33.0334 3.73815 32.8681 3.77236C32.9153 3.87039 32.9613 3.97131 33.0299 4.1177C32.723 4.12478 32.4031 4.25284 32.3805 3.66091C32.3729 3.66971 32.3658 3.6726 32.3593 3.67852C32.3558 3.66971 32.3476 3.66683 32.3429 3.65787C31.9243 3.65787 31.5642 3.75706 31.1529 4.03512C30.8017 4.2706 30.1996 3.90692 29.7075 3.87804C29.5622 3.87039 29.4082 4.09114 29.2595 4.20808C29.3799 4.38508 29.4743 4.62705 29.626 4.71801C29.7617 4.79713 29.9613 4.70848 30.1329 4.69202C30.1354 4.75872 30.1436 4.82889 30.1465 4.90035C29.9093 4.9363 29.6738 4.97644 29.443 5.01542C29.2559 6.20535 29.94 6.90484 30.5178 7.74351C30.2451 7.81194 30.0934 7.85207 29.9045 7.90058C30.0421 8.65075 30.1725 9.34129 30.3024 10.0395C30.6211 10.0077 30.8572 9.98346 31.1204 9.95863C31.0826 9.78278 31.0537 9.65111 31.0113 9.44755C31.5094 9.67826 31.9574 9.8837 32.4078 10.088C32.4078 10.1587 32.4096 10.2308 32.4136 10.2981H30.3141C30.7256 12.5646 30.9977 12.3586 32.0537 12.2576C32.6888 12.1963 33.3078 12.2989 33.9323 12.2452C34.7533 12.172 35.5667 12.0575 36.3895 12.0139C36.7247 11.9956 37.5422 11.04 37.4554 10.6321C37.4353 10.5301 37.2643 10.4787 37.2589 10.4769C37.4443 10.003 37.645 9.60925 37.7524 9.17656C37.8101 8.93762 37.8049 8.78357 37.7369 8.69377C37.7771 8.6968 37.8101 8.69796 37.848 8.70142C37.4638 8.36807 37.1255 8.08062 36.7914 7.79129C36.6256 7.91358 36.3782 8.18153 36.3075 8.12956C35.8536 7.82262 35.6298 8.44646 35.2456 8.31133C35.2468 8.38452 35.2468 8.46061 35.2539 8.53323C35.8311 8.56932 36.409 8.61004 36.9833 8.64656C36.5217 8.68728 36.0507 8.63891 35.5856 8.63891C35.2233 8.63602 34.7776 8.46364 34.5113 8.66071C34.0622 9.00432 33.9217 8.77404 33.649 8.23755H34.8555V6.8995C34.8833 6.8995 35.0102 6.87654 35.1329 6.90484C35.6841 7.01933 36.2389 7.15446 36.7914 7.2779C36.7649 7.25191 36.7389 7.22824 36.7112 7.19994C36.7448 7.16803 36.7779 7.10956 36.8033 7.10956C37.4554 7.14204 38.1755 7.33623 38.3196 6.01477C37.1049 5.87242 35.8802 5.72964 34.6577 5.58801C35.8311 5.45634 36.9921 5.46168 38.1561 5.44926C38.2782 5.44926 38.3992 5.35426 38.5232 5.30402C38.4335 5.16947 38.3384 5.0391 38.2529 4.90035C38.2386 4.8696 38.2529 4.80882 38.2529 4.75872C38.3845 4.73505 38.5232 4.70848 38.6459 4.68668C38.5633 4.26237 38.4943 3.89335 38.4087 3.44666H37.9206C37.943 3.15026 37.8373 2.91839 37.4814 2.86642C37.3362 2.84274 37.188 2.83682 37.0393 2.83162C37.063 2.74428 37.0806 2.65693 37.0953 2.57421C37.1355 2.30798 37.1255 2.03122 37.1408 1.76153C36.8062 1.50584 36.4958 1.89435 36.0507 1.67288C35.3242 1.31108 34.3927 1.57557 33.5446 1.57557V1.74261C33.6773 1.77972 33.8084 1.81523 33.9412 1.85118C33.9353 1.91196 33.9276 1.9687 33.924 2.02833H29.9317C29.9294 1.95513 29.9294 1.88598 29.9294 1.81523H32.5523C32.5506 1.74261 32.5458 1.67288 32.543 1.60156C31.7089 1.60156 30.8749 1.56373 30.0421 1.62509C29.8243 1.63982 29.5268 1.90604 29.4365 2.15162C29.2914 2.54764 29.2842 3.02638 29.2188 3.48852C29.3132 3.49387 29.424 3.51032 29.5268 3.50267C30.3632 3.43251 31.1925 3.3404 32.0306 3.30026Z" fill="#42210B"/>
<path d="M56.714 21.2741C56.7748 21.892 56.8302 22.3997 56.8745 22.8694C56.2777 22.7131 56.1686 22.1842 56.714 21.2741ZM60.7358 27.6722C60.7842 27.7236 60.8415 27.7797 60.8958 27.831C60.727 27.9172 60.5659 28.0051 60.3446 28.1285C60.6756 28.2507 60.9772 28.361 61.2735 28.4649C61.2482 28.5429 61.227 28.619 61.2069 28.6993C60.59 28.639 59.9774 28.576 58.9727 28.4726C59.7626 28.1108 60.2494 27.8936 60.7358 27.6722ZM53.8223 21.6743C53.696 21.6919 53.4777 21.9104 53.4836 21.9186C53.8053 22.5749 53.2121 22.2745 53.058 22.4363C53.0156 22.7066 52.9718 22.9887 52.9258 23.2513C53.0416 23.2909 53.2121 23.2927 53.2392 23.3688C53.5309 24.0429 53.7528 24.7558 54.078 25.4039C54.3814 26.0149 54.6818 26.7727 55.1717 27.0873C55.7773 27.4715 55.8008 27.1563 56.5198 27.2597C57.5509 27.4036 59.043 26.8654 60.0772 26.9692C60.2247 27.177 60.1179 27.4397 60.1202 27.455C59.7324 27.494 56.5705 28.0865 55.3068 27.7945C55.0897 27.9856 55.255 28.576 55.4591 29.1732C55.488 29.26 56.6408 29.3126 56.6727 29.4016C56.711 29.522 55.6326 29.6684 55.6751 29.7835C55.7087 29.8898 55.7424 29.9924 55.7754 30.087C55.8823 30.4457 55.3889 30.392 55.7424 30.6996H67.0159C66.9729 30.5243 67.0348 30.3012 66.984 30.1229C66.4894 30.0379 65.0976 29.4158 64.2377 28.9448C64.0889 28.9525 64.0854 29.0829 63.9314 29.0829C63.9314 29.002 63.3016 28.7631 63.3016 28.6834L64.027 28.6993C63.3158 28.2937 62.506 28.2484 61.8413 27.7448C61.7694 27.7088 61.6973 27.671 61.6242 27.6404C61.0617 27.4161 60.7211 26.595 60.59 25.9127C60.5434 25.6602 60.4071 25.4259 60.3121 25.1856C60.1905 25.2434 60.0772 25.2912 59.9633 25.3408C59.9484 25.2606 59.9107 25.1306 59.9373 25.1082C60.4342 24.7151 60.1049 24.2677 59.9184 23.9609C59.5956 23.429 59.7508 22.4793 58.8854 22.4085C58.8653 22.4056 58.8523 22.3394 58.8181 22.2563H59.3257C59.2661 22.0862 59.2395 21.9748 59.203 21.8632C58.7196 20.2046 58.2556 19.9407 56.7884 20.5304C55.8091 20.9293 54.8865 21.522 53.8223 21.6743Z" fill="#42210B"/>
<path d="M17.3168 15.2141C17.9265 15.681 18.4796 16.3256 19.3485 16.0859C19.4754 16.0546 19.6335 16.1815 19.7745 16.2358C19.7663 16.2771 19.764 16.3203 19.7521 16.3639H18.9937C18.9989 16.43 18.9989 16.5032 18.9989 16.5735C19.3005 16.5735 19.656 16.6844 19.8955 16.5469C20.4534 16.2358 20.9545 15.8008 21.573 15.348C21.2761 15.3765 21.1055 15.3952 20.7915 15.4266C21.1422 14.9486 21.504 15.1108 21.7855 15.0134C22.2843 14.8398 22.7558 14.5136 23.1908 14.1736C23.8171 13.6883 23.7539 12.8449 23.1071 12.4087C23.0439 12.3644 22.9359 12.352 22.9141 12.2977C22.623 11.534 22.3503 10.7643 22.0493 10.0082C22.0127 9.92204 21.8203 9.90082 21.6934 9.87065C21.3564 9.78445 21.0181 9.71371 20.7012 9.63763C20.8022 9.32708 20.8694 9.12524 20.961 8.82957C21.0135 8.81831 21.1911 8.78293 21.3924 8.73803C20.9031 8.16256 19.539 8.54558 19.1312 9.38079H20.376C19.6518 9.58623 18.8691 9.5845 18.2493 9.94269C17.3197 10.4822 16.5082 11.279 15.6382 11.9542C14.8225 12.5863 14.7948 13.1205 15.5763 13.7952C16.1476 14.2839 16.7253 14.7609 17.3168 15.2141Z" fill="#42210B"/>
<path d="M46.8917 9.3415C46.4515 9.35565 46.1404 9.57351 45.9284 10.0569C45.5471 10.9152 45.1081 11.7414 44.6678 12.5659C44.362 13.1403 44.4529 13.5829 44.9617 13.9082C45.3258 14.1377 45.7243 14.3166 46.0677 14.5716C46.6652 15.0173 47.1934 15.6501 47.8444 15.9251C48.3172 16.1269 49.0449 16.0744 49.4942 15.7982C50.5731 15.1306 51.5723 14.2971 52.5646 13.4667C52.8436 13.2329 53.1506 12.733 53.0999 12.4255C53.0414 12.0673 52.6313 11.7515 52.3291 11.4823C52.0327 11.2132 51.6686 11.0414 51.3528 10.7977C50.733 10.3172 50.2709 9.51504 49.3453 9.59589C49.3554 9.47793 49.3613 9.39174 49.3696 9.30786C48.5426 9.3197 47.7169 9.32028 46.8917 9.3415Z" fill="#42210B"/>
<path d="M51.6779 15.2539C51.6796 15.2644 51.6165 15.3076 51.5445 15.3625C51.4772 15.2409 51.4111 15.1287 51.3486 15.0077C50.8255 15.4563 50.311 15.8328 49.8758 16.3003C49.6398 16.5536 49.389 16.9667 49.4072 17.2855C49.4385 17.74 49.746 18.0858 50.2578 18.1053C50.9123 18.129 51.5663 18.2211 52.2215 18.2818C52.2215 18.3415 52.2109 18.4004 52.2109 18.46H50.4851C50.7984 18.7604 50.9749 18.9376 51.1867 19.1358C51.0735 19.2121 50.956 19.2935 50.8173 19.3885C51.2718 20.2531 52.029 19.6553 52.6329 19.9575C52.2457 20.0218 51.8602 20.0861 51.434 20.1606C51.8975 20.9544 52.6016 21.1686 53.3305 20.8104C53.4055 20.7749 53.4993 20.7844 53.5826 20.7667C54.8274 20.5264 56.0787 20.3152 57.3235 20.0395C57.9072 19.9138 57.9934 19.4439 57.7881 18.8614C57.0869 18.7652 56.408 18.6767 55.7352 18.5858C55.737 18.512 55.744 18.4382 55.7475 18.3692H57.4752C57.3879 18.2081 57.3147 18.0481 57.2203 17.9058C56.5019 16.8322 55.7718 15.7661 55.0541 14.689C53.8488 12.8687 53.5135 12.8316 52.0066 14.3478C51.7576 14.6022 51.5156 14.8271 51.6779 15.2539Z" fill="#42210B"/>
<path d="M14.8444 18.2751C15.022 18.3714 15.2375 18.3714 15.4434 18.402C15.4576 18.402 15.4776 18.3979 15.4925 18.3961C15.5042 18.3961 15.5155 18.3961 15.5321 18.3979C15.6246 18.3247 15.7215 18.216 15.8171 18.2126C16.5443 18.1948 17.2679 18.2024 18.122 18.2024C17.8109 18.32 17.5901 18.402 17.3535 18.4923C17.386 18.6942 17.4196 18.8972 17.4586 19.171C17.2272 19.2083 17.0318 19.2389 16.7887 19.2779C16.9628 18.991 17.1044 18.7643 17.2472 18.523C16.6027 18.4794 16.0644 18.4368 15.5321 18.3979C15.5208 18.402 15.5155 18.4085 15.5042 18.4161C15.4836 18.4085 15.4665 18.4073 15.4434 18.402C14.8928 18.4887 14.3356 18.5726 13.6604 18.6747C14.1279 18.1275 14.4589 18.0744 14.8444 18.2751ZM14.8444 15.0938C14.8951 15.115 14.9423 15.1385 14.9937 15.1592C14.9241 15.3883 14.8603 15.6161 14.7783 15.9006C14.8444 15.939 14.9837 16.0257 15.107 16.1043C14.7582 16.2707 14.4259 16.4318 14.0239 16.6283C14.3291 16.0563 14.5894 15.5741 14.8444 15.0938ZM16.1594 16.0169C16.4439 16.2329 16.6381 16.3816 16.8883 16.5781C16.4657 16.6448 16.098 16.705 15.6105 16.786C15.8318 16.4785 16.0124 16.2299 16.1594 16.0169ZM11.012 20.5316C12.0024 20.8132 12.9917 21.0645 13.9945 21.3072C14.5197 21.4322 15.1135 21.7151 15.5657 21.5503C16.0909 21.3496 16.4923 20.7363 17.0123 20.2371C16.3176 20.1249 15.758 20.0345 15.2045 19.946C15.2221 19.8824 15.2375 19.8209 15.2523 19.7607C15.8809 19.7607 16.549 19.903 17.1221 19.7129C17.524 19.5778 17.8504 19.0182 18.1291 18.5843C18.8557 17.4582 19.0887 17.4393 17.9201 16.42C17.02 15.6391 16.1039 14.8759 15.2263 14.0596C14.5765 13.4511 14.2199 13.4092 13.6858 14.0879C13.3665 14.4941 13.0966 14.955 12.7633 15.4491H13.2224C11.9888 15.8811 11.7763 17.2753 10.9512 18.1818C11.4357 18.3075 11.7952 18.4044 12.1534 18.5012C11.8159 18.6877 11.4977 18.7267 11.1819 18.7171C10.646 18.6995 10.2942 18.9203 10.2328 19.5565C10.1709 20.1951 10.5782 20.4099 11.012 20.5316Z" fill="#42210B"/>
<path d="M42.6075 12.0835C42.32 12.0416 42.0248 11.9992 41.738 11.9554C41.7445 11.8751 41.7574 11.7966 41.7734 11.7176C41.9433 11.7341 42.1163 11.7513 42.4368 11.7843C42.2591 11.6167 42.1931 11.5541 42.1276 11.4915C42.1706 11.4432 42.2178 11.3935 42.2675 11.3434C42.4179 11.5258 42.5696 11.7087 42.7201 11.8917C42.6853 11.9554 42.6417 12.0198 42.6075 12.0835ZM45.5922 6.79679C43.3735 5.72727 41.2398 5.87713 39.0925 6.14278C39.0843 6.22479 39.0772 6.30809 39.0719 6.39183C39.4154 6.43904 39.753 6.4887 40.0995 6.53764C40.0917 6.58846 40.0847 6.63625 40.0764 6.68635C39.7129 6.70945 39.3551 6.73601 38.815 6.76778C38.991 7.0724 39.0925 7.4124 39.2005 7.4124C40.1202 7.40764 41.0993 7.81723 41.7663 7.04873C42.0072 7.26485 42.2002 7.43955 42.4368 7.65553C42.2113 7.80366 41.9204 7.99134 41.6134 8.18682C41.571 8.02686 41.5361 7.86978 41.5431 7.88523C41.0409 7.82026 40.6324 7.68094 40.2441 7.73883C39.789 7.80611 39.3588 8.04577 38.8624 8.23216V8.71971C39.6055 8.77876 40.3167 8.83607 41.0238 8.89151C41.0238 8.95403 41.0214 9.01668 41.0137 9.07631C40.4518 9.07631 39.8893 9.06678 39.324 9.08093C39.0648 9.0893 38.6894 8.97063 38.7107 9.48171C38.7307 9.78576 38.8334 10.0849 38.9001 10.3907C38.9733 10.4084 39.0447 10.4226 39.1214 10.4367C38.9414 10.53 38.7613 10.6267 38.582 10.7213C38.6918 11.2289 39.6179 11.7465 39.9744 11.4986C40.3857 11.2106 41.0875 11.22 41.6134 11.6379C41.0349 11.668 40.6077 11.688 40.1703 11.7134C40.1703 11.7731 40.1726 11.8375 40.1779 11.9005C40.319 11.9223 40.4678 11.92 40.6005 11.9755C41.1819 12.2258 41.8608 12.0015 42.3854 12.6182C42.7969 13.0958 43.6474 12.9269 43.9572 12.4206C44.7695 11.0955 45.5716 9.76627 46.3336 8.40454C46.5018 8.10006 46.4586 7.64961 46.5131 7.26485C46.4682 7.26124 46.4221 7.2572 46.3749 7.25475C46.2491 7.49859 46.1181 7.73941 45.9913 7.98254C45.9357 7.94716 45.8814 7.90992 45.8212 7.8757C45.9227 7.64961 46.0202 7.42828 46.166 7.0942C45.7239 7.03876 45.3543 6.99329 44.986 6.94665C44.9937 6.88645 44.9984 6.82567 45.0091 6.76778C45.1578 6.77499 45.3096 6.78207 45.5922 6.79679Z" fill="#42210B"/>
<path d="M29.0415 10.3531C28.2583 10.4081 27.4833 10.4652 26.706 10.5237C26.6983 10.4345 26.693 10.3471 26.6859 10.2581C27.4638 10.1407 28.2459 10.1247 29.0415 10.3531ZM24.4488 12.0506C24.4011 11.9344 24.3043 11.697 24.204 11.4562C24.7529 11.422 25.316 11.3895 25.8773 11.3524C25.8891 11.3943 25.9027 11.4333 25.9163 11.4722C25.4364 11.6611 24.9553 11.8499 24.4488 12.0506ZM23.3806 8.24362C23.9691 7.69702 24.5386 8.70403 25.1164 8.22889C25.0811 8.18342 25.0237 8.10849 24.9234 7.9797C25.2521 7.92311 25.5355 7.87475 25.8589 7.81685C25.8171 7.59076 25.7882 7.396 25.758 7.19951C25.7911 7.18883 25.8224 7.1806 25.8589 7.17049C25.948 7.42199 26.0355 7.67464 26.1294 7.94318C25.8867 8.05478 25.6843 8.15266 25.483 8.24954C25.4883 8.28664 25.4943 8.32274 25.5025 8.36172H26.4805C26.1812 8.50219 26.0183 8.5777 25.7326 8.71457C26.147 8.74416 26.4126 8.76308 26.677 8.78314V8.91712H25.7538C25.7445 8.95538 25.738 8.99667 25.7326 9.0345C25.8742 9.11304 26.0183 9.18855 26.1617 9.26766C26.1517 9.30015 26.147 9.33379 26.134 9.36685H25.3118C25.3059 9.42402 25.3059 9.48249 25.3059 9.53793H27.6757C27.6698 9.58456 27.6698 9.63307 27.6627 9.6797C26.9715 9.80242 26.2756 9.92341 25.5638 10.0509C25.647 10.1908 25.6944 10.2705 25.7196 10.3112C24.7204 10.1147 23.7371 9.91749 22.7047 9.71392C22.9261 10.2309 23.0554 10.5958 23.2318 10.9274C23.5393 11.4858 23.8799 12.0164 24.1868 12.5724C24.4678 13.0836 24.845 13.2358 25.3531 13.0588C26.4711 12.671 27.6114 12.3463 28.7097 11.8836C29.0918 11.7196 29.7233 11.6162 29.6317 10.8418C29.5692 10.2929 29.5333 9.73933 29.4264 9.20327C29.3708 8.93358 29.1803 8.69753 29.0178 8.38583C29.0308 8.36403 29.0509 8.32736 29.0681 8.29199C28.8892 8.21763 28.7151 8.08004 28.5369 8.08365C28.1131 8.08365 27.6822 8.18876 27.2555 8.17273C27.0972 8.16739 26.9456 7.93668 26.7909 7.81035C26.8394 7.75015 26.886 7.68576 26.9327 7.6244C27.1257 7.76603 27.3128 7.90896 27.351 7.9361C28.0546 7.81685 28.6249 7.72243 29.3408 7.60433C29.2995 7.21063 29.3508 6.55315 29.1365 6.03196C29.0126 5.7321 28.4542 5.66251 28.0251 5.46183C28.2914 5.43815 28.5014 5.42111 28.7116 5.4022C28.6986 5.32077 28.6904 5.24281 28.6744 5.1637C27.9703 5.31904 27.2654 5.47713 26.5672 5.6306C26.6039 5.90866 26.6339 6.12696 26.6676 6.37311C25.5266 6.04726 24.4513 6.19611 23.2259 6.82168C23.5836 6.8559 23.9282 6.88838 24.2677 6.92029C24.2629 6.98338 24.2558 7.04301 24.25 7.10567C21.9144 7.14277 21.8926 7.15345 21.7148 7.99154C22.0585 8.05478 22.3943 8.12495 22.7331 8.18876C22.9485 8.20579 23.1628 8.22759 23.3806 8.24362Z" fill="#42210B"/>
<path d="M27.6914 43.9889H39.037L39.3421 39.5556L37.6027 39.4258C37.5176 40.0355 37.4167 40.5206 37.2988 40.8837C37.1818 41.243 37.0201 41.524 36.8177 41.7206C36.6205 41.916 36.3567 42.0471 36.0379 42.1102C35.7186 42.1745 35.3107 42.2076 34.822 42.2076H32.6688L39.1462 34.3603V32.9485H28.1241V37.3605L29.7957 37.4255C29.8859 36.8323 29.9768 36.3566 30.0713 36.0036C30.1657 35.6471 30.2909 35.3773 30.4644 35.1879C30.6284 34.999 30.8486 34.8762 31.1255 34.8178C31.3988 34.7617 31.77 34.7305 32.2327 34.7305H34.3398L27.6914 42.5799V43.9889Z" fill="#42210B"/>
<path d="M39.6445 43.9889H50.993L51.2946 39.5556L49.5575 39.4258C49.466 40.0355 49.3681 40.5206 49.2477 40.8837C49.1355 41.243 48.9773 41.524 48.7737 41.7206C48.5719 41.916 48.3074 42.0471 47.9892 42.1102C47.6734 42.1745 47.2656 42.2076 46.7715 42.2076H44.622L51.0986 34.3603V32.9485H40.0801V37.3605L41.7546 37.4255C41.8396 36.8323 41.9275 36.3566 42.0261 36.0036C42.1175 35.6471 42.2463 35.3773 42.4151 35.1879C42.5833 34.999 42.8046 34.8762 43.079 34.8178C43.3535 34.7617 43.7231 34.7305 44.1887 34.7305H46.2994L39.6445 42.5799V43.9889Z" fill="#42210B"/>
<path d="M59.3305 40.5144C59.0843 40.9919 58.7336 41.3916 58.2751 41.7102C57.8206 42.0267 57.2853 42.1866 56.679 42.1866C56.1143 42.1866 55.6993 42.0644 55.4402 41.817C55.1822 41.5728 55.0518 41.2599 55.0518 40.8845C55.0518 40.4767 55.1468 40.1567 55.3339 39.9182C55.5233 39.6768 55.7984 39.4626 56.168 39.2755C56.5374 39.0855 56.9843 38.8978 57.516 38.709C58.0414 38.5219 58.6511 38.2803 59.3305 37.9936V40.5144ZM64.3079 41.5349C64.3079 41.7811 64.2613 41.9953 64.1562 42.1754C64.0552 42.3608 63.9041 42.4468 63.7011 42.4468C63.2808 42.4468 63.0696 42.144 63.0696 41.5349V36.4719C63.0696 35.6856 62.9108 35.0394 62.5832 34.5259C62.2574 34.0118 61.8289 33.6056 61.3101 33.3077C60.7876 33.012 60.194 32.8012 59.527 32.6767C58.8605 32.5527 58.1889 32.4919 57.529 32.4919C56.6762 32.4919 55.9117 32.5745 55.2448 32.744C54.5784 32.9103 54.0148 33.1335 53.5614 33.4174C53.1052 33.6989 52.7545 34.0307 52.5149 34.4072C52.2806 34.782 52.1578 35.1734 52.1578 35.5795C52.1578 36.7104 52.7375 37.2758 53.8984 37.2758C54.4752 37.2758 54.9148 37.1429 55.2106 36.8733C55.5098 36.6036 55.6579 36.247 55.6579 35.7972C55.6579 35.406 55.5352 35.1237 55.2791 34.9485C55.0228 34.7755 54.7236 34.674 54.3748 34.6446C54.6917 34.4273 55.0547 34.2633 55.4626 34.157C55.8675 34.0479 56.3757 33.9923 56.9831 33.9923C57.3868 33.9923 57.7362 34.0626 58.0389 34.1989C58.3311 34.3382 58.5779 34.5182 58.7686 34.7449C58.9509 34.9685 59.0902 35.2271 59.1822 35.5115C59.2684 35.8049 59.3085 36.1 59.3085 36.4058V37.081C58.6451 37.2958 57.9817 37.4699 57.3331 37.6033C56.679 37.7308 56.0634 37.8589 55.482 37.9818C54.9037 38.1045 54.3689 38.2361 53.8743 38.3742C53.3831 38.51 52.96 38.6977 52.6053 38.9374C52.2452 39.1757 51.9678 39.4857 51.7672 39.8616C51.564 40.2393 51.4648 40.7169 51.4648 41.2971C51.4648 42.2232 51.7712 42.9657 52.3868 43.5247C53.0001 44.0813 53.9806 44.3597 55.3339 44.3597C55.9241 44.3597 56.4606 44.2984 56.9382 44.1674C57.4193 44.0358 57.8389 43.858 58.2036 43.6338C58.5626 43.4077 58.8665 43.1522 59.1132 42.8606C59.3605 42.5708 59.5482 42.2675 59.6804 41.9493C59.8232 42.5855 60.1084 43.1115 60.541 43.5247C60.9606 43.9383 61.6282 44.1443 62.5289 44.1443C62.889 44.1443 63.2531 44.1002 63.6174 44.0122C63.9767 43.9266 64.3014 43.7678 64.5923 43.5341C64.8792 43.3034 65.1183 42.9946 65.2972 42.6098C65.4801 42.2285 65.5657 41.7314 65.5657 41.1217V40.4277H64.3079V41.5349Z" fill="#42210B"/>
<path d="M11.7461 24.8072V24.9553C11.6051 24.9895 11.4598 25.0243 11.3153 25.0473C10.7628 25.1277 10.1891 25.1258 9.66196 25.2988C9.13312 25.4735 9.12201 25.1866 9.10252 24.8072H11.7461ZM10.6105 31.0808H12.3795C13.3722 31.0808 14.0664 31.2773 14.4624 31.6733C14.8544 32.0647 15.052 32.6154 15.052 33.3225C15.052 34.3005 14.8544 35 14.4624 35.4214C14.0664 35.8446 13.3722 36.0546 12.3795 36.0546H10.6105V31.0808ZM12.8688 42.3697C11.3654 42.3697 10.6105 42.058 10.6105 41.433V38.2132H13.3397C14.2216 38.2132 15.0119 38.1281 15.7131 37.957C16.412 37.7894 17.007 37.5096 17.4898 37.123C17.9697 36.7364 18.332 36.2287 18.5847 35.6061C18.8384 34.9805 18.9641 34.2179 18.9641 33.3225C18.9641 32.4265 18.8384 31.6911 18.5847 31.1204C18.332 30.5501 17.9697 30.0998 17.4898 29.7663C17.007 29.4334 16.412 29.2067 15.7131 29.0834C15.0119 28.9601 14.2216 28.9005 13.3397 28.9005H13.0819C13.1438 28.6679 13.1538 28.4712 13.0334 28.4271C12.6823 28.4271 8.70404 28.2914 8.35221 28.2914C8.35047 28.2169 8.35047 28.1438 8.3434 28.0699C9.86033 27.9909 11.3778 27.9112 12.8942 27.8344C12.9059 27.7476 12.9143 27.6628 12.9225 27.5806C12.7784 27.4271 12.6291 27.2731 12.4745 27.1097C12.8134 27.1527 13.2613 27.3363 13.3617 27.2012C13.6845 26.762 13.897 26.2208 14.1113 25.6936C14.1962 25.4788 14.1744 25.2073 14.2097 24.8779C13.6969 24.5857 13.4064 25.0868 13.1096 25.5692C12.9862 25.3253 12.8853 25.1187 12.73 24.803C13.2176 24.7428 13.626 24.7287 14.0197 24.6348C14.2464 24.5794 14.5379 24.4571 14.6442 24.2623C14.8437 23.8799 14.9387 23.4254 15.1017 22.9285C14.4441 23.1456 14.5079 22.8287 14.7693 22.3186C13.6969 22.1995 12.9195 21.2993 11.9149 21.582C11.8878 21.461 11.8937 21.268 11.8287 21.2315C11.4245 21.0071 11.0155 20.7592 10.5816 20.6235C10.0155 20.4488 9.51976 20.6696 9.28833 21.2993C8.88697 22.3943 8.53412 23.5127 8.14806 24.6524C8.33806 24.7157 8.47622 24.777 8.62493 24.803C8.73234 24.8189 8.84683 24.7806 8.95959 24.7676C7.88241 25.1979 7.85051 25.2332 7.68708 26.1092C8.24017 26.3819 8.24017 26.3836 7.94969 26.8264C7.89599 26.7001 7.83824 26.5726 7.78034 26.445C7.65459 26.5472 7.44568 26.6233 7.41854 26.7532C7.31171 27.2383 6.98831 27.3629 6.61871 27.4944C6.36028 27.5865 6.48661 28.1933 6.2393 28.3415C5.77586 28.437 4.63502 28.8869 4.17288 29.0597C3.3807 29.3531 2.65883 29.5343 1.94519 29.682C1.47655 29.8496 1.73989 30.3129 1.68676 30.6263H5.43644C6.12654 30.7437 6.46943 31.0371 6.46943 31.5087V41.433C6.46943 42.058 5.86912 42.3697 4.65913 42.3697V44.0418H12.9225" fill="#42210B"/>
<path d="M19.5294 43.9894H27.1989V42.2081C25.94 42.2081 25.3225 41.8834 25.3515 41.2336V32.9277H19.5234V34.6671C20.7558 34.6671 21.3762 34.9989 21.3762 35.6658V41.2336C21.3762 41.8822 20.7571 42.2062 19.5294 42.2081" fill="#42210B"/>
</g>
<defs>
<clipPath id="clip0">
<rect width="68" height="49" fill="white"/>
</clipPath>
</defs>
</svg>
