<svg width="156" height="145" viewBox="0 0 156 145" fill="none" xmlns="http://www.w3.org/2000/svg">
<g clip-path="url(#clip0)">
<path d="M120.567 62.7268C120.007 60.3615 118.198 59.4207 118.198 59.4207C118.198 59.4207 118.474 60.4086 118.232 61.7994C117.666 65.1418 115.364 65.7926 114.736 66.0111C114.795 65.7807 114.861 65.511 114.931 65.1942C115.837 61.3709 113.064 58.9572 111.755 57.5568C110.452 56.1485 109.797 55.0567 109.477 52.5609C109.146 50.0634 110.117 49.7469 110.117 49.7469L109.383 49.9813C102.245 53.9355 104.658 62.9031 105.082 64.3048C104.889 64.1726 104.678 64.0421 104.406 63.8736C101.222 61.8453 96.1713 56.461 94.8557 53.8871C93.5578 51.3075 93.806 48.5796 93.806 48.5796L92.9839 49.2857C89.4757 52.639 89.9553 57.3211 89.9553 57.3211L89.3962 56.3087C88.818 55.2914 87.926 53.9652 86.4597 51.0758C84.9878 48.189 84.1686 45.6147 83.593 40.4651C83.0283 35.3113 87.1941 32.5903 87.1941 32.5903L86.2062 32.8208C85.2317 33.0594 82.7857 33.5269 80.0944 35.9436C77.3988 38.3666 76.7437 43.1189 76.7437 43.1189C76.7437 43.1189 77.8059 45.8478 76.1724 42.027C74.6521 38.4786 69.9809 37.3532 69.314 37.2105C69.4798 37.6093 69.6941 38.0633 69.8892 38.6013C73.4057 48.4072 66.4499 53.4275 66.4499 53.4275L66.624 52.4788C67.4458 47.6081 62.9783 43.9288 62.2425 43.3612C62.2841 43.6526 62.322 44.0014 62.38 44.4447C62.8679 48.4975 59.5212 53.5755 57.9702 55.2914C56.4109 57.0082 54.8381 59.4652 52.8045 60.9855C50.8368 62.4667 48.1953 63.5123 47.919 63.5486C47.9998 63.1728 48.0845 62.7683 48.1804 62.3088C50.0552 53.1806 45.2396 50.9235 45.2396 50.9235V51.6256C45.6493 57.3979 42.307 59.7388 39.9377 63.8736C39.3664 64.856 38.958 66.0757 38.8555 66.9289C42.5845 68.2564 43.6305 71.1109 43.6305 71.1109H48.1857V71.104C47.9121 70.4773 47.7733 69.8061 47.7733 69.0904C47.7733 68.472 47.8973 67.8951 48.1076 67.3535C48.1372 67.275 48.1425 67.1903 48.1857 67.1052C48.4514 66.499 48.8285 65.964 49.3042 65.5058C49.7733 65.0462 50.3205 64.678 50.935 64.4087C51.5416 64.1337 52.2019 63.9976 52.911 63.9976C53.6293 63.9976 54.2988 64.1337 54.9229 64.4087C55.2855 64.5636 55.6115 64.7578 55.9148 64.9734C56.1373 65.1362 56.3542 65.3063 56.5646 65.5058C57.0215 65.964 57.3758 66.499 57.6521 67.1052C57.9231 67.7171 58.0618 68.3804 58.0618 69.0904C58.0618 69.8061 57.9231 70.4773 57.6521 71.104C57.6521 71.1096 57.6455 71.1109 57.6455 71.1109H62.8072C59.4513 66.7172 61.2855 62.5553 63.6643 59.6659C61.2236 64.7373 66.6062 70.0636 67.6172 71.1109H77.2224C76.3557 68.8478 79.9084 67.0528 80.3815 66.4341C81.3975 65.0838 80.9838 63.007 80.9838 63.007L82.0499 64.5702C83.1025 66.1324 83.2709 66.9084 82.3733 68.5462C81.7169 69.7468 82.2088 70.6876 82.186 71.1109H97.5163C97.4758 69.3007 96.2735 68.7901 95.7738 67.247C95.3343 65.8519 96.1578 63.1728 96.8112 62.1687C97.0001 62.3467 96.4743 63.2588 97.7009 64.5405C101.662 68.7064 101.014 69.8008 101.058 71.1109H118.945C119.024 71.015 119.095 70.9263 119.191 70.8102C121.477 67.9208 121.082 64.7901 120.567 62.7268Z" fill="white" fill-opacity="0.8"/>
<path d="M55.4006 65.6358C55.1431 65.4539 54.8738 65.2894 54.5705 65.1615C54.0447 64.935 53.4747 64.811 52.8738 64.811C52.2834 64.811 51.7269 64.935 51.2093 65.1615C50.6918 65.3879 50.2349 65.6939 49.8413 66.0792C49.4384 66.4676 49.123 66.9202 48.8978 67.4298C48.8724 67.4958 48.8615 67.5739 48.8279 67.6359C48.6539 68.0928 48.5596 68.5793 48.5596 69.1008C48.5596 69.6979 48.6769 70.2626 48.8978 70.7976H48.906C49.1299 71.3217 49.4384 71.7842 49.8413 72.1844C50.2349 72.5807 50.6918 72.9001 51.2093 73.1292C51.7269 73.357 52.2834 73.4688 52.8738 73.4688C53.4747 73.4688 54.0447 73.357 54.5705 73.1292C55.1003 72.9001 55.5585 72.5807 55.9399 72.1844C56.3183 71.7842 56.6338 71.3217 56.859 70.7976C57.0907 70.2626 57.2038 69.6979 57.2038 69.1008C57.2038 68.5012 57.0907 67.9471 56.859 67.4298C56.6338 66.9202 56.3305 66.4676 55.9399 66.0792C55.778 65.9134 55.5895 65.7759 55.4006 65.6358Z" fill="white" fill-opacity="0.8"/>
<path d="M78.9496 13.6499C76.0994 13.3292 73.2529 13.0071 70.0157 12.6366C70.6615 12.3241 71.1088 11.8925 71.5251 11.9291C73.5697 12.0963 75.5858 12.3818 77.6142 12.6366C78.0899 12.6933 78.5656 12.778 79.0429 12.8456C79.0159 13.1136 78.978 13.378 78.9496 13.6499ZM80.7746 24.2134C78.5966 24.9683 77.1006 24.4452 77.2005 23.1608C78.2949 23.4789 79.3756 23.7997 80.7746 24.2134ZM70.377 21.9197C70.3216 21.3454 70.075 20.6624 70.2477 20.394C70.6506 19.7782 71.2489 19.3724 71.7638 18.8832C71.8205 19.1852 71.8716 19.4885 71.927 19.7888C73.3877 20.4141 75.0333 19.8293 76.5319 20.3604C74.6114 21.2904 72.2758 19.3995 70.377 21.9197ZM73.6303 8.23502C73.8515 8.22018 74.0994 8.73642 74.3434 9.05157C74.373 9.05157 74.4053 9.0463 74.4294 9.05157V9.0585C76.59 7.21342 79.0561 8.14997 81.396 7.9169C81.489 7.90998 81.6264 7.92481 81.6749 8.0003C81.9808 8.41699 82.1869 9.04366 82.5669 9.24442C83.0133 9.48441 83.5833 9.36705 84.0672 9.60408C83.0133 9.51936 81.7194 10.7282 80.9203 8.59599C80.3569 9.27805 79.8473 9.88857 79.1168 10.778C78.5293 10.3669 77.6208 9.65946 76.6546 9.12179C76.3704 8.95861 75.9201 9.23486 75.5427 9.31299C75.6505 9.53683 75.7556 9.76726 75.9122 10.1015C75.2113 10.1177 74.4808 10.4101 74.4294 9.0585C74.4119 9.07861 74.3958 9.0852 74.381 9.09872C74.373 9.07861 74.3543 9.07201 74.3434 9.05157C73.3877 9.05157 72.5655 9.27805 71.6264 9.91296C70.8243 10.4506 69.4496 9.62023 68.3258 9.5543C67.9942 9.53683 67.6425 10.0409 67.3029 10.3079C67.5779 10.712 67.7935 11.2645 68.1399 11.4722C68.4498 11.6529 68.9054 11.4505 69.2973 11.4129C69.3029 11.5652 69.3217 11.7254 69.3283 11.8886C68.7867 11.9707 68.249 12.0623 67.7219 12.1513C67.2947 14.8683 68.8569 16.4655 70.1762 18.3805C69.5535 18.5367 69.207 18.6284 68.7758 18.7392C69.09 20.452 69.3877 22.0288 69.6844 23.623C70.4119 23.5505 70.9512 23.4951 71.5522 23.4384C71.4658 23.0369 71.3999 22.7362 71.303 22.2714C72.4403 22.7982 73.4632 23.2673 74.4917 23.7338C74.4917 23.8953 74.4957 24.0598 74.5049 24.2134H69.7111C70.6506 29.3887 71.272 28.9182 73.6831 28.6878C75.1332 28.5477 76.5468 28.7821 77.9725 28.6595C79.8473 28.4923 81.7046 28.2309 83.5833 28.1314C84.3487 28.0895 86.2152 25.9075 86.0171 24.9762C85.9713 24.7432 85.5807 24.6258 85.5685 24.6219C85.9917 23.5396 86.45 22.6406 86.6952 21.6526C86.8271 21.1071 86.8152 20.7553 86.6599 20.5503C86.7516 20.5572 86.8271 20.5598 86.9135 20.5677C86.0362 19.8066 85.2639 19.1502 84.501 18.4896C84.1223 18.7688 83.5576 19.3807 83.396 19.262C82.3596 18.5611 81.8486 19.9856 80.9714 19.677C80.9741 19.8442 80.9741 20.0179 80.9902 20.1837C82.3082 20.2661 83.6278 20.3591 84.9391 20.4425C83.8852 20.5354 82.8096 20.425 81.7478 20.425C80.9203 20.4184 79.9027 20.0248 79.2948 20.4748C78.2692 21.2594 77.9485 20.7336 77.3258 19.5086H80.0807V16.4533C80.144 16.4533 80.4338 16.4009 80.714 16.4655C81.9726 16.7269 83.2394 17.0355 84.501 17.3173C84.4404 17.258 84.381 17.2039 84.3177 17.1393C84.3946 17.0665 84.47 16.933 84.5281 16.933C86.0171 17.0071 87.6614 17.4505 87.9904 14.4332C85.2167 14.1082 82.4203 13.7821 79.6291 13.4587C82.3082 13.1581 84.9593 13.1703 87.6169 13.1419C87.8958 13.1419 88.1721 12.925 88.4552 12.8103C88.2505 12.5031 88.0333 12.2054 87.8381 11.8886C87.8055 11.8184 87.8381 11.6796 87.8381 11.5652C88.1384 11.5111 88.4553 11.4505 88.7355 11.4007C88.5469 10.4318 88.3893 9.58924 88.1938 8.56929H87.0793C87.1304 7.89251 86.8891 7.36308 86.0765 7.24441C85.7448 7.19034 85.4066 7.17683 85.067 7.16496C85.1211 6.96552 85.1613 6.76608 85.195 6.57718C85.2866 5.9693 85.2639 5.33735 85.2988 4.72155C84.5347 4.13773 83.8259 5.02484 82.8096 4.51915C81.1507 3.69303 79.0238 4.29696 77.0874 4.29696V4.67837C77.3904 4.76309 77.6897 4.84419 77.993 4.92627C77.9795 5.06505 77.962 5.19461 77.9538 5.33076H68.8378C68.8325 5.16362 68.8325 5.00572 68.8325 4.84419H74.8217C74.8177 4.67837 74.8069 4.51915 74.8003 4.3563C72.8959 4.3563 70.9914 4.26993 69.09 4.41003C68.5925 4.44365 67.9134 5.05154 67.7071 5.61228C67.3758 6.51653 67.3593 7.60966 67.21 8.66489C67.4256 8.67709 67.6787 8.71467 67.9134 8.6972C69.8231 8.53698 71.7167 8.32666 73.6303 8.23502Z" fill="white" fill-opacity="0.8"/>
<path d="M129.992 49.2707C130.13 50.6817 130.257 51.8407 130.358 52.9134C128.995 52.5564 128.746 51.3489 129.992 49.2707ZM139.175 63.8797C139.285 63.9971 139.416 64.1253 139.54 64.2424C139.155 64.4392 138.787 64.6399 138.281 64.9218C139.037 65.2007 139.726 65.4525 140.402 65.6899C140.345 65.8679 140.296 66.0416 140.251 66.2249C138.842 66.0874 137.443 65.9434 135.149 65.7073C136.953 64.8812 138.064 64.3854 139.175 63.8797ZM123.389 50.1845C123.101 50.2248 122.602 50.7235 122.616 50.7423C123.35 52.2409 121.995 51.5549 121.644 51.9245C121.547 52.5416 121.447 53.1857 121.342 53.7854C121.606 53.8757 121.996 53.88 122.057 54.0537C122.723 55.5929 123.23 57.2207 123.973 58.7005C124.665 60.0956 125.351 61.826 126.47 62.5443C127.853 63.4215 127.907 62.7019 129.548 62.9379C131.903 63.2666 135.31 62.0376 137.671 62.2746C138.008 62.749 137.764 63.349 137.769 63.3839C136.884 63.4729 129.664 64.8258 126.778 64.159C126.283 64.5954 126.66 65.9434 127.126 67.3072C127.192 67.5053 129.824 67.6253 129.897 67.8287C129.985 68.1036 127.523 68.4379 127.619 68.7006C127.696 68.9432 127.773 69.1776 127.849 69.3936C128.092 70.2127 126.966 70.0901 127.773 70.7923H153.515C153.416 70.3921 153.558 69.8828 153.442 69.4756C152.312 69.2815 149.134 67.861 147.171 66.7856C146.831 66.8031 146.823 67.1008 146.471 67.1008C146.471 66.9162 145.033 66.3706 145.033 66.1886L146.69 66.2249C145.066 65.2989 143.217 65.1954 141.699 64.0456C141.535 63.9635 141.37 63.8771 141.203 63.8072C139.919 63.2949 139.141 61.4202 138.842 59.8622C138.735 59.2857 138.424 58.7506 138.207 58.2021C137.93 58.3339 137.671 58.4431 137.411 58.5565C137.377 58.3732 137.291 58.0765 137.352 58.0254C138.486 57.1277 137.734 56.1061 137.308 55.4056C136.571 54.1912 136.926 52.0227 134.95 51.8608C134.904 51.8542 134.874 51.7033 134.796 51.5134H135.955C135.819 51.125 135.758 50.8705 135.675 50.6157C134.571 46.8286 133.512 46.226 130.161 47.5727C127.925 48.4835 125.819 49.8368 123.389 50.1845Z" fill="white" fill-opacity="0.8"/>
<path d="M40.034 35.4193C41.4262 36.4854 42.6891 37.9573 44.6729 37.4101C44.9627 37.3386 45.3237 37.6283 45.6457 37.7523C45.627 37.8466 45.6217 37.9451 45.5946 38.0447H43.863C43.8748 38.1957 43.8748 38.3628 43.8748 38.5233C44.5635 38.5233 45.3751 38.7765 45.922 38.4627C47.1958 37.7523 48.34 36.759 49.7523 35.7252C49.0745 35.7902 48.6848 35.833 47.9678 35.9046C48.7686 34.8131 49.5947 35.1836 50.2375 34.9611C51.3765 34.5648 52.4531 33.8198 53.4464 33.0435C54.8764 31.9355 54.732 30.0097 53.2552 29.0138C53.1108 28.9126 52.8642 28.8842 52.8144 28.7603C52.1498 27.0164 51.5271 25.259 50.8398 23.5326C50.7564 23.3358 50.317 23.2873 50.0272 23.2184C49.2578 23.0216 48.4854 22.8601 47.7618 22.6864C47.9922 21.9773 48.1458 21.5164 48.3548 20.8413C48.4748 20.8156 48.8803 20.7348 49.3399 20.6323C48.2227 19.3183 45.1081 20.1929 44.1768 22.0999H47.0191C45.3655 22.569 43.5785 22.5651 42.1633 23.3829C40.0406 24.6149 38.1876 26.4342 36.2011 27.976C34.3386 29.4193 34.2753 30.639 36.0597 32.1795C37.3641 33.2953 38.6834 34.3845 40.034 35.4193Z" fill="white" fill-opacity="0.8"/>
<path d="M107.564 22.0529C106.559 22.0852 105.848 22.5826 105.364 23.6863C104.494 25.6461 103.491 27.5327 102.486 29.4154C101.788 30.7268 101.995 31.7375 103.157 32.4802C103.988 33.0044 104.898 33.4128 105.683 33.995C107.047 35.0126 108.253 36.4575 109.739 37.0855C110.819 37.5464 112.48 37.4264 113.506 36.7957C115.97 35.2714 118.251 33.3683 120.517 31.4721C121.154 30.9384 121.855 29.7968 121.739 29.0947C121.606 28.2768 120.669 27.5558 119.979 26.941C119.303 26.3265 118.471 25.9342 117.75 25.3778C116.335 24.2807 115.28 22.4491 113.166 22.6337C113.189 22.3644 113.203 22.1676 113.222 21.9761C111.333 22.0031 109.448 22.0044 107.564 22.0529Z" fill="white" fill-opacity="0.8"/>
<path d="M118.493 35.5435C118.497 35.5676 118.353 35.6662 118.188 35.7914C118.034 35.5139 117.883 35.2577 117.741 34.9815C116.546 36.0057 115.371 36.8655 114.378 37.9329C113.839 38.5111 113.266 39.4546 113.308 40.1825C113.379 41.2202 114.081 42.0097 115.25 42.0542C116.744 42.1083 118.238 42.3186 119.734 42.4574C119.734 42.5936 119.71 42.7281 119.71 42.8642H115.769C116.484 43.5502 116.888 43.9547 117.371 44.4073C117.113 44.5814 116.844 44.7673 116.528 44.9842C117.565 46.9585 119.294 45.5934 120.673 46.2834C119.789 46.4304 118.909 46.5771 117.936 46.7472C118.994 48.5597 120.602 49.0489 122.266 48.231C122.437 48.1499 122.652 48.1716 122.842 48.1311C125.684 47.5826 128.541 47.1003 131.383 46.4706C132.716 46.1838 132.913 45.1108 132.444 43.7806C130.843 43.5611 129.293 43.359 127.757 43.1513C127.761 42.9829 127.777 42.8144 127.785 42.6568H131.73C131.53 42.2889 131.363 41.9237 131.148 41.5987C129.507 39.1473 127.84 36.7132 126.202 34.2536C123.45 30.0973 122.684 30.0126 119.243 33.4746C118.675 34.0555 118.122 34.5691 118.493 35.5435Z" fill="white" fill-opacity="0.8"/>
<path d="M34.3889 42.4511C34.7944 42.6709 35.2865 42.6709 35.7566 42.7408C35.7889 42.7408 35.8347 42.7316 35.8687 42.7273C35.8954 42.7273 35.9211 42.7273 35.959 42.7316C36.1703 42.5645 36.3915 42.3162 36.6098 42.3083C38.2702 42.2678 39.9225 42.2852 41.8727 42.2852C41.1623 42.5536 40.6583 42.7408 40.118 42.9472C40.1921 43.408 40.2689 43.8715 40.358 44.4969C39.8295 44.582 39.3835 44.6518 38.8284 44.7408C39.2259 44.0858 39.5493 43.5683 39.8753 43.0171C38.4038 42.9175 37.1745 42.8203 35.959 42.7316C35.9333 42.7408 35.9211 42.7557 35.8954 42.7731C35.8483 42.7557 35.8094 42.753 35.7566 42.7408C34.4993 42.939 33.2272 43.1305 31.6854 43.3635C32.7528 42.1142 33.5087 41.9928 34.3889 42.4511ZM34.3889 35.1871C34.5046 35.2356 34.6124 35.2893 34.7297 35.3364C34.5709 35.8596 34.4251 36.3798 34.2379 37.0292C34.3889 37.1169 34.707 37.315 34.9885 37.4944C34.1921 37.8745 33.4332 38.2424 32.5155 38.691C33.2123 37.3849 33.8067 36.2839 34.3889 35.1871ZM37.3914 37.2949C38.0411 37.7881 38.4845 38.1276 39.0558 38.5763C38.0909 38.7286 37.2513 38.8661 36.138 39.051C36.6434 38.3488 37.0558 37.7812 37.3914 37.2949ZM25.6382 47.6036C27.8996 48.2464 30.1584 48.8203 32.4482 49.3745C33.6475 49.66 35.0034 50.3058 36.0358 49.9296C37.2351 49.4714 38.1516 48.071 39.339 46.9311C37.7527 46.6749 36.4749 46.4686 35.211 46.2665C35.2513 46.1211 35.2865 45.9807 35.3202 45.8432C36.7555 45.8432 38.2811 46.1683 39.5895 45.7341C40.5073 45.4255 41.2526 44.1478 41.8889 43.1572C43.548 40.5859 44.0801 40.5427 41.4119 38.2153C39.3565 36.4322 37.2648 34.6897 35.2608 32.8258C33.777 31.4363 32.9628 31.3407 31.7434 32.8904C31.0142 33.8177 30.3981 34.8703 29.6369 35.9984H30.6852C27.8686 36.9847 27.3834 40.1682 25.4994 42.2381C26.6057 42.5252 27.4266 42.7464 28.2444 42.9673C27.4737 43.3932 26.7471 43.4822 26.0262 43.4605C24.8025 43.4202 23.9991 43.9243 23.859 45.3771C23.7176 46.8351 24.6476 47.3257 25.6382 47.6036Z" fill="white" fill-opacity="0.8"/>
<path d="M97.7803 28.3232C97.124 28.2276 96.4498 28.1307 95.7951 28.0308C95.81 27.8475 95.8393 27.6682 95.8759 27.4879C96.2639 27.5255 96.6588 27.5647 97.3907 27.6402C96.9848 27.2575 96.8342 27.1144 96.6845 26.9717C96.7828 26.8612 96.8906 26.7478 97.004 26.6334C97.3475 27.0498 97.6939 27.4675 98.0374 27.8855C97.958 28.0308 97.8584 28.1779 97.7803 28.3232ZM104.596 16.2519C99.5295 13.8098 94.6575 14.152 89.7545 14.7586C89.7357 14.9458 89.7196 15.136 89.7074 15.3272C90.4916 15.435 91.2627 15.5484 92.0539 15.6602C92.0361 15.7762 92.0199 15.8854 92.0011 15.9997C91.1711 16.0525 90.3542 16.1131 89.1209 16.1857C89.5228 16.8812 89.7545 17.6576 90.0011 17.6576C92.101 17.6467 94.3367 18.5819 95.8597 16.8272C96.4096 17.3207 96.8504 17.7196 97.3907 18.2127C96.8757 18.5509 96.2115 18.9795 95.5106 19.4258C95.4137 19.0606 95.3339 18.7019 95.3501 18.7372C94.2032 18.5889 93.2706 18.2707 92.3839 18.4029C91.3448 18.5565 90.3624 19.1038 89.2291 19.5294V20.6426C90.9258 20.7774 92.5497 20.9083 94.1643 21.0349C94.1643 21.1776 94.1587 21.3207 94.1412 21.4569C92.8582 21.4569 91.5739 21.4351 90.283 21.4674C89.6912 21.4865 88.8341 21.2155 88.8826 22.3825C88.9284 23.0768 89.1628 23.7598 89.3151 24.458C89.4822 24.4986 89.6454 24.5309 89.8205 24.5632C89.4094 24.7761 88.9983 24.997 88.5889 25.2129C88.8394 26.372 90.9541 27.5538 91.7681 26.9878C92.7072 26.3301 94.3097 26.3516 95.5106 27.3059C94.1897 27.3745 93.2143 27.4203 92.2154 27.4783C92.2154 27.6145 92.2207 27.7615 92.2329 27.9056C92.5549 27.9553 92.8948 27.9501 93.1978 28.0767C94.5253 28.6483 96.0753 28.136 97.2733 29.5443C98.2128 30.6348 100.155 30.2491 100.862 29.093C102.717 26.0674 104.548 23.0323 106.288 19.923C106.672 19.2277 106.574 18.1992 106.698 17.3207C106.596 17.3124 106.49 17.3032 106.383 17.2976C106.096 17.8544 105.796 18.4042 105.507 18.9594C105.38 18.8786 105.256 18.7936 105.118 18.7154C105.35 18.1992 105.573 17.6938 105.906 16.931C104.896 16.8044 104.052 16.7006 103.211 16.5941C103.229 16.4566 103.24 16.3179 103.264 16.1857C103.604 16.2021 103.95 16.2183 104.596 16.2519Z" fill="white" fill-opacity="0.8"/>
<path d="M66.8055 24.3486C65.0171 24.4742 63.2475 24.6048 61.4727 24.7383C61.4552 24.5346 61.443 24.3351 61.4269 24.1317C63.203 23.8637 64.9888 23.8271 66.8055 24.3486ZM56.3189 28.2247C56.2097 27.9594 55.9889 27.4174 55.7598 26.8675C57.0131 26.7894 58.2988 26.7152 59.5805 26.6305C59.6075 26.7261 59.6385 26.8151 59.6695 26.9041C58.5737 27.3353 57.4753 27.7665 56.3189 28.2247ZM53.8797 19.532C55.2234 18.284 56.5239 20.5833 57.8432 19.4984C57.7624 19.3946 57.6315 19.2235 57.4024 18.9294C58.1531 18.8002 58.8002 18.6898 59.5386 18.5576C59.443 18.0413 59.3771 17.5966 59.3082 17.148C59.3837 17.1236 59.4552 17.1048 59.5386 17.0817C59.742 17.656 59.9418 18.2329 60.156 18.846C59.6019 19.1009 59.1397 19.3244 58.6802 19.5456C58.6924 19.6303 58.7059 19.7127 58.7247 19.8017H60.9578C60.2744 20.1225 59.9025 20.2949 59.2501 20.6074C60.1963 20.675 60.8028 20.7181 61.4064 20.764V21.0699H59.2986C59.2772 21.1572 59.2623 21.2515 59.2501 21.3379C59.5735 21.5172 59.9025 21.6896 60.2299 21.8703C60.2071 21.9445 60.1963 22.0213 60.1666 22.0968H58.2892C58.2757 22.2273 58.2757 22.3608 58.2757 22.4874H63.687C63.6735 22.5939 63.6735 22.7046 63.6573 22.8111C62.0789 23.0913 60.49 23.3676 58.8648 23.6587C59.0547 23.9781 59.1628 24.1601 59.2205 24.253C56.9389 23.8044 54.6937 23.3541 52.3363 22.8893C52.842 24.0697 53.137 24.9028 53.5399 25.66C54.242 26.9351 55.0197 28.1466 55.7205 29.4161C56.362 30.5834 57.2234 30.9309 58.3835 30.5267C60.9363 29.6413 63.5399 28.8999 66.048 27.8433C66.9202 27.4688 68.3621 27.2328 68.1531 25.4645C68.0104 24.2112 67.9283 22.9473 67.6844 21.7233C67.5575 21.1075 67.1223 20.5685 66.7515 19.8568C66.7811 19.807 66.8269 19.7232 66.8662 19.6425C66.4577 19.4727 66.0602 19.1585 65.6534 19.1668C64.6855 19.1668 63.7018 19.4068 62.7274 19.3702C62.366 19.358 62.0199 18.8312 61.6665 18.5428C61.7773 18.4053 61.8838 18.2583 61.9902 18.1182C62.431 18.4415 62.8582 18.7679 62.9456 18.8299C64.552 18.5576 65.8541 18.342 67.4889 18.0723C67.3946 17.1734 67.5116 15.6721 67.0224 14.4821C66.7396 13.7974 65.4645 13.6385 64.4847 13.1802C65.0926 13.1262 65.5723 13.0873 66.0523 13.0441C66.0226 12.8582 66.0038 12.6802 65.9672 12.4995C64.3595 12.8542 62.7501 13.2152 61.1559 13.5656C61.2396 14.2005 61.3082 14.699 61.385 15.261C58.7797 14.517 56.3245 14.8569 53.5263 16.2853C54.3432 16.3634 55.1301 16.4376 55.9051 16.5104C55.8943 16.6545 55.8781 16.7906 55.8649 16.9337C50.5318 17.0184 50.482 17.0428 50.0762 18.9565C50.8608 19.1009 51.6275 19.2611 52.4012 19.4068C52.8931 19.4457 53.3823 19.4955 53.8797 19.532Z" fill="white" fill-opacity="0.8"/>
<path d="M63.7227 101.165H89.6286L90.3252 91.0419L86.3535 90.7455C86.1593 92.1377 85.9289 93.2453 85.6596 94.0744C85.3925 94.8949 85.0233 95.5364 84.5612 95.9854C84.1108 96.4314 83.5086 96.7308 82.7807 96.8748C82.0515 97.0219 81.1202 97.0973 80.0043 97.0973H75.0878L89.8778 79.1793V75.9556H64.7106V86.0298L68.5274 86.1782C68.7334 84.8236 68.9411 83.7374 69.1567 82.9314C69.3723 82.1175 69.6581 81.5014 70.0543 81.0688C70.4288 80.6377 70.9316 80.3571 71.5638 80.2239C72.1879 80.0957 73.0354 80.0245 74.092 80.0245H78.9033L63.7227 97.9475V101.165Z" fill="white" fill-opacity="0.8"/>
<path d="M91.0156 101.165H116.928L117.617 91.0419L113.65 90.7455C113.441 92.1377 113.218 93.2453 112.943 94.0744C112.687 94.8949 112.326 95.5364 111.861 95.9854C111.4 96.4314 110.796 96.7308 110.069 96.8748C109.348 97.0219 108.417 97.0973 107.289 97.0973H102.381L117.169 79.1793V75.9556H92.0102V86.0298L95.8335 86.1782C96.0277 84.8236 96.2285 83.7374 96.4536 82.9314C96.6623 82.1175 96.9563 81.5014 97.3417 81.0688C97.7258 80.6377 98.2311 80.3571 98.8578 80.2239C99.4845 80.0957 100.328 80.0245 101.392 80.0245H106.211L91.0156 97.9475V101.165Z" fill="white" fill-opacity="0.8"/>
<path d="M135.966 93.2125C135.404 94.303 134.603 95.2155 133.556 95.943C132.518 96.6656 131.296 97.0309 129.912 97.0309C128.622 97.0309 127.675 96.7517 127.083 96.187C126.494 95.6292 126.196 94.9148 126.196 94.0577C126.196 93.1264 126.413 92.3959 126.84 91.8513C127.273 91.3002 127.901 90.811 128.745 90.3837C129.588 89.9499 130.609 89.5213 131.823 89.0901C133.022 88.6629 134.414 88.1114 135.966 87.4567V93.2125ZM147.331 95.5428C147.331 96.1049 147.225 96.5941 146.985 97.0052C146.754 97.4284 146.409 97.6249 145.945 97.6249C144.986 97.6249 144.504 96.9336 144.504 95.5428V83.9821C144.504 82.1868 144.141 80.7113 143.393 79.5387C142.649 78.3648 141.67 77.4375 140.486 76.7571C139.293 76.082 137.937 75.6007 136.414 75.3165C134.893 75.0333 133.359 74.8945 131.852 74.8945C129.905 74.8945 128.16 75.0831 126.637 75.4701C125.115 75.8499 123.828 76.3595 122.793 77.0076C121.751 77.6505 120.951 78.408 120.403 79.2677C119.868 80.1235 119.588 81.0172 119.588 81.9445C119.588 84.5267 120.912 85.8177 123.563 85.8177C124.88 85.8177 125.883 85.5144 126.559 84.8986C127.242 84.2828 127.58 83.4685 127.58 82.4417C127.58 81.5483 127.3 80.9038 126.715 80.5036C126.13 80.1087 125.447 79.8769 124.65 79.8097C125.374 79.3136 126.203 78.9391 127.134 78.6964C128.059 78.4472 129.219 78.3203 130.606 78.3203C131.528 78.3203 132.325 78.4809 133.017 78.792C133.684 79.1102 134.247 79.5212 134.683 80.0388C135.099 80.5494 135.417 81.1399 135.627 81.7893C135.824 82.4591 135.916 83.1329 135.916 83.8312V85.373C134.401 85.8635 132.886 86.261 131.405 86.5656C129.912 86.8567 128.506 87.1491 127.179 87.4297C125.858 87.7099 124.637 88.0105 123.507 88.3257C122.386 88.6359 121.42 89.0644 120.61 89.6117C119.788 90.1559 119.154 90.8637 118.696 91.7221C118.232 92.5845 118.006 93.675 118.006 94.9999C118.006 97.1143 118.705 98.8097 120.111 100.086C121.511 101.357 123.75 101.993 126.84 101.993C128.188 101.993 129.413 101.853 130.503 101.554C131.602 101.253 132.56 100.847 133.393 100.335C134.212 99.8191 134.906 99.2356 135.47 98.5697C136.034 97.9081 136.463 97.2155 136.765 96.4889C137.091 97.9417 137.742 99.1427 138.73 100.086C139.688 101.031 141.212 101.501 143.269 101.501C144.091 101.501 144.923 101.4 145.754 101.199C146.575 101.004 147.316 100.641 147.98 100.108C148.635 99.5808 149.181 98.8756 149.59 97.9971C150.007 97.1265 150.203 95.9915 150.203 94.5993V93.0147H147.331V95.5428Z" fill="white" fill-opacity="0.8"/>
<path d="M27.314 57.3618V57.7C26.9919 57.7782 26.6603 57.8576 26.3303 57.91C25.0687 58.0937 23.7587 58.0894 22.5551 58.4843C21.3476 58.8832 21.3222 58.2282 21.2777 57.3618H27.314ZM24.7209 71.6867H28.7602C31.0269 71.6867 32.6119 72.1353 33.5161 73.0396C34.4111 73.9333 34.8624 75.1906 34.8624 76.8052C34.8624 79.0383 34.4111 80.6355 33.5161 81.5977C32.6119 82.564 31.0269 83.0436 28.7602 83.0436H24.7209V71.6867ZM29.8774 97.4631C26.4447 97.4631 24.7209 96.7513 24.7209 95.3243V87.9723H30.9527C32.9663 87.9723 34.7708 87.7781 36.3719 87.3875C37.9678 87.0047 39.3263 86.3659 40.4287 85.4831C41.5244 84.6002 42.3519 83.4412 42.9288 82.0194C43.508 80.591 43.7951 78.8497 43.7951 76.8052C43.7951 74.7594 43.508 73.0801 42.9288 71.777C42.3519 70.4748 41.5244 69.4466 40.4287 68.6851C39.3263 67.925 37.9678 67.4074 36.3719 67.1259C34.7708 66.8444 32.9663 66.7082 30.9527 66.7082H30.364C30.5054 66.1771 30.5281 65.7281 30.2532 65.6273C29.4515 65.6273 20.3678 65.3174 19.5645 65.3174C19.5605 65.1473 19.5605 64.9805 19.5443 64.8117C23.008 64.6314 26.473 64.4494 29.9354 64.274C29.9621 64.0759 29.9812 63.8821 30 63.6945C29.671 63.3441 29.3302 62.9923 28.9771 62.6192C29.7508 62.7174 30.7737 63.1367 31.0028 62.8282C31.7399 61.8254 32.2252 60.5895 32.7144 59.3859C32.9082 58.8954 32.8585 58.2753 32.9392 57.5234C31.7683 56.8561 31.105 58.0004 30.4273 59.1017C30.1454 58.545 29.915 58.0732 29.5606 57.3523C30.6738 57.2148 31.6064 57.1825 32.5054 56.9682C33.023 56.8416 33.6885 56.5624 33.9312 56.1177C34.3867 55.2444 34.6037 54.2067 34.9758 53.072C33.4743 53.5678 33.62 52.8442 34.217 51.6796C31.7683 51.4076 29.9931 49.3522 27.6994 49.9977C27.6374 49.7214 27.6509 49.2807 27.5026 49.1973C26.5795 48.685 25.6456 48.1189 24.655 47.8091C23.3624 47.4102 22.2304 47.9142 21.7019 49.3522C20.7855 51.8523 19.9798 54.4061 19.0983 57.0084C19.5321 57.1528 19.8476 57.2929 20.1872 57.3523C20.4324 57.3885 20.6939 57.3012 20.9513 57.2715C18.4918 58.2539 18.4189 58.3346 18.0457 60.3347C19.3086 60.9574 19.3086 60.9613 18.6454 61.9724C18.5227 61.6839 18.3909 61.3928 18.2587 61.1014C17.9716 61.3348 17.4945 61.5086 17.4326 61.8052C17.1886 62.9129 16.4502 63.1974 15.6063 63.4977C15.0162 63.708 15.3046 65.0936 14.7399 65.4318C13.6818 65.65 11.0768 66.6772 10.0216 67.0718C8.21278 67.7417 6.5645 68.1554 4.93501 68.4926C3.86495 68.8754 4.46624 69.9332 4.34493 70.6489H12.9067C14.4825 70.9169 15.2654 71.5868 15.2654 72.6638V95.3243C15.2654 96.7513 13.8947 97.4631 11.1319 97.4631V101.281H30" fill="white" fill-opacity="0.8"/>
<path d="M45.0858 101.137H62.5981V97.0701C59.7235 97.0701 58.3135 96.3287 58.3798 94.8449V75.8799H45.0723V79.8516C47.8862 79.8516 49.3027 80.6091 49.3027 82.1318V94.8449C49.3027 96.3261 47.8892 97.0658 45.0858 97.0701" fill="white" fill-opacity="0.8"/>
<path d="M14.6701 115.006V120.767H16.1249C19.0924 120.767 19.7325 119.486 19.7325 117.915C19.7325 115.908 18.7434 115.006 16.4739 115.006H14.6701V115.006ZM24.3294 117.304C24.3294 121.116 22.3219 124.404 16.3576 124.404H14.6701V131.648H10.2188V111.253H17.2014C21.3326 111.253 24.3294 112.795 24.3294 117.304" fill="white" fill-opacity="0.8"/>
<path d="M25.7123 115.173H30.1055V131.611H25.7123V115.173V115.173ZM27.836 108.688C29.3199 108.688 30.4254 109.793 30.4254 111.306C30.4254 112.673 29.3199 113.779 27.836 113.779C26.4396 113.779 25.334 112.673 25.334 111.306C25.334 109.793 26.4396 108.688 27.836 108.688" fill="white" fill-opacity="0.8"/>
<path d="M37.0371 128.123H44.3399V131.643H32.2949L31.7129 128.356L38.7537 118.842V118.725H32.1202V115.205H43.3796L43.9616 118.522L37.0371 128.007V128.123V128.123Z" fill="white" fill-opacity="0.8"/>
<path d="M51.0429 128.123H58.3458V131.643H46.3007L45.7188 128.356L52.7595 118.842V118.725H46.1261V115.205H57.3855L57.9675 118.522L51.0429 128.007V128.123V128.123Z" fill="white" fill-opacity="0.8"/>
<path d="M67.8914 125.082C65.0111 124.878 63.5853 125.547 63.5853 126.973C63.5853 127.904 64.2254 128.573 65.3603 128.573C66.4366 128.573 67.3966 128.079 67.8914 127.409V125.082V125.082ZM72.0228 120.368V126.944C72.0228 127.875 72.3721 128.282 73.1574 128.282H73.6229V131.308C72.9247 131.744 72.1684 131.861 71.4408 131.861C69.8698 131.861 68.9679 131.104 68.4734 130.086H68.3568C67.7461 130.901 66.524 131.919 64.1673 131.919C60.9668 131.919 59.3086 129.737 59.3086 127.38C59.3086 123.598 62.7125 121.852 67.8914 122.114V120.834C67.8914 119.001 66.873 118.448 65.5347 118.448C63.9636 118.448 63.1198 119.35 62.7125 120.31L59.5994 118.012C60.2395 117.11 61.8687 114.928 65.5056 114.928C69.6952 114.928 72.0228 116.383 72.0228 120.368" fill="white" fill-opacity="0.8"/>
<path d="M79.6633 113.319V121.552H82.7763C86.1514 121.552 87.4023 120.068 87.4023 117.362C87.4023 114.453 85.7731 113.319 82.6892 113.319H79.6633ZM89.8171 117.101C89.8171 121.174 87.4604 123.589 82.7763 123.589H79.6633V131.648H77.3359V111.253H83.2128C87.2567 111.253 89.8171 112.999 89.8171 117.101" fill="white" fill-opacity="0.8"/>
<path d="M91.7045 115.817H93.9738V131.644H91.7045V115.817V115.817ZM92.6936 110.49C93.6539 110.49 94.3814 111.188 94.3814 112.148C94.3814 113.079 93.6539 113.778 92.6936 113.778C91.7917 113.778 91.0645 113.079 91.0645 112.148C91.0645 111.188 91.7917 110.49 92.6936 110.49Z" fill="white" fill-opacity="0.8"/>
<path d="M98.2747 127.438V117.662H95.918V116.208L98.2747 115.771L98.9729 111.669H100.515V115.829H104.879V117.662H100.515V127.322C100.515 129.096 101.417 129.824 102.813 129.824C104.094 129.824 104.821 129.533 105.228 129.271L105.868 131.075C105.257 131.424 104.21 131.802 102.319 131.802C99.7002 131.802 98.2747 130.435 98.2747 127.438" fill="white" fill-opacity="0.8"/>
<path d="M115.506 124.367C111.694 124.222 108.698 125.153 108.698 127.539C108.698 128.935 109.716 130.07 111.548 130.07C113.353 130.07 114.778 128.993 115.506 127.917V124.367V124.367ZM117.6 120.352V127.509C117.6 128.935 118.037 129.895 119.142 129.895H119.55V131.554C119.346 131.67 119.026 131.728 118.735 131.728C117.164 131.728 116.233 130.884 115.855 129.808H115.738C114.982 130.681 113.701 131.932 111.025 131.932C108.086 131.932 106.457 129.866 106.457 127.713C106.457 124.222 109.89 122.505 115.506 122.593V120.876C115.506 118.286 114.255 117.53 112.16 117.53C110.036 117.53 109.017 118.694 108.552 119.45L106.893 118.141C107.446 117.385 108.93 115.552 112.218 115.552C115.593 115.552 117.6 117.036 117.6 120.352" fill="white" fill-opacity="0.8"/>
<path d="M132.837 131.63H130.567V121.243C130.567 118.828 129.374 117.49 127.163 117.49C125.214 117.49 123.701 118.77 123.148 120.312V131.63H120.879V115.803H122.596L123.061 117.461H123.177C123.614 116.908 125.214 115.482 127.687 115.482C130.858 115.482 132.749 117.199 132.837 120.719V131.63Z" fill="white" fill-opacity="0.8"/>
<path d="M141.241 129.884C144.296 129.884 145.401 127.877 145.401 123.745C145.401 119.497 144.121 117.432 141.066 117.432C138.07 117.432 136.935 119.439 136.935 123.542C136.935 127.789 138.215 129.884 141.241 129.884ZM134.607 123.716C134.607 118.828 136.44 115.482 141.241 115.482C146.071 115.482 147.729 118.741 147.729 123.571C147.729 128.458 145.867 131.863 141.066 131.863C136.266 131.863 134.607 128.575 134.607 123.716Z" fill="white" fill-opacity="0.8"/>
</g>
<defs>
<clipPath id="clip0">
<rect width="156" height="145" fill="white"/>
</clipPath>
</defs>
</svg>
