<svg width="171" height="41" viewBox="0 0 171 41" fill="none" xmlns="http://www.w3.org/2000/svg">
<path d="M167.046 2.05328C154.905 -2.37177 42.5773 2.37295 30.614 4.11745C22.1486 4.75358 13.7196 5.93383 5.39022 8.41212C2.37522 9.30863 1.39534 15.3523 2.16524 19.826C-0.734943 23.9057 0.787423 35.8022 5.0311 34.7261C5.7618 34.541 6.49443 34.3768 7.22586 34.2068C7.6507 37.7485 9.10439 40.8928 11.4591 40.8172C22.6304 40.4562 134.089 35.3363 145.261 34.9753C146.385 34.9383 147.234 34.1679 147.822 32.9853C151.697 32.5402 155.567 32.044 159.434 31.4721C162.27 31.0529 163.612 24.9699 162.838 20.4032C164.507 19.5997 166.163 18.7035 167.8 17.6916C171.433 15.4467 171.193 3.56399 167.046 2.05328Z" fill="#F15A29"/>
</svg>
