<svg width="273" height="317" viewBox="0 0 273 317" fill="none" xmlns="http://www.w3.org/2000/svg">
<path fill-rule="evenodd" clip-rule="evenodd" d="M194.203 61.8328C194.494 61.3634 194.349 60.747 193.88 60.456L179.864 51.7696C179.396 51.4793 178.781 51.6226 178.489 52.09L130.522 128.921L80.7429 89.5635C80.3097 89.221 79.6808 89.2945 79.3383 89.7277L69.1247 102.646C68.7779 103.084 68.8582 103.722 69.303 104.061L132.817 152.475L135.419 154.555C135.887 154.929 136.577 154.81 136.893 154.3L194.203 61.8328Z" fill="#F15A29"/>
<path d="M19.4883 193.867H24.8203C27.25 193.867 29.0117 194.215 30.1055 194.91C31.207 195.597 31.7578 196.695 31.7578 198.203C31.7578 199.226 31.5156 200.066 31.0312 200.722C30.5547 201.379 29.918 201.773 29.1211 201.906V202.023C30.207 202.265 30.9883 202.719 31.4648 203.383C31.9492 204.047 32.1914 204.929 32.1914 206.031C32.1914 207.594 31.625 208.812 30.4922 209.687C29.3672 210.562 27.8359 211 25.8984 211H19.4883V193.867ZM23.1211 200.652H25.2305C26.2148 200.652 26.9258 200.5 27.3633 200.195C27.8086 199.89 28.0312 199.386 28.0312 198.683C28.0312 198.027 27.7891 197.558 27.3047 197.277C26.8281 196.988 26.0703 196.844 25.0312 196.844H23.1211V200.652ZM23.1211 203.535V208H25.4883C26.4883 208 27.2266 207.808 27.7031 207.426C28.1797 207.043 28.418 206.457 28.418 205.668C28.418 204.246 27.4023 203.535 25.3711 203.535H23.1211ZM43.6523 211L42.9609 209.219H42.8672C42.2656 209.976 41.6445 210.504 41.0039 210.801C40.3711 211.09 39.543 211.234 38.5195 211.234C37.2617 211.234 36.2695 210.875 35.543 210.156C34.8242 209.437 34.4648 208.414 34.4648 207.086C34.4648 205.695 34.9492 204.672 35.918 204.015C36.8945 203.351 38.3633 202.984 40.3242 202.914L42.5977 202.844V202.269C42.5977 200.941 41.918 200.277 40.5586 200.277C39.5117 200.277 38.2812 200.594 36.8672 201.226L35.6836 198.812C37.1914 198.023 38.8633 197.629 40.6992 197.629C42.457 197.629 43.8047 198.011 44.7422 198.777C45.6797 199.543 46.1484 200.707 46.1484 202.269V211H43.6523ZM42.5977 204.929L41.2148 204.976C40.1758 205.008 39.4023 205.195 38.8945 205.539C38.3867 205.883 38.1328 206.406 38.1328 207.109C38.1328 208.117 38.7109 208.621 39.8672 208.621C40.6953 208.621 41.3555 208.383 41.8477 207.906C42.3477 207.429 42.5977 206.797 42.5977 206.008V204.929ZM69.3516 211H49.8398V197.898H53.4141V208.316H57.8086V197.898H61.3828V208.316H65.7773V197.898H69.3516V211ZM82.6055 202.937C83.957 202.937 84.9141 202.828 85.4766 202.609C86.0469 202.39 86.332 202.043 86.332 201.566C86.332 201.144 86.125 200.828 85.7109 200.617C85.2969 200.406 84.6133 200.301 83.6602 200.301C83.0586 200.301 82.375 200.375 81.6094 200.523C80.8516 200.672 80.1602 200.875 79.5352 201.133L78.4805 198.636C79.4102 198.285 80.3125 198.035 81.1875 197.886C82.0625 197.73 83.0391 197.652 84.1172 197.652C85.75 197.652 87.0586 197.965 88.043 198.59C89.0273 199.215 89.5195 200.062 89.5195 201.133C89.5195 202.609 88.6484 203.57 86.9062 204.015V204.133C87.9766 204.398 88.7383 204.777 89.1914 205.269C89.6523 205.754 89.8828 206.39 89.8828 207.179C89.8828 207.976 89.625 208.683 89.1094 209.301C88.5938 209.918 87.8477 210.394 86.8711 210.73C85.8945 211.066 84.7461 211.234 83.4258 211.234C81.2383 211.234 79.5586 210.965 78.3867 210.426V207.472C79.0586 207.785 79.793 208.031 80.5898 208.211C81.3945 208.39 82.1719 208.48 82.9219 208.48C84.0859 208.48 84.957 208.351 85.5352 208.094C86.1133 207.828 86.4023 207.453 86.4023 206.969C86.4023 206.437 86.0977 206.047 85.4883 205.797C84.8789 205.539 83.9414 205.41 82.6758 205.41H81.293V202.937H82.6055ZM101.004 211L100.312 209.219H100.219C99.6172 209.976 98.9961 210.504 98.3555 210.801C97.7227 211.09 96.8945 211.234 95.8711 211.234C94.6133 211.234 93.6211 210.875 92.8945 210.156C92.1758 209.437 91.8164 208.414 91.8164 207.086C91.8164 205.695 92.3008 204.672 93.2695 204.015C94.2461 203.351 95.7148 202.984 97.6758 202.914L99.9492 202.844V202.269C99.9492 200.941 99.2695 200.277 97.9102 200.277C96.8633 200.277 95.6328 200.594 94.2188 201.226L93.0352 198.812C94.543 198.023 96.2148 197.629 98.0508 197.629C99.8086 197.629 101.156 198.011 102.094 198.777C103.031 199.543 103.5 200.707 103.5 202.269V211H101.004ZM99.9492 204.929L98.5664 204.976C97.5273 205.008 96.7539 205.195 96.2461 205.539C95.7383 205.883 95.4844 206.406 95.4844 207.109C95.4844 208.117 96.0625 208.621 97.2188 208.621C98.0469 208.621 98.707 208.383 99.1992 207.906C99.6992 207.429 99.9492 206.797 99.9492 206.008V204.929ZM115.781 197.898H119.719L114.527 204.179L120.176 211H116.121L110.766 204.355V211H107.191V197.898H110.766V204.261L115.781 197.898ZM130.371 211L129.68 209.219H129.586C128.984 209.976 128.363 210.504 127.723 210.801C127.09 211.09 126.262 211.234 125.238 211.234C123.98 211.234 122.988 210.875 122.262 210.156C121.543 209.437 121.184 208.414 121.184 207.086C121.184 205.695 121.668 204.672 122.637 204.015C123.613 203.351 125.082 202.984 127.043 202.914L129.316 202.844V202.269C129.316 200.941 128.637 200.277 127.277 200.277C126.23 200.277 125 200.594 123.586 201.226L122.402 198.812C123.91 198.023 125.582 197.629 127.418 197.629C129.176 197.629 130.523 198.011 131.461 198.777C132.398 199.543 132.867 200.707 132.867 202.269V211H130.371ZM129.316 204.929L127.934 204.976C126.895 205.008 126.121 205.195 125.613 205.539C125.105 205.883 124.852 206.406 124.852 207.109C124.852 208.117 125.43 208.621 126.586 208.621C127.414 208.621 128.074 208.383 128.566 207.906C129.066 207.429 129.316 206.797 129.316 206.008V204.929ZM139.816 202.937C141.168 202.937 142.125 202.828 142.688 202.609C143.258 202.39 143.543 202.043 143.543 201.566C143.543 201.144 143.336 200.828 142.922 200.617C142.508 200.406 141.824 200.301 140.871 200.301C140.27 200.301 139.586 200.375 138.82 200.523C138.062 200.672 137.371 200.875 136.746 201.133L135.691 198.636C136.621 198.285 137.523 198.035 138.398 197.886C139.273 197.73 140.25 197.652 141.328 197.652C142.961 197.652 144.27 197.965 145.254 198.59C146.238 199.215 146.73 200.062 146.73 201.133C146.73 202.609 145.859 203.57 144.117 204.015V204.133C145.188 204.398 145.949 204.777 146.402 205.269C146.863 205.754 147.094 206.39 147.094 207.179C147.094 207.976 146.836 208.683 146.32 209.301C145.805 209.918 145.059 210.394 144.082 210.73C143.105 211.066 141.957 211.234 140.637 211.234C138.449 211.234 136.77 210.965 135.598 210.426V207.472C136.27 207.785 137.004 208.031 137.801 208.211C138.605 208.39 139.383 208.48 140.133 208.48C141.297 208.48 142.168 208.351 142.746 208.094C143.324 207.828 143.613 207.453 143.613 206.969C143.613 206.437 143.309 206.047 142.699 205.797C142.09 205.539 141.152 205.41 139.887 205.41H138.504V202.937H139.816ZM168.035 197.898V211H164.449V200.582H159.703V211H156.129V197.898H168.035ZM178.98 211.234C177.441 211.234 176.234 210.676 175.359 209.558H175.172C175.297 210.652 175.359 211.285 175.359 211.457V216.765H171.785V197.898H174.691L175.195 199.597H175.359C176.195 198.301 177.434 197.652 179.074 197.652C180.621 197.652 181.832 198.25 182.707 199.445C183.582 200.64 184.02 202.301 184.02 204.426C184.02 205.824 183.812 207.039 183.398 208.07C182.992 209.101 182.41 209.886 181.652 210.426C180.895 210.965 180.004 211.234 178.98 211.234ZM177.926 200.511C177.043 200.511 176.398 200.785 175.992 201.332C175.586 201.871 175.375 202.765 175.359 204.015V204.402C175.359 205.808 175.566 206.816 175.98 207.426C176.402 208.035 177.066 208.34 177.973 208.34C179.574 208.34 180.375 207.019 180.375 204.379C180.375 203.09 180.176 202.125 179.777 201.484C179.387 200.836 178.77 200.511 177.926 200.511ZM190.43 197.898V203.078C190.43 203.625 190.34 204.961 190.16 207.086L196.207 197.898H200.508V211H197.051V205.773C197.051 204.844 197.129 203.531 197.285 201.836L191.262 211H186.973V197.898H190.43ZM207.844 197.898V202.937H212.836V197.898H216.41V211H212.836V205.597H207.844V211H204.27V197.898H207.844ZM222.152 211H218.285L221.812 205.82C220.969 205.469 220.328 204.961 219.891 204.297C219.461 203.633 219.246 202.851 219.246 201.953C219.246 200.687 219.719 199.695 220.664 198.976C221.617 198.258 222.914 197.898 224.555 197.898H230.648V211H227.074V206.125H225.105L222.152 211ZM222.75 201.976C222.75 202.523 222.965 202.953 223.395 203.265C223.824 203.57 224.387 203.722 225.082 203.722H227.074V200.418H224.625C224.039 200.418 223.578 200.562 223.242 200.851C222.914 201.133 222.75 201.508 222.75 201.976ZM245.227 197.898V200.582H240.938V211H237.363V200.582H233.062V197.898H245.227ZM250.676 205.316H247.816L247.219 193.867H251.273L250.676 205.316ZM247.172 209.324C247.172 208.668 247.348 208.172 247.699 207.836C248.051 207.5 248.562 207.332 249.234 207.332C249.883 207.332 250.383 207.504 250.734 207.847C251.094 208.191 251.273 208.683 251.273 209.324C251.273 209.941 251.094 210.429 250.734 210.789C250.375 211.14 249.875 211.316 249.234 211.316C248.578 211.316 248.07 211.144 247.711 210.801C247.352 210.449 247.172 209.957 247.172 209.324ZM30.3281 233.441H31.7578C33.9922 233.441 35.7188 233.894 36.9375 234.801C38.1562 235.707 38.7656 236.988 38.7656 238.644C38.7656 242.215 36.4062 244 31.6875 244H26.6953V226.867H37.5234V229.867H30.3281V233.441ZM30.3281 241.023H31.5469C32.7734 241.023 33.6719 240.828 34.2422 240.437C34.8125 240.039 35.0977 239.441 35.0977 238.644C35.0977 237.855 34.8086 237.289 34.2305 236.945C33.6523 236.594 32.6602 236.418 31.2539 236.418H30.3281V241.023ZM44.5898 237.426C44.5898 238.722 44.8008 239.703 45.2227 240.367C45.6523 241.031 46.3477 241.363 47.3086 241.363C48.2617 241.363 48.9453 241.035 49.3594 240.379C49.7812 239.715 49.9922 238.73 49.9922 237.426C49.9922 236.129 49.7812 235.156 49.3594 234.508C48.9375 233.859 48.2461 233.535 47.2852 233.535C46.332 233.535 45.6445 233.859 45.2227 234.508C44.8008 235.148 44.5898 236.121 44.5898 237.426ZM53.6484 237.426C53.6484 239.558 53.0859 241.226 51.9609 242.429C50.8359 243.633 49.2695 244.234 47.2617 244.234C46.0039 244.234 44.8945 243.961 43.9336 243.414C42.9727 242.859 42.2344 242.066 41.7188 241.035C41.2031 240.004 40.9453 238.801 40.9453 237.426C40.9453 235.285 41.5039 233.621 42.6211 232.433C43.7383 231.246 45.3086 230.652 47.332 230.652C48.5898 230.652 49.6992 230.926 50.6602 231.472C51.6211 232.019 52.3594 232.804 52.875 233.828C53.3906 234.851 53.6484 236.051 53.6484 237.426ZM68.332 244H64.7578V233.582H61.4648C61.2148 236.511 60.9102 238.699 60.5508 240.144C60.1914 241.582 59.7109 242.625 59.1094 243.273C58.5156 243.914 57.7344 244.234 56.7656 244.234C55.9375 244.234 55.2578 244.109 54.7266 243.859V241C55.1094 241.156 55.4922 241.234 55.875 241.234C56.3203 241.234 56.6914 240.914 56.9883 240.273C57.293 239.633 57.5625 238.566 57.7969 237.074C58.0391 235.574 58.2461 233.515 58.418 230.898H68.332V244ZM75.668 235.961H78.1875C80.2031 235.961 81.6953 236.281 82.6641 236.922C83.6328 237.562 84.1172 238.531 84.1172 239.828C84.1172 242.609 82.1875 244 78.3281 244H72.0938V230.898H75.668V235.961ZM80.543 239.875C80.543 239.367 80.3398 239 79.9336 238.773C79.5273 238.547 78.9219 238.433 78.1172 238.433H75.668V241.527H78.1641C79.75 241.527 80.543 240.976 80.543 239.875ZM106.348 244H86.8359V230.898H90.4102V241.316H94.8047V230.898H98.3789V241.316H102.773V230.898H106.348V244ZM112.957 237.426C112.957 238.722 113.168 239.703 113.59 240.367C114.02 241.031 114.715 241.363 115.676 241.363C116.629 241.363 117.312 241.035 117.727 240.379C118.148 239.715 118.359 238.73 118.359 237.426C118.359 236.129 118.148 235.156 117.727 234.508C117.305 233.859 116.613 233.535 115.652 233.535C114.699 233.535 114.012 233.859 113.59 234.508C113.168 235.148 112.957 236.121 112.957 237.426ZM122.016 237.426C122.016 239.558 121.453 241.226 120.328 242.429C119.203 243.633 117.637 244.234 115.629 244.234C114.371 244.234 113.262 243.961 112.301 243.414C111.34 242.859 110.602 242.066 110.086 241.035C109.57 240.004 109.312 238.801 109.312 237.426C109.312 235.285 109.871 233.621 110.988 232.433C112.105 231.246 113.676 230.652 115.699 230.652C116.957 230.652 118.066 230.926 119.027 231.472C119.988 232.019 120.727 232.804 121.242 233.828C121.758 234.851 122.016 236.051 122.016 237.426ZM130.395 233.195C129.637 233.195 129.043 233.437 128.613 233.922C128.184 234.398 127.938 235.078 127.875 235.961H132.891C132.875 235.078 132.645 234.398 132.199 233.922C131.754 233.437 131.152 233.195 130.395 233.195ZM130.898 244.234C128.789 244.234 127.141 243.652 125.953 242.488C124.766 241.324 124.172 239.676 124.172 237.543C124.172 235.347 124.719 233.652 125.812 232.457C126.914 231.254 128.434 230.652 130.371 230.652C132.223 230.652 133.664 231.179 134.695 232.234C135.727 233.289 136.242 234.746 136.242 236.605V238.34H127.793C127.832 239.355 128.133 240.148 128.695 240.719C129.258 241.289 130.047 241.574 131.062 241.574C131.852 241.574 132.598 241.492 133.301 241.328C134.004 241.164 134.738 240.902 135.504 240.543V243.308C134.879 243.621 134.211 243.851 133.5 244C132.789 244.156 131.922 244.234 130.898 244.234ZM150.703 244.234C146.625 244.234 144.586 241.996 144.586 237.519C144.586 235.293 145.141 233.594 146.25 232.422C147.359 231.242 148.949 230.652 151.02 230.652C152.535 230.652 153.895 230.949 155.098 231.543L154.043 234.308C153.48 234.082 152.957 233.898 152.473 233.758C151.988 233.609 151.504 233.535 151.02 233.535C149.16 233.535 148.23 234.855 148.23 237.496C148.23 240.058 149.16 241.34 151.02 241.34C151.707 241.34 152.344 241.25 152.93 241.07C153.516 240.883 154.102 240.594 154.688 240.203V243.261C154.109 243.629 153.523 243.883 152.93 244.023C152.344 244.164 151.602 244.234 150.703 244.234ZM169.641 230.898V244H166.055V233.582H161.309V244H157.734V230.898H169.641ZM181.711 244L181.02 242.219H180.926C180.324 242.976 179.703 243.504 179.062 243.801C178.43 244.09 177.602 244.234 176.578 244.234C175.32 244.234 174.328 243.875 173.602 243.156C172.883 242.437 172.523 241.414 172.523 240.086C172.523 238.695 173.008 237.672 173.977 237.015C174.953 236.351 176.422 235.984 178.383 235.914L180.656 235.844V235.269C180.656 233.941 179.977 233.277 178.617 233.277C177.57 233.277 176.34 233.594 174.926 234.226L173.742 231.812C175.25 231.023 176.922 230.629 178.758 230.629C180.516 230.629 181.863 231.011 182.801 231.777C183.738 232.543 184.207 233.707 184.207 235.269V244H181.711ZM180.656 237.929L179.273 237.976C178.234 238.008 177.461 238.195 176.953 238.539C176.445 238.883 176.191 239.406 176.191 240.109C176.191 241.117 176.77 241.621 177.926 241.621C178.754 241.621 179.414 241.383 179.906 240.906C180.406 240.429 180.656 239.797 180.656 239.008V237.929ZM193.219 244.234C189.141 244.234 187.102 241.996 187.102 237.519C187.102 235.293 187.656 233.594 188.766 232.422C189.875 231.242 191.465 230.652 193.535 230.652C195.051 230.652 196.41 230.949 197.613 231.543L196.559 234.308C195.996 234.082 195.473 233.898 194.988 233.758C194.504 233.609 194.02 233.535 193.535 233.535C191.676 233.535 190.746 234.855 190.746 237.496C190.746 240.058 191.676 241.34 193.535 241.34C194.223 241.34 194.859 241.25 195.445 241.07C196.031 240.883 196.617 240.594 197.203 240.203V243.261C196.625 243.629 196.039 243.883 195.445 244.023C194.859 244.164 194.117 244.234 193.219 244.234ZM203.707 230.898V236.078C203.707 236.625 203.617 237.961 203.438 240.086L209.484 230.898H213.785V244H210.328V238.773C210.328 237.844 210.406 236.531 210.562 234.836L204.539 244H200.25V230.898H203.707ZM216.75 236.148C216.75 233.14 217.32 230.859 218.461 229.304C219.609 227.742 221.398 226.754 223.828 226.34C225.008 226.136 226.77 225.879 229.113 225.566L229.523 228.683C228.508 228.801 226.707 229.051 224.121 229.433C223.137 229.59 222.402 229.824 221.918 230.136C221.434 230.449 221.07 230.894 220.828 231.472C220.594 232.051 220.449 232.82 220.395 233.781H220.57C220.984 233.14 221.531 232.648 222.211 232.304C222.891 231.961 223.621 231.789 224.402 231.789C226.02 231.789 227.277 232.285 228.176 233.277C229.074 234.261 229.523 235.676 229.523 237.519C229.523 239.644 228.953 241.297 227.812 242.476C226.68 243.648 225.113 244.234 223.113 244.234C221.113 244.234 219.551 243.519 218.426 242.09C217.309 240.652 216.75 238.672 216.75 236.148ZM223.324 241.34C225.02 241.34 225.867 240.172 225.867 237.836C225.867 235.562 225.102 234.426 223.57 234.426C223.148 234.426 222.727 234.523 222.305 234.719C221.891 234.914 221.508 235.172 221.156 235.492C220.812 235.804 220.559 236.121 220.395 236.441C220.395 238.027 220.648 239.242 221.156 240.086C221.664 240.922 222.387 241.34 223.324 241.34ZM235.324 237.426C235.324 238.722 235.535 239.703 235.957 240.367C236.387 241.031 237.082 241.363 238.043 241.363C238.996 241.363 239.68 241.035 240.094 240.379C240.516 239.715 240.727 238.73 240.727 237.426C240.727 236.129 240.516 235.156 240.094 234.508C239.672 233.859 238.98 233.535 238.02 233.535C237.066 233.535 236.379 233.859 235.957 234.508C235.535 235.148 235.324 236.121 235.324 237.426ZM244.383 237.426C244.383 239.558 243.82 241.226 242.695 242.429C241.57 243.633 240.004 244.234 237.996 244.234C236.738 244.234 235.629 243.961 234.668 243.414C233.707 242.859 232.969 242.066 232.453 241.035C231.938 240.004 231.68 238.801 231.68 237.426C231.68 235.285 232.238 233.621 233.355 232.433C234.473 231.246 236.043 230.652 238.066 230.652C239.324 230.652 240.434 230.926 241.395 231.472C242.355 232.019 243.094 232.804 243.609 233.828C244.125 234.851 244.383 236.051 244.383 237.426Z" fill="black"/>
<path d="M13.5322 287H7.77637V277.006H13.5322V278.742H9.89551V280.936H13.2793V282.673H9.89551V285.25H13.5322V287ZM18.5635 287.136C16.1846 287.136 14.9951 285.831 14.9951 283.219C14.9951 281.921 15.3187 280.929 15.9658 280.246C16.613 279.558 17.5404 279.214 18.748 279.214C19.6322 279.214 20.4251 279.387 21.127 279.733L20.5117 281.346C20.1836 281.214 19.8783 281.107 19.5957 281.025C19.3132 280.939 19.0306 280.895 18.748 280.895C17.6634 280.895 17.1211 281.665 17.1211 283.206C17.1211 284.701 17.6634 285.448 18.748 285.448C19.1491 285.448 19.5205 285.396 19.8623 285.291C20.2041 285.181 20.5459 285.013 20.8877 284.785V286.569C20.5505 286.783 20.2087 286.931 19.8623 287.013C19.5205 287.095 19.0876 287.136 18.5635 287.136ZM29.5078 287H27.4229V280.923H25.502C25.3561 282.632 25.1784 283.908 24.9688 284.751C24.7591 285.589 24.4788 286.198 24.1279 286.576C23.7816 286.95 23.3258 287.136 22.7607 287.136C22.2777 287.136 21.8812 287.064 21.5713 286.918V285.25C21.7946 285.341 22.0179 285.386 22.2412 285.386C22.501 285.386 22.7174 285.2 22.8906 284.826C23.0684 284.452 23.2256 283.83 23.3623 282.96C23.5036 282.085 23.6243 280.884 23.7246 279.357H29.5078V287ZM33.7188 279.357V282.379C33.7188 282.698 33.6663 283.477 33.5615 284.717L37.0889 279.357H39.5977V287H37.5811V283.951C37.5811 283.409 37.6266 282.643 37.7178 281.654L34.2041 287H31.7021V279.357H33.7188ZM47.0898 283.165C47.0898 283.921 47.2129 284.493 47.459 284.881C47.7096 285.268 48.1152 285.462 48.6758 285.462C49.2318 285.462 49.6305 285.27 49.8721 284.887C50.1182 284.5 50.2412 283.926 50.2412 283.165C50.2412 282.408 50.1182 281.841 49.8721 281.463C49.626 281.084 49.2227 280.895 48.6621 280.895C48.1061 280.895 47.7051 281.084 47.459 281.463C47.2129 281.836 47.0898 282.404 47.0898 283.165ZM52.374 283.165C52.374 284.409 52.0459 285.382 51.3896 286.084C50.7334 286.786 49.8197 287.136 48.6484 287.136C47.9147 287.136 47.2676 286.977 46.707 286.658C46.1465 286.334 45.7158 285.872 45.415 285.27C45.1143 284.669 44.9639 283.967 44.9639 283.165C44.9639 281.916 45.2897 280.945 45.9414 280.253C46.5931 279.56 47.5091 279.214 48.6895 279.214C49.4232 279.214 50.0703 279.373 50.6309 279.692C51.1914 280.011 51.6221 280.469 51.9229 281.066C52.2236 281.663 52.374 282.363 52.374 283.165ZM61.042 279.357V287H58.9502V280.923H56.1816V287H54.0967V279.357H61.042ZM66.3945 280.697C65.9525 280.697 65.6061 280.838 65.3555 281.121C65.1048 281.399 64.9613 281.795 64.9248 282.31H67.8506C67.8415 281.795 67.707 281.399 67.4473 281.121C67.1875 280.838 66.8366 280.697 66.3945 280.697ZM66.6885 287.136C65.458 287.136 64.4964 286.797 63.8037 286.118C63.111 285.439 62.7646 284.477 62.7646 283.233C62.7646 281.953 63.0837 280.964 63.7217 280.266C64.3643 279.565 65.2507 279.214 66.3809 279.214C67.4609 279.214 68.3018 279.521 68.9033 280.136C69.5049 280.752 69.8057 281.602 69.8057 282.686V283.698H64.877C64.8997 284.29 65.0752 284.753 65.4033 285.086C65.7314 285.418 66.1917 285.585 66.7842 285.585C67.2445 285.585 67.6797 285.537 68.0898 285.441C68.5 285.345 68.9284 285.193 69.375 284.983V286.596C69.0104 286.779 68.6208 286.913 68.2061 287C67.7913 287.091 67.2855 287.136 66.6885 287.136ZM75.6982 287.136C74.8005 287.136 74.0964 286.811 73.5859 286.159H73.4766C73.5495 286.797 73.5859 287.166 73.5859 287.266V290.363H71.501V279.357H73.1963L73.4902 280.348H73.5859C74.0736 279.592 74.7959 279.214 75.7529 279.214C76.6553 279.214 77.3617 279.562 77.8721 280.26C78.3825 280.957 78.6377 281.925 78.6377 283.165C78.6377 283.981 78.5169 284.689 78.2754 285.291C78.0384 285.892 77.6989 286.35 77.2568 286.665C76.8148 286.979 76.2952 287.136 75.6982 287.136ZM75.083 280.882C74.568 280.882 74.1921 281.041 73.9551 281.36C73.7181 281.675 73.5951 282.196 73.5859 282.926V283.151C73.5859 283.971 73.7067 284.559 73.9482 284.915C74.1943 285.27 74.5817 285.448 75.1104 285.448C76.0446 285.448 76.5117 284.678 76.5117 283.137C76.5117 282.385 76.3955 281.823 76.1631 281.449C75.9352 281.071 75.5752 280.882 75.083 280.882ZM85.2139 287L84.8105 285.961H84.7559C84.4049 286.403 84.0426 286.71 83.6689 286.884C83.2998 287.052 82.8167 287.136 82.2197 287.136C81.486 287.136 80.9072 286.927 80.4834 286.508C80.0641 286.088 79.8545 285.491 79.8545 284.717C79.8545 283.905 80.137 283.308 80.7021 282.926C81.2718 282.538 82.1286 282.324 83.2725 282.283L84.5986 282.242V281.907C84.5986 281.132 84.2021 280.745 83.4092 280.745C82.7985 280.745 82.0807 280.929 81.2559 281.299L80.5654 279.89C81.445 279.43 82.4202 279.2 83.4912 279.2C84.5166 279.2 85.3027 279.423 85.8496 279.87C86.3965 280.316 86.6699 280.996 86.6699 281.907V287H85.2139ZM84.5986 283.459L83.792 283.486C83.1859 283.504 82.7347 283.614 82.4385 283.814C82.1423 284.015 81.9941 284.32 81.9941 284.73C81.9941 285.318 82.3314 285.612 83.0059 285.612C83.4889 285.612 83.874 285.473 84.1611 285.195C84.4528 284.917 84.5986 284.548 84.5986 284.088V283.459ZM95.1465 279.357V280.923H92.6445V287H90.5596V280.923H88.0508V279.357H95.1465ZM98.2363 283.165C98.2363 283.921 98.3594 284.493 98.6055 284.881C98.8561 285.268 99.2617 285.462 99.8223 285.462C100.378 285.462 100.777 285.27 101.019 284.887C101.265 284.5 101.388 283.926 101.388 283.165C101.388 282.408 101.265 281.841 101.019 281.463C100.772 281.084 100.369 280.895 99.8086 280.895C99.2526 280.895 98.8516 281.084 98.6055 281.463C98.3594 281.836 98.2363 282.404 98.2363 283.165ZM103.521 283.165C103.521 284.409 103.192 285.382 102.536 286.084C101.88 286.786 100.966 287.136 99.7949 287.136C99.0612 287.136 98.4141 286.977 97.8535 286.658C97.293 286.334 96.8623 285.872 96.5615 285.27C96.2607 284.669 96.1104 283.967 96.1104 283.165C96.1104 281.916 96.4362 280.945 97.0879 280.253C97.7396 279.56 98.6556 279.214 99.8359 279.214C100.57 279.214 101.217 279.373 101.777 279.692C102.338 280.011 102.769 280.469 103.069 281.066C103.37 281.663 103.521 282.363 103.521 283.165ZM109.44 287.136C108.543 287.136 107.839 286.811 107.328 286.159H107.219C107.292 286.797 107.328 287.166 107.328 287.266V290.363H105.243V279.357H106.938L107.232 280.348H107.328C107.816 279.592 108.538 279.214 109.495 279.214C110.397 279.214 111.104 279.562 111.614 280.26C112.125 280.957 112.38 281.925 112.38 283.165C112.38 283.981 112.259 284.689 112.018 285.291C111.781 285.892 111.441 286.35 110.999 286.665C110.557 286.979 110.037 287.136 109.44 287.136ZM108.825 280.882C108.31 280.882 107.934 281.041 107.697 281.36C107.46 281.675 107.337 282.196 107.328 282.926V283.151C107.328 283.971 107.449 284.559 107.69 284.915C107.937 285.27 108.324 285.448 108.853 285.448C109.787 285.448 110.254 284.678 110.254 283.137C110.254 282.385 110.138 281.823 109.905 281.449C109.677 281.071 109.317 280.882 108.825 280.882ZM119.824 279.357V282.297H122.736V279.357H124.821V287H122.736V283.848H119.824V287H117.739V279.357H119.824ZM130.174 280.697C129.732 280.697 129.385 280.838 129.135 281.121C128.884 281.399 128.741 281.795 128.704 282.31H131.63C131.621 281.795 131.486 281.399 131.227 281.121C130.967 280.838 130.616 280.697 130.174 280.697ZM130.468 287.136C129.237 287.136 128.276 286.797 127.583 286.118C126.89 285.439 126.544 284.477 126.544 283.233C126.544 281.953 126.863 280.964 127.501 280.266C128.144 279.565 129.03 279.214 130.16 279.214C131.24 279.214 132.081 279.521 132.683 280.136C133.284 280.752 133.585 281.602 133.585 282.686V283.698H128.656C128.679 284.29 128.854 284.753 129.183 285.086C129.511 285.418 129.971 285.585 130.563 285.585C131.024 285.585 131.459 285.537 131.869 285.441C132.279 285.345 132.708 285.193 133.154 284.983V286.596C132.79 286.779 132.4 286.913 131.985 287C131.571 287.091 131.065 287.136 130.468 287.136ZM142.021 287.136C139.642 287.136 138.452 285.831 138.452 283.219C138.452 281.921 138.776 280.929 139.423 280.246C140.07 279.558 140.997 279.214 142.205 279.214C143.089 279.214 143.882 279.387 144.584 279.733L143.969 281.346C143.641 281.214 143.335 281.107 143.053 281.025C142.77 280.939 142.488 280.895 142.205 280.895C141.12 280.895 140.578 281.665 140.578 283.206C140.578 284.701 141.12 285.448 142.205 285.448C142.606 285.448 142.978 285.396 143.319 285.291C143.661 285.181 144.003 285.013 144.345 284.785V286.569C144.007 286.783 143.666 286.931 143.319 287.013C142.978 287.095 142.545 287.136 142.021 287.136ZM153.177 281.36C153.177 281.77 153.047 282.121 152.787 282.413C152.532 282.7 152.154 282.885 151.652 282.967V283.021C152.195 283.085 152.623 283.272 152.938 283.582C153.257 283.887 153.416 284.265 153.416 284.717C153.416 285.459 153.124 286.027 152.541 286.419C151.958 286.806 151.124 287 150.039 287H146.122V279.357H150.039C151.087 279.357 151.871 279.528 152.391 279.87C152.915 280.207 153.177 280.704 153.177 281.36ZM151.256 284.607C151.256 284.306 151.14 284.09 150.907 283.958C150.675 283.821 150.326 283.753 149.861 283.753H148.207V285.557H149.902C150.344 285.557 150.679 285.475 150.907 285.311C151.14 285.143 151.256 284.908 151.256 284.607ZM151.064 281.524C151.064 281.059 150.695 280.827 149.957 280.827H148.207V282.338H149.718C150.16 282.338 150.495 282.274 150.723 282.146C150.951 282.019 151.064 281.811 151.064 281.524ZM156.239 287H153.983L156.041 283.978C155.549 283.773 155.175 283.477 154.92 283.09C154.669 282.702 154.544 282.247 154.544 281.722C154.544 280.984 154.82 280.405 155.371 279.986C155.927 279.567 156.684 279.357 157.641 279.357H161.195V287H159.11V284.156H157.962L156.239 287ZM156.588 281.736C156.588 282.055 156.713 282.306 156.964 282.488C157.215 282.666 157.543 282.755 157.948 282.755H159.11V280.827H157.682C157.34 280.827 157.071 280.911 156.875 281.08C156.684 281.244 156.588 281.463 156.588 281.736ZM167.423 283.069V279.357H169.364V283.069L172.085 279.357H174.238L171.422 283.021L174.505 287H172.276L169.364 283.124V287H167.423V283.124L164.511 287H162.282L165.365 283.021L162.549 279.357H164.702L167.423 283.069ZM178.764 280.697C178.322 280.697 177.975 280.838 177.725 281.121C177.474 281.399 177.33 281.795 177.294 282.31H180.22C180.211 281.795 180.076 281.399 179.816 281.121C179.557 280.838 179.206 280.697 178.764 280.697ZM179.058 287.136C177.827 287.136 176.866 286.797 176.173 286.118C175.48 285.439 175.134 284.477 175.134 283.233C175.134 281.953 175.453 280.964 176.091 280.266C176.733 279.565 177.62 279.214 178.75 279.214C179.83 279.214 180.671 279.521 181.272 280.136C181.874 280.752 182.175 281.602 182.175 282.686V283.698H177.246C177.269 284.29 177.444 284.753 177.772 285.086C178.101 285.418 178.561 285.585 179.153 285.585C179.614 285.585 180.049 285.537 180.459 285.441C180.869 285.345 181.298 285.193 181.744 284.983V286.596C181.38 286.779 180.99 286.913 180.575 287C180.16 287.091 179.655 287.136 179.058 287.136ZM190.193 279.357V280.923H187.691V287H185.606V280.923H183.098V279.357H190.193ZM194.726 287.136C192.347 287.136 191.157 285.831 191.157 283.219C191.157 281.921 191.481 280.929 192.128 280.246C192.775 279.558 193.702 279.214 194.91 279.214C195.794 279.214 196.587 279.387 197.289 279.733L196.674 281.346C196.346 281.214 196.04 281.107 195.758 281.025C195.475 280.939 195.193 280.895 194.91 280.895C193.826 280.895 193.283 281.665 193.283 283.206C193.283 284.701 193.826 285.448 194.91 285.448C195.311 285.448 195.683 285.396 196.024 285.291C196.366 285.181 196.708 285.013 197.05 284.785V286.569C196.713 286.783 196.371 286.931 196.024 287.013C195.683 287.095 195.25 287.136 194.726 287.136ZM199.989 287H197.733L199.791 283.978C199.299 283.773 198.925 283.477 198.67 283.09C198.419 282.702 198.294 282.247 198.294 281.722C198.294 280.984 198.57 280.405 199.121 279.986C199.677 279.567 200.434 279.357 201.391 279.357H204.945V287H202.86V284.156H201.712L199.989 287ZM200.338 281.736C200.338 282.055 200.463 282.306 200.714 282.488C200.965 282.666 201.293 282.755 201.698 282.755H202.86V280.827H201.432C201.09 280.827 200.821 280.911 200.625 281.08C200.434 281.244 200.338 281.463 200.338 281.736ZM213.866 287.136C211.487 287.136 210.298 285.831 210.298 283.219C210.298 281.921 210.621 280.929 211.269 280.246C211.916 279.558 212.843 279.214 214.051 279.214C214.935 279.214 215.728 279.387 216.43 279.733L215.814 281.346C215.486 281.214 215.181 281.107 214.898 281.025C214.616 280.939 214.333 280.895 214.051 280.895C212.966 280.895 212.424 281.665 212.424 283.206C212.424 284.701 212.966 285.448 214.051 285.448C214.452 285.448 214.823 285.396 215.165 285.291C215.507 285.181 215.849 285.013 216.19 284.785V286.569C215.853 286.783 215.511 286.931 215.165 287.013C214.823 287.095 214.39 287.136 213.866 287.136ZM228.659 281.36C228.659 281.77 228.529 282.121 228.27 282.413C228.014 282.7 227.636 282.885 227.135 282.967V283.021C227.677 283.085 228.105 283.272 228.42 283.582C228.739 283.887 228.898 284.265 228.898 284.717C228.898 285.459 228.607 286.027 228.023 286.419C227.44 286.806 226.606 287 225.521 287H221.604V279.357H225.521C226.57 279.357 227.354 279.528 227.873 279.87C228.397 280.207 228.659 280.704 228.659 281.36ZM226.738 284.607C226.738 284.306 226.622 284.09 226.39 283.958C226.157 283.821 225.809 283.753 225.344 283.753H223.689V285.557H225.385C225.827 285.557 226.162 285.475 226.39 285.311C226.622 285.143 226.738 284.908 226.738 284.607ZM226.547 281.524C226.547 281.059 226.178 280.827 225.439 280.827H223.689V282.338H225.2C225.642 282.338 225.977 282.274 226.205 282.146C226.433 282.019 226.547 281.811 226.547 281.524ZM235.413 287L235.01 285.961H234.955C234.604 286.403 234.242 286.71 233.868 286.884C233.499 287.052 233.016 287.136 232.419 287.136C231.685 287.136 231.106 286.927 230.683 286.508C230.263 286.088 230.054 285.491 230.054 284.717C230.054 283.905 230.336 283.308 230.901 282.926C231.471 282.538 232.328 282.324 233.472 282.283L234.798 282.242V281.907C234.798 281.132 234.401 280.745 233.608 280.745C232.998 280.745 232.28 280.929 231.455 281.299L230.765 279.89C231.644 279.43 232.619 279.2 233.69 279.2C234.716 279.2 235.502 279.423 236.049 279.87C236.596 280.316 236.869 280.996 236.869 281.907V287H235.413ZM234.798 283.459L233.991 283.486C233.385 283.504 232.934 283.614 232.638 283.814C232.341 284.015 232.193 284.32 232.193 284.73C232.193 285.318 232.531 285.612 233.205 285.612C233.688 285.612 234.073 285.473 234.36 285.195C234.652 284.917 234.798 284.548 234.798 284.088V283.459ZM248.654 287H246.706V280.977L246.597 281.401C246.351 282.363 246.13 283.09 245.934 283.582L244.58 287H243.097L241.723 283.554C241.527 283.053 241.317 282.349 241.094 281.442L240.964 280.977V287H239.022V279.357H241.894L243.206 282.618C243.343 282.969 243.468 283.372 243.582 283.828C243.701 284.284 243.78 284.673 243.821 284.997C243.972 284.313 244.088 283.823 244.17 283.527C244.257 283.226 244.35 282.951 244.45 282.7C244.55 282.449 245.004 281.335 245.811 279.357H248.654V287ZM252.865 279.357V282.379C252.865 282.698 252.813 283.477 252.708 284.717L256.235 279.357H258.744V287H256.728V283.951C256.728 283.409 256.773 282.643 256.864 281.654L253.351 287H250.849V279.357H252.865ZM17.4971 300.36C17.4971 300.77 17.3672 301.121 17.1074 301.413C16.8522 301.7 16.474 301.885 15.9727 301.967V302.021C16.515 302.085 16.9434 302.272 17.2578 302.582C17.5768 302.887 17.7363 303.265 17.7363 303.717C17.7363 304.459 17.4447 305.027 16.8613 305.419C16.278 305.806 15.444 306 14.3594 306H10.4424V298.357H14.3594C15.4076 298.357 16.1914 298.528 16.7109 298.87C17.235 299.207 17.4971 299.704 17.4971 300.36ZM15.5762 303.607C15.5762 303.306 15.46 303.09 15.2275 302.958C14.9951 302.821 14.6465 302.753 14.1816 302.753H12.5273V304.557H14.2227C14.6647 304.557 14.9997 304.475 15.2275 304.311C15.46 304.143 15.5762 303.908 15.5762 303.607ZM15.3848 300.524C15.3848 300.059 15.0156 299.827 14.2773 299.827H12.5273V301.338H14.0381C14.4801 301.338 14.8151 301.274 15.043 301.146C15.2708 301.019 15.3848 300.811 15.3848 300.524ZM29.3574 298.357V299.923H26.8555V306H24.7705V299.923H22.2617V298.357H29.3574ZM33.9512 299.697C33.5091 299.697 33.1628 299.838 32.9121 300.121C32.6615 300.399 32.5179 300.795 32.4814 301.31H35.4072C35.3981 300.795 35.2637 300.399 35.0039 300.121C34.7441 299.838 34.3932 299.697 33.9512 299.697ZM34.2451 306.136C33.0146 306.136 32.0531 305.797 31.3604 305.118C30.6676 304.439 30.3213 303.477 30.3213 302.233C30.3213 300.953 30.6403 299.964 31.2783 299.266C31.9209 298.565 32.8073 298.214 33.9375 298.214C35.0176 298.214 35.8584 298.521 36.46 299.136C37.0615 299.752 37.3623 300.602 37.3623 301.686V302.698H32.4336C32.4564 303.29 32.6318 303.753 32.96 304.086C33.2881 304.418 33.7484 304.585 34.3408 304.585C34.8011 304.585 35.2363 304.537 35.6465 304.441C36.0566 304.345 36.485 304.193 36.9316 303.983V305.596C36.5671 305.779 36.1774 305.913 35.7627 306C35.348 306.091 34.8421 306.136 34.2451 306.136ZM40.8896 298.357V301.153C40.8896 301.818 41.1973 302.151 41.8125 302.151C42.2135 302.151 42.585 302.106 42.9268 302.014C43.2731 301.923 43.6217 301.805 43.9727 301.659V298.357H46.0576V306H43.9727V302.965C43.4896 303.22 43.0407 303.4 42.626 303.505C42.2113 303.609 41.8102 303.662 41.4229 303.662C40.5889 303.662 39.944 303.45 39.4883 303.026C39.0326 302.598 38.8047 301.989 38.8047 301.201V298.357H40.8896ZM51.4102 299.697C50.9681 299.697 50.6217 299.838 50.3711 300.121C50.1204 300.399 49.9769 300.795 49.9404 301.31H52.8662C52.8571 300.795 52.7227 300.399 52.4629 300.121C52.2031 299.838 51.8522 299.697 51.4102 299.697ZM51.7041 306.136C50.4736 306.136 49.512 305.797 48.8193 305.118C48.1266 304.439 47.7803 303.477 47.7803 302.233C47.7803 300.953 48.0993 299.964 48.7373 299.266C49.3799 298.565 50.2663 298.214 51.3965 298.214C52.4766 298.214 53.3174 298.521 53.9189 299.136C54.5205 299.752 54.8213 300.602 54.8213 301.686V302.698H49.8926C49.9154 303.29 50.0908 303.753 50.4189 304.086C50.7471 304.418 51.2074 304.585 51.7998 304.585C52.2601 304.585 52.6953 304.537 53.1055 304.441C53.5156 304.345 53.944 304.193 54.3906 303.983V305.596C54.026 305.779 53.6364 305.913 53.2217 306C52.807 306.091 52.3011 306.136 51.7041 306.136ZM58.6016 298.357V301.297H61.5137V298.357H63.5986V306H61.5137V302.848H58.6016V306H56.5166V298.357H58.6016ZM67.8027 298.357V301.379C67.8027 301.698 67.7503 302.477 67.6455 303.717L71.1729 298.357H73.6816V306H71.665V302.951C71.665 302.409 71.7106 301.643 71.8018 300.654L68.2881 306H65.7861V298.357H67.8027ZM79.041 299.697C78.599 299.697 78.2526 299.838 78.002 300.121C77.7513 300.399 77.6077 300.795 77.5713 301.31H80.4971C80.488 300.795 80.3535 300.399 80.0938 300.121C79.834 299.838 79.4831 299.697 79.041 299.697ZM79.335 306.136C78.1045 306.136 77.1429 305.797 76.4502 305.118C75.7575 304.439 75.4111 303.477 75.4111 302.233C75.4111 300.953 75.7301 299.964 76.3682 299.266C77.0107 298.565 77.8971 298.214 79.0273 298.214C80.1074 298.214 80.9482 298.521 81.5498 299.136C82.1514 299.752 82.4521 300.602 82.4521 301.686V302.698H77.5234C77.5462 303.29 77.7217 303.753 78.0498 304.086C78.3779 304.418 78.8382 304.585 79.4307 304.585C79.891 304.585 80.3262 304.537 80.7363 304.441C81.1465 304.345 81.5749 304.193 82.0215 303.983V305.596C81.6569 305.779 81.2673 305.913 80.8525 306C80.4378 306.091 79.932 306.136 79.335 306.136ZM90.8877 299.615C91.8538 299.615 92.6217 299.886 93.1914 300.428C93.7656 300.971 94.0527 301.714 94.0527 302.657C94.0527 303.774 93.7087 304.633 93.0205 305.234C92.3324 305.836 91.348 306.136 90.0674 306.136C88.9554 306.136 88.0576 305.956 87.374 305.596V303.771C87.734 303.963 88.1533 304.12 88.6318 304.243C89.1104 304.361 89.5638 304.421 89.9922 304.421C91.2819 304.421 91.9268 303.892 91.9268 302.835C91.9268 301.828 91.2591 301.324 89.9238 301.324C89.6823 301.324 89.4157 301.349 89.124 301.399C88.8324 301.445 88.5954 301.495 88.4131 301.55L87.5723 301.098L87.9482 296.006H93.3691V297.797H89.8008L89.6162 299.759L89.8555 299.711C90.1335 299.647 90.4775 299.615 90.8877 299.615ZM109.051 306H107.103V299.977L106.993 300.401C106.747 301.363 106.526 302.09 106.33 302.582L104.977 306H103.493L102.119 302.554C101.923 302.053 101.714 301.349 101.49 300.442L101.36 299.977V306H99.4189V298.357H102.29L103.603 301.618C103.739 301.969 103.865 302.372 103.979 302.828C104.097 303.284 104.177 303.673 104.218 303.997C104.368 303.313 104.484 302.823 104.566 302.527C104.653 302.226 104.746 301.951 104.847 301.7C104.947 301.449 105.4 300.335 106.207 298.357H109.051V306ZM113.262 298.357V301.379C113.262 301.698 113.209 302.477 113.104 303.717L116.632 298.357H119.141V306H117.124V302.951C117.124 302.409 117.17 301.643 117.261 300.654L113.747 306H111.245V298.357H113.262ZM123.42 298.357V301.297H126.332V298.357H128.417V306H126.332V302.848H123.42V306H121.335V298.357H123.42ZM129.511 298.357H131.794L133.236 302.657C133.359 303.031 133.444 303.473 133.489 303.983H133.53C133.58 303.514 133.678 303.072 133.824 302.657L135.239 298.357H137.475L134.241 306.977C133.945 307.775 133.521 308.372 132.97 308.768C132.423 309.165 131.783 309.363 131.049 309.363C130.689 309.363 130.336 309.324 129.989 309.247V307.593C130.24 307.652 130.513 307.681 130.81 307.681C131.179 307.681 131.5 307.567 131.773 307.34C132.051 307.116 132.268 306.777 132.423 306.321L132.546 305.945L129.511 298.357ZM144.898 298.357V299.923H142.396V306H140.312V299.923H137.803V298.357H144.898ZM156.909 298.357V306H154.817V299.923H152.049V306H149.964V298.357H156.909ZM160.758 302.165C160.758 302.921 160.881 303.493 161.127 303.881C161.378 304.268 161.783 304.462 162.344 304.462C162.9 304.462 163.299 304.27 163.54 303.887C163.786 303.5 163.909 302.926 163.909 302.165C163.909 301.408 163.786 300.841 163.54 300.463C163.294 300.084 162.891 299.895 162.33 299.895C161.774 299.895 161.373 300.084 161.127 300.463C160.881 300.836 160.758 301.404 160.758 302.165ZM166.042 302.165C166.042 303.409 165.714 304.382 165.058 305.084C164.401 305.786 163.488 306.136 162.316 306.136C161.583 306.136 160.936 305.977 160.375 305.658C159.814 305.334 159.384 304.872 159.083 304.27C158.782 303.669 158.632 302.967 158.632 302.165C158.632 300.916 158.958 299.945 159.609 299.253C160.261 298.56 161.177 298.214 162.357 298.214C163.091 298.214 163.738 298.373 164.299 298.692C164.859 299.011 165.29 299.469 165.591 300.066C165.892 300.663 166.042 301.363 166.042 302.165ZM169.665 301.297C170.453 301.297 171.012 301.233 171.34 301.105C171.673 300.978 171.839 300.775 171.839 300.497C171.839 300.251 171.718 300.066 171.477 299.943C171.235 299.82 170.836 299.759 170.28 299.759C169.929 299.759 169.531 299.802 169.084 299.888C168.642 299.975 168.239 300.094 167.874 300.244L167.259 298.788C167.801 298.583 168.327 298.437 168.838 298.35C169.348 298.259 169.918 298.214 170.547 298.214C171.499 298.214 172.263 298.396 172.837 298.76C173.411 299.125 173.698 299.62 173.698 300.244C173.698 301.105 173.19 301.666 172.174 301.926V301.994C172.798 302.149 173.243 302.37 173.507 302.657C173.776 302.94 173.91 303.311 173.91 303.771C173.91 304.236 173.76 304.649 173.459 305.009C173.158 305.369 172.723 305.647 172.153 305.843C171.584 306.038 170.914 306.136 170.144 306.136C168.868 306.136 167.888 305.979 167.204 305.665V303.942C167.596 304.124 168.024 304.268 168.489 304.373C168.959 304.478 169.412 304.53 169.85 304.53C170.529 304.53 171.037 304.455 171.374 304.304C171.711 304.149 171.88 303.931 171.88 303.648C171.88 303.338 171.702 303.11 171.347 302.965C170.991 302.814 170.444 302.739 169.706 302.739H168.899V301.297H169.665ZM182.599 300.36C182.599 300.77 182.469 301.121 182.209 301.413C181.954 301.7 181.576 301.885 181.074 301.967V302.021C181.617 302.085 182.045 302.272 182.359 302.582C182.678 302.887 182.838 303.265 182.838 303.717C182.838 304.459 182.546 305.027 181.963 305.419C181.38 305.806 180.546 306 179.461 306H175.544V298.357H179.461C180.509 298.357 181.293 298.528 181.812 298.87C182.337 299.207 182.599 299.704 182.599 300.36ZM180.678 303.607C180.678 303.306 180.562 303.09 180.329 302.958C180.097 302.821 179.748 302.753 179.283 302.753H177.629V304.557H179.324C179.766 304.557 180.101 304.475 180.329 304.311C180.562 304.143 180.678 303.908 180.678 303.607ZM180.486 300.524C180.486 300.059 180.117 299.827 179.379 299.827H177.629V301.338H179.14C179.582 301.338 179.917 301.274 180.145 301.146C180.372 301.019 180.486 300.811 180.486 300.524ZM186.16 302.165C186.16 302.921 186.283 303.493 186.529 303.881C186.78 304.268 187.186 304.462 187.746 304.462C188.302 304.462 188.701 304.27 188.942 303.887C189.188 303.5 189.312 302.926 189.312 302.165C189.312 301.408 189.188 300.841 188.942 300.463C188.696 300.084 188.293 299.895 187.732 299.895C187.176 299.895 186.775 300.084 186.529 300.463C186.283 300.836 186.16 301.404 186.16 302.165ZM191.444 302.165C191.444 303.409 191.116 304.382 190.46 305.084C189.804 305.786 188.89 306.136 187.719 306.136C186.985 306.136 186.338 305.977 185.777 305.658C185.217 305.334 184.786 304.872 184.485 304.27C184.185 303.669 184.034 302.967 184.034 302.165C184.034 300.916 184.36 299.945 185.012 299.253C185.663 298.56 186.579 298.214 187.76 298.214C188.493 298.214 189.141 298.373 189.701 298.692C190.262 299.011 190.692 299.469 190.993 300.066C191.294 300.663 191.444 301.363 191.444 302.165ZM195.252 298.357V301.297H198.164V298.357H200.249V306H198.164V302.848H195.252V306H193.167V298.357H195.252ZM204.453 298.357V301.379C204.453 301.698 204.401 302.477 204.296 303.717L207.823 298.357H210.332V306H208.315V302.951C208.315 302.409 208.361 301.643 208.452 300.654L204.938 306H202.437V298.357H204.453ZM218.85 298.357V299.923H216.348V306H214.263V299.923H211.754V298.357H218.85ZM223.443 299.697C223.001 299.697 222.655 299.838 222.404 300.121C222.154 300.399 222.01 300.795 221.974 301.31H224.899C224.89 300.795 224.756 300.399 224.496 300.121C224.236 299.838 223.885 299.697 223.443 299.697ZM223.737 306.136C222.507 306.136 221.545 305.797 220.853 305.118C220.16 304.439 219.813 303.477 219.813 302.233C219.813 300.953 220.132 299.964 220.771 299.266C221.413 298.565 222.299 298.214 223.43 298.214C224.51 298.214 225.351 298.521 225.952 299.136C226.554 299.752 226.854 300.602 226.854 301.686V302.698H221.926C221.949 303.29 222.124 303.753 222.452 304.086C222.78 304.418 223.241 304.585 223.833 304.585C224.293 304.585 224.729 304.537 225.139 304.441C225.549 304.345 225.977 304.193 226.424 303.983V305.596C226.059 305.779 225.67 305.913 225.255 306C224.84 306.091 224.334 306.136 223.737 306.136ZM234.271 298.357V301.297H237.184V298.357H239.269V306H237.184V302.848H234.271V306H232.187V298.357H234.271ZM246.31 306L245.906 304.961H245.852C245.501 305.403 245.138 305.71 244.765 305.884C244.396 306.052 243.912 306.136 243.315 306.136C242.582 306.136 242.003 305.927 241.579 305.508C241.16 305.088 240.95 304.491 240.95 303.717C240.95 302.905 241.233 302.308 241.798 301.926C242.368 301.538 243.224 301.324 244.368 301.283L245.694 301.242V300.907C245.694 300.132 245.298 299.745 244.505 299.745C243.894 299.745 243.176 299.929 242.352 300.299L241.661 298.89C242.541 298.43 243.516 298.2 244.587 298.2C245.612 298.2 246.398 298.423 246.945 298.87C247.492 299.316 247.766 299.996 247.766 300.907V306H246.31ZM245.694 302.459L244.888 302.486C244.282 302.504 243.83 302.614 243.534 302.814C243.238 303.015 243.09 303.32 243.09 303.73C243.09 304.318 243.427 304.612 244.102 304.612C244.585 304.612 244.97 304.473 245.257 304.195C245.549 303.917 245.694 303.548 245.694 303.088V302.459ZM259.551 306H257.603V299.977L257.493 300.401C257.247 301.363 257.026 302.09 256.83 302.582L255.477 306H253.993L252.619 302.554C252.423 302.053 252.214 301.349 251.99 300.442L251.86 299.977V306H249.919V298.357H252.79L254.103 301.618C254.239 301.969 254.365 302.372 254.479 302.828C254.597 303.284 254.677 303.673 254.718 303.997C254.868 303.313 254.984 302.823 255.066 302.527C255.153 302.226 255.246 301.951 255.347 301.7C255.447 301.449 255.9 300.335 256.707 298.357H259.551V306Z" fill="black"/>
</svg>
