<svg width="125" height="81" viewBox="0 0 125 81" fill="none" xmlns="http://www.w3.org/2000/svg">
<g filter="url(#filter0_d)">
<rect x="4" y="4" width="117" height="73" rx="2" fill="white"/>
</g>
<path d="M67 54.1949C67 58.8458 57.5797 62.4035 51.9276 63.2865C46.2754 64.1695 43.0729 64.1695 36.1014 64.1695C27.9507 64.1695 27.8116 66.0381 22.1594 64.1695C13.9863 61.4676 15.377 57.6915 15.377 53.507C15.377 48.9859 12.7417 44.9306 21.406 42.5005C26.9394 40.9485 25.7874 40.7807 33.0871 40.7807C40.0586 40.7807 48.7997 37.9781 54.1884 39.4049C57.4596 40.271 61.5429 39.7634 63.5006 41.6174C66.9819 44.9147 67 51.218 67 54.1949Z" fill="#F15A29"/>
<path d="M22.6748 50.4678H23.8789C24.3359 50.4678 24.6699 50.3096 24.8809 49.9932C25.0977 49.6709 25.2061 49.2432 25.2061 48.71C25.2061 48.2002 25.0947 47.8047 24.8721 47.5234C24.6553 47.2363 24.3623 47.0928 23.9932 47.0928C23.6475 47.0928 23.3633 47.2275 23.1406 47.4971C22.9238 47.7666 22.8154 48.1064 22.8154 48.5166H20.3281C20.3281 47.8486 20.4805 47.251 20.7852 46.7236C21.0957 46.1904 21.5264 45.7744 22.0771 45.4756C22.6338 45.1768 23.249 45.0273 23.9229 45.0273C25.1006 45.0273 26.0234 45.3525 26.6914 46.0029C27.3594 46.6533 27.6934 47.5439 27.6934 48.6748C27.6934 49.2549 27.541 49.7939 27.2363 50.292C26.9375 50.7842 26.542 51.1621 26.0498 51.4258C26.6533 51.6836 27.1016 52.0703 27.3945 52.5859C27.6934 53.1016 27.8428 53.7109 27.8428 54.4141C27.8428 55.5508 27.4795 56.4619 26.7529 57.1475C26.0322 57.833 25.083 58.1758 23.9053 58.1758C22.8096 58.1758 21.9189 57.8389 21.2334 57.165C20.5537 56.4854 20.2139 55.5947 20.2139 54.4932H22.7012C22.7012 54.9502 22.8213 55.334 23.0615 55.6445C23.3018 55.9551 23.6064 56.1104 23.9756 56.1104C24.4033 56.1104 24.7402 55.9521 24.9863 55.6357C25.2383 55.3193 25.3643 54.8975 25.3643 54.3701C25.3643 53.1104 24.875 52.4775 23.8965 52.4717H22.6748V50.4678ZM35.498 45.0713V47.1807H35.3574C34.4258 47.1865 33.6846 47.4678 33.1338 48.0244C32.5889 48.5752 32.2578 49.3486 32.1406 50.3447C32.6738 49.7354 33.3418 49.4307 34.1445 49.4307C35.0703 49.4307 35.8086 49.8262 36.3594 50.6172C36.916 51.4082 37.1943 52.4629 37.1943 53.7812C37.1943 54.6191 37.0361 55.375 36.7197 56.0488C36.4033 56.7227 35.958 57.2471 35.3838 57.6221C34.8154 57.9912 34.1709 58.1758 33.4502 58.1758C32.29 58.1758 31.3584 57.71 30.6553 56.7783C29.958 55.8467 29.6094 54.5928 29.6094 53.0166V52.0938C29.6094 50.6816 29.8291 49.4453 30.2686 48.3848C30.7139 47.3242 31.3525 46.5098 32.1846 45.9414C33.0225 45.3672 33.998 45.0771 35.1113 45.0713H35.498ZM33.3623 51.4873C33.0459 51.4873 32.7793 51.5869 32.5625 51.7861C32.3516 51.9854 32.1934 52.2314 32.0879 52.5244V53.4209C32.0879 54.3232 32.208 54.9971 32.4482 55.4424C32.6885 55.8877 33.0049 56.1104 33.3975 56.1104C33.7959 56.1104 34.1152 55.8965 34.3555 55.4688C34.5957 55.0352 34.7158 54.4814 34.7158 53.8076C34.7158 53.1221 34.5898 52.5654 34.3379 52.1377C34.0918 51.7041 33.7666 51.4873 33.3623 51.4873ZM38.9258 51.707L39.5586 45.2031H45.7549V47.3301H41.5977L41.3691 50.0723C41.8496 49.75 42.3447 49.5889 42.8545 49.5889C43.9092 49.5889 44.7207 49.9639 45.2891 50.7139C45.8633 51.4639 46.1504 52.5244 46.1504 53.8955C46.1504 55.1787 45.8105 56.2129 45.1309 56.998C44.4512 57.7832 43.543 58.1758 42.4062 58.1758C41.7324 58.1758 41.1084 58.0176 40.5342 57.7012C39.96 57.3789 39.5059 56.9336 39.1719 56.3652C38.8438 55.7969 38.6768 55.1523 38.6709 54.4316H41.1318C41.1729 54.9648 41.3047 55.3779 41.5273 55.6709C41.75 55.9639 42.0371 56.1104 42.3887 56.1104C42.7988 56.1104 43.1152 55.9141 43.3379 55.5215C43.5605 55.123 43.6719 54.5312 43.6719 53.7461C43.6719 53.0078 43.5371 52.4512 43.2676 52.0762C43.0039 51.7012 42.6318 51.5137 42.1514 51.5137C41.6826 51.5137 41.3193 51.6748 41.0615 51.9971L40.9033 52.2168L38.9258 51.707ZM57.9717 56.3037H55.748V58H53.1641V56.3037H51.6699V54.1592H53.1641V53.5H51.6699V51.3467H53.1641V45.2031H57.5059C58.7715 45.2031 59.7822 45.5928 60.5381 46.3721C61.2998 47.1514 61.6807 48.1621 61.6807 49.4043C61.6807 50.6582 61.3086 51.6543 60.5645 52.3926C59.8203 53.1309 58.7832 53.5 57.4531 53.5H55.748V54.1592H57.9717V56.3037ZM55.748 51.3467H57.4443C58.5225 51.3467 59.0615 50.7051 59.0615 49.4219C59.0615 48.8184 58.9238 48.3262 58.6484 47.9453C58.373 47.5586 57.9951 47.3652 57.5146 47.3652H55.748V51.3467Z" fill="white"/>
<path d="M110.093 48.0004C109.235 45.5366 107.219 43.11 104.792 42.0645C101.806 40.7579 98.3338 41.2806 95.5338 42.8113C92.5474 44.4165 89.9715 47.0297 88.1422 49.867C86.1263 52.9281 85.4542 56.6986 85.4917 60.3197C85.4917 60.9918 86.4249 61.477 86.9101 60.917C87.9928 59.7225 89.1874 58.6772 90.5315 57.7813C91.166 57.3706 91.8006 56.9227 92.5099 56.6613C93.0326 56.4372 94.2644 55.9147 94.8992 56.0641C95.8324 56.2879 95.7578 57.7066 95.7206 58.4531C95.6831 59.4611 95.3472 60.4318 94.8619 61.2904C94.0406 62.7091 92.7713 63.8291 91.4274 64.7622H91.3901C90.2326 64.5756 89.7101 66.3675 90.9047 66.5543C95.8699 67.3381 101.059 65.9195 104.755 62.485C108.488 58.9759 111.922 53.2268 110.093 48.0004ZM87.1342 58.2293C87.1715 57.52 87.2463 56.8479 87.3583 56.1759C87.6942 56.3254 88.6274 56.7734 88.7394 56.8479C88.1794 57.2586 87.6569 57.7438 87.1342 58.2293ZM91.0913 55.392C90.6808 55.6161 90.3074 55.84 89.8967 56.0641C89.5981 55.84 88.0674 55.0561 87.6194 54.832C87.8808 53.7495 88.2915 52.7041 88.8142 51.6961C89.7847 52.3681 93.4433 54.1975 94.2272 54.4961C93.0699 54.5706 91.8381 55.0186 91.0913 55.392ZM94.7499 53.1895C94.0406 52.7041 90.5688 50.875 89.5608 50.4643C90.1208 49.6429 90.7181 48.8215 91.4274 48.075C91.4647 48.075 95.8324 50.0163 96.5417 50.3522C97.1017 50.5763 97.699 50.9868 98.2965 50.8375C98.5203 50.8002 98.5576 50.5763 98.4831 50.3895C98.2217 49.8295 97.5124 49.5684 96.9897 49.307C96.2431 48.8963 92.5847 47.1418 92.4353 47.067C93.1819 46.3577 94.0033 45.6859 94.8244 45.1259C94.9738 45.0138 95.1231 44.939 95.2726 44.8272C95.4592 44.939 95.6458 45.0138 95.8324 45.0884C96.5792 45.4245 100.462 47.3656 101.47 47.1418C101.731 47.1043 101.843 46.7684 101.731 46.5445C101.208 45.7231 97.4751 44.3418 96.8031 44.0059C98.8938 43.0725 101.283 42.6993 103.523 43.4459C105.24 44.0059 106.92 45.6111 107.891 47.2911C108.189 47.7763 108.376 48.299 108.563 48.8215C108.339 48.747 107.069 48.1122 106.621 47.9256C105.8 47.5897 105.053 48.747 105.912 49.1577C106.397 49.3815 108.413 50.2402 108.899 50.3895C109.011 51.8081 108.749 53.2641 108.227 54.6081C106.435 53.4881 104.381 52.3309 102.366 51.8454C102.029 51.7709 101.768 52.1068 101.918 52.4054C102.366 53.3388 106.584 55.3172 107.629 55.9147C106.995 57.1838 106.211 58.3413 105.352 59.3866C104.643 58.7893 100.798 56.7359 99.7897 56.1013C100.462 55.1679 100.574 53.9734 99.939 52.9281C99.9017 52.8534 99.8642 52.8161 99.8269 52.7416C99.8642 52.7041 99.9017 52.6668 99.939 52.6295C100.499 52.0695 103.821 49.0084 104.568 47.7763C104.829 47.4031 104.344 46.9177 103.934 47.1418C102.701 47.8884 99.5283 51.0988 98.9683 51.6588C98.8938 51.7336 98.8563 51.7709 98.7817 51.8454C97.9976 51.435 97.0644 51.3975 96.2431 51.7336C95.4965 52.0695 95.0113 52.5922 94.7499 53.1895ZM98.371 55.7279C97.8858 56.1759 97.4003 56.1759 96.8778 56.0641C96.7658 55.7654 96.6165 55.5041 96.4299 55.28C96.3178 55.1306 96.2058 55.0186 96.0565 54.9441C95.8699 54.2347 95.9444 53.6002 96.7285 53.2268C97.4378 52.8909 98.2965 53.0775 98.7069 53.7868C99.0803 54.4213 98.8938 55.2054 98.371 55.7279ZM93.3685 64.9116C94.6378 64.0156 95.6831 62.8584 96.3924 61.4025C97.251 61.8504 99.6776 63.1943 100.126 63.4184C97.9976 64.4263 95.6831 64.9488 93.3685 64.9116ZM101.395 62.7836C100.835 62.3356 97.7738 60.6931 96.8778 60.1704C97.139 59.2372 97.2885 58.1545 97.1765 57.1838C97.6244 57.3334 98.1097 57.2959 98.6324 57.072C98.6697 57.1093 103.821 60.0211 104.605 60.2452C103.635 61.2531 102.552 62.0743 101.395 62.7836Z" fill="black"/>
<path d="M29.5029 19.626C28.7054 19.626 28.0879 19.9268 27.6504 20.5283C27.2129 21.1253 26.9941 21.9593 26.9941 23.0303C26.9941 25.2588 27.8304 26.373 29.5029 26.373C30.2048 26.373 31.0547 26.1976 32.0527 25.8467V27.624C31.2324 27.9658 30.3164 28.1367 29.3047 28.1367C27.8509 28.1367 26.7389 27.6969 25.9688 26.8174C25.1986 25.9333 24.8135 24.6663 24.8135 23.0166C24.8135 21.9775 25.0026 21.0684 25.3809 20.2891C25.7591 19.5052 26.3014 18.9059 27.0078 18.4912C27.7188 18.0719 28.5505 17.8623 29.5029 17.8623C30.4736 17.8623 31.4489 18.097 32.4287 18.5664L31.7451 20.2891C31.3714 20.1113 30.9954 19.9564 30.6172 19.8242C30.2389 19.6921 29.8675 19.626 29.5029 19.626ZM40.7617 28.1367C38.3828 28.1367 37.1934 26.8311 37.1934 24.2197C37.1934 22.9209 37.5169 21.9297 38.1641 21.2461C38.8112 20.5579 39.7386 20.2139 40.9463 20.2139C41.8304 20.2139 42.6234 20.387 43.3252 20.7334L42.71 22.3467C42.3818 22.2145 42.0765 22.1074 41.7939 22.0254C41.5114 21.9388 41.2288 21.8955 40.9463 21.8955C39.8617 21.8955 39.3193 22.6657 39.3193 24.2061C39.3193 25.7008 39.8617 26.4482 40.9463 26.4482C41.3473 26.4482 41.7188 26.3958 42.0605 26.291C42.4023 26.1816 42.7441 26.013 43.0859 25.7852V27.5693C42.7487 27.7835 42.4069 27.9316 42.0605 28.0137C41.7188 28.0957 41.2858 28.1367 40.7617 28.1367ZM48.0283 21.6973C47.5863 21.6973 47.2399 21.8385 46.9893 22.1211C46.7386 22.3991 46.5951 22.7956 46.5586 23.3105H49.4844C49.4753 22.7956 49.3408 22.3991 49.0811 22.1211C48.8213 21.8385 48.4704 21.6973 48.0283 21.6973ZM48.3223 28.1367C47.0918 28.1367 46.1302 27.7972 45.4375 27.1182C44.7448 26.4391 44.3984 25.4775 44.3984 24.2334C44.3984 22.9528 44.7174 21.9639 45.3555 21.2666C45.998 20.5648 46.8844 20.2139 48.0146 20.2139C49.0947 20.2139 49.9355 20.5215 50.5371 21.1367C51.1387 21.752 51.4395 22.6019 51.4395 23.6865V24.6982H46.5107C46.5335 25.2907 46.709 25.7533 47.0371 26.0859C47.3652 26.4186 47.8255 26.585 48.418 26.585C48.8783 26.585 49.3135 26.5371 49.7236 26.4414C50.1338 26.3457 50.5622 26.193 51.0088 25.9834V27.5967C50.6442 27.779 50.2546 27.9134 49.8398 28C49.4251 28.0911 48.9193 28.1367 48.3223 28.1367ZM62.7666 28H60.8184V21.9775L60.709 22.4014C60.4629 23.363 60.2419 24.0898 60.0459 24.582L58.6924 28H57.209L55.835 24.5547C55.639 24.0534 55.4294 23.3493 55.2061 22.4424L55.0762 21.9775V28H53.1348V20.3574H56.0059L57.3184 23.6182C57.4551 23.9691 57.5804 24.3724 57.6943 24.8281C57.8128 25.2839 57.8926 25.6735 57.9336 25.9971C58.084 25.3135 58.2002 24.8236 58.2822 24.5273C58.3688 24.2266 58.4622 23.9508 58.5625 23.7002C58.6628 23.4495 59.1162 22.3353 59.9229 20.3574H62.7666V28ZM70.2383 20.3574V21.9229H67.0459V28H64.9609V20.3574H70.2383ZM73.3213 24.165C73.3213 24.9215 73.4443 25.4935 73.6904 25.8809C73.9411 26.2682 74.3467 26.4619 74.9072 26.4619C75.4632 26.4619 75.862 26.2705 76.1035 25.8877C76.3496 25.5003 76.4727 24.9261 76.4727 24.165C76.4727 23.4085 76.3496 22.8411 76.1035 22.4629C75.8574 22.0846 75.4541 21.8955 74.8936 21.8955C74.3376 21.8955 73.9365 22.0846 73.6904 22.4629C73.4443 22.8366 73.3213 23.404 73.3213 24.165ZM78.6055 24.165C78.6055 25.4092 78.2773 26.3822 77.6211 27.084C76.9648 27.7858 76.0511 28.1367 74.8799 28.1367C74.1462 28.1367 73.499 27.9772 72.9385 27.6582C72.3779 27.3346 71.9473 26.8721 71.6465 26.2705C71.3457 25.6689 71.1953 24.9671 71.1953 24.165C71.1953 22.9163 71.5212 21.9456 72.1729 21.2529C72.8245 20.5602 73.7406 20.2139 74.9209 20.2139C75.6546 20.2139 76.3018 20.3734 76.8623 20.6924C77.4229 21.0114 77.8535 21.4694 78.1543 22.0664C78.4551 22.6634 78.6055 23.363 78.6055 24.165ZM82.3447 20.3574V23.3789C82.3447 23.6979 82.2923 24.4772 82.1875 25.7168L85.7148 20.3574H88.2236V28H86.207V24.9512C86.207 24.4089 86.2526 23.6432 86.3438 22.6543L82.8301 28H80.3281V20.3574H82.3447ZM87.6084 17.0693C87.5218 17.9215 87.2005 18.5436 86.6445 18.9355C86.0885 19.3229 85.2865 19.5166 84.2383 19.5166C83.1582 19.5166 82.3584 19.3298 81.8389 18.9561C81.3239 18.5824 81.0345 17.9535 80.9707 17.0693H82.8369C82.8688 17.5387 82.985 17.8691 83.1855 18.0605C83.3906 18.2474 83.7552 18.3408 84.2793 18.3408C84.7396 18.3408 85.0814 18.2383 85.3047 18.0332C85.5326 17.8236 85.6715 17.5023 85.7217 17.0693H87.6084Z" fill="black"/>
<defs>
<filter id="filter0_d" x="0" y="0" width="125" height="81" filterUnits="userSpaceOnUse" color-interpolation-filters="sRGB">
<feFlood flood-opacity="0" result="BackgroundImageFix"/>
<feColorMatrix in="SourceAlpha" type="matrix" values="0 0 0 0 0 0 0 0 0 0 0 0 0 0 0 0 0 0 127 0"/>
<feOffset/>
<feGaussianBlur stdDeviation="2"/>
<feColorMatrix type="matrix" values="0 0 0 0 0 0 0 0 0 0 0 0 0 0 0 0 0 0 0.25 0"/>
<feBlend mode="normal" in2="BackgroundImageFix" result="effect1_dropShadow"/>
<feBlend mode="normal" in="SourceGraphic" in2="effect1_dropShadow" result="shape"/>
</filter>
</defs>
</svg>
